<svg width="50" height="50" viewBox="0 0 50 50" fill="none" xmlns="http://www.w3.org/2000/svg">
<path d="M47.2222 20.8333C47.2222 18.0556 44.268 14.3028 41.6666 15.2778C30.5555 19.4444 15.2777 12.5 15.2777 12.5C12.2097 12.5 5.75412 25.3569 8.33328 26.3889C8.71801 26.5431 9.08467 26.7042 9.44301 26.8653C6.45551 27.8986 5.94856 30.2903 8.33328 30.5556C20.8333 31.9444 17.9111 50 19.4444 50C21.3111 50 23.1736 46.3694 24.1972 43.0556H37.8083C38.2083 46.325 39.0111 50 40.2777 50C41.4805 50 43.9041 45.0806 45.5472 37.3028C46.5666 33.6556 47.2222 28.2306 47.2222 20.8333Z" fill="#CCD6DD"/>
<path d="M13.8889 30.5556C11.1111 30.5556 7.01943 30.6764 4.20416 30.6764C1.38888 30.6764 -0.856956 25.8458 0.9611 24.0347C2.77777 22.2222 8.33332 20.8333 6.94443 15.2778C6.19165 12.2653 12.5 11.1111 15.2778 12.5C21.9667 15.8444 22.2222 26.3889 12.5 26.3889C12.5 26.3889 16.6667 30.5556 13.8889 30.5556ZM41.6667 15.2778C38.075 16.625 34.0486 16.8069 30.2417 16.4417C28.6342 18.4846 27.7658 21.0116 27.7778 23.6111C27.7778 29.7472 32.4403 34.7222 38.1944 34.7222C41.7875 34.7222 44.9528 32.7833 46.8264 29.8319C47.0778 27.2319 47.2222 24.2528 47.2222 20.8333C47.2222 18.0556 44.268 14.3028 41.6667 15.2778Z" fill="#31373D"/>
<path d="M24.3056 38.8889C26.9903 38.8889 29.1667 36.7125 29.1667 34.0278C29.1667 31.3431 26.9903 29.1667 24.3056 29.1667C21.6209 29.1667 19.4445 31.3431 19.4445 34.0278C19.4445 36.7125 21.6209 38.8889 24.3056 38.8889Z" fill="#31373D"/>
<path d="M41.6667 41.6667C43.2008 41.6667 44.4445 40.423 44.4445 38.8889C44.4445 37.3548 43.2008 36.1111 41.6667 36.1111C40.1326 36.1111 38.8889 37.3548 38.8889 38.8889C38.8889 40.423 40.1326 41.6667 41.6667 41.6667Z" fill="#31373D"/>
<path d="M15.2778 12.5C15.2778 13.2667 14.3458 13.8889 13.1945 13.8889C12.0431 13.8889 6.94446 10.4889 6.94446 9.72222C6.94446 8.95556 10.0417 9.29444 11.1111 9.72222C14.5833 11.1111 15.2778 11.7333 15.2778 12.5Z" fill="#CCD6DD"/>
<path d="M11.1111 19.4444C11.8781 19.4444 12.4999 18.8226 12.4999 18.0556C12.4999 17.2885 11.8781 16.6667 11.1111 16.6667C10.344 16.6667 9.72217 17.2885 9.72217 18.0556C9.72217 18.8226 10.344 19.4444 11.1111 19.4444Z" fill="#CCD6DD"/>
<path d="M48.6111 33.3333C48.2427 33.3333 47.8895 33.187 47.629 32.9265C47.3685 32.6661 47.2222 32.3128 47.2222 31.9444V25C47.2222 23 46.443 22.2222 44.4444 22.2222C44.0761 22.2222 43.7228 22.0759 43.4623 21.8154C43.2019 21.555 43.0555 21.2017 43.0555 20.8333C43.0555 20.465 43.2019 20.1117 43.4623 19.8512C43.7228 19.5908 44.0761 19.4444 44.4444 19.4444C47.975 19.4444 50 21.4694 50 25V31.9444C50 32.3128 49.8537 32.6661 49.5932 32.9265C49.3327 33.187 48.9795 33.3333 48.6111 33.3333Z" fill="#31373D"/>
</svg>
