<svg width="50" height="50" viewBox="0 0 50 50" fill="none" xmlns="http://www.w3.org/2000/svg">
<path d="M10.3334 10.4208C8.94449 4.86528 15.4542 2.0875 21.4445 4.86528C22.7042 5.45 22.7612 6.69306 21.4445 6.25417C17.2778 4.86528 13.1112 7.64306 15.8889 11.8097C17.4292 14.1208 11.3987 14.6819 10.3334 10.4208Z" fill="#FFAC33"/>
<path d="M8.52222 8.03472C7.13333 2.47917 13.643 -0.298611 19.6333 2.47917C20.893 3.06389 20.9514 4.30694 19.6333 3.86806C15.4667 2.47917 11.3 5.25694 14.0778 9.42361C15.6194 11.7347 9.5875 12.2944 8.52222 8.03472Z" fill="#FFCC4D"/>
<path d="M6.9445 20.5347C6.9445 26.0903 4.16672 27.2389 4.16672 26.0903C4.16672 23.3125 2.77783 26.0903 2.77783 24.7014V20.5347C2.77783 18.2333 3.70978 16.3681 4.86117 16.3681C6.01255 16.3681 6.9445 18.2333 6.9445 20.5347Z" fill="#E1E8ED"/>
<path d="M48.8319 14.5694C47.8875 12.2875 45.6194 10.8125 43.0555 10.8125C42.6872 10.8125 42.3339 10.9588 42.0734 11.2193C41.8129 11.4798 41.6666 11.833 41.6666 12.2014C41.6666 12.5697 41.8129 12.923 42.0734 13.1835C42.3339 13.4439 42.6872 13.5903 43.0555 13.5903C44.4916 13.5903 45.7513 14.3917 46.2666 15.6333C46.7402 16.7778 46.5 18.075 45.6347 19.3097C44.268 17.2181 42.0208 15.6736 38.8902 15.6736C35.5694 15.6736 28.7805 16.6653 23.8513 17.4639C23.7773 17.3268 23.6976 17.1929 23.6125 17.0625C20.8347 12.8958 18.0569 5.73333 13.8902 5.73333C8.33468 5.73333 0.00134277 12.6583 0.00134277 18.4514C0.00134277 21.9847 7.97079 22.5194 10.3986 22.6014C11.3666 24.5875 12.3625 26.6764 13.4986 28.6153C13.5902 28.9 13.7138 29.2111 13.8902 29.5639C18.0569 37.8972 18.2222 49.7028 20.1402 49.7028C22.0583 49.7028 23.6125 42.9569 23.6125 37.2028C23.6125 36.9931 23.6069 36.7875 23.6027 36.5819C27.9444 37.4833 32.7791 37.0292 37.043 35.7347C39.0541 42.7417 39.5013 49.7042 40.9736 49.7042C42.8375 49.7042 44.3527 37.4569 44.4375 31.4819C46.2722 29.4806 47.2222 27.0972 47.2222 24.7014C47.2222 23.8611 47.1027 22.9931 46.8777 22.1417C49.1194 19.8583 49.8541 17.0361 48.8319 14.5694Z" fill="#CCD6DD"/>
<path d="M9.72226 14.2847C10.4893 14.2847 11.1112 13.6629 11.1112 12.8958C11.1112 12.1288 10.4893 11.5069 9.72226 11.5069C8.9552 11.5069 8.33337 12.1288 8.33337 12.8958C8.33337 13.6629 8.9552 14.2847 9.72226 14.2847Z" fill="#292F33"/>
</svg>
