<svg width="200" height="200" viewBox="0 0 200 200" fill="none" xmlns="http://www.w3.org/2000/svg">
<path d="M31.0715 53.9805C9.20215 80.686 9.20215 119.314 31.0715 146.019C33.5612 149.059 38.1446 149.261 40.9233 146.482L62.8185 124.587C63.4396 123.966 63.5151 122.99 63.0073 122.273C61.9985 120.848 61.4341 119.087 61.5177 117.19C61.7026 112.994 65.1187 109.578 69.3144 109.393C71.2116 109.309 72.973 109.874 74.3978 110.883C75.1148 111.39 76.0906 111.315 76.7117 110.694L83.8683 103.537C85.8218 101.584 85.8218 98.4167 83.8683 96.4634L68.4484 81.0434C67.9868 80.5819 67.3136 80.4165 66.6835 80.5882C65.6193 80.878 64.4837 80.9942 63.3075 80.901C58.5257 80.5217 54.6657 76.6616 54.2868 71.8797C54.1936 70.7038 54.3101 69.5684 54.5997 68.5045C54.7712 67.8745 54.606 67.2014 54.1444 66.7397L40.9229 53.5182C38.1448 50.7391 33.5612 50.9402 31.0715 53.9805ZM45.3983 125.733C45.3983 130.247 41.7387 133.907 37.2245 133.907C32.7102 133.907 29.0506 130.247 29.0506 125.733C29.0506 121.219 32.7102 117.559 37.2245 117.559C41.7387 117.559 45.3983 121.219 45.3983 125.733ZM55.504 107.557C55.504 110.085 53.455 112.134 50.9276 112.134C48.4003 112.134 46.3512 110.085 46.3512 107.557C46.3512 105.03 48.4003 102.981 50.9276 102.981C53.455 102.981 55.504 105.03 55.504 107.557ZM31.7696 101.788C31.7696 105.141 29.051 107.86 25.6977 107.86C22.3444 107.86 19.6258 105.141 19.6258 101.788C19.6258 98.4345 22.3444 95.7159 25.6977 95.7159C29.051 95.7157 31.7696 98.4343 31.7696 101.788ZM64.1019 92.5806C64.1019 95.1079 62.0528 97.1569 59.5255 97.1569C56.9981 97.1569 54.9491 95.1079 54.9491 92.5806C54.9491 90.0532 56.9981 88.0042 59.5255 88.0042C62.0528 88.0042 64.1019 90.0532 64.1019 92.5806ZM44.2108 76.217C44.2108 80.7313 40.5512 84.3909 36.037 84.3909C31.5227 84.3909 27.8631 80.7313 27.8631 76.217C27.8631 71.7028 31.5227 68.0432 36.037 68.0432C40.5512 68.0432 44.2108 71.7026 44.2108 76.217Z" fill="#FDD05F"/>
<path opacity="0.15" d="M19.6258 101.788C19.6258 98.4345 22.3444 95.7159 25.6977 95.7159C26.2614 95.7159 26.8067 95.7944 27.3247 95.938C26.2973 95.1411 25.0085 94.6655 23.6075 94.6655C20.2541 94.6655 17.5356 97.3841 17.5356 100.737C17.5356 103.527 19.4174 105.876 21.9807 106.587C20.5483 105.476 19.6258 103.74 19.6258 101.788ZM56.497 96.0099C55.5482 95.1714 54.9491 93.9462 54.9491 92.5806C54.9491 90.0532 56.9982 88.0042 59.5255 88.0042C59.8472 88.0042 60.1611 88.0376 60.4638 88.1009C59.6568 87.3876 58.5968 86.9538 57.4351 86.9538C54.9077 86.9538 52.8587 89.0028 52.8587 91.5302C52.8589 93.736 54.4196 95.5771 56.497 96.0099ZM27.863 76.217C27.863 71.7028 31.5225 68.0432 36.0368 68.0432C36.9397 68.0432 37.8075 68.1916 38.6194 68.4622C37.2948 67.5372 35.6846 66.993 33.9464 66.993C29.4321 66.993 25.7725 70.6526 25.7725 75.1669C25.7725 78.7782 28.1155 81.8405 31.3637 82.9218C29.2481 81.4446 27.863 78.9932 27.863 76.217ZM46.3513 107.557C46.3513 105.03 48.4003 102.981 50.9276 102.981C51.2493 102.981 51.563 103.014 51.8659 103.078C51.0589 102.364 49.9989 101.931 48.8374 101.931C46.3101 101.931 44.261 103.98 44.261 106.507C44.261 108.713 45.8218 110.554 47.8989 110.986C46.9503 110.148 46.3513 108.923 46.3513 107.557ZM29.0503 125.733C29.0503 121.219 32.7098 117.559 37.2241 117.559C38.127 117.559 38.9948 117.708 39.8067 117.978C38.4821 117.053 36.872 116.509 35.1337 116.509C30.6194 116.509 26.9598 120.169 26.9598 124.683C26.9598 128.294 29.3028 131.357 32.551 132.438C30.4356 130.96 29.0503 128.509 29.0503 125.733ZM81.7785 95.4128C83.732 97.3663 83.732 100.533 81.7785 102.487L74.6218 109.643C74.2209 110.044 73.672 110.216 73.1406 110.152C73.5826 110.359 74.0039 110.603 74.3984 110.883C75.1154 111.39 76.0912 111.315 76.7123 110.694L83.8689 103.537C85.8224 101.584 85.8224 98.4165 83.8689 96.4632L68.449 81.0432C68.0417 80.636 67.4697 80.4602 66.9077 80.5421L81.7785 95.4128ZM38.8329 52.4674L52.0544 65.6887C52.5159 66.1502 52.6814 66.8235 52.5097 67.4536C52.22 68.5176 52.1036 69.653 52.1968 70.8288C52.5062 74.7346 55.1386 78.0243 58.698 79.3057C56.2337 77.6764 54.5319 74.9711 54.287 71.879C54.1939 70.703 54.3103 69.5676 54.5999 68.5038C54.7714 67.8737 54.6062 67.2006 54.1446 66.7389L40.9231 53.5174C40.1065 52.7008 39.1337 52.1438 38.1042 51.8383C38.3579 52.0281 38.6022 52.2367 38.8329 52.4674ZM72.2638 109.803C70.8466 108.813 69.1025 108.26 67.2244 108.343C63.0284 108.528 59.6126 111.944 59.4277 116.139C59.3441 118.037 59.9083 119.798 60.9173 121.223C61.4249 121.94 61.3495 122.916 60.7284 123.537L38.8329 145.432C37.0315 147.233 34.4719 147.781 32.2155 147.116C34.7958 149.056 38.529 148.876 40.9231 146.482L62.8183 124.587C63.4394 123.966 63.515 122.99 63.0072 122.273C61.9984 120.848 61.4339 119.087 61.5175 117.19C61.7025 112.994 65.1185 109.578 69.3142 109.393C70.3492 109.348 71.3425 109.496 72.2638 109.803Z" fill="black"/>
<path d="M35.787 50.0102C33.4813 50.1248 31.3225 51.2117 29.8643 52.9922C19.0598 66.1864 13.1094 82.8807 13.1094 99.9999C13.1094 117.119 19.06 133.814 29.8645 147.008C31.3227 148.788 33.4813 149.875 35.7872 149.99C38.109 150.105 40.3831 149.229 42.0266 147.585L63.9218 125.69C65.081 124.531 65.2319 122.715 64.281 121.372C63.4276 120.166 63.0101 118.747 63.0769 117.258C63.2261 113.871 65.9964 111.101 69.3837 110.952C70.8691 110.886 72.2915 111.302 73.4968 112.156C74.8402 113.107 76.6564 112.956 77.8154 111.797L84.972 104.64C86.2511 103.361 86.891 101.68 86.8908 99.9997C86.8908 98.3192 86.2511 96.6388 84.9718 95.3593L69.5519 79.9397C68.7036 79.0913 67.4478 78.7626 66.2741 79.0821C65.3521 79.3329 64.3956 79.4213 63.431 79.345C59.4224 79.0272 56.1598 75.7643 55.8423 71.7557C55.7661 70.7915 55.8544 69.8354 56.1054 68.9133C56.4253 67.7397 56.096 66.4842 55.2477 65.6354L42.0264 52.4141C40.3831 50.7709 38.1088 49.8945 35.787 50.0102ZM39.8202 54.6209L53.0415 67.8422C53.1014 67.902 53.1218 67.9967 53.0948 68.0944C52.7493 69.3643 52.6272 70.6789 52.7321 72.0026C53.1696 77.5239 57.6634 82.0178 63.1849 82.4559C64.5089 82.561 65.8239 82.4389 67.0939 82.0932C67.1917 82.0667 67.2856 82.0866 67.3456 82.1468L82.7656 97.5667C84.1074 98.9087 84.1074 101.092 82.7656 102.434L75.6089 109.591C75.5282 109.672 75.3982 109.68 75.2993 109.61C73.5234 108.352 71.4298 107.739 69.246 107.835C64.2583 108.055 60.1792 112.134 59.9595 117.121C59.9528 117.27 59.9497 117.418 59.9497 117.566C59.9497 119.589 60.5626 121.52 61.7343 123.176C61.804 123.274 61.7962 123.404 61.7155 123.485L39.8202 145.379C38.7987 146.401 37.3852 146.945 35.9418 146.874C34.4936 146.802 33.1928 146.147 32.2787 145.031C21.9295 132.393 16.2299 116.401 16.2299 100C16.2299 83.5997 21.9295 67.6071 32.2787 54.9692C33.193 53.8529 34.4936 53.1983 35.9418 53.1266C37.385 53.0545 38.7987 53.5994 39.8202 54.6209ZM27.4901 125.733C27.4901 131.1 31.8567 135.467 37.2241 135.467C42.5915 135.467 46.9581 131.1 46.9581 125.733C46.9581 120.365 42.5915 115.999 37.2241 115.999C31.8567 115.999 27.4901 120.365 27.4901 125.733ZM43.8381 125.733C43.8381 129.38 40.8711 132.347 37.2243 132.347C33.5774 132.347 30.6104 129.38 30.6104 125.733C30.6104 122.086 33.5774 119.119 37.2243 119.119C40.8711 119.119 43.8381 122.086 43.8381 125.733ZM53.3891 92.5806C53.3891 95.9644 56.1419 98.7169 59.5255 98.7169C62.9091 98.7169 65.6618 95.9642 65.6618 92.5806C65.6618 89.197 62.9089 86.4442 59.5255 86.4442C56.1419 86.4442 53.3891 89.1968 53.3891 92.5806ZM62.5417 92.5806C62.5417 94.2436 61.1886 95.5968 59.5255 95.5968C57.8622 95.5968 56.5093 94.2436 56.5093 92.5806C56.5093 90.9175 57.8622 89.5643 59.5255 89.5643C61.1886 89.5643 62.5417 90.9175 62.5417 92.5806ZM25.6977 94.1556C21.4893 94.1556 18.0656 97.5792 18.0656 101.788C18.0656 105.996 21.4893 109.419 25.6977 109.419C29.9061 109.419 33.3297 105.996 33.3297 101.788C33.3297 97.5794 29.9059 94.1556 25.6977 94.1556ZM30.2094 101.788C30.2094 104.276 28.1854 106.299 25.6977 106.299C23.21 106.299 21.186 104.275 21.186 101.788C21.186 99.2999 23.21 97.2761 25.6977 97.2761C28.1854 97.2759 30.2094 99.3001 30.2094 101.788ZM26.3028 76.217C26.3028 81.5844 30.6694 85.9511 36.0368 85.9511C41.4042 85.9511 45.7708 81.5844 45.7708 76.217C45.7708 70.8495 41.4042 66.4828 36.0368 66.4828C30.6694 66.4828 26.3028 70.8495 26.3028 76.217ZM42.6508 76.217C42.6508 79.8639 39.6838 82.8309 36.037 82.8309C32.3901 82.8309 29.4231 79.8641 29.4231 76.217C29.4231 72.57 32.3901 69.603 36.037 69.603C39.6838 69.603 42.6508 72.5702 42.6508 76.217ZM44.7913 107.557C44.7913 110.941 47.5442 113.693 50.9276 113.693C54.3114 113.693 57.064 110.941 57.064 107.557C57.064 104.174 54.3112 101.421 50.9276 101.421C47.544 101.421 44.7913 104.174 44.7913 107.557ZM53.9438 107.557C53.9438 109.22 52.5909 110.573 50.9276 110.573C49.2645 110.573 47.9114 109.22 47.9114 107.557C47.9114 105.894 49.2645 104.541 50.9276 104.541C52.5907 104.541 53.9438 105.894 53.9438 107.557Z" fill="black"/>
<path d="M53.9805 168.928C80.686 190.798 119.314 190.798 146.019 168.928C149.059 166.439 149.261 161.855 146.482 159.077L124.587 137.182C123.966 136.56 122.99 136.485 122.273 136.993C120.848 138.001 119.087 138.566 117.19 138.482C112.994 138.297 109.578 134.881 109.393 130.686C109.31 128.788 109.874 127.027 110.883 125.602C111.39 124.885 111.315 123.909 110.694 123.288L103.537 116.132C101.584 114.178 98.4167 114.178 96.4634 116.132L81.0434 131.552C80.5819 132.013 80.4165 132.686 80.5882 133.316C80.878 134.381 80.9942 135.516 80.9011 136.692C80.5217 141.474 76.6616 145.334 71.8797 145.713C70.7038 145.806 69.5684 145.69 68.5045 145.4C67.8745 145.229 67.2014 145.394 66.7397 145.856L53.5182 159.077C50.7391 161.855 50.9402 166.439 53.9805 168.928ZM125.733 154.602C130.247 154.602 133.907 158.261 133.907 162.776C133.907 167.29 130.247 170.949 125.733 170.949C121.219 170.949 117.559 167.29 117.559 162.776C117.559 158.261 121.219 154.602 125.733 154.602ZM107.557 144.496C110.085 144.496 112.134 146.545 112.134 149.072C112.134 151.6 110.085 153.649 107.557 153.649C105.03 153.649 102.981 151.6 102.981 149.072C102.981 146.545 105.03 144.496 107.557 144.496ZM101.788 168.23C105.141 168.23 107.86 170.949 107.86 174.302C107.86 177.656 105.141 180.374 101.788 180.374C98.4345 180.374 95.7159 177.656 95.7159 174.302C95.7157 170.949 98.4343 168.23 101.788 168.23ZM92.5806 135.898C95.1079 135.898 97.1569 137.947 97.1569 140.474C97.1569 143.002 95.1079 145.051 92.5806 145.051C90.0532 145.051 88.0042 143.002 88.0042 140.474C88.0042 137.947 90.0532 135.898 92.5806 135.898ZM76.2171 155.789C80.7313 155.789 84.3909 159.449 84.3909 163.963C84.3909 168.477 80.7313 172.137 76.217 172.137C71.7028 172.137 68.0432 168.477 68.0432 163.963C68.0432 159.449 71.7026 155.789 76.2171 155.789Z" fill="#FDD05F"/>
<path opacity="0.15" d="M101.788 180.374C98.4345 180.374 95.7159 177.656 95.7159 174.302C95.7159 173.739 95.7944 173.193 95.938 172.675C95.1411 173.703 94.6655 174.992 94.6655 176.393C94.6655 179.746 97.3841 182.464 100.737 182.464C103.527 182.464 105.876 180.583 106.587 178.019C105.476 179.452 103.74 180.374 101.788 180.374ZM96.0099 143.503C95.1714 144.452 93.9462 145.051 92.5806 145.051C90.0532 145.051 88.0042 143.002 88.0042 140.474C88.0042 140.153 88.0376 139.839 88.1009 139.536C87.3876 140.343 86.9538 141.403 86.9538 142.565C86.9538 145.092 89.0028 147.141 91.5302 147.141C93.736 147.141 95.5771 145.58 96.0099 143.503ZM76.217 172.137C71.7028 172.137 68.0432 168.477 68.0432 163.963C68.0432 163.06 68.1916 162.192 68.4622 161.381C67.5372 162.705 66.993 164.315 66.993 166.054C66.993 170.568 70.6526 174.227 75.1669 174.227C78.7782 174.227 81.8405 171.885 82.9218 168.636C81.4446 170.752 78.9932 172.137 76.217 172.137ZM107.557 153.649C105.03 153.649 102.981 151.6 102.981 149.072C102.981 148.751 103.014 148.437 103.078 148.134C102.364 148.941 101.931 150.001 101.931 151.163C101.931 153.69 103.98 155.739 106.507 155.739C108.713 155.739 110.554 154.178 110.986 152.101C110.148 153.05 108.923 153.649 107.557 153.649ZM125.733 170.95C121.219 170.95 117.559 167.29 117.559 162.776C117.559 161.873 117.708 161.005 117.978 160.193C117.053 161.518 116.509 163.128 116.509 164.866C116.509 169.381 120.169 173.04 124.683 173.04C128.294 173.04 131.357 170.697 132.438 167.449C130.96 169.564 128.509 170.95 125.733 170.95ZM95.4128 118.222C97.3663 116.268 100.533 116.268 102.487 118.222L109.643 125.378C110.044 125.779 110.216 126.328 110.152 126.859C110.359 126.417 110.603 125.996 110.883 125.602C111.39 124.885 111.315 123.909 110.694 123.288L103.537 116.131C101.584 114.178 98.4165 114.178 96.4632 116.131L81.0432 131.551C80.636 131.958 80.4602 132.53 80.5421 133.092L95.4128 118.222ZM52.4674 161.167L65.6887 147.946C66.1502 147.484 66.8235 147.319 67.4536 147.49C68.5176 147.78 69.653 147.896 70.8288 147.803C74.7346 147.494 78.0243 144.861 79.3057 141.302C77.6764 143.766 74.9711 145.468 71.879 145.713C70.703 145.806 69.5676 145.69 68.5038 145.4C67.8737 145.229 67.2006 145.394 66.7389 145.855L53.5174 159.077C52.7008 159.893 52.1438 160.866 51.8383 161.896C52.0281 161.642 52.2367 161.398 52.4674 161.167ZM109.803 127.736C108.813 129.153 108.26 130.898 108.343 132.776C108.528 136.972 111.944 140.387 116.139 140.572C118.037 140.656 119.798 140.092 121.223 139.083C121.94 138.575 122.916 138.65 123.537 139.272L145.432 161.167C147.233 162.968 147.781 165.528 147.116 167.785C149.056 165.204 148.876 161.471 146.482 159.077L124.587 137.182C123.966 136.561 122.99 136.485 122.273 136.993C120.848 138.002 119.087 138.566 117.19 138.482C112.994 138.298 109.578 134.882 109.393 130.686C109.348 129.651 109.496 128.657 109.803 127.736Z" fill="black"/>
<path d="M50.0102 164.213C50.1248 166.519 51.2117 168.677 52.9922 170.136C66.1864 180.94 82.8807 186.891 99.9999 186.891C117.119 186.891 133.814 180.94 147.008 170.135C148.788 168.677 149.875 166.519 149.99 164.213C150.105 161.891 149.229 159.617 147.585 157.973L125.69 136.078C124.531 134.919 122.715 134.768 121.372 135.719C120.166 136.572 118.747 136.99 117.258 136.923C113.871 136.774 111.101 134.004 110.952 130.616C110.886 129.131 111.302 127.708 112.156 126.503C113.107 125.16 112.956 123.344 111.797 122.185L104.64 115.028C103.361 113.749 101.68 113.109 99.9997 113.109C98.3192 113.109 96.6388 113.749 95.3593 115.028L79.9397 130.448C79.0913 131.296 78.7626 132.552 79.0821 133.726C79.3329 134.648 79.4214 135.604 79.345 136.569C79.0272 140.578 75.7643 143.84 71.7557 144.158C70.7915 144.234 69.8354 144.146 68.9133 143.895C67.7397 143.575 66.4842 143.904 65.6354 144.752L52.4141 157.974C50.7709 159.617 49.8945 161.891 50.0102 164.213ZM54.6209 160.18L67.8422 146.958C67.902 146.899 67.9967 146.878 68.0944 146.905C69.3643 147.251 70.679 147.373 72.0026 147.268C77.5239 146.83 82.0178 142.337 82.4559 136.815C82.561 135.491 82.4389 134.176 82.0932 132.906C82.0667 132.808 82.0866 132.714 82.1468 132.654L97.5667 117.234C98.9087 115.893 101.092 115.893 102.434 117.234L109.591 124.391C109.672 124.472 109.68 124.602 109.61 124.701C108.352 126.477 107.739 128.57 107.835 130.754C108.055 135.742 112.134 139.821 117.121 140.041C117.27 140.047 117.418 140.05 117.566 140.05C119.589 140.05 121.52 139.437 123.176 138.266C123.274 138.196 123.404 138.204 123.485 138.284L145.379 160.18C146.401 161.201 146.945 162.615 146.874 164.058C146.802 165.506 146.147 166.807 145.031 167.721C132.393 178.07 116.401 183.77 100 183.77C83.5997 183.77 67.6071 178.07 54.9692 167.721C53.8529 166.807 53.1983 165.506 53.1266 164.058C53.0545 162.615 53.5994 161.201 54.6209 160.18ZM125.733 172.51C131.1 172.51 135.467 168.143 135.467 162.776C135.467 157.409 131.1 153.042 125.733 153.042C120.365 153.042 115.999 157.409 115.999 162.776C115.999 168.143 120.365 172.51 125.733 172.51ZM125.733 156.162C129.38 156.162 132.347 159.129 132.347 162.776C132.347 166.423 129.38 169.39 125.733 169.39C122.086 169.39 119.119 166.423 119.119 162.776C119.119 159.129 122.086 156.162 125.733 156.162ZM92.5806 146.611C95.9644 146.611 98.7169 143.858 98.7169 140.474C98.7169 137.091 95.9642 134.338 92.5806 134.338C89.197 134.338 86.4442 137.091 86.4442 140.474C86.4442 143.858 89.1968 146.611 92.5806 146.611ZM92.5806 137.458C94.2436 137.458 95.5968 138.811 95.5968 140.474C95.5968 142.138 94.2436 143.491 92.5806 143.491C90.9175 143.491 89.5643 142.138 89.5643 140.474C89.5643 138.811 90.9175 137.458 92.5806 137.458ZM94.1556 174.302C94.1556 178.511 97.5792 181.934 101.788 181.934C105.996 181.934 109.419 178.511 109.419 174.302C109.419 170.094 105.996 166.67 101.788 166.67C97.5794 166.67 94.1556 170.094 94.1556 174.302ZM101.788 169.791C104.276 169.791 106.299 171.815 106.299 174.302C106.299 176.79 104.275 178.814 101.788 178.814C99.2999 178.814 97.2761 176.79 97.2761 174.302C97.2759 171.815 99.3001 169.791 101.788 169.791ZM76.217 173.697C81.5844 173.697 85.9511 169.331 85.9511 163.963C85.9511 158.596 81.5844 154.229 76.2171 154.229C70.8495 154.229 66.4829 158.596 66.4829 163.963C66.4829 169.331 70.8495 173.697 76.217 173.697ZM76.2171 157.349C79.8639 157.349 82.8309 160.316 82.8309 163.963C82.8309 167.61 79.8641 170.577 76.2171 170.577C72.57 170.577 69.603 167.61 69.603 163.963C69.603 160.316 72.5702 157.349 76.2171 157.349ZM107.557 155.209C110.941 155.209 113.693 152.456 113.693 149.072C113.693 145.689 110.941 142.936 107.557 142.936C104.174 142.936 101.421 145.689 101.421 149.072C101.421 152.456 104.174 155.209 107.557 155.209ZM107.557 146.056C109.22 146.056 110.573 147.409 110.573 149.072C110.573 150.735 109.22 152.089 107.557 152.089C105.894 152.089 104.541 150.735 104.541 149.072C104.541 147.409 105.894 146.056 107.557 146.056Z" fill="black"/>
<path d="M168.928 146.02C190.798 119.314 190.798 80.686 168.928 53.9807C166.439 50.9406 161.855 50.7393 159.077 53.5178L137.182 75.4129C136.56 76.034 136.485 77.0098 136.993 77.7268C138.001 79.1516 138.566 80.9131 138.482 82.8104C138.297 87.0063 134.881 90.4221 130.686 90.6069C128.788 90.6905 127.027 90.126 125.602 89.1173C124.885 88.6096 123.909 88.685 123.288 89.3061L116.132 96.4628C114.178 98.4163 114.178 101.583 116.132 103.537L131.552 118.957C132.013 119.418 132.686 119.584 133.316 119.412C134.381 119.122 135.516 119.006 136.692 119.099C141.474 119.478 145.334 123.338 145.713 128.12C145.806 129.296 145.69 130.432 145.4 131.495C145.229 132.126 145.394 132.799 145.856 133.26L159.077 146.482C161.855 149.261 166.439 149.06 168.928 146.02ZM154.602 74.267C154.602 69.7528 158.261 66.0932 162.776 66.0932C167.29 66.0932 170.949 69.7528 170.949 74.267C170.949 78.7813 167.29 82.4409 162.776 82.4409C158.261 82.4409 154.602 78.7815 154.602 74.267ZM144.496 92.4427C144.496 89.9153 146.545 87.8663 149.072 87.8663C151.6 87.8663 153.649 89.9153 153.649 92.4427C153.649 94.97 151.6 97.019 149.072 97.019C146.545 97.019 144.496 94.9702 144.496 92.4427ZM168.23 98.2122C168.23 94.8589 170.949 92.1403 174.302 92.1403C177.656 92.1403 180.374 94.8589 180.374 98.2122C180.374 101.566 177.656 104.284 174.302 104.284C170.949 104.284 168.23 101.566 168.23 98.2122ZM135.898 107.419C135.898 104.892 137.947 102.843 140.475 102.843C143.002 102.843 145.051 104.892 145.051 107.419C145.051 109.947 143.002 111.996 140.475 111.996C137.947 111.996 135.898 109.947 135.898 107.419ZM155.789 123.783C155.789 119.269 159.449 115.609 163.963 115.609C168.477 115.609 172.137 119.269 172.137 123.783C172.137 128.297 168.477 131.957 163.963 131.957C159.449 131.957 155.789 128.297 155.789 123.783Z" fill="#FDD05F"/>
<path opacity="0.15" d="M180.374 98.2122C180.374 101.566 177.656 104.284 174.302 104.284C173.739 104.284 173.193 104.206 172.675 104.062C173.703 104.859 174.992 105.334 176.393 105.334C179.746 105.334 182.464 102.616 182.464 99.2626C182.464 96.4729 180.583 94.1243 178.019 93.4128C179.452 94.5235 180.374 96.2597 180.374 98.2122ZM143.503 103.99C144.452 104.829 145.051 106.054 145.051 107.419C145.051 109.947 143.002 111.996 140.474 111.996C140.153 111.996 139.839 111.962 139.536 111.899C140.343 112.612 141.403 113.046 142.565 113.046C145.092 113.046 147.141 110.997 147.141 108.47C147.141 106.264 145.58 104.423 143.503 103.99ZM172.137 123.783C172.137 128.297 168.477 131.957 163.963 131.957C163.06 131.957 162.192 131.808 161.381 131.538C162.705 132.463 164.315 133.007 166.054 133.007C170.568 133.007 174.227 129.347 174.227 124.833C174.227 121.222 171.885 118.159 168.636 117.078C170.752 118.555 172.137 121.007 172.137 123.783ZM153.649 92.4427C153.649 94.97 151.6 97.019 149.072 97.019C148.751 97.019 148.437 96.9856 148.134 96.9224C148.941 97.6356 150.001 98.0694 151.163 98.0694C153.69 98.0694 155.739 96.0204 155.739 93.493C155.739 91.2872 154.178 89.4464 152.101 89.0135C153.05 89.8518 153.649 91.077 153.649 92.4427ZM170.95 74.267C170.95 78.7813 167.29 82.4409 162.776 82.4409C161.873 82.4409 161.005 82.2924 160.193 82.0219C161.518 82.9469 163.128 83.4911 164.866 83.4911C169.381 83.4911 173.04 79.8315 173.04 75.317C173.04 71.7057 170.697 68.6434 167.449 67.5621C169.564 69.0397 170.95 71.4911 170.95 74.267ZM118.222 104.587C116.268 102.634 116.268 99.4667 118.222 97.5134L125.378 90.3567C125.779 89.9557 126.328 89.7837 126.859 89.8475C126.417 89.6407 125.996 89.3967 125.602 89.1175C124.885 88.6098 123.909 88.6852 123.288 89.3063L116.131 96.463C114.178 98.4165 114.178 101.583 116.131 103.537L131.551 118.957C131.958 119.364 132.53 119.54 133.092 119.458L118.222 104.587ZM161.167 147.533L147.946 134.311C147.484 133.85 147.319 133.177 147.49 132.546C147.78 131.482 147.896 130.347 147.803 129.171C147.494 125.265 144.861 121.976 141.302 120.694C143.766 122.324 145.468 125.029 145.713 128.121C145.806 129.297 145.69 130.432 145.4 131.496C145.229 132.126 145.394 132.799 145.855 133.261L159.077 146.483C159.893 147.299 160.866 147.856 161.896 148.162C161.642 147.972 161.398 147.763 161.167 147.533ZM127.736 90.1973C129.153 91.1868 130.898 91.7397 132.776 91.6571C136.972 91.4721 140.387 88.0563 140.572 83.8606C140.656 81.9633 140.092 80.2018 139.083 78.777C138.575 78.06 138.65 77.0842 139.272 76.4631L161.167 54.568C162.968 52.7666 165.528 52.2193 167.785 52.8844C165.204 50.9437 161.471 51.1236 159.077 53.5178L137.182 75.4129C136.561 76.034 136.485 77.0098 136.993 77.7268C138.002 79.1516 138.566 80.9131 138.482 82.8104C138.298 87.0063 134.882 90.4221 130.686 90.6069C129.651 90.6524 128.657 90.5042 127.736 90.1973Z" fill="black"/>
<path d="M164.213 149.99C166.519 149.875 168.677 148.788 170.136 147.008C180.94 133.814 186.891 117.119 186.891 100C186.891 82.8809 180.94 66.1862 170.135 52.9922C168.677 51.2117 166.519 50.1248 164.213 50.0101C161.891 49.8947 159.617 50.7711 157.973 52.4146L136.078 74.31C134.919 75.469 134.768 77.2854 135.719 78.6284C136.572 79.8338 136.99 81.2528 136.923 82.7421C136.774 86.1292 134.004 88.8995 130.616 89.0483C129.131 89.1137 127.708 88.6975 126.503 87.8444C125.16 86.8934 123.344 87.0442 122.185 88.2034L115.028 95.36C113.749 96.6393 113.109 98.3198 113.109 100C113.109 101.681 113.749 103.361 115.028 104.641L130.448 120.06C131.296 120.909 132.552 121.237 133.726 120.918C134.648 120.667 135.604 120.579 136.569 120.655C140.578 120.973 143.84 124.236 144.158 128.244C144.234 129.209 144.146 130.165 143.895 131.087C143.575 132.26 143.904 133.516 144.752 134.365L157.974 147.586C159.617 149.229 161.891 150.105 164.213 149.99ZM160.18 145.379L146.958 132.158C146.899 132.098 146.878 132.003 146.905 131.906C147.251 130.636 147.373 129.321 147.268 127.997C146.83 122.476 142.337 117.982 136.815 117.544C135.491 117.439 134.176 117.561 132.906 117.907C132.808 117.933 132.714 117.913 132.654 117.853L117.234 102.433C115.893 101.091 115.893 98.9077 117.234 97.5657L124.391 90.4093C124.472 90.3284 124.602 90.3204 124.701 90.3903C126.477 91.6477 128.57 92.2614 130.754 92.1651C135.742 91.9452 139.821 87.8663 140.041 82.8786C140.047 82.7299 140.05 82.5817 140.05 82.434C140.05 80.411 139.437 78.4799 138.266 76.8245C138.196 76.726 138.204 76.5963 138.284 76.5155L160.18 54.6209C161.201 53.5994 162.615 53.0547 164.058 53.1264C165.506 53.1982 166.807 53.8527 167.721 54.9689C178.07 67.6069 183.77 83.5991 183.77 99.9997C183.77 116.4 178.07 132.393 167.721 145.031C166.807 146.147 165.506 146.802 164.058 146.873C162.615 146.945 161.201 146.401 160.18 145.379ZM172.51 74.267C172.51 68.8996 168.143 64.533 162.776 64.533C157.409 64.533 153.042 68.8996 153.042 74.267C153.042 79.6346 157.409 84.0012 162.776 84.0012C168.143 84.0012 172.51 79.6346 172.51 74.267ZM156.162 74.267C156.162 70.6202 159.129 67.6532 162.776 67.6532C166.423 67.6532 169.39 70.6202 169.39 74.267C169.39 77.9139 166.423 80.8811 162.776 80.8811C159.129 80.8811 156.162 77.9139 156.162 74.267ZM146.611 107.419C146.611 104.036 143.858 101.283 140.474 101.283C137.091 101.283 134.338 104.036 134.338 107.419C134.338 110.803 137.091 113.556 140.474 113.556C143.858 113.556 146.611 110.803 146.611 107.419ZM137.458 107.419C137.458 105.756 138.811 104.403 140.474 104.403C142.138 104.403 143.491 105.756 143.491 107.419C143.491 109.083 142.138 110.436 140.474 110.436C138.811 110.436 137.458 109.083 137.458 107.419ZM174.302 105.844C178.511 105.844 181.934 102.421 181.934 98.2124C181.934 94.0042 178.511 90.5805 174.302 90.5805C170.094 90.5805 166.67 94.0042 166.67 98.2124C166.67 102.421 170.094 105.844 174.302 105.844ZM169.791 98.2122C169.791 95.7243 171.815 93.7007 174.302 93.7007C176.79 93.7007 178.814 95.7247 178.814 98.2122C178.814 100.7 176.79 102.724 174.302 102.724C171.815 102.724 169.791 100.7 169.791 98.2122ZM173.697 123.783C173.697 118.416 169.331 114.049 163.963 114.049C158.596 114.049 154.229 118.416 154.229 123.783C154.229 129.151 158.596 133.517 163.963 133.517C169.331 133.517 173.697 129.151 173.697 123.783ZM157.349 123.783C157.349 120.136 160.316 117.169 163.963 117.169C167.61 117.169 170.577 120.136 170.577 123.783C170.577 127.43 167.61 130.397 163.963 130.397C160.316 130.397 157.349 127.43 157.349 123.783ZM155.209 92.4429C155.209 89.0591 152.456 86.3065 149.072 86.3065C145.689 86.3065 142.936 89.0593 142.936 92.4429C142.936 95.8265 145.689 98.5792 149.072 98.5792C152.456 98.5792 155.209 95.8265 155.209 92.4429ZM146.056 92.4429C146.056 90.7798 147.409 89.4266 149.072 89.4266C150.735 89.4266 152.089 90.7798 152.089 92.4429C152.089 94.1059 150.735 95.4591 149.072 95.4591C147.409 95.4591 146.056 94.1059 146.056 92.4429Z" fill="black"/>
<path d="M146.02 31.0715C119.314 9.20215 80.686 9.20215 53.9807 31.0715C50.9406 33.5612 50.7393 38.1446 53.5178 40.9233L75.413 62.8185C76.0341 63.4396 77.0098 63.5151 77.7268 63.0073C79.1516 61.9985 80.9132 61.4341 82.8104 61.5177C87.0063 61.7026 90.4222 65.1187 90.6069 69.3144C90.6905 71.2116 90.1261 72.973 89.1173 74.3978C88.6097 75.1148 88.6851 76.0906 89.3062 76.7117L96.4628 83.8683C98.4163 85.8218 101.583 85.8218 103.537 83.8683L118.957 68.4484C119.418 67.9868 119.584 67.3136 119.412 66.6835C119.122 65.6193 119.006 64.4837 119.099 63.3075C119.478 58.5257 123.338 54.6657 128.12 54.2868C129.296 54.1936 130.432 54.3101 131.495 54.5997C132.126 54.7712 132.799 54.6059 133.26 54.1444L146.482 40.9229C149.261 38.1448 149.06 33.5612 146.02 31.0715ZM74.2671 45.3983C69.7528 45.3983 66.0932 41.7387 66.0932 37.2245C66.0932 32.7102 69.7528 29.0506 74.2671 29.0506C78.7813 29.0506 82.4409 32.7102 82.4409 37.2245C82.4409 41.7387 78.7815 45.3983 74.2671 45.3983ZM92.4427 55.504C89.9153 55.504 87.8663 53.455 87.8663 50.9276C87.8663 48.4003 89.9153 46.3512 92.4427 46.3512C94.97 46.3512 97.0191 48.4003 97.0191 50.9276C97.0191 53.455 94.9702 55.504 92.4427 55.504ZM98.2122 31.7696C94.8589 31.7696 92.1403 29.051 92.1403 25.6977C92.1403 22.3444 94.8589 19.6258 98.2122 19.6258C101.566 19.6258 104.284 22.3444 104.284 25.6977C104.284 29.051 101.566 31.7696 98.2122 31.7696ZM107.419 64.1019C104.892 64.1019 102.843 62.0528 102.843 59.5255C102.843 56.9981 104.892 54.9491 107.419 54.9491C109.947 54.9491 111.996 56.9981 111.996 59.5255C111.996 62.0528 109.947 64.1019 107.419 64.1019ZM123.783 44.2108C119.269 44.2108 115.609 40.5512 115.609 36.037C115.609 31.5227 119.269 27.8631 123.783 27.8631C128.297 27.8631 131.957 31.5227 131.957 36.037C131.957 40.5512 128.297 44.2108 123.783 44.2108Z" fill="#FDD05F"/>
<path opacity="0.15" d="M98.2122 19.6258C101.566 19.6258 104.284 22.3444 104.284 25.6977C104.284 26.2614 104.206 26.8067 104.062 27.3247C104.859 26.2973 105.334 25.0085 105.334 23.6075C105.334 20.2541 102.616 17.5356 99.2626 17.5356C96.4729 17.5356 94.1243 19.4174 93.4128 21.9807C94.5235 20.5483 96.2597 19.6258 98.2122 19.6258ZM103.99 56.497C104.829 55.5482 106.054 54.9491 107.419 54.9491C109.947 54.9491 111.996 56.9982 111.996 59.5255C111.996 59.8472 111.962 60.1611 111.899 60.4638C112.612 59.6568 113.046 58.5968 113.046 57.4351C113.046 54.9077 110.997 52.8587 108.47 52.8587C106.264 52.8589 104.423 54.4196 103.99 56.497ZM123.783 27.8629C128.297 27.8629 131.957 31.5225 131.957 36.0368C131.957 36.9397 131.808 37.8075 131.538 38.6194C132.463 37.2948 133.007 35.6846 133.007 33.9464C133.007 29.4321 129.347 25.7725 124.833 25.7725C121.222 25.7725 118.16 28.1155 117.078 31.3637C118.555 29.2481 121.007 27.8629 123.783 27.8629ZM92.4427 46.3513C94.97 46.3513 97.019 48.4003 97.019 50.9276C97.019 51.2493 96.9856 51.563 96.9224 51.8659C97.6356 51.0589 98.0694 49.9989 98.0694 48.8374C98.0694 46.3101 96.0204 44.261 93.493 44.261C91.2872 44.261 89.4464 45.8218 89.0135 47.8989C89.8518 46.9503 91.077 46.3513 92.4427 46.3513ZM74.267 29.0503C78.7813 29.0503 82.4409 32.7098 82.4409 37.2241C82.4409 38.127 82.2924 38.9948 82.0219 39.8067C82.9469 38.4821 83.4911 36.872 83.4911 35.1337C83.4911 30.6194 79.8315 26.9598 75.317 26.9598C71.7057 26.9598 68.6434 29.3028 67.5621 32.551C69.0397 30.4356 71.4911 29.0503 74.267 29.0503ZM104.587 81.7785C102.634 83.732 99.4667 83.732 97.5134 81.7785L90.3567 74.6218C89.9557 74.2209 89.7837 73.672 89.8475 73.1406C89.6407 73.5826 89.3968 74.0039 89.1175 74.3984C88.6098 75.1154 88.6852 76.0912 89.3063 76.7123L96.463 83.8689C98.4165 85.8224 101.583 85.8224 103.537 83.8689L118.957 68.449C119.364 68.0417 119.54 67.4697 119.458 66.9077L104.587 81.7785ZM147.533 38.8329L134.311 52.0544C133.85 52.5159 133.177 52.6814 132.546 52.5097C131.482 52.22 130.347 52.1036 129.171 52.1968C125.265 52.5062 121.976 55.1386 120.694 58.698C122.324 56.2337 125.029 54.5319 128.121 54.287C129.297 54.1939 130.432 54.3103 131.496 54.5999C132.126 54.7714 132.799 54.6062 133.261 54.1446L146.483 40.9231C147.299 40.1065 147.856 39.1337 148.162 38.1042C147.972 38.3579 147.763 38.6022 147.533 38.8329ZM90.1973 72.2638C91.1868 70.8466 91.7397 69.1025 91.6571 67.2244C91.4721 63.0284 88.0563 59.6126 83.8606 59.4277C81.9633 59.3441 80.2018 59.9083 78.777 60.9173C78.06 61.4249 77.0842 61.3495 76.4631 60.7284L54.568 38.8329C52.7666 37.0315 52.2193 34.4719 52.8844 32.2155C50.9437 34.7958 51.1236 38.529 53.5178 40.9231L75.4129 62.8183C76.034 63.4394 77.0098 63.515 77.7268 63.0072C79.1516 61.9984 80.9131 61.4339 82.8104 61.5175C87.0063 61.7025 90.4221 65.1185 90.6069 69.3142C90.6524 70.3492 90.5042 71.3425 90.1973 72.2638Z" fill="black"/>
<path d="M149.99 35.787C149.875 33.4813 148.788 31.3225 147.008 29.8643C133.814 19.0598 117.119 13.1094 100 13.1094C82.881 13.1094 66.1862 19.06 52.9922 29.8645C51.2117 31.3227 50.1248 33.4813 50.0102 35.7872C49.8948 38.1091 50.7711 40.3831 52.4147 42.0266L74.31 63.9218C75.469 65.081 77.2854 65.232 78.6284 64.281C79.8339 63.4277 81.2528 63.0101 82.7421 63.0769C86.1292 63.2261 88.8995 65.9964 89.0483 69.3837C89.1138 70.8691 88.6976 72.2916 87.8444 73.4968C86.8935 74.8402 87.0442 76.6564 88.2034 77.8154L95.3601 84.972C96.6394 86.2511 98.3199 86.891 100 86.8908C101.681 86.8908 103.361 86.2511 104.641 84.9718L120.06 69.5519C120.909 68.7037 121.237 67.4478 120.918 66.2742C120.667 65.3521 120.579 64.3956 120.655 63.431C120.973 59.4224 124.236 56.1599 128.244 55.8423C129.209 55.7661 130.165 55.8544 131.087 56.1054C132.26 56.4253 133.516 56.096 134.365 55.2478L147.586 42.0265C149.229 40.3831 150.105 38.1089 149.99 35.787ZM145.379 39.8202L132.158 53.0415C132.098 53.1015 132.003 53.1218 131.906 53.0948C130.636 52.7493 129.321 52.6273 127.997 52.7321C122.476 53.1696 117.982 57.6634 117.544 63.1849C117.439 64.5089 117.561 65.824 117.907 67.0939C117.933 67.1917 117.913 67.2857 117.853 67.3456L102.433 82.7656C101.091 84.1074 98.9077 84.1074 97.5657 82.7656L90.4093 75.6089C90.3284 75.5283 90.3204 75.3982 90.3903 75.2994C91.6478 73.5234 92.2614 71.4298 92.1651 69.246C91.9452 64.2583 87.8663 60.1792 82.8786 59.9595C82.73 59.9529 82.5817 59.9497 82.4341 59.9497C80.411 59.9497 78.48 60.5626 76.8245 61.7343C76.7261 61.804 76.5964 61.7962 76.5155 61.7156L54.6209 39.8202C53.5994 38.7987 53.0547 37.3852 53.1264 35.9419C53.1983 34.4936 53.8528 33.1928 54.969 32.2788C67.6069 21.9295 83.5991 16.2299 99.9997 16.2299C116.4 16.2299 132.393 21.9295 145.031 32.2788C146.147 33.193 146.802 34.4936 146.873 35.9419C146.946 37.385 146.401 38.7987 145.379 39.8202ZM74.2671 27.4901C68.8997 27.4901 64.5331 31.8567 64.5331 37.2241C64.5331 42.5915 68.8997 46.9581 74.2671 46.9581C79.6347 46.9581 84.0013 42.5915 84.0013 37.2241C84.0013 31.8567 79.6347 27.4901 74.2671 27.4901ZM74.2671 43.8382C70.6202 43.8382 67.6532 40.8712 67.6532 37.2243C67.6532 33.5774 70.6202 30.6104 74.2671 30.6104C77.9139 30.6104 80.8811 33.5774 80.8811 37.2243C80.8811 40.8712 77.9139 43.8382 74.2671 43.8382ZM107.419 53.3892C104.036 53.3892 101.283 56.1419 101.283 59.5255C101.283 62.9091 104.036 65.6618 107.419 65.6618C110.803 65.6618 113.556 62.9089 113.556 59.5255C113.556 56.1419 110.803 53.3892 107.419 53.3892ZM107.419 62.5417C105.756 62.5417 104.403 61.1886 104.403 59.5255C104.403 57.8622 105.756 56.5093 107.419 56.5093C109.083 56.5093 110.436 57.8622 110.436 59.5255C110.436 61.1886 109.083 62.5417 107.419 62.5417ZM105.844 25.6977C105.844 21.4893 102.421 18.0657 98.2124 18.0657C94.0042 18.0657 90.5806 21.4893 90.5806 25.6977C90.5806 29.9061 94.0042 33.3298 98.2124 33.3298C102.421 33.3298 105.844 29.9059 105.844 25.6977ZM98.2122 30.2094C95.7243 30.2094 93.7007 28.1854 93.7007 25.6977C93.7007 23.21 95.7247 21.186 98.2122 21.186C100.7 21.186 102.724 23.21 102.724 25.6977C102.724 28.1854 100.7 30.2094 98.2122 30.2094ZM123.783 26.3028C118.416 26.3028 114.049 30.6694 114.049 36.0368C114.049 41.4042 118.416 45.7708 123.783 45.7708C129.151 45.7708 133.517 41.4042 133.517 36.0368C133.517 30.6694 129.151 26.3028 123.783 26.3028ZM123.783 42.6509C120.136 42.6509 117.169 39.6839 117.169 36.037C117.169 32.3901 120.136 29.4231 123.783 29.4231C127.43 29.4231 130.397 32.3901 130.397 36.037C130.397 39.6839 127.43 42.6509 123.783 42.6509ZM92.4429 44.7913C89.0591 44.7913 86.3065 47.5442 86.3065 50.9276C86.3065 54.3114 89.0593 57.064 92.4429 57.064C95.8265 57.064 98.5792 54.3112 98.5792 50.9276C98.5792 47.544 95.8265 44.7913 92.4429 44.7913ZM92.4429 53.9439C90.7798 53.9439 89.4267 52.5909 89.4267 50.9276C89.4267 49.2646 90.7798 47.9114 92.4429 47.9114C94.106 47.9114 95.4591 49.2646 95.4591 50.9276C95.4591 52.5907 94.106 53.9439 92.4429 53.9439Z" fill="black"/>
</svg>
