<svg width="664.200048828125px" height="207.28001708984374px" xmlns="http://www.w3.org/2000/svg" viewBox="-82.10002441406249 -28.64000854492187 664.200048828125 207.28001708984374" style="background: rgb(76, 125, 123);" preserveAspectRatio="xMidYMid"><defs><filter id="editing-hover" x="-100%" y="-100%" width="300%" height="300%"><feFlood flood-color="#004643" result="flood"></feFlood><feComposite operator="in" in2="SourceAlpha" in="flood" result="shadow"></feComposite><feOffset dx="-4" dy="-4" in="SourceGraphic" result="offset-1"></feOffset><feOffset dx="4" dy="4" in="shadow" result="offset-2"></feOffset><feMerge><feMergeNode in="offset-2"></feMergeNode><feMergeNode in="offset-1"></feMergeNode></feMerge></filter></defs><g filter="url(#editing-hover)"><g transform="translate(13.40000057220459, 110.19500160217285)"><path d="M30.29-39.20L30.29-39.20L30.29-39.20Q24.06-39.20 20.74-35.40L20.74-35.40L20.74-35.40Q17.41-31.59 17.41-24.62L17.41-24.62L17.41-24.62Q17.41-17.58 21.10-13.77L21.10-13.77L21.10-13.77Q24.79-9.96 31.02-9.96L31.02-9.96L31.02-9.96Q34.34-9.96 36.65-10.85L36.65-10.85L36.65-10.85Q38.96-11.75 41.07-12.88L41.07-12.88L41.07-12.88Q42.44-11.75 43.21-10.17L43.21-10.17L43.21-10.17Q43.98-8.59 43.98-6.48L43.98-6.48L43.98-6.48Q43.98-3.16 40.30-0.85L40.30-0.85L40.30-0.85Q36.61 1.46 29.08 1.46L29.08 1.46L29.08 1.46Q23.65 1.46 18.87-0.08L18.87-0.08L18.87-0.08Q14.09-1.62 10.53-4.82L10.53-4.82L10.53-4.82Q6.97-8.02 4.90-12.92L4.90-12.92L4.90-12.92Q2.83-17.82 2.83-24.62L2.83-24.62L2.83-24.62Q2.83-30.94 4.82-35.76L4.82-35.76L4.82-35.76Q6.80-40.58 10.25-43.90L10.25-43.90L10.25-43.90Q13.69-47.22 18.31-48.92L18.31-48.92L18.31-48.92Q22.92-50.63 28.19-50.63L28.19-50.63L28.19-50.63Q35.64-50.63 39.73-48.20L39.73-48.20L39.73-48.20Q43.82-45.77 43.82-41.96L43.82-41.96L43.82-41.96Q43.82-39.85 42.77-38.31L42.77-38.31L42.77-38.31Q41.72-36.77 40.34-35.88L40.34-35.88L40.34-35.88Q38.23-37.26 35.84-38.23L35.84-38.23L35.84-38.23Q33.45-39.20 30.29-39.20ZM89.34-24.62L89.34-0.08L89.34-0.08Q88.53 0.16 86.79 0.41L86.79 0.41L86.79 0.41Q85.05 0.65 83.19 0.65L83.19 0.65L83.19 0.65Q81.41 0.65 79.99 0.41L79.99 0.41L79.99 0.41Q78.57 0.16 77.60-0.57L77.60-0.57L77.60-0.57Q76.63-1.30 76.10-2.55L76.10-2.55L76.10-2.55Q75.57-3.81 75.57-5.83L75.57-5.83L75.57-23.81L75.57-23.81Q75.57-27.14 73.91-28.47L73.91-28.47L73.91-28.47Q72.25-29.81 69.82-29.81L69.82-29.81L69.82-29.81Q68.20-29.81 66.74-29.40L66.74-29.40L66.74-29.40Q65.29-29.00 64.40-28.43L64.40-28.43L64.40-0.08L64.40-0.08Q63.59 0.16 61.84 0.41L61.84 0.41L61.84 0.41Q60.10 0.65 58.24 0.65L58.24 0.65L58.24 0.65Q56.46 0.65 55.04 0.41L55.04 0.41L55.04 0.41Q53.62 0.16 52.65-0.57L52.65-0.57L52.65-0.57Q51.68-1.30 51.15-2.55L51.15-2.55L51.15-2.55Q50.63-3.81 50.63-5.83L50.63-5.83L50.63-52.81L50.63-52.81Q51.52-52.97 53.26-53.26L53.26-53.26L53.26-53.26Q55.00-53.54 56.78-53.54L56.78-53.54L56.78-53.54Q58.56-53.54 59.98-53.30L59.98-53.30L59.98-53.30Q61.40-53.05 62.37-52.33L62.37-52.33L62.37-52.33Q63.34-51.60 63.87-50.34L63.87-50.34L63.87-50.34Q64.40-49.09 64.40-47.06L64.40-47.06L64.40-39.12L64.40-39.12Q65.45-39.53 67.59-40.05L67.59-40.05L67.59-40.05Q69.74-40.58 72.33-40.58L72.33-40.58L72.33-40.58Q80.35-40.58 84.85-36.57L84.85-36.57L84.85-36.57Q89.34-32.56 89.34-24.62L89.34-24.62ZM118.66 1.30L118.66 1.30L118.66 1.30Q113.89 1.30 109.80-0.04L109.80-0.04L109.80-0.04Q105.70-1.38 102.67-4.05L102.67-4.05L102.67-4.05Q99.63-6.72 97.89-10.77L97.89-10.77L97.89-10.77Q96.15-14.82 96.15-20.25L96.15-20.25L96.15-20.25Q96.15-25.60 97.89-29.44L97.89-29.44L97.89-29.44Q99.63-33.29 102.47-35.76L102.47-35.76L102.47-35.76Q105.30-38.23 108.94-39.41L108.94-39.41L108.94-39.41Q112.59-40.58 116.40-40.58L116.40-40.58L116.40-40.58Q120.69-40.58 124.21-39.29L124.21-39.29L124.21-39.29Q127.74-37.99 130.29-35.72L130.29-35.72L130.29-35.72Q132.84-33.45 134.26-30.29L134.26-30.29L134.26-30.29Q135.68-27.14 135.68-23.41L135.68-23.41L135.68-23.41Q135.68-20.66 134.14-19.20L134.14-19.20L134.14-19.20Q132.60-17.74 129.84-17.33L129.84-17.33L109.84-14.34L109.84-14.34Q110.73-11.66 113.48-10.33L113.48-10.33L113.48-10.33Q116.23-8.99 119.80-8.99L119.80-8.99L119.80-8.99Q123.12-8.99 126.08-9.84L126.08-9.84L126.08-9.84Q129.03-10.69 130.90-11.83L130.90-11.83L130.90-11.83Q132.19-11.02 133.08-9.56L133.08-9.56L133.08-9.56Q133.97-8.10 133.97-6.48L133.97-6.48L133.97-6.48Q133.97-2.83 130.57-1.05L130.57-1.05L130.57-1.05Q127.98 0.32 124.74 0.81L124.74 0.81L124.74 0.81Q121.50 1.30 118.66 1.30ZM116.40-30.54L116.40-30.54L116.40-30.54Q114.45-30.54 113.04-29.89L113.04-29.89L113.04-29.89Q111.62-29.24 110.73-28.23L110.73-28.23L110.73-28.23Q109.84-27.22 109.39-25.96L109.39-25.96L109.39-25.96Q108.94-24.71 108.86-23.41L108.86-23.41L122.72-25.68L122.72-25.68Q122.47-27.30 120.93-28.92L120.93-28.92L120.93-28.92Q119.39-30.54 116.40-30.54ZM163.13 1.30L163.13 1.30L163.13 1.30Q158.35 1.30 154.26-0.04L154.26-0.04L154.26-0.04Q150.17-1.38 147.14-4.05L147.14-4.05L147.14-4.05Q144.10-6.72 142.36-10.77L142.36-10.77L142.36-10.77Q140.62-14.82 140.62-20.25L140.62-20.25L140.62-20.25Q140.62-25.60 142.36-29.44L142.36-29.44L142.36-29.44Q144.10-33.29 146.93-35.76L146.93-35.76L146.93-35.76Q149.77-38.23 153.41-39.41L153.41-39.41L153.41-39.41Q157.06-40.58 160.87-40.58L160.87-40.58L160.87-40.58Q165.16-40.58 168.68-39.29L168.68-39.29L168.68-39.29Q172.21-37.99 174.76-35.72L174.76-35.72L174.76-35.72Q177.31-33.45 178.73-30.29L178.73-30.29L178.73-30.29Q180.14-27.14 180.14-23.41L180.14-23.41L180.14-23.41Q180.14-20.66 178.60-19.20L178.60-19.20L178.60-19.20Q177.07-17.74 174.31-17.33L174.31-17.33L154.30-14.34L154.30-14.34Q155.20-11.66 157.95-10.33L157.95-10.33L157.95-10.33Q160.70-8.99 164.27-8.99L164.27-8.99L164.27-8.99Q167.59-8.99 170.55-9.84L170.55-9.84L170.55-9.84Q173.50-10.69 175.36-11.83L175.36-11.83L175.36-11.83Q176.66-11.02 177.55-9.56L177.55-9.56L177.55-9.56Q178.44-8.10 178.44-6.48L178.44-6.48L178.44-6.48Q178.44-2.83 175.04-1.05L175.04-1.05L175.04-1.05Q172.45 0.32 169.21 0.81L169.21 0.81L169.21 0.81Q165.97 1.30 163.13 1.30ZM160.87-30.54L160.87-30.54L160.87-30.54Q158.92-30.54 157.50-29.89L157.50-29.89L157.50-29.89Q156.09-29.24 155.20-28.23L155.20-28.23L155.20-28.23Q154.30-27.22 153.86-25.96L153.86-25.96L153.86-25.96Q153.41-24.71 153.33-23.41L153.33-23.41L167.18-25.68L167.18-25.68Q166.94-27.30 165.40-28.92L165.40-28.92L165.40-28.92Q163.86-30.54 160.87-30.54ZM220.00-11.75L220.00-11.75L220.00-11.75Q220.00-5.59 215.38-2.11L215.38-2.11L215.38-2.11Q210.76 1.38 201.77 1.38L201.77 1.38L201.77 1.38Q198.37 1.38 195.45 0.89L195.45 0.89L195.45 0.89Q192.54 0.41 190.47-0.61L190.47-0.61L190.47-0.61Q188.41-1.62 187.23-3.16L187.23-3.16L187.23-3.16Q186.06-4.70 186.06-6.80L186.06-6.80L186.06-6.80Q186.06-8.75 186.87-10.08L186.87-10.08L186.87-10.08Q187.68-11.42 188.81-12.31L188.81-12.31L188.81-12.31Q191.16-11.02 194.20-10.00L194.20-10.00L194.20-10.00Q197.23-8.99 201.20-8.99L201.20-8.99L201.20-8.99Q203.71-8.99 205.05-9.72L205.05-9.72L205.05-9.72Q206.39-10.45 206.39-11.66L206.39-11.66L206.39-11.66Q206.39-12.80 205.42-13.45L205.42-13.45L205.42-13.45Q204.44-14.09 202.18-14.50L202.18-14.50L199.75-14.99L199.75-14.99Q192.70-16.36 189.26-19.32L189.26-19.32L189.26-19.32Q185.81-22.28 185.81-27.78L185.81-27.78L185.81-27.78Q185.81-30.78 187.11-33.21L187.11-33.21L187.11-33.21Q188.41-35.64 190.75-37.26L190.75-37.26L190.75-37.26Q193.10-38.88 196.38-39.77L196.38-39.77L196.38-39.77Q199.66-40.66 203.63-40.66L203.63-40.66L203.63-40.66Q206.63-40.66 209.26-40.22L209.26-40.22L209.26-40.22Q211.90-39.77 213.84-38.88L213.84-38.88L213.84-38.88Q215.78-37.99 216.92-36.57L216.92-36.57L216.92-36.57Q218.05-35.15 218.05-33.21L218.05-33.21L218.05-33.21Q218.05-31.35 217.36-30.01L217.36-30.01L217.36-30.01Q216.67-28.67 215.62-27.78L215.62-27.78L215.62-27.78Q214.97-28.19 213.68-28.63L213.68-28.63L213.68-28.63Q212.38-29.08 210.84-29.44L210.84-29.44L210.84-29.44Q209.30-29.81 207.72-30.05L207.72-30.05L207.72-30.05Q206.14-30.29 204.85-30.29L204.85-30.29L204.85-30.29Q202.18-30.29 200.72-29.69L200.72-29.69L200.72-29.69Q199.26-29.08 199.26-27.78L199.26-27.78L199.26-27.78Q199.26-26.89 200.07-26.32L200.07-26.32L200.07-26.32Q200.88-25.76 203.15-25.27L203.15-25.27L205.66-24.71L205.66-24.71Q213.43-22.92 216.72-19.80L216.72-19.80L216.72-19.80Q220.00-16.69 220.00-11.75ZM247.86 1.30L247.86 1.30L247.86 1.30Q243.08 1.30 238.99-0.04L238.99-0.04L238.99-0.04Q234.90-1.38 231.86-4.05L231.86-4.05L231.86-4.05Q228.82-6.72 227.08-10.77L227.08-10.77L227.08-10.77Q225.34-14.82 225.34-20.25L225.34-20.25L225.34-20.25Q225.34-25.60 227.08-29.44L227.08-29.44L227.08-29.44Q228.82-33.29 231.66-35.76L231.66-35.76L231.66-35.76Q234.49-38.23 238.14-39.41L238.14-39.41L238.14-39.41Q241.78-40.58 245.59-40.58L245.59-40.58L245.59-40.58Q249.88-40.58 253.41-39.29L253.41-39.29L253.41-39.29Q256.93-37.99 259.48-35.72L259.48-35.72L259.48-35.72Q262.03-33.45 263.45-30.29L263.45-30.29L263.45-30.29Q264.87-27.14 264.87-23.41L264.87-23.41L264.87-23.41Q264.87-20.66 263.33-19.20L263.33-19.20L263.33-19.20Q261.79-17.74 259.04-17.33L259.04-17.33L239.03-14.34L239.03-14.34Q239.92-11.66 242.68-10.33L242.68-10.33L242.68-10.33Q245.43-8.99 248.99-8.99L248.99-8.99L248.99-8.99Q252.31-8.99 255.27-9.84L255.27-9.84L255.27-9.84Q258.23-10.69 260.09-11.83L260.09-11.83L260.09-11.83Q261.39-11.02 262.28-9.56L262.28-9.56L262.28-9.56Q263.17-8.10 263.17-6.48L263.17-6.48L263.17-6.48Q263.17-2.83 259.77-1.05L259.77-1.05L259.77-1.05Q257.18 0.32 253.94 0.81L253.94 0.81L253.94 0.81Q250.69 1.30 247.86 1.30ZM245.59-30.54L245.59-30.54L245.59-30.54Q243.65-30.54 242.23-29.89L242.23-29.89L242.23-29.89Q240.81-29.24 239.92-28.23L239.92-28.23L239.92-28.23Q239.03-27.22 238.59-25.96L238.59-25.96L238.59-25.96Q238.14-24.71 238.06-23.41L238.06-23.41L251.91-25.68L251.91-25.68Q251.67-27.30 250.13-28.92L250.13-28.92L250.13-28.92Q248.59-30.54 245.59-30.54ZM270.13-24.62L270.13-24.62L270.13-24.62Q270.13-30.94 272.12-35.80L272.12-35.80L272.12-35.80Q274.10-40.66 277.55-43.94L277.55-43.94L277.55-43.94Q280.99-47.22 285.65-48.92L285.65-48.92L285.65-48.92Q290.30-50.63 295.73-50.63L295.73-50.63L295.73-50.63Q301.16-50.63 305.82-48.92L305.82-48.92L305.82-48.92Q310.47-47.22 313.96-43.94L313.96-43.94L313.96-43.94Q317.44-40.66 319.42-35.80L319.42-35.80L319.42-35.80Q321.41-30.94 321.41-24.62L321.41-24.62L321.41-24.62Q321.41-16.69 318.49-11.14L318.49-11.14L318.49-11.14Q315.58-5.59 310.55-2.43L310.55-2.43L310.55-2.43Q311.77-1.86 313.43-1.22L313.43-1.22L313.43-1.22Q315.09-0.57 316.91 0.08L316.91 0.08L316.91 0.08Q318.74 0.73 320.68 1.34L320.68 1.34L320.68 1.34Q322.62 1.94 324.32 2.43L324.32 2.43L324.32 2.43Q324.41 2.92 324.41 3.28L324.41 3.28L324.41 3.28Q324.41 3.65 324.41 3.97L324.41 3.97L324.41 3.97Q324.41 8.59 322.02 10.69L322.02 10.69L322.02 10.69Q319.63 12.80 315.74 12.80L315.74 12.80L315.74 12.80Q312.01 12.80 308.04 10.73L308.04 10.73L308.04 10.73Q304.07 8.67 299.94 4.78L299.94 4.78L296.38 1.46L295.73 1.46L295.73 1.46Q290.22 1.46 285.53-0.28L285.53-0.28L285.53-0.28Q280.83-2.02 277.43-5.35L277.43-5.35L277.43-5.35Q274.02-8.67 272.08-13.53L272.08-13.53L272.08-13.53Q270.13-18.39 270.13-24.62ZM284.72-24.62L284.72-24.62L284.72-24.62Q284.72-17.25 287.71-13.61L287.71-13.61L287.71-13.61Q290.71-9.96 295.73-9.96L295.73-9.96L295.73-9.96Q300.83-9.96 303.83-13.61L303.83-13.61L303.83-13.61Q306.83-17.25 306.83-24.62L306.83-24.62L306.83-24.62Q306.83-31.91 303.87-35.56L303.87-35.56L303.87-35.56Q300.92-39.20 295.81-39.20L295.81-39.20L295.81-39.20Q290.79-39.20 287.75-35.60L287.75-35.60L287.75-35.60Q284.72-32.00 284.72-24.62ZM328.62-15.63L328.62-38.80L328.62-38.80Q329.43-39.04 331.17-39.29L331.17-39.29L331.17-39.29Q332.91-39.53 334.77-39.53L334.77-39.53L334.77-39.53Q336.56-39.53 337.97-39.29L337.97-39.29L337.97-39.29Q339.39-39.04 340.36-38.31L340.36-38.31L340.36-38.31Q341.33-37.58 341.86-36.33L341.86-36.33L341.86-36.33Q342.39-35.07 342.39-33.05L342.39-33.05L342.39-15.63L342.39-15.63Q342.39-12.31 344.01-10.89L344.01-10.89L344.01-10.89Q345.63-9.48 348.71-9.48L348.71-9.48L348.71-9.48Q350.57-9.48 351.74-9.80L351.74-9.80L351.74-9.80Q352.92-10.13 353.57-10.45L353.57-10.45L353.57-38.80L353.57-38.80Q354.38-39.04 356.12-39.29L356.12-39.29L356.12-39.29Q357.86-39.53 359.72-39.53L359.72-39.53L359.72-39.53Q361.50-39.53 362.92-39.29L362.92-39.29L362.92-39.29Q364.34-39.04 365.31-38.31L365.31-38.31L365.31-38.31Q366.28-37.58 366.81-36.33L366.81-36.33L366.81-36.33Q367.34-35.07 367.34-33.05L367.34-33.05L367.34-8.42L367.34-8.42Q367.34-4.37 363.93-2.35L363.93-2.35L363.93-2.35Q361.10-0.57 357.17 0.36L357.17 0.36L357.17 0.36Q353.24 1.30 348.62 1.30L348.62 1.30L348.62 1.30Q344.25 1.30 340.56 0.32L340.56 0.32L340.56 0.32Q336.88-0.65 334.21-2.67L334.21-2.67L334.21-2.67Q331.53-4.70 330.08-7.90L330.08-7.90L330.08-7.90Q328.62-11.10 328.62-15.63L328.62-15.63ZM375.44-50.30L375.44-50.30L375.44-50.30Q375.44-53.38 377.50-55.48L377.50-55.48L377.50-55.48Q379.57-57.59 382.97-57.59L382.97-57.59L382.97-57.59Q386.37-57.59 388.44-55.48L388.44-55.48L388.44-55.48Q390.50-53.38 390.50-50.30L390.50-50.30L390.50-50.30Q390.50-47.22 388.44-45.12L388.44-45.12L388.44-45.12Q386.37-43.01 382.97-43.01L382.97-43.01L382.97-43.01Q379.57-43.01 377.50-45.12L377.50-45.12L377.50-45.12Q375.44-47.22 375.44-50.30ZM389.85-33.05L389.85-0.08L389.85-0.08Q388.96 0.08 387.22 0.36L387.22 0.36L387.22 0.36Q385.48 0.65 383.70 0.65L383.70 0.65L383.70 0.65Q381.92 0.65 380.50 0.41L380.50 0.41L380.50 0.41Q379.08 0.16 378.11-0.57L378.11-0.57L378.11-0.57Q377.14-1.30 376.61-2.55L376.61-2.55L376.61-2.55Q376.08-3.81 376.08-5.83L376.08-5.83L376.08-38.80L376.08-38.80Q376.97-38.96 378.72-39.24L378.72-39.24L378.72-39.24Q380.46-39.53 382.24-39.53L382.24-39.53L382.24-39.53Q384.02-39.53 385.44-39.29L385.44-39.29L385.44-39.29Q386.86-39.04 387.83-38.31L387.83-38.31L387.83-38.31Q388.80-37.58 389.33-36.33L389.33-36.33L389.33-36.33Q389.85-35.07 389.85-33.05L389.85-33.05ZM426.79 0L399.98 0L399.98 0Q398.68-1.13 397.91-2.67L397.91-2.67L397.91-2.67Q397.14-4.21 397.14-6.16L397.14-6.16L397.14-6.16Q397.14-7.78 397.91-9.36L397.91-9.36L397.91-9.36Q398.68-10.94 399.82-12.31L399.82-12.31L413.75-28.67L398.84-28.67L398.84-28.67Q398.36-29.57 397.91-30.94L397.91-30.94L397.91-30.94Q397.47-32.32 397.47-33.94L397.47-33.94L397.47-33.94Q397.47-36.77 398.72-38.03L398.72-38.03L398.72-38.03Q399.98-39.29 402.08-39.29L402.08-39.29L427.60-39.29L427.60-39.29Q428.89-38.15 429.66-36.61L429.66-36.61L429.66-36.61Q430.43-35.07 430.43-33.13L430.43-33.13L430.43-33.13Q430.43-31.51 429.66-29.93L429.66-29.93L429.66-29.93Q428.89-28.35 427.76-26.97L427.76-26.97L414.15-10.61L430.03-10.61L430.03-10.61Q430.51-9.72 430.96-8.34L430.96-8.34L430.96-8.34Q431.41-6.97 431.41-5.35L431.41-5.35L431.41-5.35Q431.41-2.51 430.15-1.26L430.15-1.26L430.15-1.26Q428.89 0 426.79 0L426.79 0ZM465.75 0L438.94 0L438.94 0Q437.64-1.13 436.87-2.67L436.87-2.67L436.87-2.67Q436.10-4.21 436.10-6.16L436.10-6.16L436.10-6.16Q436.10-7.78 436.87-9.36L436.87-9.36L436.87-9.36Q437.64-10.94 438.78-12.31L438.78-12.31L452.71-28.67L437.81-28.67L437.81-28.67Q437.32-29.57 436.87-30.94L436.87-30.94L436.87-30.94Q436.43-32.32 436.43-33.94L436.43-33.94L436.43-33.94Q436.43-36.77 437.68-38.03L437.68-38.03L437.68-38.03Q438.94-39.29 441.05-39.29L441.05-39.29L466.56-39.29L466.56-39.29Q467.86-38.15 468.63-36.61L468.63-36.61L468.63-36.61Q469.40-35.07 469.40-33.13L469.40-33.13L469.40-33.13Q469.40-31.51 468.63-29.93L468.63-29.93L468.63-29.93Q467.86-28.35 466.72-26.97L466.72-26.97L453.11-10.61L468.99-10.61L468.99-10.61Q469.48-9.72 469.92-8.34L469.92-8.34L469.92-8.34Q470.37-6.97 470.37-5.35L470.37-5.35L470.37-5.35Q470.37-2.51 469.11-1.26L469.11-1.26L469.11-1.26Q467.86 0 465.75 0L465.75 0Z" fill="#fdd05f"></path></g></g><style>text {
  font-size: 64px;
  font-family: Arial Black;
  dominant-baseline: central;
  text-anchor: middle;
}</style></svg>