<svg width="1114.280029296875px" height="158.68001708984374px" xmlns="http://www.w3.org/2000/svg" viewBox="-307.1400146484375 -4.340008544921872 1114.280029296875 158.68001708984374" style="background: rgb(76, 125, 123);" preserveAspectRatio="xMidYMid"><defs><filter id="editing-hover" x="-100%" y="-100%" width="300%" height="300%"><feFlood flood-color="#004643" result="flood"></feFlood><feComposite operator="in" in2="SourceAlpha" in="flood" result="shadow"></feComposite><feOffset dx="-4" dy="-4" in="SourceGraphic" result="offset-1"></feOffset><feOffset dx="4" dy="4" in="shadow" result="offset-2"></feOffset><feMerge><feMergeNode in="offset-2"></feMergeNode><feMergeNode in="offset-1"></feMergeNode></feMerge></filter></defs><g filter="url(#editing-hover)"><g transform="translate(-151.21999943256378, 101.76000022888184)"><path d="M11.22-27.96L2.22-27.96L2.22-27.96Q1.80-28.62 1.44-29.76L1.44-29.76L1.44-29.76Q1.08-30.90 1.08-32.16L1.08-32.16L1.08-32.16Q1.08-34.50 2.13-35.52L2.13-35.52L2.13-35.52Q3.18-36.54 4.86-36.54L4.86-36.54L31.02-36.54L31.02-36.54Q31.44-35.88 31.80-34.74L31.80-34.74L31.80-34.74Q32.16-33.60 32.16-32.34L32.16-32.34L32.16-32.34Q32.16-30 31.11-28.98L31.11-28.98L31.11-28.98Q30.06-27.96 28.38-27.96L28.38-27.96L21.72-27.96L21.72-0.24L21.72-0.24Q21.06-0.06 19.65 0.12L19.65 0.12L19.65 0.12Q18.24 0.30 16.86 0.30L16.86 0.30L16.86 0.30Q15.48 0.30 14.43 0.09L14.43 0.09L14.43 0.09Q13.38-0.12 12.66-0.66L12.66-0.66L12.66-0.66Q11.94-1.20 11.58-2.16L11.58-2.16L11.58-2.16Q11.22-3.12 11.22-4.68L11.22-4.68L11.22-27.96ZM65.28-18.24L65.28-0.06L65.28-0.06Q64.68 0.12 63.39 0.30L63.39 0.30L63.39 0.30Q62.10 0.48 60.72 0.48L60.72 0.48L60.72 0.48Q59.40 0.48 58.35 0.30L58.35 0.30L58.35 0.30Q57.30 0.12 56.58-0.42L56.58-0.42L56.58-0.42Q55.86-0.96 55.47-1.89L55.47-1.89L55.47-1.89Q55.08-2.82 55.08-4.32L55.08-4.32L55.08-17.64L55.08-17.64Q55.08-20.10 53.85-21.09L53.85-21.09L53.85-21.09Q52.62-22.08 50.82-22.08L50.82-22.08L50.82-22.08Q49.62-22.08 48.54-21.78L48.54-21.78L48.54-21.78Q47.46-21.48 46.80-21.06L46.80-21.06L46.80-0.06L46.80-0.06Q46.20 0.12 44.91 0.30L44.91 0.30L44.91 0.30Q43.62 0.48 42.24 0.48L42.24 0.48L42.24 0.48Q40.92 0.48 39.87 0.30L39.87 0.30L39.87 0.30Q38.82 0.12 38.10-0.42L38.10-0.42L38.10-0.42Q37.38-0.96 36.99-1.89L36.99-1.89L36.99-1.89Q36.60-2.82 36.60-4.32L36.60-4.32L36.60-39.12L36.60-39.12Q37.26-39.24 38.55-39.45L38.55-39.45L38.55-39.45Q39.84-39.66 41.16-39.66L41.16-39.66L41.16-39.66Q42.48-39.66 43.53-39.48L43.53-39.48L43.53-39.48Q44.58-39.30 45.30-38.76L45.30-38.76L45.30-38.76Q46.02-38.22 46.41-37.29L46.41-37.29L46.41-37.29Q46.80-36.36 46.80-34.86L46.80-34.86L46.80-28.98L46.80-28.98Q47.58-29.28 49.17-29.67L49.17-29.67L49.17-29.67Q50.76-30.06 52.68-30.06L52.68-30.06L52.68-30.06Q58.62-30.06 61.95-27.09L61.95-27.09L61.95-27.09Q65.28-24.12 65.28-18.24L65.28-18.24ZM87 0.96L87 0.96L87 0.96Q83.46 0.96 80.43-0.03L80.43-0.03L80.43-0.03Q77.40-1.02 75.15-3L75.15-3L75.15-3Q72.90-4.98 71.61-7.98L71.61-7.98L71.61-7.98Q70.32-10.98 70.32-15L70.32-15L70.32-15Q70.32-18.96 71.61-21.81L71.61-21.81L71.61-21.81Q72.90-24.66 75.00-26.49L75.00-26.49L75.00-26.49Q77.10-28.32 79.80-29.19L79.80-29.19L79.80-29.19Q82.50-30.06 85.32-30.06L85.32-30.06L85.32-30.06Q88.50-30.06 91.11-29.10L91.11-29.10L91.11-29.10Q93.72-28.14 95.61-26.46L95.61-26.46L95.61-26.46Q97.50-24.78 98.55-22.44L98.55-22.44L98.55-22.44Q99.60-20.10 99.60-17.34L99.60-17.34L99.60-17.34Q99.60-15.30 98.46-14.22L98.46-14.22L98.46-14.22Q97.32-13.14 95.28-12.84L95.28-12.84L80.46-10.62L80.46-10.62Q81.12-8.64 83.16-7.65L83.16-7.65L83.16-7.65Q85.20-6.66 87.84-6.66L87.84-6.66L87.84-6.66Q90.30-6.66 92.49-7.29L92.49-7.29L92.49-7.29Q94.68-7.92 96.06-8.76L96.06-8.76L96.06-8.76Q97.02-8.16 97.68-7.08L97.68-7.08L97.68-7.08Q98.34-6 98.34-4.80L98.34-4.80L98.34-4.80Q98.34-2.10 95.82-0.78L95.82-0.78L95.82-0.78Q93.90 0.24 91.50 0.60L91.50 0.60L91.50 0.60Q89.10 0.96 87 0.96ZM85.32-22.62L85.32-22.62L85.32-22.62Q83.88-22.62 82.83-22.14L82.83-22.14L82.83-22.14Q81.78-21.66 81.12-20.91L81.12-20.91L81.12-20.91Q80.46-20.16 80.13-19.23L80.13-19.23L80.13-19.23Q79.80-18.30 79.74-17.34L79.74-17.34L90-19.02L90-19.02Q89.82-20.22 88.68-21.42L88.68-21.42L88.68-21.42Q87.54-22.62 85.32-22.62ZM130.50-30.06L130.50-30.06L130.50-30.06Q132.96-30.06 135.33-29.37L135.33-29.37L135.33-29.37Q137.70-28.68 139.44-27.30L139.44-27.30L139.44-27.30Q141.24-28.50 143.49-29.28L143.49-29.28L143.49-29.28Q145.74-30.06 148.92-30.06L148.92-30.06L148.92-30.06Q151.20-30.06 153.39-29.46L153.39-29.46L153.39-29.46Q155.58-28.86 157.29-27.57L157.29-27.57L157.29-27.57Q159-26.28 160.02-24.15L160.02-24.15L160.02-24.15Q161.04-22.02 161.04-18.96L161.04-18.96L161.04-0.06L161.04-0.06Q160.44 0.12 159.15 0.30L159.15 0.30L159.15 0.30Q157.86 0.48 156.48 0.48L156.48 0.48L156.48 0.48Q155.16 0.48 154.11 0.30L154.11 0.30L154.11 0.30Q153.06 0.12 152.34-0.42L152.34-0.42L152.34-0.42Q151.62-0.96 151.23-1.89L151.23-1.89L151.23-1.89Q150.84-2.82 150.84-4.32L150.84-4.32L150.84-18.66L150.84-18.66Q150.84-20.46 149.82-21.27L149.82-21.27L149.82-21.27Q148.80-22.08 147.06-22.08L147.06-22.08L147.06-22.08Q146.22-22.08 145.26-21.69L145.26-21.69L145.26-21.69Q144.30-21.30 143.82-20.88L143.82-20.88L143.82-20.88Q143.88-20.64 143.88-20.43L143.88-20.43L143.88-20.43Q143.88-20.22 143.88-20.04L143.88-20.04L143.88-0.06L143.88-0.06Q143.22 0.12 141.93 0.30L141.93 0.30L141.93 0.30Q140.64 0.48 139.32 0.48L139.32 0.48L139.32 0.48Q138 0.48 136.95 0.30L136.95 0.30L136.95 0.30Q135.90 0.12 135.18-0.42L135.18-0.42L135.18-0.42Q134.46-0.96 134.07-1.89L134.07-1.89L134.07-1.89Q133.68-2.82 133.68-4.32L133.68-4.32L133.68-18.66L133.68-18.66Q133.68-20.46 132.57-21.27L132.57-21.27L132.57-21.27Q131.46-22.08 129.90-22.08L129.90-22.08L129.90-22.08Q128.82-22.08 128.04-21.75L128.04-21.75L128.04-21.75Q127.26-21.42 126.72-21.12L126.72-21.12L126.72-0.06L126.72-0.06Q126.12 0.12 124.83 0.30L124.83 0.30L124.83 0.30Q123.54 0.48 122.16 0.48L122.16 0.48L122.16 0.48Q120.84 0.48 119.79 0.30L119.79 0.30L119.79 0.30Q118.74 0.12 118.02-0.42L118.02-0.42L118.02-0.42Q117.30-0.96 116.91-1.89L116.91-1.89L116.91-1.89Q116.52-2.82 116.52-4.32L116.52-4.32L116.52-22.44L116.52-22.44Q116.52-24.06 117.21-25.02L117.21-25.02L117.21-25.02Q117.90-25.98 119.10-26.82L119.10-26.82L119.10-26.82Q121.14-28.26 124.17-29.16L124.17-29.16L124.17-29.16Q127.20-30.06 130.50-30.06ZM179.76-6.48L179.76-6.48L179.76-6.48Q180.78-6.48 182.01-6.69L182.01-6.69L182.01-6.69Q183.24-6.90 183.84-7.26L183.84-7.26L183.84-12.06L179.52-11.70L179.52-11.70Q177.84-11.58 176.76-10.98L176.76-10.98L176.76-10.98Q175.68-10.38 175.68-9.18L175.68-9.18L175.68-9.18Q175.68-7.98 176.61-7.23L176.61-7.23L176.61-7.23Q177.54-6.48 179.76-6.48ZM179.28-30.06L179.28-30.06L179.28-30.06Q182.52-30.06 185.19-29.40L185.19-29.40L185.19-29.40Q187.86-28.74 189.75-27.39L189.75-27.39L189.75-27.39Q191.64-26.04 192.66-23.97L192.66-23.97L192.66-23.97Q193.68-21.90 193.68-19.08L193.68-19.08L193.68-5.64L193.68-5.64Q193.68-4.08 192.81-3.09L192.81-3.09L192.81-3.09Q191.94-2.10 190.74-1.38L190.74-1.38L190.74-1.38Q186.84 0.96 179.76 0.96L179.76 0.96L179.76 0.96Q176.58 0.96 174.03 0.36L174.03 0.36L174.03 0.36Q171.48-0.24 169.65-1.44L169.65-1.44L169.65-1.44Q167.82-2.64 166.83-4.50L166.83-4.50L166.83-4.50Q165.84-6.36 165.84-8.82L165.84-8.82L165.84-8.82Q165.84-12.96 168.30-15.18L168.30-15.18L168.30-15.18Q170.76-17.40 175.92-17.94L175.92-17.94L183.78-18.78L183.78-19.20L183.78-19.20Q183.78-20.94 182.25-21.69L182.25-21.69L182.25-21.69Q180.72-22.44 177.84-22.44L177.84-22.44L177.84-22.44Q175.56-22.44 173.40-21.96L173.40-21.96L173.40-21.96Q171.24-21.48 169.50-20.76L169.50-20.76L169.50-20.76Q168.72-21.30 168.18-22.41L168.18-22.41L168.18-22.41Q167.64-23.52 167.64-24.72L167.64-24.72L167.64-24.72Q167.64-26.28 168.39-27.21L168.39-27.21L168.39-27.21Q169.14-28.14 170.70-28.80L170.70-28.80L170.70-28.80Q172.44-29.46 174.81-29.76L174.81-29.76L174.81-29.76Q177.18-30.06 179.28-30.06ZM214.14-30.06L214.14-30.06L214.14-30.06Q217.56-30.06 220.35-29.19L220.35-29.19L220.35-29.19Q223.14-28.32 225.06-26.94L225.06-26.94L225.06-26.94Q226.26-26.10 226.95-25.08L226.95-25.08L226.95-25.08Q227.64-24.06 227.64-22.44L227.64-22.44L227.64-1.44L227.64-1.44Q227.64 1.74 226.44 4.05L226.44 4.05L226.44 4.05Q225.24 6.36 223.17 7.89L223.17 7.89L223.17 7.89Q221.10 9.42 218.31 10.14L218.31 10.14L218.31 10.14Q215.52 10.86 212.34 10.86L212.34 10.86L212.34 10.86Q206.88 10.86 203.76 9.39L203.76 9.39L203.76 9.39Q200.64 7.92 200.64 4.62L200.64 4.62L200.64 4.62Q200.64 3.24 201.21 2.19L201.21 2.19L201.21 2.19Q201.78 1.14 202.50 0.60L202.50 0.60L202.50 0.60Q204.24 1.56 206.43 2.22L206.43 2.22L206.43 2.22Q208.62 2.88 210.96 2.88L210.96 2.88L210.96 2.88Q214.20 2.88 216.12 1.80L216.12 1.80L216.12 1.80Q218.04 0.72 218.04-1.68L218.04-1.68L218.04-2.64L218.04-2.64Q215.58-1.56 212.04-1.56L212.04-1.56L212.04-1.56Q209.34-1.56 206.91-2.37L206.91-2.37L206.91-2.37Q204.48-3.18 202.65-4.89L202.65-4.89L202.65-4.89Q200.82-6.60 199.71-9.30L199.71-9.30L199.71-9.30Q198.60-12 198.60-15.72L198.60-15.72L198.60-15.72Q198.60-19.38 199.77-22.08L199.77-22.08L199.77-22.08Q200.94-24.78 203.01-26.55L203.01-26.55L203.01-26.55Q205.08-28.32 207.93-29.19L207.93-29.19L207.93-29.19Q210.78-30.06 214.14-30.06ZM217.86-10.32L217.86-21.36L217.86-21.36Q217.44-21.60 216.63-21.84L216.63-21.84L216.63-21.84Q215.82-22.08 214.62-22.08L214.62-22.08L214.62-22.08Q211.68-22.08 210.21-20.43L210.21-20.43L210.21-20.43Q208.74-18.78 208.74-15.72L208.74-15.72L208.74-15.72Q208.74-12.24 210.21-10.71L210.21-10.71L210.21-10.71Q211.68-9.18 213.96-9.18L213.96-9.18L213.96-9.18Q216.42-9.18 217.86-10.32L217.86-10.32ZM233.70-37.26L233.70-37.26L233.70-37.26Q233.70-39.54 235.23-41.10L235.23-41.10L235.23-41.10Q236.76-42.66 239.28-42.66L239.28-42.66L239.28-42.66Q241.80-42.66 243.33-41.10L243.33-41.10L243.33-41.10Q244.86-39.54 244.86-37.26L244.86-37.26L244.86-37.26Q244.86-34.98 243.33-33.42L243.33-33.42L243.33-33.42Q241.80-31.86 239.28-31.86L239.28-31.86L239.28-31.86Q236.76-31.86 235.23-33.42L235.23-33.42L235.23-33.42Q233.70-34.98 233.70-37.26ZM244.38-24.48L244.38-0.06L244.38-0.06Q243.72 0.06 242.43 0.27L242.43 0.27L242.43 0.27Q241.14 0.48 239.82 0.48L239.82 0.48L239.82 0.48Q238.50 0.48 237.45 0.30L237.45 0.30L237.45 0.30Q236.40 0.12 235.68-0.42L235.68-0.42L235.68-0.42Q234.96-0.96 234.57-1.89L234.57-1.89L234.57-1.89Q234.18-2.82 234.18-4.32L234.18-4.32L234.18-28.74L234.18-28.74Q234.84-28.86 236.13-29.07L236.13-29.07L236.13-29.07Q237.42-29.28 238.74-29.28L238.74-29.28L238.74-29.28Q240.06-29.28 241.11-29.10L241.11-29.10L241.11-29.10Q242.16-28.92 242.88-28.38L242.88-28.38L242.88-28.38Q243.60-27.84 243.99-26.91L243.99-26.91L243.99-26.91Q244.38-25.98 244.38-24.48L244.38-24.48ZM267.30-22.02L267.30-22.02L267.30-22.02Q265.80-22.02 264.45-21.54L264.45-21.54L264.45-21.54Q263.10-21.06 262.11-20.13L262.11-20.13L262.11-20.13Q261.12-19.20 260.52-17.82L260.52-17.82L260.52-17.82Q259.92-16.44 259.92-14.58L259.92-14.58L259.92-14.58Q259.92-10.86 262.05-9L262.05-9L262.05-9Q264.18-7.14 267.24-7.14L267.24-7.14L267.24-7.14Q269.04-7.14 270.36-7.56L270.36-7.56L270.36-7.56Q271.68-7.98 272.70-8.46L272.70-8.46L272.70-8.46Q273.90-7.62 274.50-6.63L274.50-6.63L274.50-6.63Q275.10-5.64 275.10-4.26L275.10-4.26L275.10-4.26Q275.10-1.80 272.76-0.45L272.76-0.45L272.76-0.45Q270.42 0.90 266.28 0.90L266.28 0.90L266.28 0.90Q262.50 0.90 259.44-0.21L259.44-0.21L259.44-0.21Q256.38-1.32 254.19-3.33L254.19-3.33L254.19-3.33Q252.00-5.34 250.80-8.16L250.80-8.16L250.80-8.16Q249.60-10.98 249.60-14.40L249.60-14.40L249.60-14.40Q249.60-18.36 250.89-21.33L250.89-21.33L250.89-21.33Q252.18-24.30 254.40-26.22L254.40-26.22L254.40-26.22Q256.62-28.14 259.53-29.10L259.53-29.10L259.53-29.10Q262.44-30.06 265.68-30.06L265.68-30.06L265.68-30.06Q270-30.06 272.34-28.50L272.34-28.50L272.34-28.50Q274.68-26.94 274.68-24.48L274.68-24.48L274.68-24.48Q274.68-23.34 274.14-22.35L274.14-22.35L274.14-22.35Q273.60-21.36 272.88-20.64L272.88-20.64L272.88-20.64Q271.86-21.12 270.42-21.57L270.42-21.57L270.42-21.57Q268.98-22.02 267.30-22.02ZM292.68-6.48L292.68-6.48L292.68-6.48Q293.70-6.48 294.93-6.69L294.93-6.69L294.93-6.69Q296.16-6.90 296.76-7.26L296.76-7.26L296.76-12.06L292.44-11.70L292.44-11.70Q290.76-11.58 289.68-10.98L289.68-10.98L289.68-10.98Q288.60-10.38 288.60-9.18L288.60-9.18L288.60-9.18Q288.60-7.98 289.53-7.23L289.53-7.23L289.53-7.23Q290.46-6.48 292.68-6.48ZM292.20-30.06L292.20-30.06L292.20-30.06Q295.44-30.06 298.11-29.40L298.11-29.40L298.11-29.40Q300.78-28.74 302.67-27.39L302.67-27.39L302.67-27.39Q304.56-26.04 305.58-23.97L305.58-23.97L305.58-23.97Q306.60-21.90 306.60-19.08L306.60-19.08L306.60-5.64L306.60-5.64Q306.60-4.08 305.73-3.09L305.73-3.09L305.73-3.09Q304.86-2.10 303.66-1.38L303.66-1.38L303.66-1.38Q299.76 0.96 292.68 0.96L292.68 0.96L292.68 0.96Q289.50 0.96 286.95 0.36L286.95 0.36L286.95 0.36Q284.40-0.24 282.57-1.44L282.57-1.44L282.57-1.44Q280.74-2.64 279.75-4.50L279.75-4.50L279.75-4.50Q278.76-6.36 278.76-8.82L278.76-8.82L278.76-8.82Q278.76-12.96 281.22-15.18L281.22-15.18L281.22-15.18Q283.68-17.40 288.84-17.94L288.84-17.94L296.70-18.78L296.70-19.20L296.70-19.20Q296.70-20.94 295.17-21.69L295.17-21.69L295.17-21.69Q293.64-22.44 290.76-22.44L290.76-22.44L290.76-22.44Q288.48-22.44 286.32-21.96L286.32-21.96L286.32-21.96Q284.16-21.48 282.42-20.76L282.42-20.76L282.42-20.76Q281.64-21.30 281.10-22.41L281.10-22.41L281.10-22.41Q280.56-23.52 280.56-24.72L280.56-24.72L280.56-24.72Q280.56-26.28 281.31-27.21L281.31-27.21L281.31-27.21Q282.06-28.14 283.62-28.80L283.62-28.80L283.62-28.80Q285.36-29.46 287.73-29.76L287.73-29.76L287.73-29.76Q290.10-30.06 292.20-30.06ZM323.22-34.86L323.22-0.06L323.22-0.06Q322.56 0.06 321.27 0.27L321.27 0.27L321.27 0.27Q319.98 0.48 318.66 0.48L318.66 0.48L318.66 0.48Q317.34 0.48 316.29 0.30L316.29 0.30L316.29 0.30Q315.24 0.12 314.52-0.42L314.52-0.42L314.52-0.42Q313.80-0.96 313.41-1.89L313.41-1.89L313.41-1.89Q313.02-2.82 313.02-4.32L313.02-4.32L313.02-39.12L313.02-39.12Q313.68-39.24 314.97-39.45L314.97-39.45L314.97-39.45Q316.26-39.66 317.58-39.66L317.58-39.66L317.58-39.66Q318.90-39.66 319.95-39.48L319.95-39.48L319.95-39.48Q321.00-39.30 321.72-38.76L321.72-38.76L321.72-38.76Q322.44-38.22 322.83-37.29L322.83-37.29L322.83-37.29Q323.22-36.36 323.22-34.86L323.22-34.86ZM360.96-29.04L360.96-29.04L360.96-29.04Q356.34-29.04 353.88-26.22L353.88-26.22L353.88-26.22Q351.42-23.40 351.42-18.24L351.42-18.24L351.42-18.24Q351.42-13.02 354.15-10.20L354.15-10.20L354.15-10.20Q356.88-7.38 361.50-7.38L361.50-7.38L361.50-7.38Q363.96-7.38 365.67-8.04L365.67-8.04L365.67-8.04Q367.38-8.70 368.94-9.54L368.94-9.54L368.94-9.54Q369.96-8.70 370.53-7.53L370.53-7.53L370.53-7.53Q371.10-6.36 371.10-4.80L371.10-4.80L371.10-4.80Q371.10-2.34 368.37-0.63L368.37-0.63L368.37-0.63Q365.64 1.08 360.06 1.08L360.06 1.08L360.06 1.08Q356.04 1.08 352.50-0.06L352.50-0.06L352.50-0.06Q348.96-1.20 346.32-3.57L346.32-3.57L346.32-3.57Q343.68-5.94 342.15-9.57L342.15-9.57L342.15-9.57Q340.62-13.20 340.62-18.24L340.62-18.24L340.62-18.24Q340.62-22.92 342.09-26.49L342.09-26.49L342.09-26.49Q343.56-30.06 346.11-32.52L346.11-32.52L346.11-32.52Q348.66-34.98 352.08-36.24L352.08-36.24L352.08-36.24Q355.50-37.50 359.40-37.50L359.40-37.50L359.40-37.50Q364.92-37.50 367.95-35.70L367.95-35.70L367.95-35.70Q370.98-33.90 370.98-31.08L370.98-31.08L370.98-31.08Q370.98-29.52 370.20-28.38L370.20-28.38L370.20-28.38Q369.42-27.24 368.40-26.58L368.40-26.58L368.40-26.58Q366.84-27.60 365.07-28.32L365.07-28.32L365.07-28.32Q363.30-29.04 360.96-29.04ZM404.70-18.24L404.70-0.06L404.70-0.06Q404.10 0.12 402.81 0.30L402.81 0.30L402.81 0.30Q401.52 0.48 400.14 0.48L400.14 0.48L400.14 0.48Q398.82 0.48 397.77 0.30L397.77 0.30L397.77 0.30Q396.72 0.12 396-0.42L396-0.42L396-0.42Q395.28-0.96 394.89-1.89L394.89-1.89L394.89-1.89Q394.50-2.82 394.50-4.32L394.50-4.32L394.50-17.64L394.50-17.64Q394.50-20.10 393.27-21.09L393.27-21.09L393.27-21.09Q392.04-22.08 390.24-22.08L390.24-22.08L390.24-22.08Q389.04-22.08 387.96-21.78L387.96-21.78L387.96-21.78Q386.88-21.48 386.22-21.06L386.22-21.06L386.22-0.06L386.22-0.06Q385.62 0.12 384.33 0.30L384.33 0.30L384.33 0.30Q383.04 0.48 381.66 0.48L381.66 0.48L381.66 0.48Q380.34 0.48 379.29 0.30L379.29 0.30L379.29 0.30Q378.24 0.12 377.52-0.42L377.52-0.42L377.52-0.42Q376.80-0.96 376.41-1.89L376.41-1.89L376.41-1.89Q376.02-2.82 376.02-4.32L376.02-4.32L376.02-39.12L376.02-39.12Q376.68-39.24 377.97-39.45L377.97-39.45L377.97-39.45Q379.26-39.66 380.58-39.66L380.58-39.66L380.58-39.66Q381.90-39.66 382.95-39.48L382.95-39.48L382.95-39.48Q384-39.30 384.72-38.76L384.72-38.76L384.72-38.76Q385.44-38.22 385.83-37.29L385.83-37.29L385.83-37.29Q386.22-36.36 386.22-34.86L386.22-34.86L386.22-28.98L386.22-28.98Q387-29.28 388.59-29.67L388.59-29.67L388.59-29.67Q390.18-30.06 392.10-30.06L392.10-30.06L392.10-30.06Q398.04-30.06 401.37-27.09L401.37-27.09L401.37-27.09Q404.70-24.12 404.70-18.24L404.70-18.24ZM426.42 0.96L426.42 0.96L426.42 0.96Q422.88 0.96 419.85-0.03L419.85-0.03L419.85-0.03Q416.82-1.02 414.57-3L414.57-3L414.57-3Q412.32-4.98 411.03-7.98L411.03-7.98L411.03-7.98Q409.74-10.98 409.74-15L409.74-15L409.74-15Q409.74-18.96 411.03-21.81L411.03-21.81L411.03-21.81Q412.32-24.66 414.42-26.49L414.42-26.49L414.42-26.49Q416.52-28.32 419.22-29.19L419.22-29.19L419.22-29.19Q421.92-30.06 424.74-30.06L424.74-30.06L424.74-30.06Q427.92-30.06 430.53-29.10L430.53-29.10L430.53-29.10Q433.14-28.14 435.03-26.46L435.03-26.46L435.03-26.46Q436.92-24.78 437.97-22.44L437.97-22.44L437.97-22.44Q439.02-20.10 439.02-17.34L439.02-17.34L439.02-17.34Q439.02-15.30 437.88-14.22L437.88-14.22L437.88-14.22Q436.74-13.14 434.70-12.84L434.70-12.84L419.88-10.62L419.88-10.62Q420.54-8.64 422.58-7.65L422.58-7.65L422.58-7.65Q424.62-6.66 427.26-6.66L427.26-6.66L427.26-6.66Q429.72-6.66 431.91-7.29L431.91-7.29L431.91-7.29Q434.10-7.92 435.48-8.76L435.48-8.76L435.48-8.76Q436.44-8.16 437.10-7.08L437.10-7.08L437.10-7.08Q437.76-6 437.76-4.80L437.76-4.80L437.76-4.80Q437.76-2.10 435.24-0.78L435.24-0.78L435.24-0.78Q433.32 0.24 430.92 0.60L430.92 0.60L430.92 0.60Q428.52 0.96 426.42 0.96ZM424.74-22.62L424.74-22.62L424.74-22.62Q423.30-22.62 422.25-22.14L422.25-22.14L422.25-22.14Q421.20-21.66 420.54-20.91L420.54-20.91L420.54-20.91Q419.88-20.16 419.55-19.23L419.55-19.23L419.55-19.23Q419.22-18.30 419.16-17.34L419.16-17.34L429.42-19.02L429.42-19.02Q429.24-20.22 428.10-21.42L428.10-21.42L428.10-21.42Q426.96-22.62 424.74-22.62ZM459.36 0.96L459.36 0.96L459.36 0.96Q455.82 0.96 452.79-0.03L452.79-0.03L452.79-0.03Q449.76-1.02 447.51-3L447.51-3L447.51-3Q445.26-4.98 443.97-7.98L443.97-7.98L443.97-7.98Q442.68-10.98 442.68-15L442.68-15L442.68-15Q442.68-18.96 443.97-21.81L443.97-21.81L443.97-21.81Q445.26-24.66 447.36-26.49L447.36-26.49L447.36-26.49Q449.46-28.32 452.16-29.19L452.16-29.19L452.16-29.19Q454.86-30.06 457.68-30.06L457.68-30.06L457.68-30.06Q460.86-30.06 463.47-29.10L463.47-29.10L463.47-29.10Q466.08-28.14 467.97-26.46L467.97-26.46L467.97-26.46Q469.86-24.78 470.91-22.44L470.91-22.44L470.91-22.44Q471.96-20.10 471.96-17.34L471.96-17.34L471.96-17.34Q471.96-15.30 470.82-14.22L470.82-14.22L470.82-14.22Q469.68-13.14 467.64-12.84L467.64-12.84L452.82-10.62L452.82-10.62Q453.48-8.64 455.52-7.65L455.52-7.65L455.52-7.65Q457.56-6.66 460.20-6.66L460.20-6.66L460.20-6.66Q462.66-6.66 464.85-7.29L464.85-7.29L464.85-7.29Q467.04-7.92 468.42-8.76L468.42-8.76L468.42-8.76Q469.38-8.16 470.04-7.08L470.04-7.08L470.04-7.08Q470.70-6 470.70-4.80L470.70-4.80L470.70-4.80Q470.70-2.10 468.18-0.78L468.18-0.78L468.18-0.78Q466.26 0.24 463.86 0.60L463.86 0.60L463.86 0.60Q461.46 0.96 459.36 0.96ZM457.68-22.62L457.68-22.62L457.68-22.62Q456.24-22.62 455.19-22.14L455.19-22.14L455.19-22.14Q454.14-21.66 453.48-20.91L453.48-20.91L453.48-20.91Q452.82-20.16 452.49-19.23L452.49-19.23L452.49-19.23Q452.16-18.30 452.10-17.34L452.10-17.34L462.36-19.02L462.36-19.02Q462.18-20.22 461.04-21.42L461.04-21.42L461.04-21.42Q459.90-22.62 457.68-22.62ZM501.48-8.70L501.48-8.70L501.48-8.70Q501.48-4.14 498.06-1.56L498.06-1.56L498.06-1.56Q494.64 1.02 487.98 1.02L487.98 1.02L487.98 1.02Q485.46 1.02 483.30 0.66L483.30 0.66L483.30 0.66Q481.14 0.30 479.61-0.45L479.61-0.45L479.61-0.45Q478.08-1.20 477.21-2.34L477.21-2.34L477.21-2.34Q476.34-3.48 476.34-5.04L476.34-5.04L476.34-5.04Q476.34-6.48 476.94-7.47L476.94-7.47L476.94-7.47Q477.54-8.46 478.38-9.12L478.38-9.12L478.38-9.12Q480.12-8.16 482.37-7.41L482.37-7.41L482.37-7.41Q484.62-6.66 487.56-6.66L487.56-6.66L487.56-6.66Q489.42-6.66 490.41-7.20L490.41-7.20L490.41-7.20Q491.40-7.74 491.40-8.64L491.40-8.64L491.40-8.64Q491.40-9.48 490.68-9.96L490.68-9.96L490.68-9.96Q489.96-10.44 488.28-10.74L488.28-10.74L486.48-11.10L486.48-11.10Q481.26-12.12 478.71-14.31L478.71-14.31L478.71-14.31Q476.16-16.50 476.16-20.58L476.16-20.58L476.16-20.58Q476.16-22.80 477.12-24.60L477.12-24.60L477.12-24.60Q478.08-26.40 479.82-27.60L479.82-27.60L479.82-27.60Q481.56-28.80 483.99-29.46L483.99-29.46L483.99-29.46Q486.42-30.12 489.36-30.12L489.36-30.12L489.36-30.12Q491.58-30.12 493.53-29.79L493.53-29.79L493.53-29.79Q495.48-29.46 496.92-28.80L496.92-28.80L496.92-28.80Q498.36-28.14 499.20-27.09L499.20-27.09L499.20-27.09Q500.04-26.04 500.04-24.60L500.04-24.60L500.04-24.60Q500.04-23.22 499.53-22.23L499.53-22.23L499.53-22.23Q499.02-21.24 498.24-20.58L498.24-20.58L498.24-20.58Q497.76-20.88 496.80-21.21L496.80-21.21L496.80-21.21Q495.84-21.54 494.70-21.81L494.70-21.81L494.70-21.81Q493.56-22.08 492.39-22.26L492.39-22.26L492.39-22.26Q491.22-22.44 490.26-22.44L490.26-22.44L490.26-22.44Q488.28-22.44 487.20-21.99L487.20-21.99L487.20-21.99Q486.12-21.54 486.12-20.58L486.12-20.58L486.12-20.58Q486.12-19.92 486.72-19.50L486.72-19.50L486.72-19.50Q487.32-19.08 489-18.72L489-18.72L490.86-18.30L490.86-18.30Q496.62-16.98 499.05-14.67L499.05-14.67L499.05-14.67Q501.48-12.36 501.48-8.70ZM522.12 0.96L522.12 0.96L522.12 0.96Q518.58 0.96 515.55-0.03L515.55-0.03L515.55-0.03Q512.52-1.02 510.27-3L510.27-3L510.27-3Q508.02-4.98 506.73-7.98L506.73-7.98L506.73-7.98Q505.44-10.98 505.44-15L505.44-15L505.44-15Q505.44-18.96 506.73-21.81L506.73-21.81L506.73-21.81Q508.02-24.66 510.12-26.49L510.12-26.49L510.12-26.49Q512.22-28.32 514.92-29.19L514.92-29.19L514.92-29.19Q517.62-30.06 520.44-30.06L520.44-30.06L520.44-30.06Q523.62-30.06 526.23-29.10L526.23-29.10L526.23-29.10Q528.84-28.14 530.73-26.46L530.73-26.46L530.73-26.46Q532.62-24.78 533.67-22.44L533.67-22.44L533.67-22.44Q534.72-20.10 534.72-17.34L534.72-17.34L534.72-17.34Q534.72-15.30 533.58-14.22L533.58-14.22L533.58-14.22Q532.44-13.14 530.40-12.84L530.40-12.84L515.58-10.62L515.58-10.62Q516.24-8.64 518.28-7.65L518.28-7.65L518.28-7.65Q520.32-6.66 522.96-6.66L522.96-6.66L522.96-6.66Q525.42-6.66 527.61-7.29L527.61-7.29L527.61-7.29Q529.80-7.92 531.18-8.76L531.18-8.76L531.18-8.76Q532.14-8.16 532.80-7.08L532.80-7.08L532.80-7.08Q533.46-6 533.46-4.80L533.46-4.80L533.46-4.80Q533.46-2.10 530.94-0.78L530.94-0.78L530.94-0.78Q529.02 0.24 526.62 0.60L526.62 0.60L526.62 0.60Q524.22 0.96 522.12 0.96ZM520.44-22.62L520.44-22.62L520.44-22.62Q519-22.62 517.95-22.14L517.95-22.14L517.95-22.14Q516.90-21.66 516.24-20.91L516.24-20.91L516.24-20.91Q515.58-20.16 515.25-19.23L515.25-19.23L515.25-19.23Q514.92-18.30 514.86-17.34L514.86-17.34L525.12-19.02L525.12-19.02Q524.94-20.22 523.80-21.42L523.80-21.42L523.80-21.42Q522.66-22.62 520.44-22.62ZM538.62-18.24L538.62-18.24L538.62-18.24Q538.62-22.92 540.09-26.52L540.09-26.52L540.09-26.52Q541.56-30.12 544.11-32.55L544.11-32.55L544.11-32.55Q546.66-34.98 550.11-36.24L550.11-36.24L550.11-36.24Q553.56-37.50 557.58-37.50L557.58-37.50L557.58-37.50Q561.60-37.50 565.05-36.24L565.05-36.24L565.05-36.24Q568.50-34.98 571.08-32.55L571.08-32.55L571.08-32.55Q573.66-30.12 575.13-26.52L575.13-26.52L575.13-26.52Q576.60-22.92 576.60-18.24L576.60-18.24L576.60-18.24Q576.60-12.36 574.44-8.25L574.44-8.25L574.44-8.25Q572.28-4.14 568.56-1.80L568.56-1.80L568.56-1.80Q569.46-1.38 570.69-0.90L570.69-0.90L570.69-0.90Q571.92-0.42 573.27 0.06L573.27 0.06L573.27 0.06Q574.62 0.54 576.06 0.99L576.06 0.99L576.06 0.99Q577.50 1.44 578.76 1.80L578.76 1.80L578.76 1.80Q578.82 2.16 578.82 2.43L578.82 2.43L578.82 2.43Q578.82 2.70 578.82 2.94L578.82 2.94L578.82 2.94Q578.82 6.36 577.05 7.92L577.05 7.92L577.05 7.92Q575.28 9.48 572.40 9.48L572.40 9.48L572.40 9.48Q569.64 9.48 566.70 7.95L566.70 7.95L566.70 7.95Q563.76 6.42 560.70 3.54L560.70 3.54L558.06 1.08L557.58 1.08L557.58 1.08Q553.50 1.08 550.02-0.21L550.02-0.21L550.02-0.21Q546.54-1.50 544.02-3.96L544.02-3.96L544.02-3.96Q541.50-6.42 540.06-10.02L540.06-10.02L540.06-10.02Q538.62-13.62 538.62-18.24ZM549.42-18.24L549.42-18.24L549.42-18.24Q549.42-12.78 551.64-10.08L551.64-10.08L551.64-10.08Q553.86-7.38 557.58-7.38L557.58-7.38L557.58-7.38Q561.36-7.38 563.58-10.08L563.58-10.08L563.58-10.08Q565.80-12.78 565.80-18.24L565.80-18.24L565.80-18.24Q565.80-23.64 563.61-26.34L563.61-26.34L563.61-26.34Q561.42-29.04 557.64-29.04L557.64-29.04L557.64-29.04Q553.92-29.04 551.67-26.37L551.67-26.37L551.67-26.37Q549.42-23.70 549.42-18.24ZM581.94-11.58L581.94-28.74L581.94-28.74Q582.54-28.92 583.83-29.10L583.83-29.10L583.83-29.10Q585.12-29.28 586.50-29.28L586.50-29.28L586.50-29.28Q587.82-29.28 588.87-29.10L588.87-29.10L588.87-29.10Q589.92-28.92 590.64-28.38L590.64-28.38L590.64-28.38Q591.36-27.84 591.75-26.91L591.75-26.91L591.75-26.91Q592.14-25.98 592.14-24.48L592.14-24.48L592.14-11.58L592.14-11.58Q592.14-9.12 593.34-8.07L593.34-8.07L593.34-8.07Q594.54-7.02 596.82-7.02L596.82-7.02L596.82-7.02Q598.20-7.02 599.07-7.26L599.07-7.26L599.07-7.26Q599.94-7.50 600.42-7.74L600.42-7.74L600.42-28.74L600.42-28.74Q601.02-28.92 602.31-29.10L602.31-29.10L602.31-29.10Q603.60-29.28 604.98-29.28L604.98-29.28L604.98-29.28Q606.30-29.28 607.35-29.10L607.35-29.10L607.35-29.10Q608.40-28.92 609.12-28.38L609.12-28.38L609.12-28.38Q609.84-27.84 610.23-26.91L610.23-26.91L610.23-26.91Q610.62-25.98 610.62-24.48L610.62-24.48L610.62-6.24L610.62-6.24Q610.62-3.24 608.10-1.74L608.10-1.74L608.10-1.74Q606.00-0.42 603.09 0.27L603.09 0.27L603.09 0.27Q600.18 0.96 596.76 0.96L596.76 0.96L596.76 0.96Q593.52 0.96 590.79 0.24L590.79 0.24L590.79 0.24Q588.06-0.48 586.08-1.98L586.08-1.98L586.08-1.98Q584.10-3.48 583.02-5.85L583.02-5.85L583.02-5.85Q581.94-8.22 581.94-11.58L581.94-11.58ZM616.62-37.26L616.62-37.26L616.62-37.26Q616.62-39.54 618.15-41.10L618.15-41.10L618.15-41.10Q619.68-42.66 622.20-42.66L622.20-42.66L622.20-42.66Q624.72-42.66 626.25-41.10L626.25-41.10L626.25-41.10Q627.78-39.54 627.78-37.26L627.78-37.26L627.78-37.26Q627.78-34.98 626.25-33.42L626.25-33.42L626.25-33.42Q624.72-31.86 622.20-31.86L622.20-31.86L622.20-31.86Q619.68-31.86 618.15-33.42L618.15-33.42L618.15-33.42Q616.62-34.98 616.62-37.26ZM627.30-24.48L627.30-0.06L627.30-0.06Q626.64 0.06 625.35 0.27L625.35 0.27L625.35 0.27Q624.06 0.48 622.74 0.48L622.74 0.48L622.74 0.48Q621.42 0.48 620.37 0.30L620.37 0.30L620.37 0.30Q619.32 0.12 618.60-0.42L618.60-0.42L618.60-0.42Q617.88-0.96 617.49-1.89L617.49-1.89L617.49-1.89Q617.10-2.82 617.10-4.32L617.10-4.32L617.10-28.74L617.10-28.74Q617.76-28.86 619.05-29.07L619.05-29.07L619.05-29.07Q620.34-29.28 621.66-29.28L621.66-29.28L621.66-29.28Q622.98-29.28 624.03-29.10L624.03-29.10L624.03-29.10Q625.08-28.92 625.80-28.38L625.80-28.38L625.80-28.38Q626.52-27.84 626.91-26.91L626.91-26.91L626.91-26.91Q627.30-25.98 627.30-24.48L627.30-24.48ZM654.66 0L634.80 0L634.80 0Q633.84-0.84 633.27-1.98L633.27-1.98L633.27-1.98Q632.70-3.12 632.70-4.56L632.70-4.56L632.70-4.56Q632.70-5.76 633.27-6.93L633.27-6.93L633.27-6.93Q633.84-8.10 634.68-9.12L634.68-9.12L645.00-21.24L633.96-21.24L633.96-21.24Q633.60-21.90 633.27-22.92L633.27-22.92L633.27-22.92Q632.94-23.94 632.94-25.14L632.94-25.14L632.94-25.14Q632.94-27.24 633.87-28.17L633.87-28.17L633.87-28.17Q634.80-29.10 636.36-29.10L636.36-29.10L655.26-29.10L655.26-29.10Q656.22-28.26 656.79-27.12L656.79-27.12L656.79-27.12Q657.36-25.98 657.36-24.54L657.36-24.54L657.36-24.54Q657.36-23.34 656.79-22.17L656.79-22.17L656.79-22.17Q656.22-21 655.38-19.98L655.38-19.98L645.30-7.86L657.06-7.86L657.06-7.86Q657.42-7.20 657.75-6.18L657.75-6.18L657.75-6.18Q658.08-5.16 658.08-3.96L658.08-3.96L658.08-3.96Q658.08-1.86 657.15-0.93L657.15-0.93L657.15-0.93Q656.22 0 654.66 0L654.66 0ZM683.52 0L663.66 0L663.66 0Q662.70-0.84 662.13-1.98L662.13-1.98L662.13-1.98Q661.56-3.12 661.56-4.56L661.56-4.56L661.56-4.56Q661.56-5.76 662.13-6.93L662.13-6.93L662.13-6.93Q662.70-8.10 663.54-9.12L663.54-9.12L673.86-21.24L662.82-21.24L662.82-21.24Q662.46-21.90 662.13-22.92L662.13-22.92L662.13-22.92Q661.80-23.94 661.80-25.14L661.80-25.14L661.80-25.14Q661.80-27.24 662.73-28.17L662.73-28.17L662.73-28.17Q663.66-29.10 665.22-29.10L665.22-29.10L684.12-29.10L684.12-29.10Q685.08-28.26 685.65-27.12L685.65-27.12L685.65-27.12Q686.22-25.98 686.22-24.54L686.22-24.54L686.22-24.54Q686.22-23.34 685.65-22.17L685.65-22.17L685.65-22.17Q685.08-21 684.24-19.98L684.24-19.98L674.16-7.86L685.92-7.86L685.92-7.86Q686.28-7.20 686.61-6.18L686.61-6.18L686.61-6.18Q686.94-5.16 686.94-3.96L686.94-3.96L686.94-3.96Q686.94-1.86 686.01-0.93L686.01-0.93L686.01-0.93Q685.08 0 683.52 0L683.52 0ZM715.98-6.48L715.98-6.48L715.98-6.48Q717.00-6.48 718.23-6.69L718.23-6.69L718.23-6.69Q719.46-6.90 720.06-7.26L720.06-7.26L720.06-12.06L715.74-11.70L715.74-11.70Q714.06-11.58 712.98-10.98L712.98-10.98L712.98-10.98Q711.90-10.38 711.90-9.18L711.90-9.18L711.90-9.18Q711.90-7.98 712.83-7.23L712.83-7.23L712.83-7.23Q713.76-6.48 715.98-6.48ZM715.50-30.06L715.50-30.06L715.50-30.06Q718.74-30.06 721.41-29.40L721.41-29.40L721.41-29.40Q724.08-28.74 725.97-27.39L725.97-27.39L725.97-27.39Q727.86-26.04 728.88-23.97L728.88-23.97L728.88-23.97Q729.90-21.90 729.90-19.08L729.90-19.08L729.90-5.64L729.90-5.64Q729.90-4.08 729.03-3.09L729.03-3.09L729.03-3.09Q728.16-2.10 726.96-1.38L726.96-1.38L726.96-1.38Q723.06 0.96 715.98 0.96L715.98 0.96L715.98 0.96Q712.80 0.96 710.25 0.36L710.25 0.36L710.25 0.36Q707.70-0.24 705.87-1.44L705.87-1.44L705.87-1.44Q704.04-2.64 703.05-4.50L703.05-4.50L703.05-4.50Q702.06-6.36 702.06-8.82L702.06-8.82L702.06-8.82Q702.06-12.96 704.52-15.18L704.52-15.18L704.52-15.18Q706.98-17.40 712.14-17.94L712.14-17.94L720.00-18.78L720.00-19.20L720.00-19.20Q720.00-20.94 718.47-21.69L718.47-21.69L718.47-21.69Q716.94-22.44 714.06-22.44L714.06-22.44L714.06-22.44Q711.78-22.44 709.62-21.96L709.62-21.96L709.62-21.96Q707.46-21.48 705.72-20.76L705.72-20.76L705.72-20.76Q704.94-21.30 704.40-22.41L704.40-22.41L704.40-22.41Q703.86-23.52 703.86-24.72L703.86-24.72L703.86-24.72Q703.86-26.28 704.61-27.21L704.61-27.21L704.61-27.21Q705.36-28.14 706.92-28.80L706.92-28.80L706.92-28.80Q708.66-29.46 711.03-29.76L711.03-29.76L711.03-29.76Q713.40-30.06 715.50-30.06ZM749.52-30.06L749.52-30.06L749.52-30.06Q753.12-30.06 756.21-29.13L756.21-29.13L756.21-29.13Q759.30-28.20 761.52-26.28L761.52-26.28L761.52-26.28Q763.74-24.36 765.00-21.45L765.00-21.45L765.00-21.45Q766.26-18.54 766.26-14.52L766.26-14.52L766.26-14.52Q766.26-10.68 765.18-7.80L765.18-7.80L765.18-7.80Q764.10-4.92 762.12-2.97L762.12-2.97L762.12-2.97Q760.14-1.02 757.35-0.06L757.35-0.06L757.35-0.06Q754.56 0.90 751.14 0.90L751.14 0.90L751.14 0.90Q748.56 0.90 746.34 0.12L746.34 0.12L746.34 10.08L746.34 10.08Q745.74 10.26 744.42 10.47L744.42 10.47L744.42 10.47Q743.10 10.68 741.72 10.68L741.72 10.68L741.72 10.68Q740.40 10.68 739.35 10.50L739.35 10.50L739.35 10.50Q738.30 10.32 737.58 9.78L737.58 9.78L737.58 9.78Q736.86 9.24 736.50 8.31L736.50 8.31L736.50 8.31Q736.14 7.38 736.14 5.88L736.14 5.88L736.14-22.92L736.14-22.92Q736.14-24.54 736.83-25.56L736.83-25.56L736.83-25.56Q737.52-26.58 738.72-27.42L738.72-27.42L738.72-27.42Q740.58-28.62 743.34-29.34L743.34-29.34L743.34-29.34Q746.10-30.06 749.52-30.06ZM749.64-7.14L749.64-7.14L749.64-7.14Q755.82-7.14 755.82-14.52L755.82-14.52L755.82-14.52Q755.82-18.36 754.29-20.22L754.29-20.22L754.29-20.22Q752.76-22.08 749.88-22.08L749.88-22.08L749.88-22.08Q748.74-22.08 747.84-21.81L747.84-21.81L747.84-21.81Q746.94-21.54 746.28-21.18L746.28-21.18L746.28-7.98L746.28-7.98Q747.00-7.62 747.84-7.38L747.84-7.38L747.84-7.38Q748.68-7.14 749.64-7.14ZM784.62-30.06L784.62-30.06L784.62-30.06Q788.22-30.06 791.31-29.13L791.31-29.13L791.31-29.13Q794.40-28.20 796.62-26.28L796.62-26.28L796.62-26.28Q798.84-24.36 800.10-21.45L800.10-21.45L800.10-21.45Q801.36-18.54 801.36-14.52L801.36-14.52L801.36-14.52Q801.36-10.68 800.28-7.80L800.28-7.80L800.28-7.80Q799.20-4.92 797.22-2.97L797.22-2.97L797.22-2.97Q795.24-1.02 792.45-0.06L792.45-0.06L792.45-0.06Q789.66 0.90 786.24 0.90L786.24 0.90L786.24 0.90Q783.66 0.90 781.44 0.12L781.44 0.12L781.44 10.08L781.44 10.08Q780.84 10.26 779.52 10.47L779.52 10.47L779.52 10.47Q778.20 10.68 776.82 10.68L776.82 10.68L776.82 10.68Q775.50 10.68 774.45 10.50L774.45 10.50L774.45 10.50Q773.40 10.32 772.68 9.78L772.68 9.78L772.68 9.78Q771.96 9.24 771.60 8.31L771.60 8.31L771.60 8.31Q771.24 7.38 771.24 5.88L771.24 5.88L771.24-22.92L771.24-22.92Q771.24-24.54 771.93-25.56L771.93-25.56L771.93-25.56Q772.62-26.58 773.82-27.42L773.82-27.42L773.82-27.42Q775.68-28.62 778.44-29.34L778.44-29.34L778.44-29.34Q781.20-30.06 784.62-30.06ZM784.74-7.14L784.74-7.14L784.74-7.14Q790.92-7.14 790.92-14.52L790.92-14.52L790.92-14.52Q790.92-18.36 789.39-20.22L789.39-20.22L789.39-20.22Q787.86-22.08 784.98-22.08L784.98-22.08L784.98-22.08Q783.84-22.08 782.94-21.81L782.94-21.81L782.94-21.81Q782.04-21.54 781.38-21.18L781.38-21.18L781.38-7.98L781.38-7.98Q782.10-7.62 782.94-7.38L782.94-7.38L782.94-7.38Q783.78-7.14 784.74-7.14Z" fill="#fdd05f"></path></g></g><style>text {
  font-size: 64px;
  font-family: Arial Black;
  dominant-baseline: central;
  text-anchor: middle;
}</style></svg>