<svg width="529.4px" height="167.68001708984374px" xmlns="http://www.w3.org/2000/svg" viewBox="-14.699999999999989 -8.840008544921872 529.4 167.68001708984374" style="background: rgb(76, 125, 123);" preserveAspectRatio="xMidYMid"><defs><filter id="editing-hover" x="-100%" y="-100%" width="300%" height="300%"><feFlood flood-color="#004643" result="flood"></feFlood><feComposite operator="in" in2="SourceAlpha" in="flood" result="shadow"></feComposite><feOffset dx="-4" dy="-4" in="SourceGraphic" result="offset-1"></feOffset><feOffset dx="4" dy="4" in="shadow" result="offset-2"></feOffset><feMerge><feMergeNode in="offset-2"></feMergeNode><feMergeNode in="offset-1"></feMergeNode></feMerge></filter></defs><g filter="url(#editing-hover)"><g transform="translate(63.05498671531677, 102.80499839782715)"><path d="M23.94-30.98L23.94-30.98L23.94-30.98Q19.01-30.98 16.38-27.97L16.38-27.97L16.38-27.97Q13.76-24.96 13.76-19.46L13.76-19.46L13.76-19.46Q13.76-13.89 16.67-10.88L16.67-10.88L16.67-10.88Q19.58-7.87 24.51-7.87L24.51-7.87L24.51-7.87Q27.14-7.87 28.96-8.58L28.96-8.58L28.96-8.58Q30.78-9.28 32.45-10.18L32.45-10.18L32.45-10.18Q33.54-9.28 34.14-8.03L34.14-8.03L34.14-8.03Q34.75-6.78 34.75-5.12L34.75-5.12L34.75-5.12Q34.75-2.50 31.84-0.67L31.84-0.67L31.84-0.67Q28.93 1.15 22.98 1.15L22.98 1.15L22.98 1.15Q18.69 1.15 14.91-0.06L14.91-0.06L14.91-0.06Q11.14-1.28 8.32-3.81L8.32-3.81L8.32-3.81Q5.50-6.34 3.87-10.21L3.87-10.21L3.87-10.21Q2.24-14.08 2.24-19.46L2.24-19.46L2.24-19.46Q2.24-24.45 3.81-28.26L3.81-28.26L3.81-28.26Q5.38-32.06 8.10-34.69L8.10-34.69L8.10-34.69Q10.82-37.31 14.46-38.66L14.46-38.66L14.46-38.66Q18.11-40 22.27-40L22.27-40L22.27-40Q28.16-40 31.39-38.08L31.39-38.08L31.39-38.08Q34.62-36.16 34.62-33.15L34.62-33.15L34.62-33.15Q34.62-31.49 33.79-30.27L33.79-30.27L33.79-30.27Q32.96-29.06 31.87-28.35L31.87-28.35L31.87-28.35Q30.21-29.44 28.32-30.21L28.32-30.21L28.32-30.21Q26.43-30.98 23.94-30.98ZM70.59-19.46L70.59-0.06L70.59-0.06Q69.95 0.13 68.58 0.32L68.58 0.32L68.58 0.32Q67.20 0.51 65.73 0.51L65.73 0.51L65.73 0.51Q64.32 0.51 63.20 0.32L63.20 0.32L63.20 0.32Q62.08 0.13 61.31-0.45L61.31-0.45L61.31-0.45Q60.54-1.02 60.13-2.02L60.13-2.02L60.13-2.02Q59.71-3.01 59.71-4.61L59.71-4.61L59.71-18.82L59.71-18.82Q59.71-21.44 58.40-22.50L58.40-22.50L58.40-22.50Q57.09-23.55 55.17-23.55L55.17-23.55L55.17-23.55Q53.89-23.55 52.74-23.23L52.74-23.23L52.74-23.23Q51.58-22.91 50.88-22.46L50.88-22.46L50.88-0.06L50.88-0.06Q50.24 0.13 48.86 0.32L48.86 0.32L48.86 0.32Q47.49 0.51 46.02 0.51L46.02 0.51L46.02 0.51Q44.61 0.51 43.49 0.32L43.49 0.32L43.49 0.32Q42.37 0.13 41.60-0.45L41.60-0.45L41.60-0.45Q40.83-1.02 40.42-2.02L40.42-2.02L40.42-2.02Q40.00-3.01 40.00-4.61L40.00-4.61L40.00-41.73L40.00-41.73Q40.70-41.86 42.08-42.08L42.08-42.08L42.08-42.08Q43.46-42.30 44.86-42.30L44.86-42.30L44.86-42.30Q46.27-42.30 47.39-42.11L47.39-42.11L47.39-42.11Q48.51-41.92 49.28-41.34L49.28-41.34L49.28-41.34Q50.05-40.77 50.46-39.78L50.46-39.78L50.46-39.78Q50.88-38.78 50.88-37.18L50.88-37.18L50.88-30.91L50.88-30.91Q51.71-31.23 53.41-31.65L53.41-31.65L53.41-31.65Q55.10-32.06 57.15-32.06L57.15-32.06L57.15-32.06Q63.49-32.06 67.04-28.90L67.04-28.90L67.04-28.90Q70.59-25.73 70.59-19.46L70.59-19.46ZM93.76 1.02L93.76 1.02L93.76 1.02Q89.98 1.02 86.75-0.03L86.75-0.03L86.75-0.03Q83.52-1.09 81.12-3.20L81.12-3.20L81.12-3.20Q78.72-5.31 77.34-8.51L77.34-8.51L77.34-8.51Q75.97-11.71 75.97-16L75.97-16L75.97-16Q75.97-20.22 77.34-23.26L77.34-23.26L77.34-23.26Q78.72-26.30 80.96-28.26L80.96-28.26L80.96-28.26Q83.20-30.21 86.08-31.14L86.08-31.14L86.08-31.14Q88.96-32.06 91.97-32.06L91.97-32.06L91.97-32.06Q95.36-32.06 98.14-31.04L98.14-31.04L98.14-31.04Q100.93-30.02 102.94-28.22L102.94-28.22L102.94-28.22Q104.96-26.43 106.08-23.94L106.08-23.94L106.08-23.94Q107.20-21.44 107.20-18.50L107.20-18.50L107.20-18.50Q107.20-16.32 105.98-15.17L105.98-15.17L105.98-15.17Q104.77-14.02 102.59-13.70L102.59-13.70L86.78-11.33L86.78-11.33Q87.49-9.22 89.66-8.16L89.66-8.16L89.66-8.16Q91.84-7.10 94.66-7.10L94.66-7.10L94.66-7.10Q97.28-7.10 99.62-7.78L99.62-7.78L99.62-7.78Q101.95-8.45 103.42-9.34L103.42-9.34L103.42-9.34Q104.45-8.70 105.15-7.55L105.15-7.55L105.15-7.55Q105.86-6.40 105.86-5.12L105.86-5.12L105.86-5.12Q105.86-2.24 103.17-0.83L103.17-0.83L103.17-0.83Q101.12 0.26 98.56 0.64L98.56 0.64L98.56 0.64Q96.00 1.02 93.76 1.02ZM91.97-24.13L91.97-24.13L91.97-24.13Q90.43-24.13 89.31-23.62L89.31-23.62L89.31-23.62Q88.19-23.10 87.49-22.30L87.49-22.30L87.49-22.30Q86.78-21.50 86.43-20.51L86.43-20.51L86.43-20.51Q86.08-19.52 86.02-18.50L86.02-18.50L96.96-20.29L96.96-20.29Q96.77-21.57 95.55-22.85L95.55-22.85L95.55-22.85Q94.34-24.13 91.97-24.13ZM128.90 1.02L128.90 1.02L128.90 1.02Q125.12 1.02 121.89-0.03L121.89-0.03L121.89-0.03Q118.66-1.09 116.26-3.20L116.26-3.20L116.26-3.20Q113.86-5.31 112.48-8.51L112.48-8.51L112.48-8.51Q111.10-11.71 111.10-16L111.10-16L111.10-16Q111.10-20.22 112.48-23.26L112.48-23.26L112.48-23.26Q113.86-26.30 116.10-28.26L116.10-28.26L116.10-28.26Q118.34-30.21 121.22-31.14L121.22-31.14L121.22-31.14Q124.10-32.06 127.10-32.06L127.10-32.06L127.10-32.06Q130.50-32.06 133.28-31.04L133.28-31.04L133.28-31.04Q136.06-30.02 138.08-28.22L138.08-28.22L138.08-28.22Q140.10-26.43 141.22-23.94L141.22-23.94L141.22-23.94Q142.34-21.44 142.34-18.50L142.34-18.50L142.34-18.50Q142.34-16.32 141.12-15.17L141.12-15.17L141.12-15.17Q139.90-14.02 137.73-13.70L137.73-13.70L121.92-11.33L121.92-11.33Q122.62-9.22 124.80-8.16L124.80-8.16L124.80-8.16Q126.98-7.10 129.79-7.10L129.79-7.10L129.79-7.10Q132.42-7.10 134.75-7.78L134.75-7.78L134.75-7.78Q137.09-8.45 138.56-9.34L138.56-9.34L138.56-9.34Q139.58-8.70 140.29-7.55L140.29-7.55L140.29-7.55Q140.99-6.40 140.99-5.12L140.99-5.12L140.99-5.12Q140.99-2.24 138.30-0.83L138.30-0.83L138.30-0.83Q136.26 0.26 133.70 0.64L133.70 0.64L133.70 0.64Q131.14 1.02 128.90 1.02ZM127.10-24.13L127.10-24.13L127.10-24.13Q125.57-24.13 124.45-23.62L124.45-23.62L124.45-23.62Q123.33-23.10 122.62-22.30L122.62-22.30L122.62-22.30Q121.92-21.50 121.57-20.51L121.57-20.51L121.57-20.51Q121.22-19.52 121.15-18.50L121.15-18.50L132.10-20.29L132.10-20.29Q131.90-21.57 130.69-22.85L130.69-22.85L130.69-22.85Q129.47-24.13 127.10-24.13ZM173.82-9.28L173.82-9.28L173.82-9.28Q173.82-4.42 170.18-1.66L170.18-1.66L170.18-1.66Q166.53 1.09 159.42 1.09L159.42 1.09L159.42 1.09Q156.74 1.09 154.43 0.70L154.43 0.70L154.43 0.70Q152.13 0.32 150.50-0.48L150.50-0.48L150.50-0.48Q148.86-1.28 147.94-2.50L147.94-2.50L147.94-2.50Q147.01-3.71 147.01-5.38L147.01-5.38L147.01-5.38Q147.01-6.91 147.65-7.97L147.65-7.97L147.65-7.97Q148.29-9.02 149.18-9.73L149.18-9.73L149.18-9.73Q151.04-8.70 153.44-7.90L153.44-7.90L153.44-7.90Q155.84-7.10 158.98-7.10L158.98-7.10L158.98-7.10Q160.96-7.10 162.02-7.68L162.02-7.68L162.02-7.68Q163.07-8.26 163.07-9.22L163.07-9.22L163.07-9.22Q163.07-10.11 162.30-10.62L162.30-10.62L162.30-10.62Q161.54-11.14 159.74-11.46L159.74-11.46L157.82-11.84L157.82-11.84Q152.26-12.93 149.54-15.26L149.54-15.26L149.54-15.26Q146.82-17.60 146.82-21.95L146.82-21.95L146.82-21.95Q146.82-24.32 147.84-26.24L147.84-26.24L147.84-26.24Q148.86-28.16 150.72-29.44L150.72-29.44L150.72-29.44Q152.58-30.72 155.17-31.42L155.17-31.42L155.17-31.42Q157.76-32.13 160.90-32.13L160.90-32.13L160.90-32.13Q163.26-32.13 165.34-31.78L165.34-31.78L165.34-31.78Q167.42-31.42 168.96-30.72L168.96-30.72L168.96-30.72Q170.50-30.02 171.39-28.90L171.39-28.90L171.39-28.90Q172.29-27.78 172.29-26.24L172.29-26.24L172.29-26.24Q172.29-24.77 171.74-23.71L171.74-23.71L171.74-23.71Q171.20-22.66 170.37-21.95L170.37-21.95L170.37-21.95Q169.86-22.27 168.83-22.62L168.83-22.62L168.83-22.62Q167.81-22.98 166.59-23.26L166.59-23.26L166.59-23.26Q165.38-23.55 164.13-23.74L164.13-23.74L164.13-23.74Q162.88-23.94 161.86-23.94L161.86-23.94L161.86-23.94Q159.74-23.94 158.59-23.46L158.59-23.46L158.59-23.46Q157.44-22.98 157.44-21.95L157.44-21.95L157.44-21.95Q157.44-21.25 158.08-20.80L158.08-20.80L158.08-20.80Q158.72-20.35 160.51-19.97L160.51-19.97L162.50-19.52L162.50-19.52Q168.64-18.11 171.23-15.65L171.23-15.65L171.23-15.65Q173.82-13.18 173.82-9.28ZM195.84 1.02L195.84 1.02L195.84 1.02Q192.06 1.02 188.83-0.03L188.83-0.03L188.83-0.03Q185.60-1.09 183.20-3.20L183.20-3.20L183.20-3.20Q180.80-5.31 179.42-8.51L179.42-8.51L179.42-8.51Q178.05-11.71 178.05-16L178.05-16L178.05-16Q178.05-20.22 179.42-23.26L179.42-23.26L179.42-23.26Q180.80-26.30 183.04-28.26L183.04-28.26L183.04-28.26Q185.28-30.21 188.16-31.14L188.16-31.14L188.16-31.14Q191.04-32.06 194.05-32.06L194.05-32.06L194.05-32.06Q197.44-32.06 200.22-31.04L200.22-31.04L200.22-31.04Q203.01-30.02 205.02-28.22L205.02-28.22L205.02-28.22Q207.04-26.43 208.16-23.94L208.16-23.94L208.16-23.94Q209.28-21.44 209.28-18.50L209.28-18.50L209.28-18.50Q209.28-16.32 208.06-15.17L208.06-15.17L208.06-15.17Q206.85-14.02 204.67-13.70L204.67-13.70L188.86-11.33L188.86-11.33Q189.57-9.22 191.74-8.16L191.74-8.16L191.74-8.16Q193.92-7.10 196.74-7.10L196.74-7.10L196.74-7.10Q199.36-7.10 201.70-7.78L201.70-7.78L201.70-7.78Q204.03-8.45 205.50-9.34L205.50-9.34L205.50-9.34Q206.53-8.70 207.23-7.55L207.23-7.55L207.23-7.55Q207.94-6.40 207.94-5.12L207.94-5.12L207.94-5.12Q207.94-2.24 205.25-0.83L205.25-0.83L205.25-0.83Q203.20 0.26 200.64 0.64L200.64 0.64L200.64 0.64Q198.08 1.02 195.84 1.02ZM194.05-24.13L194.05-24.13L194.05-24.13Q192.51-24.13 191.39-23.62L191.39-23.62L191.39-23.62Q190.27-23.10 189.57-22.30L189.57-22.30L189.57-22.30Q188.86-21.50 188.51-20.51L188.51-20.51L188.51-20.51Q188.16-19.52 188.10-18.50L188.10-18.50L199.04-20.29L199.04-20.29Q198.85-21.57 197.63-22.85L197.63-22.85L197.63-22.85Q196.42-24.13 194.05-24.13ZM213.44-19.46L213.44-19.46L213.44-19.46Q213.44-24.45 215.01-28.29L215.01-28.29L215.01-28.29Q216.58-32.13 219.30-34.72L219.30-34.72L219.30-34.72Q222.02-37.31 225.70-38.66L225.70-38.66L225.70-38.66Q229.38-40 233.66-40L233.66-40L233.66-40Q237.95-40 241.63-38.66L241.63-38.66L241.63-38.66Q245.31-37.31 248.06-34.72L248.06-34.72L248.06-34.72Q250.82-32.13 252.38-28.29L252.38-28.29L252.38-28.29Q253.95-24.45 253.95-19.46L253.95-19.46L253.95-19.46Q253.95-13.18 251.65-8.80L251.65-8.80L251.65-8.80Q249.34-4.42 245.38-1.92L245.38-1.92L245.38-1.92Q246.34-1.47 247.65-0.96L247.65-0.96L247.65-0.96Q248.96-0.45 250.40 0.06L250.40 0.06L250.40 0.06Q251.84 0.58 253.38 1.06L253.38 1.06L253.38 1.06Q254.91 1.54 256.26 1.92L256.26 1.92L256.26 1.92Q256.32 2.30 256.32 2.59L256.32 2.59L256.32 2.59Q256.32 2.88 256.32 3.14L256.32 3.14L256.32 3.14Q256.32 6.78 254.43 8.45L254.43 8.45L254.43 8.45Q252.54 10.11 249.47 10.11L249.47 10.11L249.47 10.11Q246.53 10.11 243.39 8.48L243.39 8.48L243.39 8.48Q240.26 6.85 236.99 3.78L236.99 3.78L234.18 1.15L233.66 1.15L233.66 1.15Q229.31 1.15 225.60-0.22L225.60-0.22L225.60-0.22Q221.89-1.60 219.20-4.22L219.20-4.22L219.20-4.22Q216.51-6.85 214.98-10.69L214.98-10.69L214.98-10.69Q213.44-14.53 213.44-19.46ZM224.96-19.46L224.96-19.46L224.96-19.46Q224.96-13.63 227.33-10.75L227.33-10.75L227.33-10.75Q229.70-7.87 233.66-7.87L233.66-7.87L233.66-7.87Q237.70-7.87 240.06-10.75L240.06-10.75L240.06-10.75Q242.43-13.63 242.43-19.46L242.43-19.46L242.43-19.46Q242.43-25.22 240.10-28.10L240.10-28.10L240.10-28.10Q237.76-30.98 233.73-30.98L233.73-30.98L233.73-30.98Q229.76-30.98 227.36-28.13L227.36-28.13L227.36-28.13Q224.96-25.28 224.96-19.46ZM259.65-12.35L259.65-30.66L259.65-30.66Q260.29-30.85 261.66-31.04L261.66-31.04L261.66-31.04Q263.04-31.23 264.51-31.23L264.51-31.23L264.51-31.23Q265.92-31.23 267.04-31.04L267.04-31.04L267.04-31.04Q268.16-30.85 268.93-30.27L268.93-30.27L268.93-30.27Q269.70-29.70 270.11-28.70L270.11-28.70L270.11-28.70Q270.53-27.71 270.53-26.11L270.53-26.11L270.53-12.35L270.53-12.35Q270.53-9.73 271.81-8.61L271.81-8.61L271.81-8.61Q273.09-7.49 275.52-7.49L275.52-7.49L275.52-7.49Q276.99-7.49 277.92-7.74L277.92-7.74L277.92-7.74Q278.85-8 279.36-8.26L279.36-8.26L279.36-30.66L279.36-30.66Q280-30.85 281.38-31.04L281.38-31.04L281.38-31.04Q282.75-31.23 284.22-31.23L284.22-31.23L284.22-31.23Q285.63-31.23 286.75-31.04L286.75-31.04L286.75-31.04Q287.87-30.85 288.64-30.27L288.64-30.27L288.64-30.27Q289.41-29.70 289.82-28.70L289.82-28.70L289.82-28.70Q290.24-27.71 290.24-26.11L290.24-26.11L290.24-6.66L290.24-6.66Q290.24-3.46 287.55-1.86L287.55-1.86L287.55-1.86Q285.31-0.45 282.21 0.29L282.21 0.29L282.21 0.29Q279.10 1.02 275.46 1.02L275.46 1.02L275.46 1.02Q272 1.02 269.09 0.26L269.09 0.26L269.09 0.26Q266.18-0.51 264.06-2.11L264.06-2.11L264.06-2.11Q261.95-3.71 260.80-6.24L260.80-6.24L260.80-6.24Q259.65-8.77 259.65-12.35L259.65-12.35ZM296.64-39.74L296.64-39.74L296.64-39.74Q296.64-42.18 298.27-43.84L298.27-43.84L298.27-43.84Q299.90-45.50 302.59-45.50L302.59-45.50L302.59-45.50Q305.28-45.50 306.91-43.84L306.91-43.84L306.91-43.84Q308.54-42.18 308.54-39.74L308.54-39.74L308.54-39.74Q308.54-37.31 306.91-35.65L306.91-35.65L306.91-35.65Q305.28-33.98 302.59-33.98L302.59-33.98L302.59-33.98Q299.90-33.98 298.27-35.65L298.27-35.65L298.27-35.65Q296.64-37.31 296.64-39.74ZM308.03-26.11L308.03-0.06L308.03-0.06Q307.33 0.06 305.95 0.29L305.95 0.29L305.95 0.29Q304.58 0.51 303.17 0.51L303.17 0.51L303.17 0.51Q301.76 0.51 300.64 0.32L300.64 0.32L300.64 0.32Q299.52 0.13 298.75-0.45L298.75-0.45L298.75-0.45Q297.98-1.02 297.57-2.02L297.57-2.02L297.57-2.02Q297.15-3.01 297.15-4.61L297.15-4.61L297.15-30.66L297.15-30.66Q297.86-30.78 299.23-31.01L299.23-31.01L299.23-31.01Q300.61-31.23 302.02-31.23L302.02-31.23L302.02-31.23Q303.42-31.23 304.54-31.04L304.54-31.04L304.54-31.04Q305.66-30.85 306.43-30.27L306.43-30.27L306.43-30.27Q307.20-29.70 307.62-28.70L307.62-28.70L307.62-28.70Q308.03-27.71 308.03-26.11L308.03-26.11ZM337.22 0L316.03 0L316.03 0Q315.01-0.90 314.40-2.11L314.40-2.11L314.40-2.11Q313.79-3.33 313.79-4.86L313.79-4.86L313.79-4.86Q313.79-6.14 314.40-7.39L314.40-7.39L314.40-7.39Q315.01-8.64 315.90-9.73L315.90-9.73L326.91-22.66L315.14-22.66L315.14-22.66Q314.75-23.36 314.40-24.45L314.40-24.45L314.40-24.45Q314.05-25.54 314.05-26.82L314.05-26.82L314.05-26.82Q314.05-29.06 315.04-30.05L315.04-30.05L315.04-30.05Q316.03-31.04 317.70-31.04L317.70-31.04L337.86-31.04L337.86-31.04Q338.88-30.14 339.49-28.93L339.49-28.93L339.49-28.93Q340.10-27.71 340.10-26.18L340.10-26.18L340.10-26.18Q340.10-24.90 339.49-23.65L339.49-23.65L339.49-23.65Q338.88-22.40 337.98-21.31L337.98-21.31L327.23-8.38L339.78-8.38L339.78-8.38Q340.16-7.68 340.51-6.59L340.51-6.59L340.51-6.59Q340.86-5.50 340.86-4.22L340.86-4.22L340.86-4.22Q340.86-1.98 339.87-0.99L339.87-0.99L339.87-0.99Q338.88 0 337.22 0L337.22 0ZM368 0L346.82 0L346.82 0Q345.79-0.90 345.18-2.11L345.18-2.11L345.18-2.11Q344.58-3.33 344.58-4.86L344.58-4.86L344.58-4.86Q344.58-6.14 345.18-7.39L345.18-7.39L345.18-7.39Q345.79-8.64 346.69-9.73L346.69-9.73L357.70-22.66L345.92-22.66L345.92-22.66Q345.54-23.36 345.18-24.45L345.18-24.45L345.18-24.45Q344.83-25.54 344.83-26.82L344.83-26.82L344.83-26.82Q344.83-29.06 345.82-30.05L345.82-30.05L345.82-30.05Q346.82-31.04 348.48-31.04L348.48-31.04L368.64-31.04L368.64-31.04Q369.66-30.14 370.27-28.93L370.27-28.93L370.27-28.93Q370.88-27.71 370.88-26.18L370.88-26.18L370.88-26.18Q370.88-24.90 370.27-23.65L370.27-23.65L370.27-23.65Q369.66-22.40 368.77-21.31L368.77-21.31L358.02-8.38L370.56-8.38L370.56-8.38Q370.94-7.68 371.30-6.59L371.30-6.59L371.30-6.59Q371.65-5.50 371.65-4.22L371.65-4.22L371.65-4.22Q371.65-1.98 370.66-0.99L370.66-0.99L370.66-0.99Q369.66 0 368 0L368 0Z" fill="#fdd05f"></path></g></g><style>text {
  font-size: 64px;
  font-family: Arial Black;
  dominant-baseline: central;
  text-anchor: middle;
}</style></svg>