<svg width="50" height="50" viewBox="0 0 50 50" fill="none" xmlns="http://www.w3.org/2000/svg">
<path d="M16.643 4.94722C22.9528 4.58334 27.5097 7.16528 27.8778 14.4278C28.1764 20.2472 20.6778 23.8583 16.7028 23.9819C13.2833 24.0889 14.8236 21.4097 17.55 20.7403C19.7389 20.2028 23.2778 17.3889 22.5528 14.5736C21.7236 11.3514 16.5597 10.8458 13.7319 14.9792C12.6236 16.6 8.79581 16.1917 8.04303 14.3764C6.71248 11.1694 9.72498 5.34584 16.643 4.94722Z" fill="#FFAC33"/>
<path d="M49.6528 29.7C49.6528 18.8903 43.4097 13.8569 29.4875 13.8569C27.9778 13.8569 26.5944 13.9278 25.2958 14.0472C23.4069 10.6819 18.5667 10.1194 13.8889 10.1194C7.91111 10.1194 0 18.6542 0 25.1736C0 31.5736 5.00833 31.9319 10.8486 31.9431C11.1722 36.45 12.5514 39.7861 15.3611 42.0264C15.7458 43.6236 17.4917 50 20.8333 50C22.7125 50 23.7486 47.6458 24.3194 45.2542C26.0352 45.4543 27.7615 45.5513 29.4889 45.5444C31.8958 45.5444 34.0556 45.3833 36.0097 45.0792C36.1347 47.3806 36.7472 50 38.8889 50C42.1069 50 44.8236 43.1167 45.6028 40.9431C48.3375 38.3458 49.6528 34.6306 49.6528 29.7Z" fill="#E1E8ED"/>
<path d="M6.24996 24.0083C7.40055 24.0083 8.33329 23.0756 8.33329 21.925C8.33329 20.7744 7.40055 19.8417 6.24996 19.8417C5.09937 19.8417 4.16663 20.7744 4.16663 21.925C4.16663 23.0756 5.09937 24.0083 6.24996 24.0083Z" fill="#292F33"/>
<path d="M24.3917 6.02639C30.3806 8.04722 32.3639 11.7875 29.9945 18.6639C28.0959 24.1736 19.7931 24.7208 16.0584 23.3514C12.8472 22.1722 15.2778 20.2625 18.0556 20.6597C20.2861 20.9792 24.6209 19.6903 25 16.8083C25.4334 13.5097 20.8334 11.1111 16.6667 13.8889C15.032 14.9792 8.64724 14.4861 9.0278 12.5583C9.91391 8.07778 17.8264 3.81111 24.3917 6.02639Z" fill="#FFCC4D"/>
</svg>
