<svg width="25" height="24" viewBox="0 0 25 24" fill="none" xmlns="http://www.w3.org/2000/svg">
<g clip-path="url(#clip0_324_1055)">
<path d="M20.8767 11.3549C20.2798 11.3549 19.7957 11.8265 19.7957 12.4085C19.7957 12.9904 20.2798 13.4617 20.8767 13.4617C21.4735 13.4617 21.9572 12.9904 21.9572 12.4085C21.9572 11.8265 21.4735 11.3549 20.8767 11.3549Z" fill="#ABD1C6"/>
<path d="M16.5175 20.5548L16.5151 20.5567L16.5146 20.5576L16.5175 20.5548Z" fill="#ABD1C6"/>
<path d="M16.0332 20.9329L16.0296 20.9349C16.0288 20.9357 16.028 20.9357 16.0276 20.9365L16.0332 20.9329Z" fill="#ABD1C6"/>
<path d="M15.0557 21.308L15.0381 21.3128C15.0372 21.3128 15.036 21.314 15.0353 21.314L15.0557 21.308Z" fill="#ABD1C6"/>
<path d="M24.3001 6.98572L24.2997 6.9845C24.2636 6.90275 24.2251 6.8285 24.1882 6.75725C24.1697 6.7131 24.1553 6.68061 24.1473 6.66341H24.1469C24.1096 6.58677 24.0658 6.52611 24.0241 6.4745C23.6647 5.89649 23.171 5.38654 22.5809 4.93794C21.441 4.07521 19.9368 3.41075 18.1871 2.94538C16.4363 2.48122 14.436 2.22154 12.3077 2.22116C9.06389 2.22313 6.12014 2.81915 3.8988 3.8406C2.78813 4.35449 1.84957 4.97708 1.1524 5.73425C0.803846 6.11441 0.517019 6.53127 0.314856 6.9861C0.113125 7.43975 0 7.93138 0 8.43899V15.103C0 16.0717 0.360625 16.9958 0.959471 17.7984C1.86034 19.0021 3.28428 19.9786 5.07562 20.6748C6.87183 21.3686 9.05144 21.778 11.5038 21.7788C11.8572 21.7788 12.2988 21.751 12.7858 21.7021C13.5166 21.6259 14.3341 21.5019 15.0337 21.3142L15.0381 21.3126C15.3842 21.2172 15.7143 21.1089 16.0236 20.9383L16.0296 20.9348C16.1796 20.8507 16.3537 20.7353 16.511 20.561L16.515 20.5563C16.5948 20.4663 16.6783 20.3513 16.742 20.2086L16.7424 20.2078C16.807 20.062 16.8487 19.8945 16.8495 19.7096V16.5825L22.0006 16.7628L22.076 16.7643H22.0836C22.7382 16.7643 23.3688 16.5168 23.8417 16.0721C24.3358 15.6067 24.6154 14.9658 24.6154 14.2959V8.43899C24.6154 7.93138 24.5023 7.43938 24.3001 6.98572ZM1.6538 8.43899C1.65423 8.16482 1.71274 7.8973 1.83269 7.6259C2.04207 7.15227 2.44962 6.66543 3.05091 6.20938C3.95019 5.52538 5.27024 4.92229 6.86264 4.50074C8.45543 4.07802 10.3186 3.83319 12.3077 3.83361C15.3385 3.83207 18.0793 4.40539 20.0098 5.2978C20.9753 5.74283 21.7346 6.26652 22.2308 6.80933C22.4149 7.00996 22.5625 7.21218 22.676 7.41435L22.7065 7.50744C22.7298 7.58802 22.7475 7.68575 22.7466 7.75813C22.747 7.80468 22.7402 7.83908 22.7342 7.85549L22.7253 7.87386C22.7225 7.87583 22.7222 7.88441 22.6708 7.90555C22.6207 7.92514 22.5164 7.95018 22.3443 7.94975L22.3038 7.94938H22.3043C22.214 7.94741 21.9834 7.94 21.66 7.92829C20.5257 7.88722 18.2205 7.7953 16.1997 7.71355C15.1893 7.67291 14.2499 7.63494 13.5628 7.60677C12.8761 7.5786 12.4433 7.56065 12.4421 7.56065V7.56144L12.4297 7.56022H12.4148V7.5598L12.404 7.56022V7.5606C12.1746 7.56454 11.9608 7.68496 11.8437 7.88286L11.8428 7.88249L11.8396 7.88952L11.836 7.89458L11.8368 7.89533C11.781 7.99471 11.755 8.10102 11.755 8.20354C11.7546 8.3263 11.7911 8.44916 11.8625 8.55589L14.7184 12.8151C14.7805 12.9074 14.8379 13.0021 14.8904 13.0983C14.0617 13.1898 13.1985 13.2414 12.3076 13.2414C9.25077 13.2422 6.48591 12.6665 4.51966 11.7572C3.53615 11.3047 2.75558 10.7685 2.23457 10.1999C1.97745 9.91879 1.78332 9.63093 1.65375 9.34115L1.6538 8.43899ZM15.1957 19.543C15.1463 19.5692 15.0765 19.6021 14.9899 19.6345C14.7938 19.7096 14.5202 19.7851 14.2154 19.8515C13.7569 19.9513 13.2259 20.0315 12.7361 20.0854C12.2463 20.1394 11.7926 20.1667 11.5038 20.1667C8.4875 20.1679 5.9725 19.4878 4.25178 18.498C3.39058 18.0041 2.73115 17.4347 2.29755 16.8511C1.86317 16.2653 1.65418 15.6767 1.65375 15.103V10.7389C1.88159 10.9856 2.14149 11.2203 2.43351 11.4416C3.47918 12.2347 4.91039 12.8742 6.5987 13.3231C8.28736 13.7709 10.2339 14.0251 12.3077 14.0251C13.2961 14.0251 14.2539 13.9656 15.1696 13.8566C15.1861 13.9512 15.1957 14.0443 15.1957 14.135V19.543ZM22.962 14.2959C22.962 14.5281 22.865 14.7503 22.6933 14.9122C22.53 15.0659 22.3106 15.1523 22.0836 15.152L22.0511 15.1516L18.8663 15.0401C18.928 14.9267 18.9665 14.7996 18.9665 14.6619C18.9665 14.2153 18.5955 13.8536 18.1374 13.8536C17.6793 13.8536 17.3079 14.2153 17.3079 14.6619C17.3079 14.7785 17.3343 14.8884 17.3797 14.9881L16.4018 14.954V14.1351C16.4018 13.7621 16.3228 13.4066 16.2009 13.078C16.107 12.8262 15.9875 12.59 15.8539 12.369C16.176 12.2419 16.4038 11.9353 16.4038 11.5751C16.4038 11.1019 16.0099 10.7175 15.5242 10.7175C15.2875 10.7175 15.0729 10.8102 14.9153 10.9588L13.4532 8.7793C14.3369 8.81525 15.6658 8.86925 17.0291 8.92438C17.1863 8.93061 17.3448 8.93647 17.5025 8.94313C17.4772 9.03308 17.4592 9.12575 17.4592 9.22349C17.4592 9.80544 17.9429 10.2767 18.5398 10.2767C19.1366 10.2767 19.62 9.80544 19.62 9.22349C19.62 9.15627 19.6123 9.09055 19.5995 9.02643C19.875 9.03735 20.1393 9.04752 20.3873 9.05732C20.869 9.07569 21.2894 9.09172 21.6154 9.10386C21.9319 9.11483 22.1533 9.12261 22.2668 9.125L22.2532 9.12463L22.2749 9.125H22.2792H22.2804L22.3442 9.12575C22.568 9.12575 22.7726 9.10035 22.9619 9.04672V14.2959H22.962Z" fill="#ABD1C6"/>
</g>
<defs>
<clipPath id="clip0_324_1055">
<rect width="24.6154" height="24" fill="white"/>
</clipPath>
</defs>
</svg>
