<svg width="430" height="430" viewBox="0 0 430 430" fill="none" xmlns="http://www.w3.org/2000/svg">
<path d="M340.417 188.125C340.417 168.685 355.915 152.955 375.22 152.399C374.082 114.541 372.398 81.4133 372.398 81.4133C228.384 93.2831 83.2587 122.72 83.2587 122.72C63.9894 126.536 60.1283 130.353 56.2762 145.591C56.2762 145.591 48.5631 176.076 60.1283 240.872C71.6935 305.667 114.21 332.354 133.372 332.354C133.372 332.354 290.277 347.126 372.398 336.672C372.398 336.672 375.641 275.307 376.178 223.949C366.689 223.93 357.594 220.148 350.89 213.432C344.186 206.716 340.419 197.615 340.417 188.125Z" fill="#FFE57F"/>
<path d="M135.047 314.912L134.205 314.832H133.363C124.458 314.832 87.8634 295.589 77.5523 237.817C66.9815 178.575 73.4136 149.962 73.4494 149.819C74.7932 144.489 75.5725 143.154 75.5994 143.065C76.0115 142.76 78.054 141.595 86.8063 139.875C88.1769 139.598 220.33 112.965 355.547 100.468L373.222 99.0523C372.738 88.2217 372.389 81.4133 372.389 81.4133C228.375 93.2831 83.2498 122.72 83.2498 122.72C63.9805 126.536 60.1194 130.353 56.2673 145.591C56.2673 145.591 48.5542 176.076 60.1194 240.872C71.6846 305.667 114.21 332.354 133.372 332.354C133.372 332.354 219.013 340.417 296.861 340.417C324.381 340.417 350.943 339.404 372.398 336.672C372.398 336.672 372.765 329.631 373.285 318.334C351.785 321.103 315.916 322.903 296.87 322.903C220.787 322.903 135.898 314.993 135.047 314.912Z" fill="#FFB300"/>
<path d="M54.9146 154.039C55.5686 148.404 56.2673 145.591 56.2673 145.591C60.1194 130.353 63.9715 126.536 83.2498 122.72C83.2498 122.72 228.375 93.2831 372.389 81.4133C372.389 81.4133 251.846 75.25 225.652 72.6879C199.457 70.1258 176.569 72.6879 163.669 76.7013C150.76 80.7056 108.683 98.2192 108.683 98.2192C50.8565 120.552 54.9057 154.039 54.9146 154.039Z" fill="#FFA000"/>
<path d="M161.25 197.083C161.25 206.587 165.025 215.701 171.745 222.421C178.465 229.141 187.58 232.917 197.083 232.917C206.587 232.917 215.701 229.141 222.421 222.421C229.141 215.701 232.917 206.587 232.917 197.083C232.917 187.58 229.141 178.465 222.421 171.745C215.701 165.025 206.587 161.25 197.083 161.25C187.58 161.25 178.465 165.025 171.745 171.745C165.025 178.465 161.25 187.58 161.25 197.083Z" fill="#FFC400"/>
<path d="M277.708 143.333C277.708 148.085 279.596 152.642 282.956 156.002C286.316 159.362 290.873 161.25 295.625 161.25C300.377 161.25 304.934 159.362 308.294 156.002C311.654 152.642 313.542 148.085 313.542 143.333C313.542 138.582 311.654 134.024 308.294 130.664C304.934 127.304 300.377 125.417 295.625 125.417C290.873 125.417 286.316 127.304 282.956 130.664C279.596 134.024 277.708 138.582 277.708 143.333Z" fill="#FFC400"/>
<path d="M125.417 264.271C125.417 270.211 127.776 275.907 131.976 280.107C136.176 284.307 141.873 286.667 147.812 286.667C153.752 286.667 159.449 284.307 163.649 280.107C167.849 275.907 170.208 270.211 170.208 264.271C170.208 258.331 167.849 252.635 163.649 248.435C159.449 244.235 153.752 241.875 147.812 241.875C141.873 241.875 136.176 244.235 131.976 248.435C127.776 252.635 125.417 258.331 125.417 264.271Z" fill="#FFC400"/>
<path d="M98.5416 192.604C98.5416 196.168 99.9574 199.586 102.477 202.106C104.997 204.626 108.415 206.042 111.979 206.042C115.543 206.042 118.961 204.626 121.481 202.106C124.001 199.586 125.417 196.168 125.417 192.604C125.417 189.04 124.001 185.622 121.481 183.102C118.961 180.582 115.543 179.167 111.979 179.167C108.415 179.167 104.997 180.582 102.477 183.102C99.9574 185.622 98.5416 189.04 98.5416 192.604Z" fill="#FFC400"/>
<path d="M268.75 250.833C268.75 257.961 271.581 264.797 276.622 269.837C281.662 274.877 288.497 277.708 295.625 277.708C302.753 277.708 309.588 274.877 314.628 269.837C319.669 264.797 322.5 257.961 322.5 250.833C322.5 243.706 319.669 236.87 314.628 231.83C309.588 226.79 302.753 223.958 295.625 223.958C288.497 223.958 281.662 226.79 276.622 231.83C271.581 236.87 268.75 243.706 268.75 250.833Z" fill="#FFC400"/>
</svg>
