<svg width="117" height="120" viewBox="0 0 117 120" fill="none" xmlns="http://www.w3.org/2000/svg">
<g clip-path="url(#clip0_324_855)">
<path d="M42.1069 102.579C18.4956 102.579 0 91.0583 0 76.3503V50.4843C0 35.7766 18.4956 24.2554 42.1069 24.2554C45.8376 24.2554 49.5373 24.5505 53.1035 25.1329C54.6437 25.3844 55.9348 26.463 56.4862 27.9595C57.0376 29.456 56.765 31.1406 55.7721 32.3744L44.7821 46.0265H79.8679C82.2684 46.0265 84.2147 48.0226 84.2147 50.4847V76.3508C84.2145 91.0583 65.7187 102.579 42.1069 102.579Z" fill="#F15A58"/>
<path d="M79.8674 71.8534C78.6615 71.8534 77.4998 71.3387 76.6716 70.4167L60.7987 52.753C60.0588 51.9294 59.6484 50.8511 59.6484 49.7315V38.0755C59.6484 36.7143 60.2546 35.4281 61.2946 34.582L81.2088 18.3883C81.9645 17.774 82.8982 17.4347 83.8628 17.4239C104.439 17.1918 115.541 30.6478 116 31.2154C116.647 32.0153 117 33.0213 117 34.06V63.1581C117 65.405 115.37 67.3006 113.197 67.5817L80.4115 71.8182C80.2296 71.8417 80.0479 71.8534 79.8674 71.8534Z" fill="#C2B175"/>
<path d="M85.009 59.495C87.1604 59.495 88.9045 57.7062 88.9045 55.4997C88.9045 53.2931 87.1604 51.5043 85.009 51.5043C82.8576 51.5043 81.1135 53.2931 81.1135 55.4997C81.1135 57.7062 82.8576 59.495 85.009 59.495Z" fill="#CD855C"/>
<path d="M63.9934 42.5338C62.2208 42.5338 60.6095 41.4241 59.951 39.7098C59.2494 37.8834 59.7951 35.8014 61.2946 34.582L81.2088 18.3883C81.9643 17.774 82.898 17.4347 83.8623 17.4239C104.442 17.201 115.541 30.648 116 31.2159C117.035 32.4965 117.288 34.2611 116.658 35.7932C116.027 37.3253 114.618 38.3704 113.001 38.5038L64.3437 42.5191C64.2265 42.5289 64.1092 42.5338 63.9934 42.5338Z" fill="#C74A48"/>
<path d="M79.8676 46.026H58.4999V100.586C73.7428 96.6781 84.2145 87.4165 84.2145 76.3503V50.4843C84.2145 48.0222 82.2682 46.026 79.8676 46.026Z" fill="#C74A48"/>
<path d="M56.7455 29.9774V46.026H43.8724L56.7455 29.9774Z" fill="#ECD58C"/>
<path d="M42.1069 73.5052C19.3091 73.5052 0.744959 63.0603 0.0242226 50.0158C0.00868358 50.1697 0 50.3258 0 50.4843V76.3503C0 91.058 18.4956 102.579 42.1069 102.579C65.7187 102.579 84.2147 91.058 84.2147 76.3503V50.4843C84.2147 50.3258 84.206 50.1695 84.1902 50.0158C83.4693 63.0608 64.9049 73.5052 42.1069 73.5052Z" fill="#9A4149"/>
<path d="M58.4999 71.5972V100.586C73.7428 96.6781 84.2145 87.4165 84.2145 76.3503V50.4843C84.2145 50.3258 84.2058 50.1695 84.19 50.0158C83.653 59.7334 73.2156 68.0082 58.4999 71.5972Z" fill="#80343B"/>
<path d="M100.168 52.427C102.319 52.427 104.063 50.6382 104.063 48.4316C104.063 46.225 102.319 44.4362 100.168 44.4362C98.0164 44.4362 96.2723 46.225 96.2723 48.4316C96.2723 50.6382 98.0164 52.427 100.168 52.427Z" fill="#CD855C"/>
</g>
<defs>
<clipPath id="clip0_324_855">
<rect width="117" height="120" fill="white"/>
</clipPath>
</defs>
</svg>
