<svg width="75" height="75" viewBox="0 0 75 75" fill="none" xmlns="http://www.w3.org/2000/svg">
<path d="M28.125 44.5312C27.0312 44.5312 26.1068 44.1536 25.3516 43.3984C24.5964 42.6432 24.2188 41.7188 24.2188 40.625C24.2188 39.5312 24.5964 38.6068 25.3516 37.8516C26.1068 37.0964 27.0312 36.7188 28.125 36.7188C29.2188 36.7188 30.1432 37.0964 30.8984 37.8516C31.6536 38.6068 32.0312 39.5312 32.0312 40.625C32.0312 41.7188 31.6536 42.6432 30.8984 43.3984C30.1432 44.1536 29.2188 44.5312 28.125 44.5312ZM46.875 44.5312C45.7812 44.5312 44.8568 44.1536 44.1016 43.3984C43.3464 42.6432 42.9688 41.7188 42.9688 40.625C42.9688 39.5312 43.3464 38.6068 44.1016 37.8516C44.8568 37.0964 45.7812 36.7188 46.875 36.7188C47.9688 36.7188 48.8932 37.0964 49.6484 37.8516C50.4036 38.6068 50.7812 39.5312 50.7812 40.625C50.7812 41.7188 50.4036 42.6432 49.6484 43.3984C48.8932 44.1536 47.9688 44.5312 46.875 44.5312ZM37.5 62.5C44.4792 62.5 50.3906 60.0781 55.2344 55.2344C60.0781 50.3906 62.5 44.4792 62.5 37.5C62.5 36.25 62.4219 35.0391 62.2656 33.8672C62.1094 32.6953 61.8229 31.5625 61.4062 30.4688C60.3125 30.7292 59.2188 30.9245 58.125 31.0547C57.0312 31.1849 55.8854 31.25 54.6875 31.25C49.9479 31.25 45.4688 30.2344 41.25 28.2031C37.0312 26.1719 33.4375 23.3333 30.4688 19.6875C28.8021 23.75 26.4193 27.2786 23.3203 30.2734C20.2214 33.2682 16.6146 35.5208 12.5 37.0313V37.5C12.5 44.4792 14.9219 50.3906 19.7656 55.2344C24.6094 60.0781 30.5208 62.5 37.5 62.5ZM37.5 68.75C33.1771 68.75 29.1146 67.9297 25.3125 66.2891C21.5104 64.6484 18.2031 62.4219 15.3906 59.6094C12.5781 56.7969 10.3516 53.4896 8.71094 49.6875C7.07031 45.8854 6.25 41.8229 6.25 37.5C6.25 33.1771 7.07031 29.1146 8.71094 25.3125C10.3516 21.5104 12.5781 18.2031 15.3906 15.3906C18.2031 12.5781 21.5104 10.3516 25.3125 8.71094C29.1146 7.07031 33.1771 6.25 37.5 6.25C41.8229 6.25 45.8854 7.07031 49.6875 8.71094C53.4896 10.3516 56.7969 12.5781 59.6094 15.3906C62.4219 18.2031 64.6484 21.5104 66.2891 25.3125C67.9297 29.1146 68.75 33.1771 68.75 37.5C68.75 41.8229 67.9297 45.8854 66.2891 49.6875C64.6484 53.4896 62.4219 56.7969 59.6094 59.6094C56.7969 62.4219 53.4896 64.6484 49.6875 66.2891C45.8854 67.9297 41.8229 68.75 37.5 68.75ZM33.2813 12.8906C35.4688 16.5365 38.4375 19.4661 42.1875 21.6797C45.9375 23.8932 50.1042 25 54.6875 25C55.4167 25 56.1198 24.9609 56.7969 24.8828C57.474 24.8047 58.1771 24.7135 58.9062 24.6094C56.7188 20.9635 53.75 18.0339 50 15.8203C46.25 13.6068 42.0833 12.5 37.5 12.5C36.7708 12.5 36.0677 12.5391 35.3906 12.6172C34.7135 12.6953 34.0104 12.7865 33.2813 12.8906ZM13.8281 29.6094C16.4844 28.099 18.8021 26.1458 20.7812 23.75C22.7604 21.3542 24.2448 18.6719 25.2344 15.7031C22.5781 17.2135 20.2604 19.1667 18.2812 21.5625C16.3021 23.9583 14.8177 26.6406 13.8281 29.6094Z" fill="#ABD1C6"/>
</svg>
