<svg width="57" height="42" viewBox="0 0 57 42" fill="none" xmlns="http://www.w3.org/2000/svg">
<mask id="path-1-inside-1_353_555" fill="white">
<path d="M1.86394 27.9215L0.543945 22.7815L2.98395 21.7815L2.58394 20.3415L6.82394 19.4515L8.74394 17.3715L7.23393 16.4715L6.91394 13.8715L8.05394 13.3015L7.38396 12.7315L7.81395 11.4815L9.37395 12.3015L9.99394 9.6915L11.444 10.4015L12.9039 9.1915L15.7039 10.5115L17.0739 13.0915L18.6539 12.7815L18.6139 11.7715L20.3039 11.0515L19.1239 9.5715L16.6539 8.7515L17.4639 7.28149L21.0739 7.1915L23.4539 5.68149L23.3339 4.08151L19.9939 2.87149L19.9339 1.58151L21.5939 0.0214844L23.254 0.341492L23.4339 1.59149L25.6439 3.5715L25.0739 5.1615L27.1539 6.1615L27.914 5.14151L28.8639 5.43149L28.4039 1.3815L29.254 1.4715L29.3339 2.6915L30.504 2.21149L31.2139 3.59149L31.4839 2.39151L34.224 3.46149L34.1839 4.56149L35.7039 2.0415L36.384 2.4715L37.8539 5.23151L37.3039 7.3815L40.3339 9.36151L43.1239 9.68149L43.134 8.89151L43.3339 9.7515L44.3239 9.5715L44.7339 11.4015L45.784 10.4015L47.1539 11.1015L47.7739 14.0615L46.8739 14.1615V15.0515L48.694 16.0715L48.034 17.4615L48.694 17.7515L48.6739 19.7815L49.5639 20.1015L47.534 19.9615L46.534 21.3715L48.4639 21.9215L48.724 25.2515L44.1039 26.2815L43.474 28.1715L45.034 28.7715L46.254 30.6715L45.694 31.6015L47.1239 32.8015L52.8139 31.9815L56.3639 35.0815L56.0839 36.9515L49.194 37.0515L48.1839 39.5415L46.5239 40.2415L45.1439 39.6515L43.8439 41.6115L40.414 41.9615L40.6539 41.1915L37.884 41.0615L38.2939 39.5615L32.6239 39.0115L30.6039 37.3715L27.6839 37.6015L27.5939 39.7015L25.914 40.3415L23.9539 35.6415L22.3439 34.7015L22.5639 33.8015L18.2939 34.0415L17.3539 33.3215L14.8039 34.4015L11.0639 29.9115L7.10393 30.0115L6.12395 28.9315L4.70395 29.8615L1.86394 27.9215Z"/>
</mask>
<path d="M1.86394 27.9215L0.543945 22.7815L2.98395 21.7815L2.58394 20.3415L6.82394 19.4515L8.74394 17.3715L7.23393 16.4715L6.91394 13.8715L8.05394 13.3015L7.38396 12.7315L7.81395 11.4815L9.37395 12.3015L9.99394 9.6915L11.444 10.4015L12.9039 9.1915L15.7039 10.5115L17.0739 13.0915L18.6539 12.7815L18.6139 11.7715L20.3039 11.0515L19.1239 9.5715L16.6539 8.7515L17.4639 7.28149L21.0739 7.1915L23.4539 5.68149L23.3339 4.08151L19.9939 2.87149L19.9339 1.58151L21.5939 0.0214844L23.254 0.341492L23.4339 1.59149L25.6439 3.5715L25.0739 5.1615L27.1539 6.1615L27.914 5.14151L28.8639 5.43149L28.4039 1.3815L29.254 1.4715L29.3339 2.6915L30.504 2.21149L31.2139 3.59149L31.4839 2.39151L34.224 3.46149L34.1839 4.56149L35.7039 2.0415L36.384 2.4715L37.8539 5.23151L37.3039 7.3815L40.3339 9.36151L43.1239 9.68149L43.134 8.89151L43.3339 9.7515L44.3239 9.5715L44.7339 11.4015L45.784 10.4015L47.1539 11.1015L47.7739 14.0615L46.8739 14.1615V15.0515L48.694 16.0715L48.034 17.4615L48.694 17.7515L48.6739 19.7815L49.5639 20.1015L47.534 19.9615L46.534 21.3715L48.4639 21.9215L48.724 25.2515L44.1039 26.2815L43.474 28.1715L45.034 28.7715L46.254 30.6715L45.694 31.6015L47.1239 32.8015L52.8139 31.9815L56.3639 35.0815L56.0839 36.9515L49.194 37.0515L48.1839 39.5415L46.5239 40.2415L45.1439 39.6515L43.8439 41.6115L40.414 41.9615L40.6539 41.1915L37.884 41.0615L38.2939 39.5615L32.6239 39.0115L30.6039 37.3715L27.6839 37.6015L27.5939 39.7015L25.914 40.3415L23.9539 35.6415L22.3439 34.7015L22.5639 33.8015L18.2939 34.0415L17.3539 33.3215L14.8039 34.4015L11.0639 29.9115L7.10393 30.0115L6.12395 28.9315L4.70395 29.8615L1.86394 27.9215Z" fill="black" stroke="white" stroke-width="2" mask="url(#path-1-inside-1_353_555)"/>
</svg>
