<svg width="62" height="58" viewBox="0 0 62 58" fill="none" xmlns="http://www.w3.org/2000/svg">
<mask id="path-1-inside-1_353_550" fill="white">
<path d="M7.89392 27.9015L12.8839 26.6215L17.5839 27.9615L17.7339 27.1115L16.2239 26.5615L14.0839 22.6715L14.5839 21.7215L15.8039 21.8415L18.0939 24.6115L18.2639 20.7615L17.1239 20.6815L17.3039 19.4715L18.8439 18.1415L19.3439 16.0515L23.6739 12.9015L24.4939 13.6115L24.8239 11.3315L27.9139 12.2615L27.6139 13.4115L28.5939 13.5115L30.7739 16.8715L32.2239 15.1215L31.0239 12.1915L33.6439 11.0915L34.9139 12.1215L35.7539 10.1215L35.1339 9.47153L36.3839 8.73154L38.4339 11.7715L39.3839 11.5015L40.8039 12.8715L47.5939 13.1015L49.5639 7.65152L52.0739 6.92154L53.2239 4.95154L56.3539 3.71152L59.1539 0.831543L60.7839 1.04153L61.4739 3.17154L60.7239 3.23154L60.0039 5.81152L56.8139 8.34152L57.7539 11.2015L60.6639 14.1115L58.3639 14.5915L58.1739 18.1015L55.0139 19.8015L54.1039 23.1315L53.1039 22.7915L51.6739 24.4215L49.8439 29.1815L52.7839 34.3415L52.3539 36.5715L56.0839 39.4915L56.5639 41.5715L57.5839 41.6015L60.4939 44.7315L58.0939 45.3515L55.8439 43.6715L52.4639 46.3315L49.2839 45.3715L50.4839 47.1615L49.0339 48.6815L50.8939 49.6415L47.7139 51.0615L47.2539 50.1615L45.7739 50.1315L43.8439 51.8615L42.8339 49.9115L41.4739 50.9415L38.5739 50.8915L38.5439 52.6715L37.2539 54.1915L34.8839 53.4515L31.7239 50.3315L30.2739 50.4415L27.9439 53.5015L25.7739 53.5715L22.2639 57.8815L20.8139 55.2815L18.7539 54.3515L18.2739 52.8215L17.3139 53.0315L17.2339 54.2915L15.1139 55.0815L14.2739 53.3815L12.2539 53.0615L11.3939 54.2515L7.01392 48.9415L3.73392 48.6715L2.47394 49.4615L2.55392 47.4615L5.10391 43.8015L3.95392 43.8215L3.39392 42.3015L0.933929 41.7315L2.42392 35.0615L0.773926 35.2615L0.523926 32.2415L3.85391 30.1615L3.26392 29.0815L3.82391 28.0815L5.13394 27.9515L6.38394 29.2515L6.03394 30.2515L7.99393 30.4915L8.16394 29.5015L6.53394 29.2015L6.89392 28.0115L7.89392 27.9015Z"/>
</mask>
<path d="M7.89392 27.9015L12.8839 26.6215L17.5839 27.9615L17.7339 27.1115L16.2239 26.5615L14.0839 22.6715L14.5839 21.7215L15.8039 21.8415L18.0939 24.6115L18.2639 20.7615L17.1239 20.6815L17.3039 19.4715L18.8439 18.1415L19.3439 16.0515L23.6739 12.9015L24.4939 13.6115L24.8239 11.3315L27.9139 12.2615L27.6139 13.4115L28.5939 13.5115L30.7739 16.8715L32.2239 15.1215L31.0239 12.1915L33.6439 11.0915L34.9139 12.1215L35.7539 10.1215L35.1339 9.47153L36.3839 8.73154L38.4339 11.7715L39.3839 11.5015L40.8039 12.8715L47.5939 13.1015L49.5639 7.65152L52.0739 6.92154L53.2239 4.95154L56.3539 3.71152L59.1539 0.831543L60.7839 1.04153L61.4739 3.17154L60.7239 3.23154L60.0039 5.81152L56.8139 8.34152L57.7539 11.2015L60.6639 14.1115L58.3639 14.5915L58.1739 18.1015L55.0139 19.8015L54.1039 23.1315L53.1039 22.7915L51.6739 24.4215L49.8439 29.1815L52.7839 34.3415L52.3539 36.5715L56.0839 39.4915L56.5639 41.5715L57.5839 41.6015L60.4939 44.7315L58.0939 45.3515L55.8439 43.6715L52.4639 46.3315L49.2839 45.3715L50.4839 47.1615L49.0339 48.6815L50.8939 49.6415L47.7139 51.0615L47.2539 50.1615L45.7739 50.1315L43.8439 51.8615L42.8339 49.9115L41.4739 50.9415L38.5739 50.8915L38.5439 52.6715L37.2539 54.1915L34.8839 53.4515L31.7239 50.3315L30.2739 50.4415L27.9439 53.5015L25.7739 53.5715L22.2639 57.8815L20.8139 55.2815L18.7539 54.3515L18.2739 52.8215L17.3139 53.0315L17.2339 54.2915L15.1139 55.0815L14.2739 53.3815L12.2539 53.0615L11.3939 54.2515L7.01392 48.9415L3.73392 48.6715L2.47394 49.4615L2.55392 47.4615L5.10391 43.8015L3.95392 43.8215L3.39392 42.3015L0.933929 41.7315L2.42392 35.0615L0.773926 35.2615L0.523926 32.2415L3.85391 30.1615L3.26392 29.0815L3.82391 28.0815L5.13394 27.9515L6.38394 29.2515L6.03394 30.2515L7.99393 30.4915L8.16394 29.5015L6.53394 29.2015L6.89392 28.0115L7.89392 27.9015Z" fill="black" stroke="white" stroke-width="2" mask="url(#path-1-inside-1_353_550)"/>
</svg>
