<svg width="44" height="65" viewBox="0 0 44 65" fill="none" xmlns="http://www.w3.org/2000/svg">
<path d="M37.3213 1.21522L37.5274 3.02812L37.5478 3.20704L37.6775 3.3319L39.1221 4.72191L39.3946 12.0702L39.404 12.3243L39.6149 12.4663L40.1681 12.839L39.2377 14.3608L39.1123 14.5658L39.1941 14.7917L40.2941 17.8317L40.3507 17.9883L40.4899 18.0796L41.4417 18.7043L40.533 21.2644L40.4608 21.4679L40.5594 21.66L42.5432 25.5241L41.3543 27.5263L41.3021 27.6143L41.2886 27.7156L40.8775 30.8033L37.5491 34.8227L37.4119 34.9885L37.4379 35.2022L38.2226 41.6365L36.6753 45.5708L34.802 47.1493L34.6123 47.3091L34.6249 47.5569L34.9059 53.1004L33.5699 54.9375L33.4926 55.0438L33.4775 55.1744L32.8275 60.8144L32.8246 60.8393L32.8243 60.8643L32.7857 63.5168L29.9201 62.1182L29.583 60.9976L29.4892 60.6856L29.1658 60.6454L27.9536 60.4949L27.7707 59.92L27.6423 59.5165L27.2232 59.5767L25.0632 59.8867L24.7124 59.937L24.6437 60.2847L24.1139 62.9673L23.2262 62.7605L23.0937 59.8985L23.0675 59.3324L22.5091 59.4289L19.7891 59.8989L19.6564 59.9219L19.5532 60.0083L17.9532 61.3483L17.7689 61.5027L17.7744 61.743L17.8001 62.8773L16.9567 63.9024L14.0759 61.2065L13.8921 61.0346L13.6445 61.0797L12.5667 61.2764L12.1785 60.3059L12.0013 59.8629L11.5504 60.0192L8.62623 61.0332L8.4278 60.8225L9.1898 59.1376L9.28339 58.9307L9.18911 58.7241L8.63244 57.504L9.46957 56.9222L10.1047 56.4808L9.44148 56.0829L8.34545 55.4253L8.39384 54.1912L8.40659 53.8661L8.11453 53.7228L6.69158 53.0244L5.33866 47.7279L5.30113 47.5809L5.1883 47.4796L2.76221 45.3009L1.13594 37.1132L3.39533 35.8696L3.96734 35.5548L3.51427 35.0847L3.24217 34.8023L4.41656 32.7104L5.60142 33.3687L6.53711 33.8885L6.41378 33.2462L6.62382 33.4649L6.82286 32.5476L6.94071 32.0045L7.37094 32.1235L7.93418 32.2793L8.00097 31.6988L8.21041 29.8781L12.8282 29.8416L13.124 29.8393L13.2644 29.5788L15.9868 24.5271L19.4319 23.9855L20.2249 23.8609L19.7633 23.2041L18.9146 21.9967L19.0727 21.1556L22.373 19.9723L23.0999 19.7116L22.5646 19.155L21.2545 17.7929L21.6204 16.5226L22.9817 16.252L23.6013 16.1289L23.3392 15.5541L22.7125 14.1804L23.5026 14.3508L23.9411 15.6334L24.9088 15.5451L24.9365 15.3586L25.1858 15.4248L26.1326 15.6765L25.7809 14.7621L25.2661 13.4238L26.6583 10.9899L26.7174 10.8865L26.7236 10.7677L26.8428 8.48583L31.39 7.69422L31.9534 7.59615L31.781 7.0509L31.4556 6.02174L32.5122 5.19551L32.7725 4.99202L32.6873 4.67281L32.4687 3.85299L37.3213 1.21522Z" fill="black" stroke="white"/>
</svg>
