<svg width="73" height="54" viewBox="0 0 73 54" fill="none" xmlns="http://www.w3.org/2000/svg">
<mask id="path-1-inside-1_353_549" fill="white">
<path d="M0.923828 23.7715L1.66385 20.7415L2.69385 20.7316L4.25385 17.9615L9.49384 17.0016L11.5538 17.8116L14.7938 15.7516L14.3438 13.2715L12.7938 12.4116L14.0138 10.5716L12.9438 9.38156L14.3938 8.63156L15.3438 9.40155L15.1938 7.49155L18.4038 5.78156L18.9938 4.17157L19.7338 4.04156L20.8738 5.88156L22.4338 4.80157L24.4138 5.35156L24.5538 4.15155L27.5038 1.29156L29.2838 0.601562L32.0938 1.17157L33.2038 3.81155L36.1438 5.24155L39.1838 8.36157L41.9638 5.87155L43.2738 5.93155L43.8038 7.53156L45.1938 7.86157L46.5338 6.13156L48.2538 6.05157L49.5738 7.51157L49.1838 9.14157L50.8138 9.89157L52.1938 7.91156L54.0738 7.56155L53.5238 5.52155L55.5738 5.43155L55.0938 4.51157L55.5538 2.94156L56.9138 3.93155L57.3038 6.48157L59.7738 9.38156L60.7738 11.3116L60.4338 12.4116L61.3839 12.8116L61.6138 16.6316L64.2538 17.8316L65.6438 17.0716L66.7938 19.6216L70.3839 19.4116L70.3638 20.3016L72.3138 21.2516L71.3338 25.0516L71.6938 29.2316L72.5138 29.3116L71.8038 30.0716L70.1038 29.6616L70.0138 30.9216L68.0638 31.3616L68.1339 32.4016H67.2438L66.8038 33.2115L64.1339 33.4615L64.1838 34.5116L62.6838 34.6016L64.3738 39.1616L63.5738 39.5816L63.7238 42.2115L64.9038 43.6016L64.2338 45.7016L65.3038 48.9315L63.5038 50.4716L62.1738 49.9016L61.6538 50.9315L60.2138 50.4615L59.5938 53.0416L58.8938 51.3916L57.0538 51.1616L55.3438 47.4816L50.0738 48.4116L49.9738 45.3116H48.9838L48.1938 44.4416L44.5838 46.1815L43.3638 44.9416L36.1738 44.6916L34.8938 43.8816L34.6038 42.0215L31.4038 42.7516L29.5038 41.4716L28.8238 38.6916L27.2238 38.2516L27.2338 36.0916L28.5738 34.4816L27.4738 33.8916L23.8338 34.1216L22.9038 37.1616L19.7038 35.5916L19.3238 38.0215L17.2838 38.6116L15.8138 41.7916L12.8438 40.3316L9.31384 32.1416L7.20383 31.1815L6.78384 31.9615L5.38385 29.0616L4.43384 30.3316L1.83383 28.3616L3.18384 26.7916L1.21384 26.0716L0.923828 23.7715Z"/>
</mask>
<path d="M0.923828 23.7715L1.66385 20.7415L2.69385 20.7316L4.25385 17.9615L9.49384 17.0016L11.5538 17.8116L14.7938 15.7516L14.3438 13.2715L12.7938 12.4116L14.0138 10.5716L12.9438 9.38156L14.3938 8.63156L15.3438 9.40155L15.1938 7.49155L18.4038 5.78156L18.9938 4.17157L19.7338 4.04156L20.8738 5.88156L22.4338 4.80157L24.4138 5.35156L24.5538 4.15155L27.5038 1.29156L29.2838 0.601562L32.0938 1.17157L33.2038 3.81155L36.1438 5.24155L39.1838 8.36157L41.9638 5.87155L43.2738 5.93155L43.8038 7.53156L45.1938 7.86157L46.5338 6.13156L48.2538 6.05157L49.5738 7.51157L49.1838 9.14157L50.8138 9.89157L52.1938 7.91156L54.0738 7.56155L53.5238 5.52155L55.5738 5.43155L55.0938 4.51157L55.5538 2.94156L56.9138 3.93155L57.3038 6.48157L59.7738 9.38156L60.7738 11.3116L60.4338 12.4116L61.3839 12.8116L61.6138 16.6316L64.2538 17.8316L65.6438 17.0716L66.7938 19.6216L70.3839 19.4116L70.3638 20.3016L72.3138 21.2516L71.3338 25.0516L71.6938 29.2316L72.5138 29.3116L71.8038 30.0716L70.1038 29.6616L70.0138 30.9216L68.0638 31.3616L68.1339 32.4016H67.2438L66.8038 33.2115L64.1339 33.4615L64.1838 34.5116L62.6838 34.6016L64.3738 39.1616L63.5738 39.5816L63.7238 42.2115L64.9038 43.6016L64.2338 45.7016L65.3038 48.9315L63.5038 50.4716L62.1738 49.9016L61.6538 50.9315L60.2138 50.4615L59.5938 53.0416L58.8938 51.3916L57.0538 51.1616L55.3438 47.4816L50.0738 48.4116L49.9738 45.3116H48.9838L48.1938 44.4416L44.5838 46.1815L43.3638 44.9416L36.1738 44.6916L34.8938 43.8816L34.6038 42.0215L31.4038 42.7516L29.5038 41.4716L28.8238 38.6916L27.2238 38.2516L27.2338 36.0916L28.5738 34.4816L27.4738 33.8916L23.8338 34.1216L22.9038 37.1616L19.7038 35.5916L19.3238 38.0215L17.2838 38.6116L15.8138 41.7916L12.8438 40.3316L9.31384 32.1416L7.20383 31.1815L6.78384 31.9615L5.38385 29.0616L4.43384 30.3316L1.83383 28.3616L3.18384 26.7916L1.21384 26.0716L0.923828 23.7715Z" fill="black" stroke="white" stroke-width="2" mask="url(#path-1-inside-1_353_549)"/>
</svg>
