<svg width="70" height="55" viewBox="0 0 70 55" fill="none" xmlns="http://www.w3.org/2000/svg">
<mask id="path-1-inside-1_353_551" fill="white">
<path d="M35.1541 0.501465L36.5441 1.58148L38.1741 0.691467L39.4541 1.90146L39.4841 3.80148L43.0641 4.86148L44.5341 4.68146L44.2741 2.46146L45.5241 1.50146L46.8241 2.06146L48.3341 0.651459L50.5241 1.52145L52.2741 6.82147L55.2141 7.15146L54.9841 8.63147L56.0541 10.3015L55.1841 11.5515L55.4941 13.5215L60.1641 16.7315L62.1141 17.1115L63.1641 16.0515L66.7641 18.3115L65.8241 20.3115L69.0141 26.4015L65.3041 26.0315L63.7841 28.0415L62.1541 27.8315L59.3541 30.7115L56.2241 31.9515L55.0741 33.9215L52.5641 34.6515L50.5941 40.1015L43.8041 39.8715L42.3841 38.5015L41.4341 38.7715L39.3841 35.7315L38.1341 36.4715L38.7541 37.1215L37.9141 39.1215L36.6441 38.0915L34.0241 39.1915L35.2241 42.1215L33.7741 43.8715L31.5941 40.5115L30.6141 40.4115L30.9141 39.2615L27.8241 38.3315L27.4941 40.6115L26.6741 39.9015L22.3441 43.0515L21.8441 45.1415L20.3041 46.4715L20.1241 47.6815L21.2641 47.7615L21.0941 51.6115L18.8041 48.8415L17.5841 48.7215L17.0841 49.6715L19.2241 53.5615L20.7341 54.1115L20.5841 54.9615L15.8841 53.6215L10.8941 54.9015L11.3341 50.5315H9.69412L9.2641 48.5815L8.0741 48.2515L8.9541 46.6815L5.5741 46.8615L4.47412 45.6815L3.22412 46.4015L2.0141 44.7315L0.804108 44.5215L1.2341 43.3415L0.204102 41.4115L1.02411 40.9015L2.62411 41.7115L3.46411 40.7915L2.1041 40.0715L1.83411 37.0915L7.81412 39.0615L8.91412 37.0415L10.3541 36.9515L7.6041 34.5015L9.71411 30.5615L9.4541 28.3415L13.0841 28.9815L13.9241 27.6415L15.5941 28.1515L17.2941 25.9915L15.9841 25.0615L17.1541 21.9715L19.4741 22.7315L22.3041 21.9115L23.5141 20.6815L22.2441 19.3215L25.2641 17.4315L26.6841 18.6715L29.9041 15.8515L34.6041 16.5715L36.6341 15.2815L37.7241 16.5515L39.1041 16.4015L39.2141 11.4615L37.7341 10.6215L37.7841 7.99146L34.7841 8.12146L32.8241 6.97147L33.4641 4.14148L34.4841 3.78146L33.9441 1.83148L35.1541 0.501465Z"/>
</mask>
<path d="M35.1541 0.501465L36.5441 1.58148L38.1741 0.691467L39.4541 1.90146L39.4841 3.80148L43.0641 4.86148L44.5341 4.68146L44.2741 2.46146L45.5241 1.50146L46.8241 2.06146L48.3341 0.651459L50.5241 1.52145L52.2741 6.82147L55.2141 7.15146L54.9841 8.63147L56.0541 10.3015L55.1841 11.5515L55.4941 13.5215L60.1641 16.7315L62.1141 17.1115L63.1641 16.0515L66.7641 18.3115L65.8241 20.3115L69.0141 26.4015L65.3041 26.0315L63.7841 28.0415L62.1541 27.8315L59.3541 30.7115L56.2241 31.9515L55.0741 33.9215L52.5641 34.6515L50.5941 40.1015L43.8041 39.8715L42.3841 38.5015L41.4341 38.7715L39.3841 35.7315L38.1341 36.4715L38.7541 37.1215L37.9141 39.1215L36.6441 38.0915L34.0241 39.1915L35.2241 42.1215L33.7741 43.8715L31.5941 40.5115L30.6141 40.4115L30.9141 39.2615L27.8241 38.3315L27.4941 40.6115L26.6741 39.9015L22.3441 43.0515L21.8441 45.1415L20.3041 46.4715L20.1241 47.6815L21.2641 47.7615L21.0941 51.6115L18.8041 48.8415L17.5841 48.7215L17.0841 49.6715L19.2241 53.5615L20.7341 54.1115L20.5841 54.9615L15.8841 53.6215L10.8941 54.9015L11.3341 50.5315H9.69412L9.2641 48.5815L8.0741 48.2515L8.9541 46.6815L5.5741 46.8615L4.47412 45.6815L3.22412 46.4015L2.0141 44.7315L0.804108 44.5215L1.2341 43.3415L0.204102 41.4115L1.02411 40.9015L2.62411 41.7115L3.46411 40.7915L2.1041 40.0715L1.83411 37.0915L7.81412 39.0615L8.91412 37.0415L10.3541 36.9515L7.6041 34.5015L9.71411 30.5615L9.4541 28.3415L13.0841 28.9815L13.9241 27.6415L15.5941 28.1515L17.2941 25.9915L15.9841 25.0615L17.1541 21.9715L19.4741 22.7315L22.3041 21.9115L23.5141 20.6815L22.2441 19.3215L25.2641 17.4315L26.6841 18.6715L29.9041 15.8515L34.6041 16.5715L36.6341 15.2815L37.7241 16.5515L39.1041 16.4015L39.2141 11.4615L37.7341 10.6215L37.7841 7.99146L34.7841 8.12146L32.8241 6.97147L33.4641 4.14148L34.4841 3.78146L33.9441 1.83148L35.1541 0.501465Z" fill="black" stroke="white" stroke-width="2" mask="url(#path-1-inside-1_353_551)"/>
</svg>
