<svg width="54" height="80" viewBox="0 0 54 80" fill="none" xmlns="http://www.w3.org/2000/svg">
<mask id="path-1-inside-1_353_548" fill="white">
<path d="M8.97403 4.52162L12.554 3.17162L13.344 4.34162L15.484 4.23162L16.904 2.89162L22.184 4.09162L24.384 1.73162L26.454 2.41162L27.294 3.64162L28.374 2.80162L29.184 3.35162L29.364 1.80162L31.474 0.781616L32.754 1.89162L38.014 2.85162L38.644 4.68162L42.584 2.44162L43.134 3.59162L42.514 5.70162L45.904 6.29162L46.944 7.27162L49.254 6.58162L51.324 7.16162L51.444 8.07162L52.954 7.90162L52.354 10.8016L53.934 11.4316L53.834 13.7216L51.874 19.3916L53.694 20.8616L51.004 24.5816L48.564 25.9216L48.094 28.8016L45.024 28.5016L44.294 29.5116L46.554 32.7616L45.384 34.4416L46.474 34.6316L46.614 35.7416L45.034 36.8716L45.074 39.3716L46.164 40.7816L44.894 41.2416L45.314 43.2816L44.834 46.2116L41.634 45.1216L40.144 43.2516L37.314 44.9416L37.134 47.1916L34.084 46.4616L28.574 49.1816L29.424 52.0216L28.864 52.9616L29.944 54.1816L28.934 55.5716L30.114 56.5716L30.804 55.9516L31.464 57.8516L32.884 57.5816L32.854 58.9916L31.054 60.0416L30.274 59.2916L27.614 59.5216L26.724 61.4716L28.274 64.1516L26.144 65.2216L26.074 66.6916L28.794 66.3016L29.914 68.1316L28.404 68.7616L27.554 71.1516L26.274 71.5316L26.814 72.6216L25.594 72.8416L25.454 74.4016L23.694 74.5616L21.914 78.3316L20.914 79.2516L20.274 77.8216L17.674 77.0916L17.034 73.5416L15.434 74.8216L14.434 72.2616L12.764 72.8816L12.214 70.7616L8.73401 68.2516L9.70401 65.8616L8.15402 63.8116L8.62402 62.7916L4.79401 61.6616L5.74402 60.0216L6.42401 60.7516L6.18402 59.6616L7.91403 58.9116L6.28403 58.4616L6.64401 57.9016L6.65402 57.3816L5.99402 56.5416L5.47403 58.9816L5.29401 56.8716L2.11401 55.3916L1.92401 57.0916L3.30402 57.3616L2.73401 58.2616L1.51401 56.6816L1.19403 57.3716L0.484009 56.9216L0.104004 54.7216L1.90402 54.1116L2.78403 55.3216L3.49402 54.3416L3.41403 50.8916L1.24402 50.7816L0.534027 48.3116L1.86401 47.4516L3.66403 48.2116L5.77402 45.1416L5.71402 41.5416L8.66403 41.1116L6.26401 39.4416L6.96402 38.2316L5.71402 36.4516L7.04401 35.6516L7.54401 32.5216L5.67401 29.4816L6.53403 28.4316L5.88403 27.3016L7.104 26.9816L6.79401 24.1416L6.77402 23.9616L5.94403 20.2616L4.49402 20.0016L5.39401 17.8016L4.08401 16.0616L5.33401 15.4216L4.97403 13.0216L5.45401 13.8816L6.79401 12.7116L6.91403 10.1016L10.254 6.29162L8.22403 5.82162L8.97403 4.52162Z"/>
</mask>
<path d="M8.97403 4.52162L12.554 3.17162L13.344 4.34162L15.484 4.23162L16.904 2.89162L22.184 4.09162L24.384 1.73162L26.454 2.41162L27.294 3.64162L28.374 2.80162L29.184 3.35162L29.364 1.80162L31.474 0.781616L32.754 1.89162L38.014 2.85162L38.644 4.68162L42.584 2.44162L43.134 3.59162L42.514 5.70162L45.904 6.29162L46.944 7.27162L49.254 6.58162L51.324 7.16162L51.444 8.07162L52.954 7.90162L52.354 10.8016L53.934 11.4316L53.834 13.7216L51.874 19.3916L53.694 20.8616L51.004 24.5816L48.564 25.9216L48.094 28.8016L45.024 28.5016L44.294 29.5116L46.554 32.7616L45.384 34.4416L46.474 34.6316L46.614 35.7416L45.034 36.8716L45.074 39.3716L46.164 40.7816L44.894 41.2416L45.314 43.2816L44.834 46.2116L41.634 45.1216L40.144 43.2516L37.314 44.9416L37.134 47.1916L34.084 46.4616L28.574 49.1816L29.424 52.0216L28.864 52.9616L29.944 54.1816L28.934 55.5716L30.114 56.5716L30.804 55.9516L31.464 57.8516L32.884 57.5816L32.854 58.9916L31.054 60.0416L30.274 59.2916L27.614 59.5216L26.724 61.4716L28.274 64.1516L26.144 65.2216L26.074 66.6916L28.794 66.3016L29.914 68.1316L28.404 68.7616L27.554 71.1516L26.274 71.5316L26.814 72.6216L25.594 72.8416L25.454 74.4016L23.694 74.5616L21.914 78.3316L20.914 79.2516L20.274 77.8216L17.674 77.0916L17.034 73.5416L15.434 74.8216L14.434 72.2616L12.764 72.8816L12.214 70.7616L8.73401 68.2516L9.70401 65.8616L8.15402 63.8116L8.62402 62.7916L4.79401 61.6616L5.74402 60.0216L6.42401 60.7516L6.18402 59.6616L7.91403 58.9116L6.28403 58.4616L6.64401 57.9016L6.65402 57.3816L5.99402 56.5416L5.47403 58.9816L5.29401 56.8716L2.11401 55.3916L1.92401 57.0916L3.30402 57.3616L2.73401 58.2616L1.51401 56.6816L1.19403 57.3716L0.484009 56.9216L0.104004 54.7216L1.90402 54.1116L2.78403 55.3216L3.49402 54.3416L3.41403 50.8916L1.24402 50.7816L0.534027 48.3116L1.86401 47.4516L3.66403 48.2116L5.77402 45.1416L5.71402 41.5416L8.66403 41.1116L6.26401 39.4416L6.96402 38.2316L5.71402 36.4516L7.04401 35.6516L7.54401 32.5216L5.67401 29.4816L6.53403 28.4316L5.88403 27.3016L7.104 26.9816L6.79401 24.1416L6.77402 23.9616L5.94403 20.2616L4.49402 20.0016L5.39401 17.8016L4.08401 16.0616L5.33401 15.4216L4.97403 13.0216L5.45401 13.8816L6.79401 12.7116L6.91403 10.1016L10.254 6.29162L8.22403 5.82162L8.97403 4.52162Z" fill="black" stroke="white" stroke-width="2" mask="url(#path-1-inside-1_353_548)"/>
</svg>
