<svg width="46" height="51" viewBox="0 0 46 51" fill="none" xmlns="http://www.w3.org/2000/svg">
<path d="M30.8132 14.7684L32.0535 14.2927L33.1785 14.9271L33.7567 15.2532L33.9105 14.6074L34.0464 14.0365L34.8256 14.2097L34.9821 14.2444L35.1296 14.1818L39.1857 12.4587L41.3922 12.8249L41.7612 12.8861L41.9241 12.5495L42.5389 11.2795L43.5415 11.3357L42.9933 13.2542L42.9268 13.4872L43.0684 13.6839L44.9562 16.3042L44.6363 18.1918L43.1237 18.8535L42.8679 18.9654L42.829 19.242L42.4247 22.1182L39.1115 23.859L38.8791 23.9811L38.8477 24.2417L38.5692 26.5501L36.2329 27.7682L35.8694 27.9578L35.984 28.3514L37.3595 33.0754L35.917 34.8001L34.8179 34.3928L34.4911 34.2716L34.2644 34.5364L32.5899 36.4914L29.8448 36.9896L29.4799 37.0559L29.4374 37.4243L29.4142 37.6257L28.923 36.4709L28.4855 37.6473L28.168 38.5011L25.9666 38.3134L25.6626 38.2875L25.5005 38.5459L24.2789 40.4934L22.4165 40.3726L22.0672 40.35L21.9264 40.6704L20.6564 43.5604L20.5987 43.6916L20.6193 43.8334L20.8945 45.7307L20.274 45.1859L19.9547 44.9055L19.6265 45.1754L17.5176 46.9102L17.0973 46.4388L16.9243 46.2447L16.666 46.275L14.616 46.515L14.4222 46.5377L14.295 46.6856L12.885 48.3256L12.6292 48.623L12.8572 48.9422L13.4121 49.719L12.8767 50.2591L11.6395 49.2613L11.9877 48.2318L12.1705 47.6914L11.6108 47.581L11.4683 47.5529L12.6755 44.1382L12.8416 43.6685L12.3725 43.5008L7.85234 41.8844L6.55205 40.0281L7.01085 38.076L7.04801 37.9178L6.98513 37.768L6.09515 35.648L5.95803 35.3214L5.60441 35.3425L4.135 35.4299L3.16092 34.5421L2.91887 34.3214L2.61991 34.4552L1.94673 34.7564L1.35466 33.3487L4.08799 32.1282L5.03743 31.7042L4.11345 31.2273L2.84886 30.5746L3.83476 29.5479L4.1136 29.2576L3.88943 28.9232L3.46427 28.289L5.31098 28.8407L5.5595 28.9149L5.76332 28.7545L8.8421 26.3316L10.785 27.7822L10.9761 27.9249L11.2073 27.8662L13.6073 27.2562L14.4212 27.0493L13.8514 26.4323L10.9514 23.2924L10.8088 23.1379L10.5987 23.1318L9.9545 23.113L9.56129 21.4091L9.52162 21.2372L9.38282 21.1283L5.90165 18.3958L6.26547 16.4641L6.29946 16.2836L6.20854 16.1241L3.38581 11.1699L5.09881 6.71428L6.24958 5.40256L6.93317 5.63498L7.43633 5.80605L7.57643 5.2934L8.43008 2.16961L11.2379 0.650174L11.5709 0.724179L14.1299 4.82623L14.2463 5.01285L14.4625 5.05313L15.0913 5.17025L15.1445 6.43266L15.152 6.60955L15.2691 6.74233L16.6891 8.35231L16.8983 8.58947L17.2022 8.50212L18.6602 8.08307L21.4823 9.81758L21.6103 9.89626L21.7605 9.89133L23.3867 9.83802L27.0564 13.2003L27.2251 13.3549L27.4525 13.3282L29.6898 13.0654L30.1603 14.4613L30.3267 14.955L30.8132 14.7684Z" fill="black" stroke="white"/>
</svg>
