<svg width="58" height="61" viewBox="0 0 58 61" fill="none" xmlns="http://www.w3.org/2000/svg">
<mask id="path-1-inside-1_353_554" fill="white">
<path d="M33.994 1.3216L35.7039 1.4116L36.5139 2.4516L35.3239 3.5516L35.504 5.6016L34.634 4.7216L34.094 6.9416L33.344 7.0816L34.224 8.8216L32.084 13.2816L32.144 13.9616L34.4839 14.6016L36.184 17.0916L34.474 19.8416L35.624 22.8616L34.664 24.5716L36.924 25.0416L40.634 24.1216L41.184 25.2716L44.744 26.5116L46.124 29.6716L47.564 29.5316L47.7339 30.9616L52.064 30.8016L54.6039 33.4816L53.554 35.0416L53.874 36.2116L55.284 34.9516L57.274 35.8716L56.534 37.3716L54.8539 37.3216L53.7939 39.5116L51.7339 40.6416L50.594 38.8816L47.634 39.2916L46.7939 37.5216L45.5139 37.4216L45.524 39.4416L44.584 40.6016V41.0816L43.2939 43.2616L45.4539 45.9816L45.624 48.4316L44.034 49.5016L45.034 51.0516L43.114 51.6816L41.9839 53.7716L41.874 55.3916L43.284 56.6816L42.934 57.6616L38.804 60.0116L37.554 59.0916L37.664 58.1716L35.724 58.3816L35.274 60.6116L33.174 59.2016L30.614 59.7716L27.974 58.7116L25.644 60.3516L23.884 57.7316L24.144 56.5616L17.864 57.7516L15.784 56.5816L15.094 54.4716L13.584 55.1616L13.3239 54.3816L12.1039 54.3716L9.58395 50.7516L7.66397 50.7216L7.25397 49.6016L1.31396 49.2816L0.893951 47.2416L2.16397 46.7816L1.07394 45.3716L1.03397 42.8716L2.61395 41.7416L2.47397 40.6316L1.38397 40.4416L2.55396 38.7616L0.293945 35.5116L1.02396 34.5016L4.09396 34.8016L4.56396 31.9216L7.00397 30.5816L9.69397 26.8616L7.87396 25.3916L9.83395 19.7216L9.93396 17.4316L8.35394 16.8016L8.95395 13.9016L12.184 13.2316L17.844 15.2716L20.564 14.6416L23.194 12.4616L27.834 11.3516L28.344 7.9716L27.534 6.98161L28.4539 5.1216L30.4539 4.0716L30.974 2.46161L33.524 0.391602L33.994 1.3216Z"/>
</mask>
<path d="M33.994 1.3216L35.7039 1.4116L36.5139 2.4516L35.3239 3.5516L35.504 5.6016L34.634 4.7216L34.094 6.9416L33.344 7.0816L34.224 8.8216L32.084 13.2816L32.144 13.9616L34.4839 14.6016L36.184 17.0916L34.474 19.8416L35.624 22.8616L34.664 24.5716L36.924 25.0416L40.634 24.1216L41.184 25.2716L44.744 26.5116L46.124 29.6716L47.564 29.5316L47.7339 30.9616L52.064 30.8016L54.6039 33.4816L53.554 35.0416L53.874 36.2116L55.284 34.9516L57.274 35.8716L56.534 37.3716L54.8539 37.3216L53.7939 39.5116L51.7339 40.6416L50.594 38.8816L47.634 39.2916L46.7939 37.5216L45.5139 37.4216L45.524 39.4416L44.584 40.6016V41.0816L43.2939 43.2616L45.4539 45.9816L45.624 48.4316L44.034 49.5016L45.034 51.0516L43.114 51.6816L41.9839 53.7716L41.874 55.3916L43.284 56.6816L42.934 57.6616L38.804 60.0116L37.554 59.0916L37.664 58.1716L35.724 58.3816L35.274 60.6116L33.174 59.2016L30.614 59.7716L27.974 58.7116L25.644 60.3516L23.884 57.7316L24.144 56.5616L17.864 57.7516L15.784 56.5816L15.094 54.4716L13.584 55.1616L13.3239 54.3816L12.1039 54.3716L9.58395 50.7516L7.66397 50.7216L7.25397 49.6016L1.31396 49.2816L0.893951 47.2416L2.16397 46.7816L1.07394 45.3716L1.03397 42.8716L2.61395 41.7416L2.47397 40.6316L1.38397 40.4416L2.55396 38.7616L0.293945 35.5116L1.02396 34.5016L4.09396 34.8016L4.56396 31.9216L7.00397 30.5816L9.69397 26.8616L7.87396 25.3916L9.83395 19.7216L9.93396 17.4316L8.35394 16.8016L8.95395 13.9016L12.184 13.2316L17.844 15.2716L20.564 14.6416L23.194 12.4616L27.834 11.3516L28.344 7.9716L27.534 6.98161L28.4539 5.1216L30.4539 4.0716L30.974 2.46161L33.524 0.391602L33.994 1.3216Z" fill="black" stroke="white" stroke-width="2" mask="url(#path-1-inside-1_353_554)"/>
</svg>
