<svg width="61" height="55" viewBox="0 0 61 55" fill="none" xmlns="http://www.w3.org/2000/svg">
<path d="M9.4265 2.35571L9.53697 2.65121L10.0529 2.33946L11.1832 1.65638L13.9441 3.33852L14.1693 3.47575L14.4098 3.36733L17.5198 1.96496L18.659 2.21032L19.2314 2.3336L19.2635 1.74897L19.2713 1.60768L20.006 1.98437L21.1649 4.67908L21.2669 4.91621L21.5193 4.97039L24.5065 5.6118L24.6813 6.10401L23.9094 6.80026L23.397 7.26245L23.9958 7.60541L26.6874 9.14701L26.4531 9.40646L26.1502 9.74197L26.4536 10.0771L28.0488 11.8393L28.0844 13.3334L29.0517 13.4989L29.3556 12.6983L29.4818 13.1627L29.5827 13.5339L29.9674 13.5315L30.8751 13.5258L30.3165 15.3339L30.2213 15.6424L30.4631 15.8561L31.1531 16.4661L31.315 16.6093L31.5302 16.5894L34.2402 16.3394L34.4665 16.3185L34.5995 16.1344L35.583 14.7733L36.5905 14.7002L36.8336 14.6826L36.9694 14.4802L38.1806 12.6758L38.2068 12.8904L38.5123 12.9879L41.0109 13.7849L41.441 16.3832L41.513 16.8181L41.9534 16.8012L47.9434 16.5712L48.1557 16.563L48.2972 16.4046L56.1064 7.66022L59.7297 10.1062L57.1503 14.6132L57.023 14.8357L57.1293 15.0689L57.8307 16.6075L52.3519 18.4886L52.1657 18.5525L52.0731 18.7262L51.4331 19.9262L51.2285 20.3099L51.58 20.5658L52.4749 21.2172L51.1931 23.5632L48.7476 24.3135L48.4401 24.4079L48.3985 24.7268L48.2214 26.0818L46.0473 25.2263L45.4396 24.9871L45.3673 25.6362L44.7773 30.9362L44.7617 31.0764L44.8217 31.2042L45.9311 33.5651L45.7092 35.4597L43.5378 48.005L42.7439 48.8283L41.0295 48.5672L40.5337 48.4917L40.4597 48.9878L39.883 52.8545L38.011 54.0662L37.2113 51.9731L37.1657 51.8537L37.0685 51.7709L34.9879 49.9989L35.2646 49.3468L35.3919 49.0465L35.1685 48.8089L29.9509 43.2623L30.2264 41.73L30.2768 41.4492L30.0608 41.2629L26.7908 38.4429L26.4357 38.1367L26.1074 38.4714L24.0274 40.5914L23.9569 40.6632L23.9197 40.7568L22.6549 43.9379L21.0039 45.0953L19.9784 44.928L18.4577 43.1107L18.3463 42.9775L18.1762 42.942L16.7363 42.642L16.5155 42.5961L16.4782 42.4272L16.0431 42.4632L8.96426 43.0485V41.3315V41.2194L8.91636 41.118L7.37635 37.858L7.32115 37.7411L7.21626 37.6657L5.82627 36.6657L5.56997 36.4813L5.29332 36.6334L4.34823 37.1532L4.40062 36.7218L4.44695 36.3403L4.09021 36.1974L1.34565 35.0979L2.07192 33.7833L2.14024 33.6597L2.13375 33.5186L1.8209 26.7143L4.06832 23.1164L4.23461 22.8502L4.06713 22.5847L3.2524 21.2933L9.4265 2.35571Z" fill="black" stroke="white"/>
</svg>
