<svg width="55" height="51" viewBox="0 0 55 51" fill="none" xmlns="http://www.w3.org/2000/svg">
<mask id="path-1-inside-1_353_565" fill="white">
<path d="M28.0441 4.79153L29.1741 3.87152L29.9941 4.44153L30.4941 3.20154L31.9041 3.46152L32.3641 1.77151L34.3841 0.811523L35.8141 2.94153L37.7741 2.63153L38.7841 3.34152L39.0641 2.48154L40.8441 3.73154L40.3341 4.73154L41.0941 3.95154L41.6141 4.94153L43.4641 5.17154V5.98154L43.3941 6.79153L45.6141 6.52151L46.7341 4.13153L50.3941 4.69153L52.7041 2.41153L54.0341 4.08154L53.5841 6.66153L54.2941 7.13153L53.8841 8.19153H52.4741L51.4441 10.8415L52.6041 12.9215L53.7841 13.3115L53.4041 17.7815L52.5241 21.2915L53.9541 22.3115L54.0341 23.4915L52.2341 24.1915L46.9941 21.5415L47.2141 26.1515L45.4041 27.0415L44.2841 29.0015L43.4541 28.8315L42.2741 31.3415L40.3341 32.9315L40.6141 35.3015L41.9641 36.0615L39.7341 37.9015L39.4641 41.1215L38.2141 40.8715L36.3741 42.4215L38.2141 45.8515L37.0641 46.8115L36.2341 46.7715L34.8341 47.3415L31.7041 47.4415L30.1341 48.7215L29.8241 47.5115L28.4841 47.2415L24.0841 50.4515L21.9441 49.6015L21.9241 48.4615L20.1241 47.7315L17.6241 44.2615L14.6741 43.5115L13.4441 44.1915L13.1241 43.1715L9.38412 44.7515L6.47412 39.7415L7.88412 38.5815L5.31412 37.6415L3.62411 38.1215L1.30411 36.3015H1.91412L2.7941 34.8415L0.24411 33.9215L2.34412 31.7515L2.2341 30.8515L0.224121 29.9215L0.594116 27.0515L1.7941 26.9515L4.28412 23.5315L1.53412 22.5415L1.50412 21.2615L2.33411 21.6715L2.96411 20.4615L1.2941 19.8315L2.6441 17.0915L5.30411 18.4515L7.69412 14.9515L9.13412 15.1915L9.56412 13.3315L10.6141 12.6715L11.2341 13.6015L14.9741 13.2115L15.5041 11.9315L17.2641 11.7415L20.2541 8.22153L23.0641 7.16153L23.4141 5.81152L25.3341 6.90152L27.0541 6.77151L27.3741 5.78152L28.5441 5.88153L28.0441 4.79153Z"/>
</mask>
<path d="M28.0441 4.79153L29.1741 3.87152L29.9941 4.44153L30.4941 3.20154L31.9041 3.46152L32.3641 1.77151L34.3841 0.811523L35.8141 2.94153L37.7741 2.63153L38.7841 3.34152L39.0641 2.48154L40.8441 3.73154L40.3341 4.73154L41.0941 3.95154L41.6141 4.94153L43.4641 5.17154V5.98154L43.3941 6.79153L45.6141 6.52151L46.7341 4.13153L50.3941 4.69153L52.7041 2.41153L54.0341 4.08154L53.5841 6.66153L54.2941 7.13153L53.8841 8.19153H52.4741L51.4441 10.8415L52.6041 12.9215L53.7841 13.3115L53.4041 17.7815L52.5241 21.2915L53.9541 22.3115L54.0341 23.4915L52.2341 24.1915L46.9941 21.5415L47.2141 26.1515L45.4041 27.0415L44.2841 29.0015L43.4541 28.8315L42.2741 31.3415L40.3341 32.9315L40.6141 35.3015L41.9641 36.0615L39.7341 37.9015L39.4641 41.1215L38.2141 40.8715L36.3741 42.4215L38.2141 45.8515L37.0641 46.8115L36.2341 46.7715L34.8341 47.3415L31.7041 47.4415L30.1341 48.7215L29.8241 47.5115L28.4841 47.2415L24.0841 50.4515L21.9441 49.6015L21.9241 48.4615L20.1241 47.7315L17.6241 44.2615L14.6741 43.5115L13.4441 44.1915L13.1241 43.1715L9.38412 44.7515L6.47412 39.7415L7.88412 38.5815L5.31412 37.6415L3.62411 38.1215L1.30411 36.3015H1.91412L2.7941 34.8415L0.24411 33.9215L2.34412 31.7515L2.2341 30.8515L0.224121 29.9215L0.594116 27.0515L1.7941 26.9515L4.28412 23.5315L1.53412 22.5415L1.50412 21.2615L2.33411 21.6715L2.96411 20.4615L1.2941 19.8315L2.6441 17.0915L5.30411 18.4515L7.69412 14.9515L9.13412 15.1915L9.56412 13.3315L10.6141 12.6715L11.2341 13.6015L14.9741 13.2115L15.5041 11.9315L17.2641 11.7415L20.2541 8.22153L23.0641 7.16153L23.4141 5.81152L25.3341 6.90152L27.0541 6.77151L27.3741 5.78152L28.5441 5.88153L28.0441 4.79153Z" fill="black" stroke="white" stroke-width="2" mask="url(#path-1-inside-1_353_565)"/>
</svg>
