<svg width="68" height="73" viewBox="0 0 68 73" fill="none" xmlns="http://www.w3.org/2000/svg">
<mask id="path-1-inside-1_353_558" fill="white">
<path d="M15.9043 19.2516L16.6143 18.8716L16.2243 17.3716L19.5343 16.2616L20.8443 16.1416L21.9143 17.8816L27.3743 17.2916L28.0243 15.0616L30.5443 13.2516L30.1143 11.3116L32.2143 9.06155L32.3943 5.92157L37.8843 0.341553L39.4343 2.05157L39.3743 5.33157L40.7043 4.24155L42.9743 4.25156L44.1643 9.21155L45.5043 8.96155L46.1943 10.1016L45.1343 10.8416L46.1043 11.8416L46.1743 15.5816L48.0443 17.6516L52.3543 22.6016L51.5643 25.8716L54.8043 29.6116L53.7643 33.9516L55.1943 37.1416L53.8543 38.4915L53.8243 39.7816L55.1243 39.0416L55.4843 40.8016L56.6143 40.5116L58.3643 41.6216L57.2643 43.9516L61.0643 43.0116L63.8043 43.3516L64.2443 45.1016L62.6743 45.8216L62.1343 48.7115L59.6743 49.5816L60.9843 51.0215L62.3643 50.3916L63.3643 52.0716L64.9143 51.6016L67.4543 53.5716L65.6643 56.6516L63.6543 57.8316L63.7043 59.8716L63.0543 61.0016L59.7843 60.9716L58.5643 62.7916L59.1343 64.7016L57.4243 65.7115L51.4743 64.3616L50.8643 66.2616L51.9343 68.1716L51.0043 69.5215L51.3443 72.5116L48.1643 71.6116L46.1143 72.4416L45.1943 69.8016L43.4143 69.8716L41.4843 68.5916L38.1143 70.4615L34.6043 68.8616L30.5643 63.8316L31.3543 61.9915L30.1443 61.0816L30.2143 59.2016L28.0643 58.0516L29.3543 56.2115L28.1143 55.6916L26.4443 52.0215L24.3043 51.6916L23.4343 49.4816L21.0743 47.7916L19.9943 48.0516L18.5443 46.4016L17.1543 47.2115L14.9443 46.9915L17.0943 45.6016L15.2643 45.5716L13.1643 43.3416L11.6243 43.7916L11.2743 44.8716V44.0616L9.54431 44.0215L9.78433 44.9816L6.86432 46.3216L7.29431 45.8116L6.31433 44.6016L5.05432 44.4615L4.76431 45.2616L4.50433 44.0916L3.64432 44.2916L2.79431 43.0116L3.86432 42.7415L4.56433 40.8316L5.44434 40.9416L6.09433 39.2216L1.93433 38.1016L2.41434 37.4216L1.45432 36.4615L2.42432 35.3916L3.68433 34.3516L1.84433 32.0616L2.10431 30.5516L1.14432 29.8716L0.694336 27.1916L2.50433 27.0016L2.69434 25.7816L3.90433 26.8416L3.69434 25.8316L9.74432 21.2415L9.97433 22.2715L10.7943 20.9915L12.8243 22.0316L14.7443 20.4816L15.4643 21.1116L15.9043 19.2516Z"/>
</mask>
<path d="M15.9043 19.2516L16.6143 18.8716L16.2243 17.3716L19.5343 16.2616L20.8443 16.1416L21.9143 17.8816L27.3743 17.2916L28.0243 15.0616L30.5443 13.2516L30.1143 11.3116L32.2143 9.06155L32.3943 5.92157L37.8843 0.341553L39.4343 2.05157L39.3743 5.33157L40.7043 4.24155L42.9743 4.25156L44.1643 9.21155L45.5043 8.96155L46.1943 10.1016L45.1343 10.8416L46.1043 11.8416L46.1743 15.5816L48.0443 17.6516L52.3543 22.6016L51.5643 25.8716L54.8043 29.6116L53.7643 33.9516L55.1943 37.1416L53.8543 38.4915L53.8243 39.7816L55.1243 39.0416L55.4843 40.8016L56.6143 40.5116L58.3643 41.6216L57.2643 43.9516L61.0643 43.0116L63.8043 43.3516L64.2443 45.1016L62.6743 45.8216L62.1343 48.7115L59.6743 49.5816L60.9843 51.0215L62.3643 50.3916L63.3643 52.0716L64.9143 51.6016L67.4543 53.5716L65.6643 56.6516L63.6543 57.8316L63.7043 59.8716L63.0543 61.0016L59.7843 60.9716L58.5643 62.7916L59.1343 64.7016L57.4243 65.7115L51.4743 64.3616L50.8643 66.2616L51.9343 68.1716L51.0043 69.5215L51.3443 72.5116L48.1643 71.6116L46.1143 72.4416L45.1943 69.8016L43.4143 69.8716L41.4843 68.5916L38.1143 70.4615L34.6043 68.8616L30.5643 63.8316L31.3543 61.9915L30.1443 61.0816L30.2143 59.2016L28.0643 58.0516L29.3543 56.2115L28.1143 55.6916L26.4443 52.0215L24.3043 51.6916L23.4343 49.4816L21.0743 47.7916L19.9943 48.0516L18.5443 46.4016L17.1543 47.2115L14.9443 46.9915L17.0943 45.6016L15.2643 45.5716L13.1643 43.3416L11.6243 43.7916L11.2743 44.8716V44.0616L9.54431 44.0215L9.78433 44.9816L6.86432 46.3216L7.29431 45.8116L6.31433 44.6016L5.05432 44.4615L4.76431 45.2616L4.50433 44.0916L3.64432 44.2916L2.79431 43.0116L3.86432 42.7415L4.56433 40.8316L5.44434 40.9416L6.09433 39.2216L1.93433 38.1016L2.41434 37.4216L1.45432 36.4615L2.42432 35.3916L3.68433 34.3516L1.84433 32.0616L2.10431 30.5516L1.14432 29.8716L0.694336 27.1916L2.50433 27.0016L2.69434 25.7816L3.90433 26.8416L3.69434 25.8316L9.74432 21.2415L9.97433 22.2715L10.7943 20.9915L12.8243 22.0316L14.7443 20.4816L15.4643 21.1116L15.9043 19.2516Z" fill="black" stroke="white" stroke-width="2" mask="url(#path-1-inside-1_353_558)"/>
</svg>
