<svg width="66" height="77" viewBox="0 0 66 77" fill="none" xmlns="http://www.w3.org/2000/svg">
<mask id="path-1-inside-1_353_563" fill="white">
<path d="M6.8343 20.0317L8.37431 20.5717L10.6543 23.2517L13.8743 23.8617L13.9443 27.1417L15.9543 29.6417L15.1243 31.9017L15.6543 33.0817L14.1643 34.8217L12.5843 29.9917L7.69431 25.6517L6.8343 20.0317ZM2.54431 7.51169L4.06432 8.91168L2.41431 8.89169L2.92432 10.7017L4.71431 9.28168L6.5843 9.15167L5.48431 10.4417L8.98431 10.6117L11.6043 11.7117L12.3943 13.3917L13.3043 13.2017L10.9043 14.3917L4.57431 10.8517L1.59431 10.8617L0.424316 8.37167L2.54431 7.51169ZM18.9143 3.97168L20.6143 3.93167L21.4943 1.98169L24.7743 1.88168L26.6343 0.71167L25.3243 3.65167L26.4943 4.3317L28.4043 3.37167L29.9543 3.92169L30.3443 2.56168L31.9643 2.42169L31.8843 3.44168L34.1243 4.70169L34.7043 6.87167L33.9843 8.22168L36.6243 9.88168L36.5243 12.1217L37.4743 11.8517L38.1543 12.9417L40.1243 13.4717L38.8643 13.9117L39.5343 14.7417L42.3043 14.2017L43.9543 15.1117L44.2543 16.6117L46.9343 17.1917L47.7843 16.1417L47.7343 17.3917L48.5843 17.9417L49.8143 17.3517L50.1543 18.4517L53.2043 17.7417L54.5243 19.8417L56.4343 20.3317L57.2643 19.7317L57.4643 21.3617L58.6543 20.7017L58.4643 22.3017L59.4943 22.9417L59.5643 24.1817L60.9843 24.7217L61.6643 25.8517L61.2143 27.1617L59.0343 27.2917L59.7843 28.1917L59.2343 29.2217L60.6143 30.5417L59.2643 32.5517L58.8243 35.9917L58.5443 35.2317L56.1043 36.2117L55.4743 34.5917L53.3343 34.3617L52.5243 35.5717L48.5843 35.5617L48.3343 36.6517L46.6243 36.7817L46.1243 38.1017L48.6243 38.6017L47.8443 39.2417L47.7343 41.5617L49.3943 43.3717L48.3243 43.3517L47.3743 45.1517L49.1843 45.0417L52.4243 47.9717L52.9843 48.7317L51.9043 50.4617L54.7743 51.2617L54.1343 52.0417L55.2343 52.3817L53.3743 55.1017L54.1843 55.1517L55.5143 57.7717L52.3643 59.3017L53.6343 61.0017L55.0943 60.7117L54.8843 61.8417L53.7343 61.4517L53.4543 63.7717L54.5743 64.4117L56.1343 62.9917L57.1343 64.0017L58.6743 63.9617L59.2543 65.0417L60.6743 64.8817L60.4643 67.3417L63.5943 67.4017L65.4043 68.5317L65.4543 70.6917L64.5643 71.9717L65.2243 72.5917L63.7543 73.7217L63.6343 75.9617L61.3243 74.8117L59.3143 76.6717L57.3543 76.3917L54.5343 75.1917L53.6443 73.5617L52.4943 73.2017L52.2343 73.8417L50.7143 72.0017L49.3443 73.5317L47.7843 69.7417L48.3943 67.8717L47.5743 67.3917L47.7143 65.7017L45.6343 64.7017L41.7943 64.5517L40.8643 61.6017L40.5243 63.1217L35.5543 62.7017L34.1443 57.5817L31.2243 53.0217L27.2843 49.6517L25.3443 49.2017L22.7643 45.3217L22.0543 45.6517L18.9743 43.9017L15.2143 40.9517L13.9543 41.2017L13.8943 35.6617L18.1943 34.6617L16.5043 31.4617L18.7243 31.5017L19.5143 30.6617L20.6543 27.3417L19.5743 26.2217L20.5643 25.3717L19.3043 23.2617L21.5743 22.8017L19.5443 17.3017L17.8143 16.6117L18.4043 15.3917L16.5343 14.7417L17.1643 13.6817L14.2043 13.7717L15.4043 10.3217L19.3043 7.07169L18.9143 3.97168Z"/>
</mask>
<path d="M6.8343 20.0317L8.37431 20.5717L10.6543 23.2517L13.8743 23.8617L13.9443 27.1417L15.9543 29.6417L15.1243 31.9017L15.6543 33.0817L14.1643 34.8217L12.5843 29.9917L7.69431 25.6517L6.8343 20.0317ZM2.54431 7.51169L4.06432 8.91168L2.41431 8.89169L2.92432 10.7017L4.71431 9.28168L6.5843 9.15167L5.48431 10.4417L8.98431 10.6117L11.6043 11.7117L12.3943 13.3917L13.3043 13.2017L10.9043 14.3917L4.57431 10.8517L1.59431 10.8617L0.424316 8.37167L2.54431 7.51169ZM18.9143 3.97168L20.6143 3.93167L21.4943 1.98169L24.7743 1.88168L26.6343 0.71167L25.3243 3.65167L26.4943 4.3317L28.4043 3.37167L29.9543 3.92169L30.3443 2.56168L31.9643 2.42169L31.8843 3.44168L34.1243 4.70169L34.7043 6.87167L33.9843 8.22168L36.6243 9.88168L36.5243 12.1217L37.4743 11.8517L38.1543 12.9417L40.1243 13.4717L38.8643 13.9117L39.5343 14.7417L42.3043 14.2017L43.9543 15.1117L44.2543 16.6117L46.9343 17.1917L47.7843 16.1417L47.7343 17.3917L48.5843 17.9417L49.8143 17.3517L50.1543 18.4517L53.2043 17.7417L54.5243 19.8417L56.4343 20.3317L57.2643 19.7317L57.4643 21.3617L58.6543 20.7017L58.4643 22.3017L59.4943 22.9417L59.5643 24.1817L60.9843 24.7217L61.6643 25.8517L61.2143 27.1617L59.0343 27.2917L59.7843 28.1917L59.2343 29.2217L60.6143 30.5417L59.2643 32.5517L58.8243 35.9917L58.5443 35.2317L56.1043 36.2117L55.4743 34.5917L53.3343 34.3617L52.5243 35.5717L48.5843 35.5617L48.3343 36.6517L46.6243 36.7817L46.1243 38.1017L48.6243 38.6017L47.8443 39.2417L47.7343 41.5617L49.3943 43.3717L48.3243 43.3517L47.3743 45.1517L49.1843 45.0417L52.4243 47.9717L52.9843 48.7317L51.9043 50.4617L54.7743 51.2617L54.1343 52.0417L55.2343 52.3817L53.3743 55.1017L54.1843 55.1517L55.5143 57.7717L52.3643 59.3017L53.6343 61.0017L55.0943 60.7117L54.8843 61.8417L53.7343 61.4517L53.4543 63.7717L54.5743 64.4117L56.1343 62.9917L57.1343 64.0017L58.6743 63.9617L59.2543 65.0417L60.6743 64.8817L60.4643 67.3417L63.5943 67.4017L65.4043 68.5317L65.4543 70.6917L64.5643 71.9717L65.2243 72.5917L63.7543 73.7217L63.6343 75.9617L61.3243 74.8117L59.3143 76.6717L57.3543 76.3917L54.5343 75.1917L53.6443 73.5617L52.4943 73.2017L52.2343 73.8417L50.7143 72.0017L49.3443 73.5317L47.7843 69.7417L48.3943 67.8717L47.5743 67.3917L47.7143 65.7017L45.6343 64.7017L41.7943 64.5517L40.8643 61.6017L40.5243 63.1217L35.5543 62.7017L34.1443 57.5817L31.2243 53.0217L27.2843 49.6517L25.3443 49.2017L22.7643 45.3217L22.0543 45.6517L18.9743 43.9017L15.2143 40.9517L13.9543 41.2017L13.8943 35.6617L18.1943 34.6617L16.5043 31.4617L18.7243 31.5017L19.5143 30.6617L20.6543 27.3417L19.5743 26.2217L20.5643 25.3717L19.3043 23.2617L21.5743 22.8017L19.5443 17.3017L17.8143 16.6117L18.4043 15.3917L16.5343 14.7417L17.1643 13.6817L14.2043 13.7717L15.4043 10.3217L19.3043 7.07169L18.9143 3.97168Z" fill="black" stroke="white" stroke-width="2" mask="url(#path-1-inside-1_353_563)"/>
</svg>
