<svg width="56" height="74" viewBox="0 0 56 74" fill="none" xmlns="http://www.w3.org/2000/svg">
<mask id="path-1-inside-1_353_564" fill="white">
<path d="M20.1941 0.891556L22.3041 0.351562L25.7241 3.02156L28.4541 1.54156L30.6741 4.08156L33.6541 3.85156L35.8841 5.75156L35.8041 6.79156L37.5341 7.65157L38.0141 9.22156L40.3541 8.60156L40.6541 5.90157L43.7841 8.56155L46.5841 6.98155L48.9241 12.0516L46.3041 18.1416L46.7941 19.4716L51.0341 22.8216L50.8941 24.8516L53.0641 31.3816L52.5341 34.8416L55.0241 37.3016L54.4441 40.2715L55.0941 41.4315L53.8441 44.3516L54.6641 47.7316L53.0941 51.1716L50.2841 50.6016L48.5041 51.2916L45.5541 54.1516L45.4141 55.3516L43.4341 54.8016L41.8741 55.8816L40.7341 54.0416L39.9941 54.1716L39.4041 55.7816L36.1941 57.4915L36.3441 59.4016L35.3941 58.6316L33.9441 59.3816L35.0141 60.5716L33.7941 62.4116L35.3441 63.2715L35.7941 65.7516L32.5541 67.8116L30.4941 67.0016L25.2541 67.9615L23.6941 70.7316L22.6641 70.7415L21.9241 73.7715L17.2641 73.4915L16.6041 71.4615L18.7841 69.9216L16.8541 65.5716L18.1341 60.3316L16.0441 59.0116L16.6941 57.3616L13.8941 56.1316L13.0841 53.8216L14.2441 53.6016L15.1441 52.0616L12.0741 48.4615L13.4441 48.7816L14.2841 47.5416L13.7641 46.7316L15.5741 45.9915L16.7241 44.1216L14.8741 44.0215L13.2541 42.7916L14.7541 38.9615L11.4641 35.8516L12.5541 34.3716L12.3141 32.2316L10.4541 33.0216L10.0741 31.0616L7.11411 32.5516L5.16412 32.5416L0.974121 30.8816L3.78412 27.8916L3.68411 25.3716L5.0741 26.2516L6.2041 25.7816L7.1041 24.1516L5.93411 23.2316L7.87411 21.1816L11.3141 22.8616L13.4341 21.5016L15.6341 21.8116L16.8541 20.6116L15.2541 18.5516L15.0141 16.2916L14.3041 16.4716L15.0641 13.1016L16.0241 13.9516L18.1241 12.0616L18.8041 14.0416L19.8541 13.9316L20.5641 8.77156L18.4741 9.06155L19.2241 6.89156L18.5341 5.49156L15.6241 5.15157L15.2641 3.20155L20.1941 0.891556Z"/>
</mask>
<path d="M20.1941 0.891556L22.3041 0.351562L25.7241 3.02156L28.4541 1.54156L30.6741 4.08156L33.6541 3.85156L35.8841 5.75156L35.8041 6.79156L37.5341 7.65157L38.0141 9.22156L40.3541 8.60156L40.6541 5.90157L43.7841 8.56155L46.5841 6.98155L48.9241 12.0516L46.3041 18.1416L46.7941 19.4716L51.0341 22.8216L50.8941 24.8516L53.0641 31.3816L52.5341 34.8416L55.0241 37.3016L54.4441 40.2715L55.0941 41.4315L53.8441 44.3516L54.6641 47.7316L53.0941 51.1716L50.2841 50.6016L48.5041 51.2916L45.5541 54.1516L45.4141 55.3516L43.4341 54.8016L41.8741 55.8816L40.7341 54.0416L39.9941 54.1716L39.4041 55.7816L36.1941 57.4915L36.3441 59.4016L35.3941 58.6316L33.9441 59.3816L35.0141 60.5716L33.7941 62.4116L35.3441 63.2715L35.7941 65.7516L32.5541 67.8116L30.4941 67.0016L25.2541 67.9615L23.6941 70.7316L22.6641 70.7415L21.9241 73.7715L17.2641 73.4915L16.6041 71.4615L18.7841 69.9216L16.8541 65.5716L18.1341 60.3316L16.0441 59.0116L16.6941 57.3616L13.8941 56.1316L13.0841 53.8216L14.2441 53.6016L15.1441 52.0616L12.0741 48.4615L13.4441 48.7816L14.2841 47.5416L13.7641 46.7316L15.5741 45.9915L16.7241 44.1216L14.8741 44.0215L13.2541 42.7916L14.7541 38.9615L11.4641 35.8516L12.5541 34.3716L12.3141 32.2316L10.4541 33.0216L10.0741 31.0616L7.11411 32.5516L5.16412 32.5416L0.974121 30.8816L3.78412 27.8916L3.68411 25.3716L5.0741 26.2516L6.2041 25.7816L7.1041 24.1516L5.93411 23.2316L7.87411 21.1816L11.3141 22.8616L13.4341 21.5016L15.6341 21.8116L16.8541 20.6116L15.2541 18.5516L15.0141 16.2916L14.3041 16.4716L15.0641 13.1016L16.0241 13.9516L18.1241 12.0616L18.8041 14.0416L19.8541 13.9316L20.5641 8.77156L18.4741 9.06155L19.2241 6.89156L18.5341 5.49156L15.6241 5.15157L15.2641 3.20155L20.1941 0.891556Z" fill="black" stroke="white" stroke-width="2" mask="url(#path-1-inside-1_353_564)"/>
</svg>
