<svg width="65" height="47" viewBox="0 0 65 47" fill="none" xmlns="http://www.w3.org/2000/svg">
<mask id="path-1-inside-1_353_557" fill="white">
<path d="M14.5143 2.24155L15.4543 2.51157L16.2843 4.50156L20.3443 3.31155L22.1743 5.17157L22.4643 2.45157L23.9843 0.841553L24.9943 1.93155L25.9743 1.57156L29.7243 3.32156L32.9743 2.11157L37.0243 3.10156L37.9043 4.04156L36.5742 4.61157L35.6743 7.33157L37.6243 8.07156L38.9343 10.8316L41.3043 9.86157L41.8643 8.63156L42.6243 11.4016L45.3643 12.3316L47.2343 9.48157L46.7843 8.79156L49.3743 8.21155L49.3143 5.27155L50.2643 6.23157V8.36157L52.5943 9.31155L55.0043 8.81155L55.2743 11.4216L57.0543 11.0816L58.1143 12.1616L60.7043 12.2715L61.3043 13.2216L62.8343 12.8116L63.5343 13.6016L64.4843 14.6516L64.7643 14.9315L60.4643 19.9416L57.5243 25.8416L56.4243 30.3616L57.3542 31.6116L56.6343 36.0516L49.1743 31.5816L46.0443 32.8216L43.9343 36.2516L34.0943 35.4016L27.3143 35.9516L26.5843 36.9416L27.5343 38.2115L27.9943 42.3516L25.6943 43.8316L24.3043 43.4315L21.3443 46.6516L20.0843 45.9516L20.3643 44.0816L16.8143 40.9816L11.1243 41.8016L9.69427 40.6016L10.2543 39.6716L9.03427 37.7715L7.47427 37.1716L8.10425 35.2816L12.7243 34.2516L12.4643 30.9216L10.5343 30.3716L11.5343 28.9615L13.5643 29.1016L12.6743 28.7816L12.6943 26.7516L12.0343 26.4615L12.6943 25.0716L10.8743 24.0516V23.1616L11.7743 23.0616L11.1543 20.1016L9.78427 19.4016L8.73425 20.4016L8.32425 18.5716L7.33426 18.7516L7.13428 17.8916L7.12427 18.6815L4.33426 18.3616L1.30426 16.3816L1.85425 14.2316L0.384277 11.4716L1.12427 9.67157L2.31427 9.15155L1.77426 7.57156L5.54425 7.61157L5.04425 4.69156L6.07425 4.50156L5.68427 3.65155L6.69427 3.40155L7.15427 1.84155L9.26425 4.63156L9.86426 3.08157L11.4043 2.77155L12.8043 3.77155L14.8843 2.89157L14.5143 2.24155Z"/>
</mask>
<path d="M14.5143 2.24155L15.4543 2.51157L16.2843 4.50156L20.3443 3.31155L22.1743 5.17157L22.4643 2.45157L23.9843 0.841553L24.9943 1.93155L25.9743 1.57156L29.7243 3.32156L32.9743 2.11157L37.0243 3.10156L37.9043 4.04156L36.5742 4.61157L35.6743 7.33157L37.6243 8.07156L38.9343 10.8316L41.3043 9.86157L41.8643 8.63156L42.6243 11.4016L45.3643 12.3316L47.2343 9.48157L46.7843 8.79156L49.3743 8.21155L49.3143 5.27155L50.2643 6.23157V8.36157L52.5943 9.31155L55.0043 8.81155L55.2743 11.4216L57.0543 11.0816L58.1143 12.1616L60.7043 12.2715L61.3043 13.2216L62.8343 12.8116L63.5343 13.6016L64.4843 14.6516L64.7643 14.9315L60.4643 19.9416L57.5243 25.8416L56.4243 30.3616L57.3542 31.6116L56.6343 36.0516L49.1743 31.5816L46.0443 32.8216L43.9343 36.2516L34.0943 35.4016L27.3143 35.9516L26.5843 36.9416L27.5343 38.2115L27.9943 42.3516L25.6943 43.8316L24.3043 43.4315L21.3443 46.6516L20.0843 45.9516L20.3643 44.0816L16.8143 40.9816L11.1243 41.8016L9.69427 40.6016L10.2543 39.6716L9.03427 37.7715L7.47427 37.1716L8.10425 35.2816L12.7243 34.2516L12.4643 30.9216L10.5343 30.3716L11.5343 28.9615L13.5643 29.1016L12.6743 28.7816L12.6943 26.7516L12.0343 26.4615L12.6943 25.0716L10.8743 24.0516V23.1616L11.7743 23.0616L11.1543 20.1016L9.78427 19.4016L8.73425 20.4016L8.32425 18.5716L7.33426 18.7516L7.13428 17.8916L7.12427 18.6815L4.33426 18.3616L1.30426 16.3816L1.85425 14.2316L0.384277 11.4716L1.12427 9.67157L2.31427 9.15155L1.77426 7.57156L5.54425 7.61157L5.04425 4.69156L6.07425 4.50156L5.68427 3.65155L6.69427 3.40155L7.15427 1.84155L9.26425 4.63156L9.86426 3.08157L11.4043 2.77155L12.8043 3.77155L14.8843 2.89157L14.5143 2.24155Z" fill="black" stroke="white" stroke-width="2" mask="url(#path-1-inside-1_353_557)"/>
</svg>
