<svg width="59" height="57" viewBox="0 0 59 57" fill="none" xmlns="http://www.w3.org/2000/svg">
<mask id="path-1-inside-1_353_562" fill="white">
<path d="M27.2543 3.20154L29.9043 4.08154L30.7343 5.30154L35.4343 4.81152L36.9543 6.01154L39.2043 4.98154L39.1343 3.76154L37.8843 3.73154L37.6543 2.83154L39.6643 0.741516L41.6343 3.71152L43.9743 4.59152L44.9243 3.37152L47.7743 3.17154L47.2743 2.24152L48.8443 0.561523L51.8643 1.14154L52.9043 0.571533L53.4743 1.24152L52.8543 1.68152L53.8943 3.11154L53.0443 5.84152L54.8643 7.75153L55.9443 6.92154L57.7043 8.33154L58.3143 11.4415L54.9443 13.8215L52.9543 12.9315L53.5543 15.8615L51.7343 21.2815L48.7943 20.5315L48.9243 23.0215L46.3843 24.3215L45.4143 26.1115L42.7243 30.6415L41.6043 30.8415L41.2543 29.9415L40.4643 30.6715L40.1943 35.4715L37.8943 37.1115L37.1743 39.3415L35.0543 39.3515L32.9743 41.9315L31.8043 40.9115L32.4143 42.2415L30.7143 42.8115L29.5243 46.2215L30.3143 50.4715L28.4643 50.8815L27.7643 52.4415L26.5443 52.6115L26.5143 53.9115L24.8643 55.8315L23.3543 54.5815L21.5343 54.6015L19.4443 56.6815L19.3943 54.5315L17.5843 53.4015L14.4543 53.3415L14.6643 50.8815L13.2443 51.0415L12.6643 49.9615L11.1243 50.0015L10.1143 49.0015L8.56427 50.4115L7.44426 49.7815L7.72426 47.4515L8.87427 47.8415L9.08426 46.7115L7.62427 47.0015L6.35426 45.3015L9.50426 43.7815L8.16426 41.1515L7.35426 41.1015L9.21426 38.3815L8.10426 38.0415L8.74426 37.2615L5.87427 36.4615L6.96426 34.7415L6.40427 33.9715L3.16426 31.0415L1.35426 31.1515L2.30426 29.3515L3.37427 29.3715L1.71426 27.5615L1.82426 25.2415L2.61426 24.6015L0.114258 24.1015L0.614258 22.7815L2.33426 22.6515L2.58426 21.5615H6.51427L7.32426 20.3515L9.46426 20.5915L10.0943 22.2115L12.5343 21.2215L12.8143 21.9815L13.2443 18.5415L14.6043 16.5315L13.2243 15.2115L13.7743 14.1715L13.0243 13.2715L15.2043 13.1515L15.6543 11.8315L14.9843 10.7015L17.6743 9.33154L16.8643 8.92154L18.3843 7.13153L17.7343 5.67154L20.0243 5.78152L21.8443 4.59152L21.9843 3.46152L23.2543 3.56152L23.3343 2.60153L24.9043 2.65152L26.2743 4.05154L27.2543 3.20154Z"/>
</mask>
<path d="M27.2543 3.20154L29.9043 4.08154L30.7343 5.30154L35.4343 4.81152L36.9543 6.01154L39.2043 4.98154L39.1343 3.76154L37.8843 3.73154L37.6543 2.83154L39.6643 0.741516L41.6343 3.71152L43.9743 4.59152L44.9243 3.37152L47.7743 3.17154L47.2743 2.24152L48.8443 0.561523L51.8643 1.14154L52.9043 0.571533L53.4743 1.24152L52.8543 1.68152L53.8943 3.11154L53.0443 5.84152L54.8643 7.75153L55.9443 6.92154L57.7043 8.33154L58.3143 11.4415L54.9443 13.8215L52.9543 12.9315L53.5543 15.8615L51.7343 21.2815L48.7943 20.5315L48.9243 23.0215L46.3843 24.3215L45.4143 26.1115L42.7243 30.6415L41.6043 30.8415L41.2543 29.9415L40.4643 30.6715L40.1943 35.4715L37.8943 37.1115L37.1743 39.3415L35.0543 39.3515L32.9743 41.9315L31.8043 40.9115L32.4143 42.2415L30.7143 42.8115L29.5243 46.2215L30.3143 50.4715L28.4643 50.8815L27.7643 52.4415L26.5443 52.6115L26.5143 53.9115L24.8643 55.8315L23.3543 54.5815L21.5343 54.6015L19.4443 56.6815L19.3943 54.5315L17.5843 53.4015L14.4543 53.3415L14.6643 50.8815L13.2443 51.0415L12.6643 49.9615L11.1243 50.0015L10.1143 49.0015L8.56427 50.4115L7.44426 49.7815L7.72426 47.4515L8.87427 47.8415L9.08426 46.7115L7.62427 47.0015L6.35426 45.3015L9.50426 43.7815L8.16426 41.1515L7.35426 41.1015L9.21426 38.3815L8.10426 38.0415L8.74426 37.2615L5.87427 36.4615L6.96426 34.7415L6.40427 33.9715L3.16426 31.0415L1.35426 31.1515L2.30426 29.3515L3.37427 29.3715L1.71426 27.5615L1.82426 25.2415L2.61426 24.6015L0.114258 24.1015L0.614258 22.7815L2.33426 22.6515L2.58426 21.5615H6.51427L7.32426 20.3515L9.46426 20.5915L10.0943 22.2115L12.5343 21.2215L12.8143 21.9815L13.2443 18.5415L14.6043 16.5315L13.2243 15.2115L13.7743 14.1715L13.0243 13.2715L15.2043 13.1515L15.6543 11.8315L14.9843 10.7015L17.6743 9.33154L16.8643 8.92154L18.3843 7.13153L17.7343 5.67154L20.0243 5.78152L21.8443 4.59152L21.9843 3.46152L23.2543 3.56152L23.3343 2.60153L24.9043 2.65152L26.2743 4.05154L27.2543 3.20154Z" fill="black" stroke="white" stroke-width="2" mask="url(#path-1-inside-1_353_562)"/>
</svg>
