<svg width="56" height="52" viewBox="0 0 56 52" fill="none" xmlns="http://www.w3.org/2000/svg">
<mask id="path-1-inside-1_353_561" fill="white">
<path d="M19.404 0.781494L20.864 0.771484L20.574 2.08151L21.764 1.56149L22.684 2.51151L23.944 1.2915L24.204 2.81149L26.864 3.1915L26.534 4.99149L27.954 6.49149L29.094 5.81149L30.854 6.33151L32.034 5.39151L34.304 6.83151L34.994 6.39151L36.594 7.2915L37.674 10.8115L39.804 11.8915L41.954 11.1715L42.304 9.48151L44.454 8.26151L44.474 9.70151L43.554 9.87149L44.534 10.7315L43.214 11.9515L46.434 11.6015L46.614 13.1615L49.044 12.6715L49.614 16.1015L51.134 16.6815L50.634 18.1515V18.7315L51.794 21.8415L54.764 22.8315L51.544 22.8515L52.754 24.0015L52.214 27.0115L52.794 27.8115L53.794 27.4315L53.384 28.3515L55.174 28.6615L54.094 29.7515L54.794 30.6015L51.654 33.1815L50.874 32.2715L49.834 32.6715L50.154 33.7915L49.074 34.2115L49.594 35.4715L47.764 36.9415L45.704 34.6015L44.094 35.5615L43.904 38.6215L42.804 38.3915L41.744 40.5015L40.904 44.7615L41.424 45.5015L40.514 45.6215L39.044 49.6515L37.174 47.5815L37.104 43.8415L36.134 42.8415L37.194 42.1015L36.504 40.9615L35.164 41.2115L33.974 36.2515L31.704 36.2415L30.374 37.3315L30.434 34.0515L28.884 32.3415L23.394 37.9215L23.214 41.0615L21.114 43.3115L21.544 45.2515L19.024 47.0615L18.374 49.2915L12.914 49.8815L11.844 48.1415L10.534 48.2615L7.224 49.3715L7.61398 50.8715L6.90399 51.2515L5.414 50.0915L4.87399 46.6715L3.664 46.6115L5.40399 41.2615L2.064 36.3115L1.80399 34.5515L2.55399 33.5715L1.474 32.7615L0.833984 30.3415L2.23398 29.7715L3.064 29.8115L4.21399 28.8515L2.37399 25.4215L4.21399 23.8715L5.46399 24.1215L5.73398 20.9015L7.96399 19.0615L6.61398 18.3015L6.33398 15.9315L8.27399 14.3415L9.45398 11.8315L10.284 12.0015L11.404 10.0415L13.214 9.15149L12.994 4.5415L18.234 7.1915L20.034 6.49149L19.954 5.31149L18.524 4.2915L19.404 0.781494Z"/>
</mask>
<path d="M19.404 0.781494L20.864 0.771484L20.574 2.08151L21.764 1.56149L22.684 2.51151L23.944 1.2915L24.204 2.81149L26.864 3.1915L26.534 4.99149L27.954 6.49149L29.094 5.81149L30.854 6.33151L32.034 5.39151L34.304 6.83151L34.994 6.39151L36.594 7.2915L37.674 10.8115L39.804 11.8915L41.954 11.1715L42.304 9.48151L44.454 8.26151L44.474 9.70151L43.554 9.87149L44.534 10.7315L43.214 11.9515L46.434 11.6015L46.614 13.1615L49.044 12.6715L49.614 16.1015L51.134 16.6815L50.634 18.1515V18.7315L51.794 21.8415L54.764 22.8315L51.544 22.8515L52.754 24.0015L52.214 27.0115L52.794 27.8115L53.794 27.4315L53.384 28.3515L55.174 28.6615L54.094 29.7515L54.794 30.6015L51.654 33.1815L50.874 32.2715L49.834 32.6715L50.154 33.7915L49.074 34.2115L49.594 35.4715L47.764 36.9415L45.704 34.6015L44.094 35.5615L43.904 38.6215L42.804 38.3915L41.744 40.5015L40.904 44.7615L41.424 45.5015L40.514 45.6215L39.044 49.6515L37.174 47.5815L37.104 43.8415L36.134 42.8415L37.194 42.1015L36.504 40.9615L35.164 41.2115L33.974 36.2515L31.704 36.2415L30.374 37.3315L30.434 34.0515L28.884 32.3415L23.394 37.9215L23.214 41.0615L21.114 43.3115L21.544 45.2515L19.024 47.0615L18.374 49.2915L12.914 49.8815L11.844 48.1415L10.534 48.2615L7.224 49.3715L7.61398 50.8715L6.90399 51.2515L5.414 50.0915L4.87399 46.6715L3.664 46.6115L5.40399 41.2615L2.064 36.3115L1.80399 34.5515L2.55399 33.5715L1.474 32.7615L0.833984 30.3415L2.23398 29.7715L3.064 29.8115L4.21399 28.8515L2.37399 25.4215L4.21399 23.8715L5.46399 24.1215L5.73398 20.9015L7.96399 19.0615L6.61398 18.3015L6.33398 15.9315L8.27399 14.3415L9.45398 11.8315L10.284 12.0015L11.404 10.0415L13.214 9.15149L12.994 4.5415L18.234 7.1915L20.034 6.49149L19.954 5.31149L18.524 4.2915L19.404 0.781494Z" fill="black" stroke="white" stroke-width="2" mask="url(#path-1-inside-1_353_561)"/>
</svg>
