<svg width="67" height="44" viewBox="0 0 67 44" fill="none" xmlns="http://www.w3.org/2000/svg">
<mask id="path-1-inside-1_353_560" fill="white">
<path d="M60.6043 0.591553L60.7843 4.51155L61.7743 6.50155L60.5543 8.03156L61.7143 9.26155L61.1343 10.0916L61.8443 10.4315L63.3443 9.22155L64.2143 9.96156V11.3116L61.5943 12.3316L64.6643 14.7215L64.2743 18.3016L66.2743 19.1115L64.9243 21.3016L65.7143 23.2515L64.6843 23.1016L63.5443 24.6816L66.8343 26.7815L65.4743 31.1816L63.8943 29.7815L62.2443 31.6415L61.0343 30.8316L59.7843 31.2416L59.7743 30.1216L58.4743 30.5216L57.9243 31.8415L56.4943 31.6216L54.6743 32.8016L53.4743 31.1016L51.5543 31.9715L50.5243 34.2015L47.9643 35.2116L47.9943 36.0816L47.1343 35.7916L45.4243 38.1016L43.0943 37.6016L42.0943 38.3716L43.0243 39.6016L40.3343 38.0116L35.5743 36.9916L34.5843 37.1016L33.8643 39.2116L32.7143 38.4215L33.2643 37.5915L32.2243 37.7616L31.2843 36.1616L29.8143 36.2515L24.4743 38.7315L21.4243 38.9116L21.5343 38.0816L19.4743 37.6715L18.9843 38.2815L19.9043 39.2315L18.6043 40.6016L15.9843 41.3915L13.3643 43.6216L14.1143 42.3915L11.5943 43.3716L8.75427 41.3016L7.88428 42.3415L3.30428 42.0116L2.49428 39.6715L0.134277 38.9116L2.68428 35.7315L3.78427 36.1816L5.92429 33.9215L5.80428 32.6115L3.54428 32.8915L4.35428 30.6616L6.77428 31.1715L8.99428 30.1916L10.7143 27.2716L12.5143 26.1216L11.2343 25.0315L12.1143 23.7116L11.7343 20.6216L9.90428 21.5216L11.3943 19.8016L8.41428 17.7316L9.79428 17.6115L10.2643 15.9016L11.3943 15.2716L9.79428 13.3316L7.80428 15.9216L3.47427 13.1916L1.07428 10.8816L1.73428 10.2716L0.924286 8.37155L1.98428 7.38155L1.87428 6.24155L1.80428 5.23155L3.61427 3.34155L8.75427 2.90155L14.1243 5.43155L31.8743 6.95155L39.0443 10.1716L48.1943 7.47155L53.5243 2.61155L60.0843 0.611549L60.6043 0.591553Z"/>
</mask>
<path d="M60.6043 0.591553L60.7843 4.51155L61.7743 6.50155L60.5543 8.03156L61.7143 9.26155L61.1343 10.0916L61.8443 10.4315L63.3443 9.22155L64.2143 9.96156V11.3116L61.5943 12.3316L64.6643 14.7215L64.2743 18.3016L66.2743 19.1115L64.9243 21.3016L65.7143 23.2515L64.6843 23.1016L63.5443 24.6816L66.8343 26.7815L65.4743 31.1816L63.8943 29.7815L62.2443 31.6415L61.0343 30.8316L59.7843 31.2416L59.7743 30.1216L58.4743 30.5216L57.9243 31.8415L56.4943 31.6216L54.6743 32.8016L53.4743 31.1016L51.5543 31.9715L50.5243 34.2015L47.9643 35.2116L47.9943 36.0816L47.1343 35.7916L45.4243 38.1016L43.0943 37.6016L42.0943 38.3716L43.0243 39.6016L40.3343 38.0116L35.5743 36.9916L34.5843 37.1016L33.8643 39.2116L32.7143 38.4215L33.2643 37.5915L32.2243 37.7616L31.2843 36.1616L29.8143 36.2515L24.4743 38.7315L21.4243 38.9116L21.5343 38.0816L19.4743 37.6715L18.9843 38.2815L19.9043 39.2315L18.6043 40.6016L15.9843 41.3915L13.3643 43.6216L14.1143 42.3915L11.5943 43.3716L8.75427 41.3016L7.88428 42.3415L3.30428 42.0116L2.49428 39.6715L0.134277 38.9116L2.68428 35.7315L3.78427 36.1816L5.92429 33.9215L5.80428 32.6115L3.54428 32.8915L4.35428 30.6616L6.77428 31.1715L8.99428 30.1916L10.7143 27.2716L12.5143 26.1216L11.2343 25.0315L12.1143 23.7116L11.7343 20.6216L9.90428 21.5216L11.3943 19.8016L8.41428 17.7316L9.79428 17.6115L10.2643 15.9016L11.3943 15.2716L9.79428 13.3316L7.80428 15.9216L3.47427 13.1916L1.07428 10.8816L1.73428 10.2716L0.924286 8.37155L1.98428 7.38155L1.87428 6.24155L1.80428 5.23155L3.61427 3.34155L8.75427 2.90155L14.1243 5.43155L31.8743 6.95155L39.0443 10.1716L48.1943 7.47155L53.5243 2.61155L60.0843 0.611549L60.6043 0.591553Z" fill="black" stroke="white" stroke-width="2" mask="url(#path-1-inside-1_353_560)"/>
</svg>
