<svg width="63" height="51" viewBox="0 0 63 51" fill="none" xmlns="http://www.w3.org/2000/svg">
<mask id="path-1-inside-1_353_556" fill="white">
<path d="M7.99384 7.08156L8.99384 9.07156L10.8138 9.57156L11.3538 12.0216L15.4238 12.0016L19.0638 13.4716L20.7138 12.0516L20.1638 9.38156L22.1738 9.74156L22.5338 8.06155L24.1938 7.95155L26.3938 4.15157L28.7538 3.98155L29.6638 1.79156L31.8038 2.73155L33.1838 1.39156L36.0138 1.76157L36.4038 0.851562L37.2438 1.51157L38.7738 0.981552L40.1738 3.25156L39.4838 7.21156L43.0138 10.5916L46.8638 12.0316L47.5138 11.4416L48.9238 12.8316L50.8938 11.0916L53.0138 11.0416L52.6438 11.6616L54.1038 12.4616L53.4338 16.2716L52.4038 16.8216L54.4638 18.1316L55.6238 21.2216L57.8638 21.4116L57.6438 22.7316L61.1838 24.2616L60.0838 25.4416L62.0838 28.9716L61.0138 31.8416L62.1838 33.1516L61.0638 35.0616L61.6638 36.6216L60.7638 37.4516L60.9738 38.9516L56.6738 38.2016L55.6138 39.9416L53.6238 40.5716L56.3338 42.6616L55.5938 44.1716L54.1538 44.6116L50.6138 43.5716L48.5838 45.0716L49.3538 47.4516L39.3839 47.8716L38.4838 50.1216L36.4838 49.8016L35.5438 48.6216L35.7238 47.2116L34.4138 47.5016L35.1538 47.8416L34.7238 49.1016L33.2638 47.9816L32.4638 48.7116L30.8938 50.0616L30.0438 48.8916L28.8138 48.8416L28.1738 50.1116L26.5038 49.0416L25.7438 49.7916L21.9538 49.8616L22.7238 46.7416L21.9438 45.3916L21.3438 46.8016L20.1638 46.5416L19.6438 45.2516L20.9538 45.3416L21.0038 44.5616L18.9438 42.7616L17.6538 38.1916L15.5138 37.2816L15.8738 35.2116L14.4638 34.6916L14.8138 35.8116L12.5038 36.8116L10.9738 33.7116L8.83383 34.0416L10.5938 31.4916L9.73383 31.0616L10.4938 28.8116L8.76382 27.8616L9.17383 26.8316L7.36383 25.6416L5.70383 22.7216L4.15384 22.1116L2.56384 23.2116L1.98383 21.2416L2.29382 19.6416L1.02383 19.0716L1.61383 17.2816L0.673828 15.6316L2.93384 14.9616L1.63385 12.6216L4.72385 11.7616L4.05383 9.96156L6.09384 8.75156L5.58383 7.82156L7.99384 7.08156Z"/>
</mask>
<path d="M7.99384 7.08156L8.99384 9.07156L10.8138 9.57156L11.3538 12.0216L15.4238 12.0016L19.0638 13.4716L20.7138 12.0516L20.1638 9.38156L22.1738 9.74156L22.5338 8.06155L24.1938 7.95155L26.3938 4.15157L28.7538 3.98155L29.6638 1.79156L31.8038 2.73155L33.1838 1.39156L36.0138 1.76157L36.4038 0.851562L37.2438 1.51157L38.7738 0.981552L40.1738 3.25156L39.4838 7.21156L43.0138 10.5916L46.8638 12.0316L47.5138 11.4416L48.9238 12.8316L50.8938 11.0916L53.0138 11.0416L52.6438 11.6616L54.1038 12.4616L53.4338 16.2716L52.4038 16.8216L54.4638 18.1316L55.6238 21.2216L57.8638 21.4116L57.6438 22.7316L61.1838 24.2616L60.0838 25.4416L62.0838 28.9716L61.0138 31.8416L62.1838 33.1516L61.0638 35.0616L61.6638 36.6216L60.7638 37.4516L60.9738 38.9516L56.6738 38.2016L55.6138 39.9416L53.6238 40.5716L56.3338 42.6616L55.5938 44.1716L54.1538 44.6116L50.6138 43.5716L48.5838 45.0716L49.3538 47.4516L39.3839 47.8716L38.4838 50.1216L36.4838 49.8016L35.5438 48.6216L35.7238 47.2116L34.4138 47.5016L35.1538 47.8416L34.7238 49.1016L33.2638 47.9816L32.4638 48.7116L30.8938 50.0616L30.0438 48.8916L28.8138 48.8416L28.1738 50.1116L26.5038 49.0416L25.7438 49.7916L21.9538 49.8616L22.7238 46.7416L21.9438 45.3916L21.3438 46.8016L20.1638 46.5416L19.6438 45.2516L20.9538 45.3416L21.0038 44.5616L18.9438 42.7616L17.6538 38.1916L15.5138 37.2816L15.8738 35.2116L14.4638 34.6916L14.8138 35.8116L12.5038 36.8116L10.9738 33.7116L8.83383 34.0416L10.5938 31.4916L9.73383 31.0616L10.4938 28.8116L8.76382 27.8616L9.17383 26.8316L7.36383 25.6416L5.70383 22.7216L4.15384 22.1116L2.56384 23.2116L1.98383 21.2416L2.29382 19.6416L1.02383 19.0716L1.61383 17.2816L0.673828 15.6316L2.93384 14.9616L1.63385 12.6216L4.72385 11.7616L4.05383 9.96156L6.09384 8.75156L5.58383 7.82156L7.99384 7.08156Z" fill="black" stroke="white" stroke-width="2" mask="url(#path-1-inside-1_353_556)"/>
</svg>
