<svg width="67" height="44" viewBox="0 0 67 44" fill="none" xmlns="http://www.w3.org/2000/svg">
<path d="M59.8758 20.8162L62.3501 21.9495L61.4017 25.4301L61.3232 25.718L61.5394 25.9238L64.8108 29.0369L63.8387 29.6992L61.1692 29.8322L60.4836 29.8664L60.7264 30.5084L61.5667 32.7312L60.325 34.6388L59.8396 35.3845L60.729 35.4113L62.8074 35.474L64.0337 37.1201L63.9879 37.5003L60.9786 39.196L60.7665 39.3155L60.7298 39.5562L60.328 42.1925L58.8084 41.9006L58.4332 41.8285L58.2651 42.1715L57.8471 43.0245L55.5022 40.4732L55.2145 40.1602L54.8593 40.3938L53.5679 41.2434L51.9578 40.525L51.8501 40.4769L51.7323 40.482L47.9181 40.6483L47.7594 40.3486L48.8429 38.8093L49.0587 38.5029L48.825 38.2098L47.7812 36.9009L48.2927 35.5259L48.3732 35.3094L48.2606 35.1077L46.8306 32.5477L46.7144 32.3399L46.4799 32.299L45.1599 32.069L44.9711 32.0361L44.8088 32.1377L42.0645 33.8553L35.1012 34.0373L34.0632 33.2803L33.4231 30.2773L33.3548 29.9569L33.0338 29.8916L32.2515 29.7324L32.1195 28.764L32.0708 28.4069L31.7166 28.3402L29.6466 27.9502L29.4193 27.9074L29.2395 28.0529L28.8738 28.3488L28.71 28.1609L28.2017 28.4608L27.5644 26.9565L26.6218 27.2836L27.0561 28.8697L25.7756 28.4019L25.2764 29.2492L25.7584 29.6674L25.7438 29.6945L25.3938 30.3445L25.1318 30.8311L25.6421 31.0433L25.8476 31.1287L25.6979 31.2806L25.265 31.72L25.7844 32.0526L27.1917 32.9539L26.7692 33.8331L26.1866 33.8739L23.7327 32.7472L23.6531 32.7106L23.5658 32.7033L15.7694 32.0504L15.2335 31.4287L16.4056 30.4445L16.6329 30.2536L16.5742 29.9626L16.3642 28.9226L16.3253 28.7301L16.1658 28.6155L13.7858 26.9055L13.6632 26.8174L13.5123 26.8119L1.51706 26.3733L1.79685 24.9424L4.97236 23.4014L5.3427 23.2217L5.28994 23.0222L5.42456 22.9443L10.7446 19.8643L10.9102 19.7684L10.9695 19.5864L11.3995 18.2664L11.5513 17.8002L11.0881 17.6393L9.7648 17.1796L11.8186 13.6956L13.7428 13.2124L17.2532 14.405L18.1464 14.7084L17.8962 13.7989L17.317 11.6937L18.8413 8.64517L18.909 8.50977L18.8902 8.35955L18.5748 5.8368L19.3669 5.20161L19.7696 4.87861L19.4339 4.48641L18.7024 3.63182L22.2054 0.869008L26.3548 1.28021L30.6869 3.40755L33.6363 6.16607L34.4552 8.37535L34.5198 8.54967L34.6826 8.63943L39.9426 11.5394L40.1377 11.647L40.3481 11.5739L42.355 10.8767L45.508 11.4363L50.1837 14.4421L50.2364 14.4761L50.2959 14.4959L54.6159 15.9359L54.6906 15.9608L54.7693 15.9615L57.9193 15.9915L58.0775 15.993L58.2078 15.9032L60.8843 14.0584L62.6843 14.0214L62.9053 14.0169L63.0507 13.8503L64.2465 12.4803L66.0271 13.8975L65.5616 15.0119L61.7719 15.8843L61.5344 15.939L61.4312 16.1597L60.5611 18.0197L60.4735 18.207L60.5438 18.4015L60.938 19.4926L59.9027 19.8956L58.8018 20.3242L59.8758 20.8162Z" fill="black" stroke="white"/>
</svg>
