<svg width="52" height="48" viewBox="0 0 52 48" fill="none" xmlns="http://www.w3.org/2000/svg">
<mask id="path-1-inside-1_353_570" fill="white">
<path d="M2.01416 7.19153L6.60416 2.35153L7.39417 4.40152L10.0742 2.67154L10.8642 4.67154L13.2342 2.85153L15.0342 4.54153L16.3242 2.43152L15.8042 0.941528L17.2742 0.561523L19.6042 2.41153L21.5042 1.45154L23.4542 2.08154L25.4042 1.37152L29.9542 3.36154L33.2642 2.49152L37.9242 2.77151L38.2142 5.07153L40.1842 5.79153L38.8342 7.36154L41.4342 9.33154L42.3842 8.06152L43.7842 10.9615L44.2042 10.1815L46.3142 11.1415L49.8442 19.3315L49.1342 22.7315L50.0242 25.0515L51.2742 25.7815L50.9142 28.3915L51.5842 29.8215L49.7242 30.4415L48.8942 31.9015L49.4042 33.0015L47.0542 34.6115L46.7442 35.9615L44.7642 35.8115L44.8342 37.0915L42.4142 38.1415L44.7042 42.1815L46.7042 43.4115L44.3942 45.6915L40.7342 45.1315L39.6142 47.5215L37.3942 47.7915L37.4642 46.9815V46.1715L35.6142 45.9415L35.0942 44.9515L34.3342 45.7315L34.8442 44.7315L33.0642 43.4815L32.7842 44.3415L31.7742 43.6315L29.8142 43.9415L28.3842 41.8115L26.3642 42.7715L25.9042 44.4615L24.4942 44.2015L23.9942 45.4415L23.1742 44.8715L22.0442 45.7915L20.9842 44.1215L21.0742 42.4015L22.1642 41.6415L21.3942 40.0115L19.4542 38.2715L19.0942 39.2015L16.8542 37.8415L16.7942 35.8015L15.0442 37.2815L12.2042 37.7015L9.85416 36.3715L9.34418 34.9415L10.3142 34.3915L10.5142 35.0015L10.5642 33.8815L11.4942 34.3315L10.6642 32.8415L11.3242 32.2915L9.14417 31.9415L8.22418 32.9515L5.94418 31.9015L8.69418 29.1515L6.86417 27.3115L7.60416 25.8315L7.18417 23.1415L4.88419 21.6115L5.82416 20.5715L5.37418 19.4015L4.85416 19.8115L3.61417 18.8115L3.85416 17.2115L1.89417 17.3215L0.28418 15.0315L2.14417 13.4215L1.58417 12.1115L2.93417 11.6515L1.94418 11.0815L3.15417 9.75153L3.21417 7.84152L2.01416 7.19153Z"/>
</mask>
<path d="M2.01416 7.19153L6.60416 2.35153L7.39417 4.40152L10.0742 2.67154L10.8642 4.67154L13.2342 2.85153L15.0342 4.54153L16.3242 2.43152L15.8042 0.941528L17.2742 0.561523L19.6042 2.41153L21.5042 1.45154L23.4542 2.08154L25.4042 1.37152L29.9542 3.36154L33.2642 2.49152L37.9242 2.77151L38.2142 5.07153L40.1842 5.79153L38.8342 7.36154L41.4342 9.33154L42.3842 8.06152L43.7842 10.9615L44.2042 10.1815L46.3142 11.1415L49.8442 19.3315L49.1342 22.7315L50.0242 25.0515L51.2742 25.7815L50.9142 28.3915L51.5842 29.8215L49.7242 30.4415L48.8942 31.9015L49.4042 33.0015L47.0542 34.6115L46.7442 35.9615L44.7642 35.8115L44.8342 37.0915L42.4142 38.1415L44.7042 42.1815L46.7042 43.4115L44.3942 45.6915L40.7342 45.1315L39.6142 47.5215L37.3942 47.7915L37.4642 46.9815V46.1715L35.6142 45.9415L35.0942 44.9515L34.3342 45.7315L34.8442 44.7315L33.0642 43.4815L32.7842 44.3415L31.7742 43.6315L29.8142 43.9415L28.3842 41.8115L26.3642 42.7715L25.9042 44.4615L24.4942 44.2015L23.9942 45.4415L23.1742 44.8715L22.0442 45.7915L20.9842 44.1215L21.0742 42.4015L22.1642 41.6415L21.3942 40.0115L19.4542 38.2715L19.0942 39.2015L16.8542 37.8415L16.7942 35.8015L15.0442 37.2815L12.2042 37.7015L9.85416 36.3715L9.34418 34.9415L10.3142 34.3915L10.5142 35.0015L10.5642 33.8815L11.4942 34.3315L10.6642 32.8415L11.3242 32.2915L9.14417 31.9415L8.22418 32.9515L5.94418 31.9015L8.69418 29.1515L6.86417 27.3115L7.60416 25.8315L7.18417 23.1415L4.88419 21.6115L5.82416 20.5715L5.37418 19.4015L4.85416 19.8115L3.61417 18.8115L3.85416 17.2115L1.89417 17.3215L0.28418 15.0315L2.14417 13.4215L1.58417 12.1115L2.93417 11.6515L1.94418 11.0815L3.15417 9.75153L3.21417 7.84152L2.01416 7.19153Z" fill="black" stroke="white" stroke-width="2" mask="url(#path-1-inside-1_353_570)"/>
</svg>
