<svg width="58" height="63" viewBox="0 0 58 63" fill="none" xmlns="http://www.w3.org/2000/svg">
<mask id="path-1-inside-1_353_572" fill="white">
<path d="M0.923828 19.6015L2.68384 19.7815L4.13385 18.0015L6.92383 17.4615L8.50385 16.1515L9.14383 16.8215L9.38385 15.4015L10.5438 15.7515L10.3839 14.7015L12.5038 15.9315L16.4638 14.3415L16.9138 13.0215L18.0538 13.7715L18.2338 11.5915L20.3839 12.0215L21.4238 11.1515L20.4238 10.6315L21.9038 9.46153L23.3538 10.5715L23.0438 9.51154L23.9938 9.86153L24.3338 8.51154L25.3938 8.47153L25.9138 5.79153L26.7238 6.15154L27.2638 4.85153L29.5538 4.91153L30.4438 3.86153L32.5938 4.52153L32.9238 6.06152L34.1038 4.57153L36.4538 5.84152L37.5738 4.63153L36.9138 3.33153L37.4638 2.50153L38.6938 3.37154L40.2738 3.02153L41.1638 1.73152L40.7438 0.321533L45.2238 2.94153L46.8238 1.43153L47.2538 2.35153L50.7538 2.21153L51.0738 3.70152L52.5338 4.44153L52.7138 6.15154L51.4138 5.34152L50.9838 6.91153L52.3738 9.38153L52.2638 11.0415L50.0638 12.9815L49.8338 14.2815L55.5338 13.0515L56.8839 13.7015L57.1638 15.4415L55.2838 16.0015L54.7138 17.8315L52.4938 18.2915L53.0038 21.0115L48.2738 25.3315L49.0038 25.7615L48.1738 26.7215L42.5238 30.7915L42.0638 31.6915L43.2038 32.6815L39.1339 36.2015L33.9638 37.3315L31.2638 40.1315L32.6038 42.5015L31.2238 47.1415L32.1138 49.3915L18.5838 60.5815L17.9238 61.3515L19.0738 62.4915L15.3738 59.4915L17.7138 56.8215L16.2538 54.5615L21.9038 50.0315L19.6138 46.5515L16.0238 44.2215L14.6738 44.8615L14.4438 44.0115L14.5738 43.3315L13.6038 43.4515L13.7138 42.0915L12.6238 41.3515L13.1638 39.6515L11.5538 38.8615L12.3438 37.2315L9.69385 36.5015L10.1238 34.7715L9.03384 36.0415L6.99384 35.6215L5.62384 34.7015L5.42383 32.9315L4.62384 34.4715L3.43384 35.0515L2.68384 34.4615L3.08383 33.3515L2.36383 32.4015L3.52383 33.0615L4.39383 32.3815L3.76382 30.0015L6.17383 27.2015L4.44385 24.3015L2.46384 23.4815L0.923828 19.6015Z"/>
</mask>
<path d="M0.923828 19.6015L2.68384 19.7815L4.13385 18.0015L6.92383 17.4615L8.50385 16.1515L9.14383 16.8215L9.38385 15.4015L10.5438 15.7515L10.3839 14.7015L12.5038 15.9315L16.4638 14.3415L16.9138 13.0215L18.0538 13.7715L18.2338 11.5915L20.3839 12.0215L21.4238 11.1515L20.4238 10.6315L21.9038 9.46153L23.3538 10.5715L23.0438 9.51154L23.9938 9.86153L24.3338 8.51154L25.3938 8.47153L25.9138 5.79153L26.7238 6.15154L27.2638 4.85153L29.5538 4.91153L30.4438 3.86153L32.5938 4.52153L32.9238 6.06152L34.1038 4.57153L36.4538 5.84152L37.5738 4.63153L36.9138 3.33153L37.4638 2.50153L38.6938 3.37154L40.2738 3.02153L41.1638 1.73152L40.7438 0.321533L45.2238 2.94153L46.8238 1.43153L47.2538 2.35153L50.7538 2.21153L51.0738 3.70152L52.5338 4.44153L52.7138 6.15154L51.4138 5.34152L50.9838 6.91153L52.3738 9.38153L52.2638 11.0415L50.0638 12.9815L49.8338 14.2815L55.5338 13.0515L56.8839 13.7015L57.1638 15.4415L55.2838 16.0015L54.7138 17.8315L52.4938 18.2915L53.0038 21.0115L48.2738 25.3315L49.0038 25.7615L48.1738 26.7215L42.5238 30.7915L42.0638 31.6915L43.2038 32.6815L39.1339 36.2015L33.9638 37.3315L31.2638 40.1315L32.6038 42.5015L31.2238 47.1415L32.1138 49.3915L18.5838 60.5815L17.9238 61.3515L19.0738 62.4915L15.3738 59.4915L17.7138 56.8215L16.2538 54.5615L21.9038 50.0315L19.6138 46.5515L16.0238 44.2215L14.6738 44.8615L14.4438 44.0115L14.5738 43.3315L13.6038 43.4515L13.7138 42.0915L12.6238 41.3515L13.1638 39.6515L11.5538 38.8615L12.3438 37.2315L9.69385 36.5015L10.1238 34.7715L9.03384 36.0415L6.99384 35.6215L5.62384 34.7015L5.42383 32.9315L4.62384 34.4715L3.43384 35.0515L2.68384 34.4615L3.08383 33.3515L2.36383 32.4015L3.52383 33.0615L4.39383 32.3815L3.76382 30.0015L6.17383 27.2015L4.44385 24.3015L2.46384 23.4815L0.923828 19.6015Z" fill="black" stroke="white" stroke-width="2" mask="url(#path-1-inside-1_353_572)"/>
</svg>
