<svg width="50" height="73" viewBox="0 0 50 73" fill="none" xmlns="http://www.w3.org/2000/svg">
<mask id="path-1-inside-1_353_573" fill="white">
<path d="M6.61426 3.50146L9.02426 2.75146L9.88428 3.50146L14.3843 0.751465L15.2543 0.861481L15.7943 2.27145L17.0843 2.21146L17.9843 4.39148L20.5543 3.49146L19.8443 6.41147L21.4443 5.98148L23.2143 8.16147L21.7443 9.13147L22.7143 11.0115L22.5643 13.8715L20.4843 16.6015L21.7043 17.0315L22.4043 15.9415L23.6042 16.0115L26.0143 17.7115L29.0043 17.3015L30.8443 18.8915L30.9143 17.5015L32.0543 18.2415L34.0343 15.8715L34.9143 16.0015L35.3843 16.7115L34.5843 16.7815L34.1643 18.2715L35.3443 21.0915L34.1343 31.0515L34.9443 31.2715L33.8643 32.6115L37.8743 34.4815L37.6243 32.8815L40.8542 35.3315L41.7143 36.9915L44.0943 36.7115L46.2843 38.6515L48.0143 38.0515L49.3242 38.9815L47.6243 41.1315L45.9543 40.6315L45.1143 41.9715L41.4843 41.3315L41.7443 43.5415L39.6343 47.4815L42.3943 49.9415L40.9443 50.0315L39.8443 52.0515L33.8643 50.0815L34.1343 53.0615L35.4943 53.7815L34.6643 54.7015L33.0643 53.8915L32.2443 54.3915L33.2743 56.3215L32.8542 57.5015L34.0543 57.7115L35.2643 59.3815L36.5143 58.6615L37.6143 59.8515L40.9943 59.6615L40.1143 61.2415L41.3043 61.5615L41.7443 63.5115H43.3843L42.9443 67.8915L41.9443 67.9915L41.5843 69.1815L43.2243 69.4815L43.0543 70.4715L41.0943 70.2315L41.4443 69.2315L40.1943 67.9315L38.8843 68.0615L38.3242 69.0715L38.9143 70.1415L35.5843 72.2315L33.6443 71.9615L32.9643 70.1615L30.7843 69.9615L30.8643 67.3615L29.6343 66.5515L28.8043 67.2115L25.2343 65.5615L24.4243 66.7215L21.3343 65.6315L21.0043 62.8415L21.8443 60.7415L19.3843 62.9015L18.0543 62.5315L17.3643 61.1615L11.6443 63.9215L9.88428 63.8615L7.35425 65.7915L6.09427 60.8315L0.364258 59.8615L1.01425 54.2215L2.45425 52.2415L2.16428 46.5215L4.14426 44.8615L5.78427 40.6915L4.98425 34.1315L8.40427 30.0015L8.83426 26.7715L10.1643 24.5315L8.05426 20.4215L9.09427 17.4915L7.82425 16.6615L6.72427 13.6115L7.89426 11.6915L6.94427 11.0515L6.61426 3.50146ZM11.6743 55.3415L11.5843 55.2815L11.1042 55.9815L9.59427 58.7115L10.4643 59.3515L10.2443 61.3315L14.2943 62.0115L15.8043 58.0915L17.7843 57.1615L17.7943 56.8115L15.4743 56.2415L15.5943 54.9115L14.9243 55.1115L14.3443 54.4815L13.9143 54.4315L13.1443 54.6315L12.4643 55.0215L11.6743 55.3415Z"/>
</mask>
<path d="M6.61426 3.50146L9.02426 2.75146L9.88428 3.50146L14.3843 0.751465L15.2543 0.861481L15.7943 2.27145L17.0843 2.21146L17.9843 4.39148L20.5543 3.49146L19.8443 6.41147L21.4443 5.98148L23.2143 8.16147L21.7443 9.13147L22.7143 11.0115L22.5643 13.8715L20.4843 16.6015L21.7043 17.0315L22.4043 15.9415L23.6042 16.0115L26.0143 17.7115L29.0043 17.3015L30.8443 18.8915L30.9143 17.5015L32.0543 18.2415L34.0343 15.8715L34.9143 16.0015L35.3843 16.7115L34.5843 16.7815L34.1643 18.2715L35.3443 21.0915L34.1343 31.0515L34.9443 31.2715L33.8643 32.6115L37.8743 34.4815L37.6243 32.8815L40.8542 35.3315L41.7143 36.9915L44.0943 36.7115L46.2843 38.6515L48.0143 38.0515L49.3242 38.9815L47.6243 41.1315L45.9543 40.6315L45.1143 41.9715L41.4843 41.3315L41.7443 43.5415L39.6343 47.4815L42.3943 49.9415L40.9443 50.0315L39.8443 52.0515L33.8643 50.0815L34.1343 53.0615L35.4943 53.7815L34.6643 54.7015L33.0643 53.8915L32.2443 54.3915L33.2743 56.3215L32.8542 57.5015L34.0543 57.7115L35.2643 59.3815L36.5143 58.6615L37.6143 59.8515L40.9943 59.6615L40.1143 61.2415L41.3043 61.5615L41.7443 63.5115H43.3843L42.9443 67.8915L41.9443 67.9915L41.5843 69.1815L43.2243 69.4815L43.0543 70.4715L41.0943 70.2315L41.4443 69.2315L40.1943 67.9315L38.8843 68.0615L38.3242 69.0715L38.9143 70.1415L35.5843 72.2315L33.6443 71.9615L32.9643 70.1615L30.7843 69.9615L30.8643 67.3615L29.6343 66.5515L28.8043 67.2115L25.2343 65.5615L24.4243 66.7215L21.3343 65.6315L21.0043 62.8415L21.8443 60.7415L19.3843 62.9015L18.0543 62.5315L17.3643 61.1615L11.6443 63.9215L9.88428 63.8615L7.35425 65.7915L6.09427 60.8315L0.364258 59.8615L1.01425 54.2215L2.45425 52.2415L2.16428 46.5215L4.14426 44.8615L5.78427 40.6915L4.98425 34.1315L8.40427 30.0015L8.83426 26.7715L10.1643 24.5315L8.05426 20.4215L9.09427 17.4915L7.82425 16.6615L6.72427 13.6115L7.89426 11.6915L6.94427 11.0515L6.61426 3.50146ZM11.6743 55.3415L11.5843 55.2815L11.1042 55.9815L9.59427 58.7115L10.4643 59.3515L10.2443 61.3315L14.2943 62.0115L15.8043 58.0915L17.7843 57.1615L17.7943 56.8115L15.4743 56.2415L15.5943 54.9115L14.9243 55.1115L14.3443 54.4815L13.9143 54.4315L13.1443 54.6315L12.4643 55.0215L11.6743 55.3415Z" fill="black" stroke="white" stroke-width="2" mask="url(#path-1-inside-1_353_573)"/>
</svg>
