<svg width="37" height="58" viewBox="0 0 37 58" fill="none" xmlns="http://www.w3.org/2000/svg">
<path d="M12.5985 4.86776L13.5921 4.42235L13.5446 5.33553L13.5351 5.51829L13.6458 5.66401L15.5758 8.20405L15.6355 8.28265L15.7207 8.33266L20.5207 11.1527L20.6904 11.2523L20.8825 11.2096L21.397 11.0953L22.3589 14.9428L22.4076 15.1378L22.5777 15.2448L24.5777 16.5027L24.8059 19.0855L24.8187 19.2306L24.9075 19.3461L26.1675 20.9861L26.329 21.1964L26.5937 21.1806L28.5542 21.064L28.3247 25.2743L28.3107 25.5318L28.5124 25.6925L28.7447 25.8777L28.3663 26.3139L27.9882 26.7497L28.4733 27.062L29.7567 27.8881L29.0352 30.2875L28.8875 30.7785L29.3821 30.9138L32.8921 31.8738L33.1334 31.9398L33.331 31.7862L35.5477 30.0621L36.0714 30.2414L36.2305 37.7933L34.93 39.5769L34.7415 39.8355L34.8972 40.1149L35.3512 40.9294L34.0389 41.794L33.7396 41.9912L33.8302 42.3379L33.8862 42.5522L32.8335 42.1977L32.3457 42.0334L32.1957 42.5257L31.3057 45.4458L32.1706 45.9086L33.2839 44.5506L34.4821 44.8841L33.7859 46.1529L31.0241 47.6628L30.7475 47.814L30.7647 48.1288L30.9471 51.4672L28.9327 52.5183L28.708 52.6355L28.6697 52.8859L28.3897 54.7159L28.2555 55.5934L29.0755 55.2534L29.5783 55.0449L28.5918 56.4946L24.4645 55.3592L25.1585 53.2691L25.3639 52.6504L24.7131 52.6124L23.3798 52.5344L23.172 51.6027L23.0411 51.0159L22.488 51.2516L21.6987 51.5879L21.034 50.7015L20.9101 50.5364L20.7059 50.5067L16.8182 49.9417L15.1077 48.1285L14.9048 47.9134L14.6186 47.9875L13.8963 48.1746L13.953 47.2729L13.98 46.8435L13.5594 46.7528L11.5358 46.3162L11.4769 43.4008L11.8574 42.7949L12.0243 42.9782L12.2655 43.2431L12.594 43.0998L14.7939 42.1398L14.9084 42.0898L14.9859 41.992L16.7759 39.732L17.2156 39.1769L16.5454 38.9483L12.2354 37.4783L12.0095 37.4013L11.8075 37.5285L11.2046 37.9082L11.0203 36.4009L10.9424 35.7638L10.3437 35.9952L8.13486 36.8489L8.10136 36.5208L8.05717 36.0879L7.62235 36.0719L7.26121 36.0586L8.9626 34.9167L9.33927 34.6639L9.12419 34.2645L8.67139 33.4236L10.4966 33.0409L10.732 32.9915L10.8403 32.7768L11.3703 31.7268L11.5454 31.38L11.2526 31.1247L11.0471 30.9455L11.2548 30.875L11.5146 30.7867L11.5797 30.5201L12.1897 28.0201L12.2594 27.7344L12.0436 27.5346L9.76356 25.4245L9.38391 25.0732L9.04566 25.4646L7.99265 26.6829L5.02265 26.5719L4.86473 26.566L4.7321 26.6519L4.43418 26.8449L4.67447 26.0098L4.73825 25.7881L4.61102 25.5957L3.77739 24.3352L6.07754 23.7984L6.50424 23.6989L6.46155 23.2628L6.30314 21.6449L9.64218 19.7356L10.349 19.3314L9.66884 18.8838L8.65214 18.2148L7.90377 15.6609L7.75033 15.1373L7.24205 15.3358L5.85217 15.8786L4.12295 14.1934L3.9156 13.9914L3.63712 14.0706L3.242 14.1831L3.3291 13.9172L3.57692 13.1607L3.13138 13.2201L3.31682 13.0633L4.17809 12.335L3.15949 12.1992L3.14112 12.0281L2.98109 10.5382L2.92987 10.0613L2.50728 10.089L2.65195 9.4404L2.74622 9.01776L2.40899 8.88975L7.27541 7.56396L8.01123 7.3635L7.53398 6.76865L6.15397 5.04861L6.03272 4.89749L5.84129 4.86753L3.83402 4.55336L3.77828 4.39852L4.81827 3.46334L5.3025 3.02791L4.75679 2.67256L3.8968 2.11256L3.68128 1.97221L3.44177 2.06593L1.72711 2.73686L1.597 1.85293L1.84584 1.93589L2.37099 2.11095L2.4919 1.57075L2.53916 1.35957L4.8094 1.72314L10.141 4.37906L10.1927 4.40481L10.2489 4.4181L12.2789 4.89808L12.4439 4.93708L12.5985 4.86776Z" fill="black" stroke="white"/>
</svg>
