<svg width="75" height="63" viewBox="0 0 75 63" fill="none" xmlns="http://www.w3.org/2000/svg">
<mask id="path-1-inside-1_353_576" fill="white">
<path d="M2.9143 18.7516L4.4843 20.2416L1.7243 21.6516L1.0043 21.5416L1.8843 20.4416L0.154297 20.9116L2.9143 18.7516ZM49.9143 2.33159L50.6743 2.49159L50.4743 5.2616L51.5943 6.09158L52.3843 5.68159L52.2843 3.96159L52.8743 5.7616L55.1943 5.5116L55.5643 6.36159L55.1943 4.5416L56.1743 2.97159L56.6243 3.83159L56.5243 2.67159L58.0843 3.85159L60.7043 3.52159L61.6743 4.57159L63.9543 4.14159L63.3443 6.47159L64.0843 10.4416L66.2543 11.2516L65.9843 12.9516L66.9643 12.7316L68.3343 14.0216L65.6043 16.6216L65.5243 17.7516L67.8343 19.7016L65.7143 21.3416L65.5943 23.3316L67.6543 23.9616L67.8043 27.8716L69.1943 27.7816L67.7443 29.0316L69.1743 29.9916L67.5643 33.5516L69.1543 35.6516L67.2443 35.9116L61.0343 38.6816L60.2043 40.5916L60.2743 41.5516L61.8243 41.6716L61.2743 43.3316L62.7243 43.8316L64.1643 48.4516L68.6443 48.2016L70.3343 49.0516L71.2943 50.8716L73.3943 49.1216L74.4343 50.1116L74.6543 52.0916L73.3043 53.3816L74.1543 55.9816L72.0943 55.9416L71.7343 57.6116L70.3543 58.4116L68.7943 57.0616L68.5443 62.1316L62.3743 61.2716L60.5243 59.5416L59.0943 60.4416L55.2443 60.4216L52.5643 56.3616L53.0443 55.8816L51.0643 54.0016L49.6643 54.7016L50.2643 56.4816L47.5243 57.0916L44.8243 55.4316L43.1343 56.3416L41.2743 60.0616L33.9643 60.0716L33.4243 58.5716L34.6543 58.0716L34.7743 56.6516L31.7443 49.8116L27.8043 47.1116L26.4443 46.7716L25.7743 47.5016L22.9843 45.7216L20.2943 45.8916L18.6543 45.0816L19.9043 44.8016L19.5843 43.5016L26.3143 42.7816L27.0043 41.9116L29.0643 42.1216L31.9543 40.8716L34.1943 40.7216L36.5743 41.9716L37.2343 41.2616L37.9043 37.9416L36.9643 37.6216L36.1443 34.8516L28.9643 32.8616L26.8343 36.9816L26.0543 36.9416L26.3243 34.4916L25.4943 32.9616L26.6943 32.0516L23.5343 31.1216L23.1643 30.1516L25.5943 29.9916L25.5243 26.9716L27.1543 26.3316L26.1343 28.7016L26.9843 29.8616L27.6843 29.1416L28.3443 30.0616L31.8243 29.2316L32.6743 30.4416L36.4543 29.0016L37.9343 29.1116L38.3743 30.1116L39.9943 28.0216L38.8643 28.7216L35.1943 27.9416L36.6443 26.8716L35.5443 25.4416L33.9543 26.0716L33.6743 27.1716L31.9043 27.3316L32.2943 26.4316L30.1943 27.2116L32.6043 23.6816L31.6243 22.9016L31.0943 23.7916L29.1243 23.7416L23.9943 26.4816L20.9343 25.4216L19.8343 26.9116L17.1243 27.0416L16.4943 24.7316L17.5943 23.9816L16.1943 21.8016L17.6143 18.4416L16.9743 15.4816L18.0043 13.6816L19.6643 13.0416L19.9943 12.0316L23.8643 11.6216L24.1343 9.99159L25.8043 10.2816L25.5843 8.8716L26.7243 8.64159L26.7043 7.83159L29.3943 8.66159L30.9343 7.55159L32.3443 7.73158L31.0943 6.73158L34.8843 5.31158L36.9243 6.10159L36.2643 7.5416L36.9343 8.0416L37.8343 7.06158L40.9643 6.86159L39.9743 6.48158L41.4743 4.71159L45.0643 4.18159L46.7543 5.38159L47.0043 3.52159L49.9143 2.33159ZM48.3943 0.501587L49.6443 1.42159L47.7043 1.28159L48.3943 0.501587Z"/>
</mask>
<path d="M2.9143 18.7516L4.4843 20.2416L1.7243 21.6516L1.0043 21.5416L1.8843 20.4416L0.154297 20.9116L2.9143 18.7516ZM49.9143 2.33159L50.6743 2.49159L50.4743 5.2616L51.5943 6.09158L52.3843 5.68159L52.2843 3.96159L52.8743 5.7616L55.1943 5.5116L55.5643 6.36159L55.1943 4.5416L56.1743 2.97159L56.6243 3.83159L56.5243 2.67159L58.0843 3.85159L60.7043 3.52159L61.6743 4.57159L63.9543 4.14159L63.3443 6.47159L64.0843 10.4416L66.2543 11.2516L65.9843 12.9516L66.9643 12.7316L68.3343 14.0216L65.6043 16.6216L65.5243 17.7516L67.8343 19.7016L65.7143 21.3416L65.5943 23.3316L67.6543 23.9616L67.8043 27.8716L69.1943 27.7816L67.7443 29.0316L69.1743 29.9916L67.5643 33.5516L69.1543 35.6516L67.2443 35.9116L61.0343 38.6816L60.2043 40.5916L60.2743 41.5516L61.8243 41.6716L61.2743 43.3316L62.7243 43.8316L64.1643 48.4516L68.6443 48.2016L70.3343 49.0516L71.2943 50.8716L73.3943 49.1216L74.4343 50.1116L74.6543 52.0916L73.3043 53.3816L74.1543 55.9816L72.0943 55.9416L71.7343 57.6116L70.3543 58.4116L68.7943 57.0616L68.5443 62.1316L62.3743 61.2716L60.5243 59.5416L59.0943 60.4416L55.2443 60.4216L52.5643 56.3616L53.0443 55.8816L51.0643 54.0016L49.6643 54.7016L50.2643 56.4816L47.5243 57.0916L44.8243 55.4316L43.1343 56.3416L41.2743 60.0616L33.9643 60.0716L33.4243 58.5716L34.6543 58.0716L34.7743 56.6516L31.7443 49.8116L27.8043 47.1116L26.4443 46.7716L25.7743 47.5016L22.9843 45.7216L20.2943 45.8916L18.6543 45.0816L19.9043 44.8016L19.5843 43.5016L26.3143 42.7816L27.0043 41.9116L29.0643 42.1216L31.9543 40.8716L34.1943 40.7216L36.5743 41.9716L37.2343 41.2616L37.9043 37.9416L36.9643 37.6216L36.1443 34.8516L28.9643 32.8616L26.8343 36.9816L26.0543 36.9416L26.3243 34.4916L25.4943 32.9616L26.6943 32.0516L23.5343 31.1216L23.1643 30.1516L25.5943 29.9916L25.5243 26.9716L27.1543 26.3316L26.1343 28.7016L26.9843 29.8616L27.6843 29.1416L28.3443 30.0616L31.8243 29.2316L32.6743 30.4416L36.4543 29.0016L37.9343 29.1116L38.3743 30.1116L39.9943 28.0216L38.8643 28.7216L35.1943 27.9416L36.6443 26.8716L35.5443 25.4416L33.9543 26.0716L33.6743 27.1716L31.9043 27.3316L32.2943 26.4316L30.1943 27.2116L32.6043 23.6816L31.6243 22.9016L31.0943 23.7916L29.1243 23.7416L23.9943 26.4816L20.9343 25.4216L19.8343 26.9116L17.1243 27.0416L16.4943 24.7316L17.5943 23.9816L16.1943 21.8016L17.6143 18.4416L16.9743 15.4816L18.0043 13.6816L19.6643 13.0416L19.9943 12.0316L23.8643 11.6216L24.1343 9.99159L25.8043 10.2816L25.5843 8.8716L26.7243 8.64159L26.7043 7.83159L29.3943 8.66159L30.9343 7.55159L32.3443 7.73158L31.0943 6.73158L34.8843 5.31158L36.9243 6.10159L36.2643 7.5416L36.9343 8.0416L37.8343 7.06158L40.9643 6.86159L39.9743 6.48158L41.4743 4.71159L45.0643 4.18159L46.7543 5.38159L47.0043 3.52159L49.9143 2.33159ZM48.3943 0.501587L49.6443 1.42159L47.7043 1.28159L48.3943 0.501587Z" fill="black" stroke="white" stroke-width="2" mask="url(#path-1-inside-1_353_576)"/>
</svg>
