<svg width="73" height="53" viewBox="0 0 73 53" fill="none" xmlns="http://www.w3.org/2000/svg">
<mask id="path-1-inside-1_353_569" fill="white">
<path d="M28.0743 0.571564L27.2443 2.28156L27.1643 0.951553L28.0743 0.571564ZM18.3843 0.341553L18.7343 2.36156L24.0443 0.451553L23.5843 2.70155L24.7943 2.52156L24.1643 3.36156L27.2243 3.17155L27.5443 4.64156L25.8043 5.56155L28.5843 7.00156L29.7443 6.39156L30.5043 7.27156L29.9943 9.59155L35.3143 14.1116L35.1143 17.4616L39.6043 19.9316L39.5243 22.2116L40.7843 23.5316L40.9243 21.3916L43.0343 21.7816L46.2443 17.1816L49.6043 15.7516L48.9843 14.3416L51.1143 13.8616L51.9043 15.1316L56.0443 11.6116L57.3643 13.1916L55.2743 15.9016L56.2343 16.5316L59.1643 14.3816L58.6543 14.9116L60.5243 17.9716L60.2143 19.3116L61.1143 16.4816L61.8143 18.6516L63.0043 16.0316L64.0443 17.1716L65.3643 19.0316L67.3243 19.3716L67.3943 20.7816L68.9343 19.2216L70.3943 20.6716L69.9343 23.4616L71.2843 21.0216L72.1643 20.2816L72.7043 21.1616L72.9943 24.5316L71.2543 26.9616L72.2343 32.9016L70.5743 33.1916L71.0143 36.3516L70.3143 35.7516L68.2943 37.0316L67.0143 36.0016L64.6343 37.4416L65.3143 37.9816L64.8343 38.8716L62.9543 38.2616L61.6343 38.9916L61.6743 41.4116L59.7843 41.3716L59.4943 45.5316L58.0343 45.1016L57.3643 46.1216L54.7943 46.6516L54.4443 47.5716L51.6743 43.6916L47.0643 44.7016L47.9443 46.2016L46.5343 49.7416L42.0443 52.4816L41.3543 50.5616L42.3143 48.4016L41.8843 46.3716L40.0843 47.4816L37.9743 47.2516L37.1743 49.0816L35.9043 45.4916L33.9743 45.6816L32.3043 44.2516L30.1743 43.8516L27.7943 44.5316L27.1543 42.2016L26.2343 41.8316L23.0043 41.6416L21.9043 44.3316L19.7543 44.2916L18.8443 45.6916L17.7043 45.1316L16.4243 45.8316L15.6943 44.9416L14.2243 45.1816L13.7743 43.9016L10.3943 45.4516L9.52426 44.5916L10.3143 43.7516L9.23426 42.8416L8.21426 43.5416L4.25425 42.9216L6.16426 42.6616L4.57425 40.5616L6.18425 37.0016L4.75425 36.0416L6.20426 34.7916L4.81426 34.8816L4.66426 30.9716L2.59426 30.3316L2.73426 28.3516L4.85426 26.7116L2.54425 24.7616L2.62426 23.6316L5.35426 21.0316L3.98426 19.7416L3.00425 19.9616L3.27426 18.2616L1.10426 17.4516L0.364258 13.4816L1.83426 11.7616L2.71426 12.8416L4.13426 11.9716L3.48426 9.35156L4.93425 8.00156L3.45426 7.29156V5.22156L4.18425 4.89156L3.35426 4.93156L3.67426 4.18156L4.70426 5.10156L5.51426 4.45155L5.26426 3.14156L6.79425 2.10156L6.72425 3.01157L7.69426 2.22156L8.67426 3.59155L9.96426 3.26157L9.43425 4.69156L11.2043 4.56155L11.5743 3.59155L14.4443 2.17155L16.8043 2.42155L18.3843 0.341553Z"/>
</mask>
<path d="M28.0743 0.571564L27.2443 2.28156L27.1643 0.951553L28.0743 0.571564ZM18.3843 0.341553L18.7343 2.36156L24.0443 0.451553L23.5843 2.70155L24.7943 2.52156L24.1643 3.36156L27.2243 3.17155L27.5443 4.64156L25.8043 5.56155L28.5843 7.00156L29.7443 6.39156L30.5043 7.27156L29.9943 9.59155L35.3143 14.1116L35.1143 17.4616L39.6043 19.9316L39.5243 22.2116L40.7843 23.5316L40.9243 21.3916L43.0343 21.7816L46.2443 17.1816L49.6043 15.7516L48.9843 14.3416L51.1143 13.8616L51.9043 15.1316L56.0443 11.6116L57.3643 13.1916L55.2743 15.9016L56.2343 16.5316L59.1643 14.3816L58.6543 14.9116L60.5243 17.9716L60.2143 19.3116L61.1143 16.4816L61.8143 18.6516L63.0043 16.0316L64.0443 17.1716L65.3643 19.0316L67.3243 19.3716L67.3943 20.7816L68.9343 19.2216L70.3943 20.6716L69.9343 23.4616L71.2843 21.0216L72.1643 20.2816L72.7043 21.1616L72.9943 24.5316L71.2543 26.9616L72.2343 32.9016L70.5743 33.1916L71.0143 36.3516L70.3143 35.7516L68.2943 37.0316L67.0143 36.0016L64.6343 37.4416L65.3143 37.9816L64.8343 38.8716L62.9543 38.2616L61.6343 38.9916L61.6743 41.4116L59.7843 41.3716L59.4943 45.5316L58.0343 45.1016L57.3643 46.1216L54.7943 46.6516L54.4443 47.5716L51.6743 43.6916L47.0643 44.7016L47.9443 46.2016L46.5343 49.7416L42.0443 52.4816L41.3543 50.5616L42.3143 48.4016L41.8843 46.3716L40.0843 47.4816L37.9743 47.2516L37.1743 49.0816L35.9043 45.4916L33.9743 45.6816L32.3043 44.2516L30.1743 43.8516L27.7943 44.5316L27.1543 42.2016L26.2343 41.8316L23.0043 41.6416L21.9043 44.3316L19.7543 44.2916L18.8443 45.6916L17.7043 45.1316L16.4243 45.8316L15.6943 44.9416L14.2243 45.1816L13.7743 43.9016L10.3943 45.4516L9.52426 44.5916L10.3143 43.7516L9.23426 42.8416L8.21426 43.5416L4.25425 42.9216L6.16426 42.6616L4.57425 40.5616L6.18425 37.0016L4.75425 36.0416L6.20426 34.7916L4.81426 34.8816L4.66426 30.9716L2.59426 30.3316L2.73426 28.3516L4.85426 26.7116L2.54425 24.7616L2.62426 23.6316L5.35426 21.0316L3.98426 19.7416L3.00425 19.9616L3.27426 18.2616L1.10426 17.4516L0.364258 13.4816L1.83426 11.7616L2.71426 12.8416L4.13426 11.9716L3.48426 9.35156L4.93425 8.00156L3.45426 7.29156V5.22156L4.18425 4.89156L3.35426 4.93156L3.67426 4.18156L4.70426 5.10156L5.51426 4.45155L5.26426 3.14156L6.79425 2.10156L6.72425 3.01157L7.69426 2.22156L8.67426 3.59155L9.96426 3.26157L9.43425 4.69156L11.2043 4.56155L11.5743 3.59155L14.4443 2.17155L16.8043 2.42155L18.3843 0.341553Z" fill="black" stroke="white" stroke-width="2" mask="url(#path-1-inside-1_353_569)"/>
</svg>
