<svg width="53" height="63" viewBox="0 0 53 63" fill="none" xmlns="http://www.w3.org/2000/svg">
<mask id="path-1-inside-1_353_575" fill="white">
<path d="M31.5943 0.791626L34.1643 3.94162L33.4443 5.21162L35.0543 5.86162L34.7343 6.82162L35.6243 7.15163L34.8343 7.69162L34.9243 12.0816L36.8043 12.9816L34.7343 15.7416L36.1943 16.6216L35.8643 18.3016L37.4443 19.0616L38.4243 21.3016L40.4543 21.2816L40.2043 23.6216L42.2043 23.7916L43.4443 25.0916L42.9743 27.6116L44.0443 30.5216L45.4643 30.4916L45.7843 31.7716L46.8743 32.1616L48.4243 32.1816L49.0443 31.0616L49.8843 32.1016L49.2843 34.3016L51.3443 34.5816L51.4343 39.7816L50.5243 40.2516L52.0243 41.7116L50.6943 44.2416L51.4143 46.8716L51.0843 47.6216L50.8242 46.9616L50.1643 47.4016L51.1143 48.7416L49.0943 48.7116L48.2743 49.5716L48.9243 50.4216L47.4143 53.4216L45.1743 54.5816L44.0643 53.9016L43.8743 54.7216L41.6843 55.5516L39.3542 54.6816L38.5943 55.5916L38.1443 54.7416L36.7043 55.1516L36.5343 56.8716L35.6643 56.7816L35.4643 57.6016L33.4343 56.7716L33.5443 57.6516L32.0343 57.8216L32.4143 60.6016L29.4643 59.0716L28.9243 60.9616L26.8542 60.6416L26.1443 62.3216L21.8043 61.8716L21.0243 60.8016L18.9443 61.4816L17.6543 57.7516L15.9243 57.3316L15.4743 54.4316L13.8943 54.8716L13.4543 54.1016L10.4943 53.8716L12.7343 52.1616L12.4743 51.2916L10.8743 51.4216L8.69426 53.3916L8.38426 52.5016L4.17427 53.0716L4.58426 51.2416L7.27426 50.9016L2.37427 47.4616L3.72426 46.2616L1.97426 43.3216L2.72426 41.5716L0.614258 40.9116L1.22426 39.4916L1.95427 38.3216L7.20427 36.3516L9.77426 32.1316L8.28426 31.1416L8.11426 29.8716L8.92427 29.5116L8.37427 28.4016L9.38426 26.9316L7.63426 26.1016L8.26427 25.3116L7.70427 24.6416L4.61426 23.2516L4.43427 21.5516L3.26427 21.4016L3.80426 20.0416L3.12427 17.7716L5.12427 16.6616L5.65427 14.9216L7.55426 15.3216L10.2143 14.2916H11.3943L13.4143 12.2316L15.5543 12.9916L15.8343 10.2816L20.0243 12.2516L20.9043 11.4916L21.4643 12.2916L24.4543 12.1416L26.2443 10.8016L25.8143 7.45161L29.8943 5.09161L30.3542 3.52162L29.3843 1.84161L31.5943 0.791626Z"/>
</mask>
<path d="M31.5943 0.791626L34.1643 3.94162L33.4443 5.21162L35.0543 5.86162L34.7343 6.82162L35.6243 7.15163L34.8343 7.69162L34.9243 12.0816L36.8043 12.9816L34.7343 15.7416L36.1943 16.6216L35.8643 18.3016L37.4443 19.0616L38.4243 21.3016L40.4543 21.2816L40.2043 23.6216L42.2043 23.7916L43.4443 25.0916L42.9743 27.6116L44.0443 30.5216L45.4643 30.4916L45.7843 31.7716L46.8743 32.1616L48.4243 32.1816L49.0443 31.0616L49.8843 32.1016L49.2843 34.3016L51.3443 34.5816L51.4343 39.7816L50.5243 40.2516L52.0243 41.7116L50.6943 44.2416L51.4143 46.8716L51.0843 47.6216L50.8242 46.9616L50.1643 47.4016L51.1143 48.7416L49.0943 48.7116L48.2743 49.5716L48.9243 50.4216L47.4143 53.4216L45.1743 54.5816L44.0643 53.9016L43.8743 54.7216L41.6843 55.5516L39.3542 54.6816L38.5943 55.5916L38.1443 54.7416L36.7043 55.1516L36.5343 56.8716L35.6643 56.7816L35.4643 57.6016L33.4343 56.7716L33.5443 57.6516L32.0343 57.8216L32.4143 60.6016L29.4643 59.0716L28.9243 60.9616L26.8542 60.6416L26.1443 62.3216L21.8043 61.8716L21.0243 60.8016L18.9443 61.4816L17.6543 57.7516L15.9243 57.3316L15.4743 54.4316L13.8943 54.8716L13.4543 54.1016L10.4943 53.8716L12.7343 52.1616L12.4743 51.2916L10.8743 51.4216L8.69426 53.3916L8.38426 52.5016L4.17427 53.0716L4.58426 51.2416L7.27426 50.9016L2.37427 47.4616L3.72426 46.2616L1.97426 43.3216L2.72426 41.5716L0.614258 40.9116L1.22426 39.4916L1.95427 38.3216L7.20427 36.3516L9.77426 32.1316L8.28426 31.1416L8.11426 29.8716L8.92427 29.5116L8.37427 28.4016L9.38426 26.9316L7.63426 26.1016L8.26427 25.3116L7.70427 24.6416L4.61426 23.2516L4.43427 21.5516L3.26427 21.4016L3.80426 20.0416L3.12427 17.7716L5.12427 16.6616L5.65427 14.9216L7.55426 15.3216L10.2143 14.2916H11.3943L13.4143 12.2316L15.5543 12.9916L15.8343 10.2816L20.0243 12.2516L20.9043 11.4916L21.4643 12.2916L24.4543 12.1416L26.2443 10.8016L25.8143 7.45161L29.8943 5.09161L30.3542 3.52162L29.3843 1.84161L31.5943 0.791626Z" fill="black" stroke="white" stroke-width="2" mask="url(#path-1-inside-1_353_575)"/>
</svg>
