<svg width="42" height="67" viewBox="0 0 42 67" fill="none" xmlns="http://www.w3.org/2000/svg">
<path d="M34.4957 59.6343L34.1539 64.2089L33.6563 64.0385L33.4006 63.951L33.1874 64.1169L30.9549 65.8533L28.1808 65.0945L28.8632 62.8255L28.9716 62.4649L28.655 62.2611L27.54 61.5434L27.882 61.1492L28.2236 60.7554L27.8159 60.4305L27.3776 60.0812L27.6236 55.5687L27.6541 55.0091L27.0946 55.0424L24.8393 55.1767L23.8295 53.8624L23.5924 51.1776L23.5705 50.9304L23.3605 50.7983L21.3207 49.5153L20.2894 45.3903L20.1713 44.9178L19.6959 45.0235L18.898 45.2008L14.3527 42.5304L12.5932 40.2148L12.6736 38.6675L12.7161 37.8508L11.9698 38.1853L10.3844 38.896L8.57555 38.4683L3.22728 35.804L3.15887 35.7699L3.0834 35.7578L2.1855 35.6141L2.17257 35.4598L2.07713 34.3214L3.66374 34.2914L4.2853 34.2797L4.14055 33.6751L3.86092 32.5071L4.99983 31.2117L5.56655 30.5671L4.7263 30.3921L4.04671 30.2505L4.4789 28.668L6.42199 28.1975L6.86916 28.0893L6.79837 27.6346L6.57182 26.1798L6.57582 26.1801L9.03584 26.3701L9.45576 26.4025L9.55907 25.9942L10.1051 23.8361L12.4552 23.5478L12.7434 23.5125L12.8555 23.2447L13.2569 22.2864L14.7884 21.7899L18.5547 21.7115L18.6798 21.7089L18.789 21.6476L20.589 20.6376L20.8554 20.4881L20.8439 20.1828L20.7836 18.577L23.2789 16.6126L26.923 16.4227L29.9548 19.5591L30.4177 20.0379L30.7484 19.4598L32.6583 16.1198L32.7283 15.9974L32.7241 15.8565L32.6241 12.5365L32.62 12.399L32.546 12.2829L31.355 10.4137L32.4448 8.84708L32.5976 8.62738L32.4995 8.37836L31.8628 6.7613L33.1294 5.55339L33.3278 5.3642L33.2749 5.09521L32.6035 1.67609L35.3363 0.895278L36.6613 2.00732L37.8465 11.936L35.911 19.2537L35.8621 19.4385L35.9489 19.6087L39.4941 26.5612L39.4743 36.4006L39.4742 36.4591L39.4876 36.5161L40.6337 41.3871L40.5845 46.1708L40.2254 51.1012L34.581 59.3901L34.5057 59.5008L34.4957 59.6343Z" fill="black" stroke="white"/>
</svg>
