<svg width="61" height="70" viewBox="0 0 61 70" fill="none" xmlns="http://www.w3.org/2000/svg">
<mask id="path-1-inside-1_353_568" fill="white">
<path d="M2.21417 56.1915L2.14417 54.8815L5.15417 54.5915L4.70416 56.8615L2.21417 56.1915ZM9.48416 7.12155L10.3842 4.87155L20.3642 4.46155L19.5842 2.07155L21.6142 0.581543L25.1542 1.61154L26.5942 1.18155L27.9542 2.18155L30.2642 2.11154L30.9342 3.18155L29.9142 4.80154L32.4442 4.91154L33.2642 6.16154L31.8642 8.11154L33.0642 8.88155L33.4342 7.56154L34.8342 7.36154L35.8142 10.4215L36.9242 10.7215L37.1942 12.4215L38.5842 13.6315L38.3942 14.6216L35.3442 16.8716L37.1342 17.1815L37.5442 21.8615L40.0442 20.3615L40.0742 21.4815L41.3942 21.3015L41.0942 22.9615L42.1742 22.7715L43.7442 24.3015L46.2742 22.2215L46.0742 23.9515L48.7642 26.1516L49.6242 25.7915L48.7542 27.3716L49.3142 28.5715L51.5842 26.5615L52.8842 26.5315L53.5942 27.6915L54.3042 26.8215L55.2342 27.4615L56.6042 25.2015L58.7142 26.7415L59.0842 31.5915L57.0042 33.8315L55.4142 33.3315L54.9342 34.4115L55.7842 34.6516L54.0742 35.4315L54.5842 36.2616L55.7142 35.6216L57.0542 36.2915L56.7842 39.8315L59.5542 40.0315L59.3242 43.4115L58.2942 44.4715L60.3642 45.2616L59.7642 46.5215L59.0842 46.2015L58.7442 50.5215L57.2942 51.6516L57.8842 52.5715L57.0442 55.0715L55.7742 56.0215L54.8142 58.7515L52.4342 59.1516L50.6042 60.7715L50.2542 62.1315L52.0342 62.9715L49.4542 64.9715L47.3042 64.6615L46.9242 65.5816L43.8342 66.0116L42.8742 67.1215L43.0842 66.3316L40.8742 64.8715L38.9642 65.4315L38.7442 66.2616L34.4542 65.7616L34.4042 66.7115L30.1042 67.8515L29.7342 68.7215L27.3042 68.5015L25.8642 69.8215L24.9242 68.8916L25.5142 67.9715L22.8042 67.3115L20.8342 64.1716L20.0342 64.2215L20.3242 62.5015L18.4042 62.9615L17.5842 61.7016L15.0442 61.4516L13.9642 60.5315L14.5842 59.0315L14.0142 58.7315L12.0242 59.9016L11.6842 57.5915L8.67416 57.1915L7.47418 54.7915L6.13419 54.9715L6.03418 54.2815L6.78418 51.0315L4.73416 48.2415L2.87418 49.2215L2.07416 45.9315L2.87418 45.0715L2.06418 44.9415L3.26416 42.1115L1.74417 43.0415L1.75418 40.7715L0.664185 40.8315L1.07416 39.7715L0.0341797 38.9016L0.864166 38.0915L0.604156 36.9215L1.41418 37.5116L2.41418 36.4115L2.08417 32.3215L4.55417 30.0615L5.03418 28.2415L7.68417 23.4315L6.76416 22.2815L9.10416 22.0715L7.22418 19.4915L8.09418 18.3915L9.43417 18.9215L11.1542 17.4815L11.0342 11.9315L8.55417 12.4315L8.27417 10.3015L7.53418 10.2815L10.2542 8.36154L9.48416 7.12155Z"/>
</mask>
<path d="M2.21417 56.1915L2.14417 54.8815L5.15417 54.5915L4.70416 56.8615L2.21417 56.1915ZM9.48416 7.12155L10.3842 4.87155L20.3642 4.46155L19.5842 2.07155L21.6142 0.581543L25.1542 1.61154L26.5942 1.18155L27.9542 2.18155L30.2642 2.11154L30.9342 3.18155L29.9142 4.80154L32.4442 4.91154L33.2642 6.16154L31.8642 8.11154L33.0642 8.88155L33.4342 7.56154L34.8342 7.36154L35.8142 10.4215L36.9242 10.7215L37.1942 12.4215L38.5842 13.6315L38.3942 14.6216L35.3442 16.8716L37.1342 17.1815L37.5442 21.8615L40.0442 20.3615L40.0742 21.4815L41.3942 21.3015L41.0942 22.9615L42.1742 22.7715L43.7442 24.3015L46.2742 22.2215L46.0742 23.9515L48.7642 26.1516L49.6242 25.7915L48.7542 27.3716L49.3142 28.5715L51.5842 26.5615L52.8842 26.5315L53.5942 27.6915L54.3042 26.8215L55.2342 27.4615L56.6042 25.2015L58.7142 26.7415L59.0842 31.5915L57.0042 33.8315L55.4142 33.3315L54.9342 34.4115L55.7842 34.6516L54.0742 35.4315L54.5842 36.2616L55.7142 35.6216L57.0542 36.2915L56.7842 39.8315L59.5542 40.0315L59.3242 43.4115L58.2942 44.4715L60.3642 45.2616L59.7642 46.5215L59.0842 46.2015L58.7442 50.5215L57.2942 51.6516L57.8842 52.5715L57.0442 55.0715L55.7742 56.0215L54.8142 58.7515L52.4342 59.1516L50.6042 60.7715L50.2542 62.1315L52.0342 62.9715L49.4542 64.9715L47.3042 64.6615L46.9242 65.5816L43.8342 66.0116L42.8742 67.1215L43.0842 66.3316L40.8742 64.8715L38.9642 65.4315L38.7442 66.2616L34.4542 65.7616L34.4042 66.7115L30.1042 67.8515L29.7342 68.7215L27.3042 68.5015L25.8642 69.8215L24.9242 68.8916L25.5142 67.9715L22.8042 67.3115L20.8342 64.1716L20.0342 64.2215L20.3242 62.5015L18.4042 62.9615L17.5842 61.7016L15.0442 61.4516L13.9642 60.5315L14.5842 59.0315L14.0142 58.7315L12.0242 59.9016L11.6842 57.5915L8.67416 57.1915L7.47418 54.7915L6.13419 54.9715L6.03418 54.2815L6.78418 51.0315L4.73416 48.2415L2.87418 49.2215L2.07416 45.9315L2.87418 45.0715L2.06418 44.9415L3.26416 42.1115L1.74417 43.0415L1.75418 40.7715L0.664185 40.8315L1.07416 39.7715L0.0341797 38.9016L0.864166 38.0915L0.604156 36.9215L1.41418 37.5116L2.41418 36.4115L2.08417 32.3215L4.55417 30.0615L5.03418 28.2415L7.68417 23.4315L6.76416 22.2815L9.10416 22.0715L7.22418 19.4915L8.09418 18.3915L9.43417 18.9215L11.1542 17.4815L11.0342 11.9315L8.55417 12.4315L8.27417 10.3015L7.53418 10.2815L10.2542 8.36154L9.48416 7.12155Z" fill="black" stroke="white" stroke-width="2" mask="url(#path-1-inside-1_353_568)"/>
</svg>
