<svg width="63" height="67" viewBox="0 0 63 67" fill="none" xmlns="http://www.w3.org/2000/svg">
<mask id="path-1-inside-1_353_571" fill="white">
<path d="M28.414 0.111572L29.374 1.40155L32.184 0.971558L34.424 2.64157L33.454 5.58157L34.444 7.17157L35.694 6.90155L35.974 8.11157L37.334 7.62155L38.324 5.28156L39.504 6.56155L41.514 5.70157L44.524 5.99155L47.324 10.7016L48.584 9.71155L50.684 11.0116L48.794 13.9615L50.524 13.8216L51.144 15.0716L52.464 14.7016L53.584 15.2115L53.514 16.0416L54.294 15.8316L55.964 16.4615L55.334 17.6716L54.504 17.2616L54.534 18.5416L57.284 19.5316L54.794 22.9516L53.594 23.0516L53.224 25.9216L55.234 26.8516L55.344 27.7516L53.244 29.9216L55.794 30.8416L54.914 32.3016H54.304L56.624 34.1216L58.314 33.6416L60.884 34.5816L59.474 35.7415L62.384 40.7516L60.804 41.5616L60.984 42.3416L62.154 46.8316L60.954 47.1815L62.054 49.1616L58.864 51.1216L59.044 53.0215L56.234 53.9016L56.194 55.0716L57.234 55.7216L56.954 57.1516L56.264 56.9516L55.764 58.5416L55.054 58.1815L53.134 60.4315L50.004 61.2316L50.164 63.2616L47.794 65.6716L48.194 66.8416L47.034 66.8116L46.854 65.4915L44.404 64.4016L43.044 62.6916L38.744 64.3516L38.464 65.4315L36.944 65.2415L36.284 63.6815L37.724 61.2516L35.414 59.3816L34.024 60.6815L30.764 60.8316L28.354 59.0516L28.264 59.8616L26.734 59.4416L25.244 61.3916L23.444 60.6716L19.714 62.6316L17.124 62.0215L16.814 58.2816L14.684 55.7316L13.244 52.0616L14.184 52.2115L15.274 50.9116L13.754 49.6616L12.144 49.3716L12.304 50.2715L10.164 52.4516L8.35402 51.9016L6.83401 52.5116L6.35402 51.6716L5.20403 52.5215L3.18402 50.7316L0.854019 50.5616L3.67403 46.9416L2.34402 45.0016L5.29402 37.8016L4.12402 35.1516L1.95403 34.9416L0.624023 35.9516L0.744019 33.7115L2.21402 32.5916L1.55402 31.9615L2.44402 30.6815L4.53401 28.6016L6.35402 28.5816L7.86401 29.8316L9.51402 27.9116L9.54402 26.6116L10.764 26.4416L11.464 24.8816L13.314 24.4716L12.524 20.2216L13.714 16.8116L15.414 16.2415L14.804 14.9116L15.974 15.9315L18.054 13.3516L20.174 13.3416L20.894 11.1116L23.194 9.47156L23.464 4.67157L24.254 3.94156L24.604 4.84155L25.724 4.64157L28.414 0.111572Z"/>
</mask>
<path d="M28.414 0.111572L29.374 1.40155L32.184 0.971558L34.424 2.64157L33.454 5.58157L34.444 7.17157L35.694 6.90155L35.974 8.11157L37.334 7.62155L38.324 5.28156L39.504 6.56155L41.514 5.70157L44.524 5.99155L47.324 10.7016L48.584 9.71155L50.684 11.0116L48.794 13.9615L50.524 13.8216L51.144 15.0716L52.464 14.7016L53.584 15.2115L53.514 16.0416L54.294 15.8316L55.964 16.4615L55.334 17.6716L54.504 17.2616L54.534 18.5416L57.284 19.5316L54.794 22.9516L53.594 23.0516L53.224 25.9216L55.234 26.8516L55.344 27.7516L53.244 29.9216L55.794 30.8416L54.914 32.3016H54.304L56.624 34.1216L58.314 33.6416L60.884 34.5816L59.474 35.7415L62.384 40.7516L60.804 41.5616L60.984 42.3416L62.154 46.8316L60.954 47.1815L62.054 49.1616L58.864 51.1216L59.044 53.0215L56.234 53.9016L56.194 55.0716L57.234 55.7216L56.954 57.1516L56.264 56.9516L55.764 58.5416L55.054 58.1815L53.134 60.4315L50.004 61.2316L50.164 63.2616L47.794 65.6716L48.194 66.8416L47.034 66.8116L46.854 65.4915L44.404 64.4016L43.044 62.6916L38.744 64.3516L38.464 65.4315L36.944 65.2415L36.284 63.6815L37.724 61.2516L35.414 59.3816L34.024 60.6815L30.764 60.8316L28.354 59.0516L28.264 59.8616L26.734 59.4416L25.244 61.3916L23.444 60.6716L19.714 62.6316L17.124 62.0215L16.814 58.2816L14.684 55.7316L13.244 52.0616L14.184 52.2115L15.274 50.9116L13.754 49.6616L12.144 49.3716L12.304 50.2715L10.164 52.4516L8.35402 51.9016L6.83401 52.5116L6.35402 51.6716L5.20403 52.5215L3.18402 50.7316L0.854019 50.5616L3.67403 46.9416L2.34402 45.0016L5.29402 37.8016L4.12402 35.1516L1.95403 34.9416L0.624023 35.9516L0.744019 33.7115L2.21402 32.5916L1.55402 31.9615L2.44402 30.6815L4.53401 28.6016L6.35402 28.5816L7.86401 29.8316L9.51402 27.9116L9.54402 26.6116L10.764 26.4416L11.464 24.8816L13.314 24.4716L12.524 20.2216L13.714 16.8116L15.414 16.2415L14.804 14.9116L15.974 15.9315L18.054 13.3516L20.174 13.3416L20.894 11.1116L23.194 9.47156L23.464 4.67157L24.254 3.94156L24.604 4.84155L25.724 4.64157L28.414 0.111572Z" fill="black" stroke="white" stroke-width="2" mask="url(#path-1-inside-1_353_571)"/>
</svg>
