<svg width="64" height="52" viewBox="0 0 64 52" fill="none" xmlns="http://www.w3.org/2000/svg">
<mask id="path-1-inside-1_353_574" fill="white">
<path d="M0.604202 3.5916L4.1942 2.8516L9.01421 0.261597L12.5842 3.68159L14.9042 2.8716L14.3442 4.3116H15.3242L15.7342 5.5416L20.0442 4.4716L20.8542 5.0416L21.5342 3.9216L22.3242 5.89159L24.6842 5.8816L24.7442 7.4416L26.3542 6.6216L26.4242 9.57159L23.9642 9.0416L23.3242 10.4916L25.5742 11.0016L25.7242 12.1616L27.2742 10.6016L28.2642 12.3316L27.9342 13.8616L28.6342 13.2516L30.0542 15.1416L32.3942 14.6616L31.7842 12.1216L35.4142 11.4216L36.3942 9.3816L38.2442 9.7416L38.0742 8.5416L41.1542 9.1016L42.6642 3.8316L43.7842 3.8816L44.1042 2.6016L45.8542 1.6716L45.7542 2.5816L49.6142 2.4016L52.1142 3.7816L53.6742 3.1916L54.8942 4.9416L56.9942 5.7416L58.0142 5.2716L58.5942 6.0316L59.4242 5.2216L60.4942 5.3316L59.7342 6.1116L61.3742 7.8516L61.8442 12.5916L62.8942 12.7016L63.1542 13.6816L62.5342 15.4916L61.2442 13.8216L59.2242 14.3116L58.9842 16.4016L57.7542 17.6916L57.0642 22.7316L55.0342 26.1516L51.4742 26.7416L50.9442 25.6316L50.0642 27.8316L48.9942 26.9916L48.3942 27.6516L49.6542 30.1416L49.3142 32.5516L51.3342 32.3816L50.2342 33.1016L50.5942 34.7916L48.3842 35.8416L49.3542 37.5216L48.8942 39.0916L44.8142 41.4516L45.2442 44.8016L43.4542 46.1416L40.4642 46.2916L39.9042 45.4916L39.0242 46.2516L34.8342 44.2816L34.5542 46.9916L32.4142 46.2316L30.3942 48.2916H29.2142L26.5542 49.3216L24.6542 48.9216L24.1242 50.6616L22.1242 51.7716L20.2642 51.8116L20.1942 50.1916L18.4642 49.4616L20.3742 47.5316L19.7142 45.6616L13.5942 41.5916L14.7142 40.1816L13.6242 40.1616L13.8442 38.7216L12.7642 39.0816L12.3942 37.7616L11.1542 38.9316L5.8242 38.1616L4.2242 36.5516L5.4742 34.1816L6.8342 29.7816L3.5442 27.6816L4.6842 26.1016L5.7142 26.2516L4.92421 24.3016L6.2742 22.1116L4.2742 21.3016L4.6642 17.7216L1.59421 15.3316L4.2142 14.3116V12.9616L3.34421 12.2216L1.84421 13.4316L1.1342 13.0916L1.7142 12.2616L0.554199 11.0316L1.7742 9.50159L0.784195 7.5116L0.604202 3.5916Z"/>
</mask>
<path d="M0.604202 3.5916L4.1942 2.8516L9.01421 0.261597L12.5842 3.68159L14.9042 2.8716L14.3442 4.3116H15.3242L15.7342 5.5416L20.0442 4.4716L20.8542 5.0416L21.5342 3.9216L22.3242 5.89159L24.6842 5.8816L24.7442 7.4416L26.3542 6.6216L26.4242 9.57159L23.9642 9.0416L23.3242 10.4916L25.5742 11.0016L25.7242 12.1616L27.2742 10.6016L28.2642 12.3316L27.9342 13.8616L28.6342 13.2516L30.0542 15.1416L32.3942 14.6616L31.7842 12.1216L35.4142 11.4216L36.3942 9.3816L38.2442 9.7416L38.0742 8.5416L41.1542 9.1016L42.6642 3.8316L43.7842 3.8816L44.1042 2.6016L45.8542 1.6716L45.7542 2.5816L49.6142 2.4016L52.1142 3.7816L53.6742 3.1916L54.8942 4.9416L56.9942 5.7416L58.0142 5.2716L58.5942 6.0316L59.4242 5.2216L60.4942 5.3316L59.7342 6.1116L61.3742 7.8516L61.8442 12.5916L62.8942 12.7016L63.1542 13.6816L62.5342 15.4916L61.2442 13.8216L59.2242 14.3116L58.9842 16.4016L57.7542 17.6916L57.0642 22.7316L55.0342 26.1516L51.4742 26.7416L50.9442 25.6316L50.0642 27.8316L48.9942 26.9916L48.3942 27.6516L49.6542 30.1416L49.3142 32.5516L51.3342 32.3816L50.2342 33.1016L50.5942 34.7916L48.3842 35.8416L49.3542 37.5216L48.8942 39.0916L44.8142 41.4516L45.2442 44.8016L43.4542 46.1416L40.4642 46.2916L39.9042 45.4916L39.0242 46.2516L34.8342 44.2816L34.5542 46.9916L32.4142 46.2316L30.3942 48.2916H29.2142L26.5542 49.3216L24.6542 48.9216L24.1242 50.6616L22.1242 51.7716L20.2642 51.8116L20.1942 50.1916L18.4642 49.4616L20.3742 47.5316L19.7142 45.6616L13.5942 41.5916L14.7142 40.1816L13.6242 40.1616L13.8442 38.7216L12.7642 39.0816L12.3942 37.7616L11.1542 38.9316L5.8242 38.1616L4.2242 36.5516L5.4742 34.1816L6.8342 29.7816L3.5442 27.6816L4.6842 26.1016L5.7142 26.2516L4.92421 24.3016L6.2742 22.1116L4.2742 21.3016L4.6642 17.7216L1.59421 15.3316L4.2142 14.3116V12.9616L3.34421 12.2216L1.84421 13.4316L1.1342 13.0916L1.7142 12.2616L0.554199 11.0316L1.7742 9.50159L0.784195 7.5116L0.604202 3.5916Z" fill="black" stroke="white" stroke-width="2" mask="url(#path-1-inside-1_353_574)"/>
</svg>
