<svg width="68" height="71" viewBox="0 0 68 71" fill="none" xmlns="http://www.w3.org/2000/svg">
<mask id="path-1-inside-1_353_585" fill="white">
<path d="M15.0839 4.96152L15.2939 5.91153L15.6339 5.13153L17.0739 5.43152L18.7139 7.39154L20.1239 7.62152L22.0639 6.26154L23.3839 2.94153L25.4639 0.821533L28.7339 3.64154L28.4139 5.42154L33.8039 11.1515L33.3839 12.1415L35.7439 14.1515L36.7639 16.8215L38.7639 20.9615V21.6115L40.4039 23.1015L41.5039 27.0615L43.6039 27.0115L47.7639 29.9315L48.5339 30.0215L49.3039 28.5915L48.2639 28.9415L48.7739 24.9015L50.9239 24.0015L54.3739 27.2515L57.7739 27.3915L60.3239 31.2215L59.3839 31.8815L60.4239 32.1815L60.0539 34.1715L57.7439 36.1315L58.1539 37.5415L57.3839 38.6015L59.0339 41.8415L58.2939 43.8615L59.8139 43.2315L61.5739 44.6915L62.7039 44.0515L63.1539 45.5015L61.9439 46.8315L62.4839 48.7815L61.4639 49.1415L60.8239 51.9715L62.7839 53.1215L65.7839 52.9915L65.7339 55.6215L67.2139 56.4615L67.1039 61.4015L65.7239 61.5515L64.6339 60.2815L62.6039 61.5715L57.9039 60.8515L54.6839 63.6715L53.2639 62.4315L50.2439 64.3215L51.5139 65.6815L50.3039 66.9115L47.4739 67.7315L45.1539 66.9715L43.9839 70.0615L42.2539 70.6615L40.0739 68.7215L37.6939 69.0015L36.8339 67.3415L33.6139 64.8915L33.8539 66.5015L29.8439 64.6315L30.9239 63.2815L30.1139 63.0715L31.3139 53.1115L30.1339 50.2915L30.5539 48.7915L31.3539 48.7215L30.8839 48.0115L30.0139 47.8815L28.0239 50.2515L26.8839 49.5015L26.8239 50.8915L24.9739 49.3115L21.9939 49.7215L19.5839 48.0115L18.3939 47.9415L17.6939 49.0315L16.4739 48.6015L18.5639 45.8715L18.7139 43.0115L17.7439 41.1315L19.2139 40.1515L17.4439 37.9715L15.8539 38.4015L16.5539 35.4815L13.9839 36.3815L13.0839 34.2015L11.7939 34.2615L11.2539 32.8515L10.3839 32.7415L5.88391 35.5015L5.0239 34.7415L2.61389 35.5015L1.0239 33.9715L0.733887 31.4215L0.783905 26.1515L1.75391 26.1215L1.78391 25.1715L5.5639 21.7715L1.55389 18.3815L4.97391 19.0015L5.07388 18.0815L6.7139 17.2415L10.7539 17.3515L10.3839 16.4715L11.0339 16.2115L12.4039 16.7715L13.3139 13.7415L15.4739 11.5315L17.2939 11.5615L16.5239 9.80154L14.7539 9.34152L14.9039 7.54153L13.5939 7.64154L13.3439 6.28152L14.5539 6.76154L15.0839 4.96152Z"/>
</mask>
<path d="M15.0839 4.96152L15.2939 5.91153L15.6339 5.13153L17.0739 5.43152L18.7139 7.39154L20.1239 7.62152L22.0639 6.26154L23.3839 2.94153L25.4639 0.821533L28.7339 3.64154L28.4139 5.42154L33.8039 11.1515L33.3839 12.1415L35.7439 14.1515L36.7639 16.8215L38.7639 20.9615V21.6115L40.4039 23.1015L41.5039 27.0615L43.6039 27.0115L47.7639 29.9315L48.5339 30.0215L49.3039 28.5915L48.2639 28.9415L48.7739 24.9015L50.9239 24.0015L54.3739 27.2515L57.7739 27.3915L60.3239 31.2215L59.3839 31.8815L60.4239 32.1815L60.0539 34.1715L57.7439 36.1315L58.1539 37.5415L57.3839 38.6015L59.0339 41.8415L58.2939 43.8615L59.8139 43.2315L61.5739 44.6915L62.7039 44.0515L63.1539 45.5015L61.9439 46.8315L62.4839 48.7815L61.4639 49.1415L60.8239 51.9715L62.7839 53.1215L65.7839 52.9915L65.7339 55.6215L67.2139 56.4615L67.1039 61.4015L65.7239 61.5515L64.6339 60.2815L62.6039 61.5715L57.9039 60.8515L54.6839 63.6715L53.2639 62.4315L50.2439 64.3215L51.5139 65.6815L50.3039 66.9115L47.4739 67.7315L45.1539 66.9715L43.9839 70.0615L42.2539 70.6615L40.0739 68.7215L37.6939 69.0015L36.8339 67.3415L33.6139 64.8915L33.8539 66.5015L29.8439 64.6315L30.9239 63.2815L30.1139 63.0715L31.3139 53.1115L30.1339 50.2915L30.5539 48.7915L31.3539 48.7215L30.8839 48.0115L30.0139 47.8815L28.0239 50.2515L26.8839 49.5015L26.8239 50.8915L24.9739 49.3115L21.9939 49.7215L19.5839 48.0115L18.3939 47.9415L17.6939 49.0315L16.4739 48.6015L18.5639 45.8715L18.7139 43.0115L17.7439 41.1315L19.2139 40.1515L17.4439 37.9715L15.8539 38.4015L16.5539 35.4815L13.9839 36.3815L13.0839 34.2015L11.7939 34.2615L11.2539 32.8515L10.3839 32.7415L5.88391 35.5015L5.0239 34.7415L2.61389 35.5015L1.0239 33.9715L0.733887 31.4215L0.783905 26.1515L1.75391 26.1215L1.78391 25.1715L5.5639 21.7715L1.55389 18.3815L4.97391 19.0015L5.07388 18.0815L6.7139 17.2415L10.7539 17.3515L10.3839 16.4715L11.0339 16.2115L12.4039 16.7715L13.3139 13.7415L15.4739 11.5315L17.2939 11.5615L16.5239 9.80154L14.7539 9.34152L14.9039 7.54153L13.5939 7.64154L13.3439 6.28152L14.5539 6.76154L15.0839 4.96152Z" fill="black" stroke="white" stroke-width="2" mask="url(#path-1-inside-1_353_585)"/>
</svg>
