<svg width="68" height="71" viewBox="0 0 68 71" fill="none" xmlns="http://www.w3.org/2000/svg">
<mask id="path-1-inside-1_353_578" fill="white">
<path d="M21.8442 8.12158L26.1442 7.5116L27.2442 6.52158L28.3442 7.6416L30.0042 6.13159L31.2542 7.68158L32.7442 7.81158L32.6442 9.27158L35.1342 8.27158L34.8642 7.50159L38.6542 6.43158L38.5142 5.35159L36.0142 4.80161L38.6642 4.46158L38.2142 3.43158L38.9242 2.28159L42.4242 3.37158L43.5742 1.19159L44.1842 2.4216L45.8742 0.371582L46.8042 0.571594L46.8242 3.49158L48.3942 4.90158L48.2142 6.44159L50.5142 7.3916L50.7642 10.2716L53.0942 12.1916L51.2242 12.8516L51.3342 13.5016L53.7242 13.7916L54.1042 15.5516L52.8342 16.0416L52.4042 17.3516L58.6242 20.1216L59.0942 21.7616L61.7742 24.4916L64.8742 25.8316L65.9642 25.2716L65.8842 24.0716L66.8142 24.5916L66.9442 23.8816L67.2642 25.3716L65.8442 27.4216L66.5142 28.2416L66.8842 28.8916L64.8042 29.7716L63.4042 28.7716L61.8642 29.0816L61.2642 30.6316L59.1542 27.8416L58.6942 29.4016L57.6842 29.6516L58.0742 30.5016L57.0442 30.6916L57.5442 33.6116L53.7742 33.5716L54.3142 35.1516L53.1242 35.6716L52.3842 37.4716L51.7042 37.0416L50.1842 39.5616L50.2242 38.4616L47.4842 37.3916L47.2142 38.5916L46.5042 37.2116L45.3342 37.6916L45.2542 36.4716L44.4042 36.3816L44.8642 40.4316L43.9142 40.1416L43.1542 41.1616L41.0742 40.1616L41.6442 38.5716L39.4342 36.5916L39.2542 35.3416L37.5942 35.0216L35.9342 36.5816L35.9942 37.8716L39.3342 39.0816L39.4542 40.6816L37.0742 42.1916L33.4642 42.2816L32.6542 43.7516L35.1242 44.5716L36.3042 46.0516L34.6142 46.7716L34.6542 47.7816L33.0742 48.0916L31.7042 45.5116L28.9042 44.1916L27.4442 45.4016L25.9942 44.6916L25.3742 47.3016L23.8142 46.4816L23.3842 47.7316L24.0542 48.3016L22.9142 48.8716L23.2342 51.4716L24.7442 52.3716L22.8242 54.4516L18.5842 55.3416L18.9842 56.7816L16.5442 57.7816L17.8642 62.9216L11.6542 60.7716L10.3742 61.1416L9.58418 62.0816L10.0342 64.0716L9.00418 65.1916L9.90419 65.6516L9.10419 66.9416L10.4442 68.5616L10.2742 70.3716L7.02419 69.5516L3.69418 70.3416L1.97418 69.8816L2.32419 69.3016L0.854187 67.9916L2.04419 59.8516L5.57419 60.8116L7.15419 57.0216L9.07419 55.1716L7.73419 53.9616L8.30418 53.0416L7.48419 51.0216L4.18419 52.6916L4.57419 50.6216L5.69418 50.9616L5.74419 48.7116L3.07419 47.5316L2.59419 46.4416L1.10419 46.6916L1.45419 46.0616L0.53418 45.5516L3.90419 42.0816L3.72418 40.8916L6.04419 40.4616L5.12419 39.5516L8.62419 36.1816L7.48419 35.3616L9.88419 34.6616L11.9142 31.3616L12.7442 31.9216L14.0442 29.2916L15.7342 30.2616L16.2842 29.2716L20.3142 29.8716L23.2542 32.2416L23.9842 31.4316L23.4642 29.7116L25.0042 29.2316L24.5142 28.5216L25.6242 26.9216L24.4642 26.1216L26.7842 24.2916L25.8642 23.6316L26.9342 23.0116L25.8642 22.2516L27.4342 21.8916L27.9442 22.6616L28.4642 21.2916L32.0742 20.5916L31.3842 18.1116L30.3842 18.5616L29.6542 16.4716L27.4042 16.2916L28.0042 15.4116L25.8042 14.5816L26.5242 13.0916L23.3642 10.8916L21.8442 8.12158Z"/>
</mask>
<path d="M21.8442 8.12158L26.1442 7.5116L27.2442 6.52158L28.3442 7.6416L30.0042 6.13159L31.2542 7.68158L32.7442 7.81158L32.6442 9.27158L35.1342 8.27158L34.8642 7.50159L38.6542 6.43158L38.5142 5.35159L36.0142 4.80161L38.6642 4.46158L38.2142 3.43158L38.9242 2.28159L42.4242 3.37158L43.5742 1.19159L44.1842 2.4216L45.8742 0.371582L46.8042 0.571594L46.8242 3.49158L48.3942 4.90158L48.2142 6.44159L50.5142 7.3916L50.7642 10.2716L53.0942 12.1916L51.2242 12.8516L51.3342 13.5016L53.7242 13.7916L54.1042 15.5516L52.8342 16.0416L52.4042 17.3516L58.6242 20.1216L59.0942 21.7616L61.7742 24.4916L64.8742 25.8316L65.9642 25.2716L65.8842 24.0716L66.8142 24.5916L66.9442 23.8816L67.2642 25.3716L65.8442 27.4216L66.5142 28.2416L66.8842 28.8916L64.8042 29.7716L63.4042 28.7716L61.8642 29.0816L61.2642 30.6316L59.1542 27.8416L58.6942 29.4016L57.6842 29.6516L58.0742 30.5016L57.0442 30.6916L57.5442 33.6116L53.7742 33.5716L54.3142 35.1516L53.1242 35.6716L52.3842 37.4716L51.7042 37.0416L50.1842 39.5616L50.2242 38.4616L47.4842 37.3916L47.2142 38.5916L46.5042 37.2116L45.3342 37.6916L45.2542 36.4716L44.4042 36.3816L44.8642 40.4316L43.9142 40.1416L43.1542 41.1616L41.0742 40.1616L41.6442 38.5716L39.4342 36.5916L39.2542 35.3416L37.5942 35.0216L35.9342 36.5816L35.9942 37.8716L39.3342 39.0816L39.4542 40.6816L37.0742 42.1916L33.4642 42.2816L32.6542 43.7516L35.1242 44.5716L36.3042 46.0516L34.6142 46.7716L34.6542 47.7816L33.0742 48.0916L31.7042 45.5116L28.9042 44.1916L27.4442 45.4016L25.9942 44.6916L25.3742 47.3016L23.8142 46.4816L23.3842 47.7316L24.0542 48.3016L22.9142 48.8716L23.2342 51.4716L24.7442 52.3716L22.8242 54.4516L18.5842 55.3416L18.9842 56.7816L16.5442 57.7816L17.8642 62.9216L11.6542 60.7716L10.3742 61.1416L9.58418 62.0816L10.0342 64.0716L9.00418 65.1916L9.90419 65.6516L9.10419 66.9416L10.4442 68.5616L10.2742 70.3716L7.02419 69.5516L3.69418 70.3416L1.97418 69.8816L2.32419 69.3016L0.854187 67.9916L2.04419 59.8516L5.57419 60.8116L7.15419 57.0216L9.07419 55.1716L7.73419 53.9616L8.30418 53.0416L7.48419 51.0216L4.18419 52.6916L4.57419 50.6216L5.69418 50.9616L5.74419 48.7116L3.07419 47.5316L2.59419 46.4416L1.10419 46.6916L1.45419 46.0616L0.53418 45.5516L3.90419 42.0816L3.72418 40.8916L6.04419 40.4616L5.12419 39.5516L8.62419 36.1816L7.48419 35.3616L9.88419 34.6616L11.9142 31.3616L12.7442 31.9216L14.0442 29.2916L15.7342 30.2616L16.2842 29.2716L20.3142 29.8716L23.2542 32.2416L23.9842 31.4316L23.4642 29.7116L25.0042 29.2316L24.5142 28.5216L25.6242 26.9216L24.4642 26.1216L26.7842 24.2916L25.8642 23.6316L26.9342 23.0116L25.8642 22.2516L27.4342 21.8916L27.9442 22.6616L28.4642 21.2916L32.0742 20.5916L31.3842 18.1116L30.3842 18.5616L29.6542 16.4716L27.4042 16.2916L28.0042 15.4116L25.8042 14.5816L26.5242 13.0916L23.3642 10.8916L21.8442 8.12158Z" fill="black" stroke="white" stroke-width="2" mask="url(#path-1-inside-1_353_578)"/>
</svg>
