<svg width="54" height="68" viewBox="0 0 54 68" fill="none" xmlns="http://www.w3.org/2000/svg">
<mask id="path-1-inside-1_353_582" fill="white">
<path d="M7.57389 4.4416L8.22388 5.10161L10.2639 4.7316L9.94389 5.5316L10.8539 5.4716L10.9339 6.9216L12.3439 8.2016L11.9039 9.2216L10.3639 10.7816L10.2939 9.37161L8.33389 9.0316L7.01389 7.1716L5.90389 5.07161L7.57389 4.4416ZM18.7039 0.521606L19.0539 2.18161L17.5339 4.2816L19.0239 6.32161L24.6539 6.66161L29.9839 5.0016L33.4439 14.0916L35.0239 14.2116L36.2339 15.8516L39.0339 15.3516L40.0839 13.4816L42.1339 12.8216L43.1839 10.6716L50.8139 12.9016L50.3539 18.7516L51.8439 24.1016L49.4939 28.1916L51.6239 38.8916L52.8439 40.2516L52.3439 42.5316L53.0439 44.3116L51.6639 45.4816L48.5839 45.3416L48.5139 46.2916L47.2939 46.6816L46.4039 50.8016L45.5839 51.2816L45.9539 52.6816L44.5239 53.6716L44.5939 55.6216L43.8439 56.2516L43.4839 58.3016L38.6439 56.9116L37.6139 55.1216L33.8539 54.6816L34.0939 56.6716L27.9039 59.1016L26.4139 62.3916L24.9239 62.2216L23.7739 63.1516L18.0239 62.4816L14.0839 64.7716L13.3239 63.3916L8.13389 67.2416L6.84389 61.5916L7.60389 61.2316L7.77389 60.7316L9.82389 60.6216L9.6739 59.8316L6.93389 58.6516H7.56389L10.7639 54.7816L9.99389 52.5916L8.58389 54.1916L7.65389 53.8616L8.23389 53.0516L7.44389 51.2516L8.97388 49.4716L6.22389 45.5016L5.00389 45.7816L2.36389 44.5316L0.233887 45.0616L1.28389 42.0516L2.10389 41.2216L4.37389 41.2416L5.22389 39.8016L3.07389 39.4716L1.60389 40.5816L1.67389 37.8516L0.293892 36.1616L0.96389 35.1416L2.42389 35.5716L2.71389 31.4116L4.60389 31.4516L4.56389 29.0316L5.88389 28.3016L7.76389 28.9116L8.24389 28.0216L7.56389 27.4816L9.94389 26.0416L11.2239 27.0716L13.2439 25.7916L13.9439 26.3916L13.5039 23.2316L15.1639 22.9416L14.1839 17.0016L15.9239 14.5716L15.6339 11.2016L15.0939 10.3216L14.2139 11.0616L13.6339 11.2016L12.7439 8.21161L14.1239 8.5316L11.6739 6.99161L12.1139 6.2816L10.8239 5.07161L10.9239 4.02161L12.6039 3.1716L12.7039 1.90161L14.4139 2.0316L13.8839 1.62161L14.8939 0.801605L16.1239 1.5816L18.7039 0.521606Z"/>
</mask>
<path d="M7.57389 4.4416L8.22388 5.10161L10.2639 4.7316L9.94389 5.5316L10.8539 5.4716L10.9339 6.9216L12.3439 8.2016L11.9039 9.2216L10.3639 10.7816L10.2939 9.37161L8.33389 9.0316L7.01389 7.1716L5.90389 5.07161L7.57389 4.4416ZM18.7039 0.521606L19.0539 2.18161L17.5339 4.2816L19.0239 6.32161L24.6539 6.66161L29.9839 5.0016L33.4439 14.0916L35.0239 14.2116L36.2339 15.8516L39.0339 15.3516L40.0839 13.4816L42.1339 12.8216L43.1839 10.6716L50.8139 12.9016L50.3539 18.7516L51.8439 24.1016L49.4939 28.1916L51.6239 38.8916L52.8439 40.2516L52.3439 42.5316L53.0439 44.3116L51.6639 45.4816L48.5839 45.3416L48.5139 46.2916L47.2939 46.6816L46.4039 50.8016L45.5839 51.2816L45.9539 52.6816L44.5239 53.6716L44.5939 55.6216L43.8439 56.2516L43.4839 58.3016L38.6439 56.9116L37.6139 55.1216L33.8539 54.6816L34.0939 56.6716L27.9039 59.1016L26.4139 62.3916L24.9239 62.2216L23.7739 63.1516L18.0239 62.4816L14.0839 64.7716L13.3239 63.3916L8.13389 67.2416L6.84389 61.5916L7.60389 61.2316L7.77389 60.7316L9.82389 60.6216L9.6739 59.8316L6.93389 58.6516H7.56389L10.7639 54.7816L9.99389 52.5916L8.58389 54.1916L7.65389 53.8616L8.23389 53.0516L7.44389 51.2516L8.97388 49.4716L6.22389 45.5016L5.00389 45.7816L2.36389 44.5316L0.233887 45.0616L1.28389 42.0516L2.10389 41.2216L4.37389 41.2416L5.22389 39.8016L3.07389 39.4716L1.60389 40.5816L1.67389 37.8516L0.293892 36.1616L0.96389 35.1416L2.42389 35.5716L2.71389 31.4116L4.60389 31.4516L4.56389 29.0316L5.88389 28.3016L7.76389 28.9116L8.24389 28.0216L7.56389 27.4816L9.94389 26.0416L11.2239 27.0716L13.2439 25.7916L13.9439 26.3916L13.5039 23.2316L15.1639 22.9416L14.1839 17.0016L15.9239 14.5716L15.6339 11.2016L15.0939 10.3216L14.2139 11.0616L13.6339 11.2016L12.7439 8.21161L14.1239 8.5316L11.6739 6.99161L12.1139 6.2816L10.8239 5.07161L10.9239 4.02161L12.6039 3.1716L12.7039 1.90161L14.4139 2.0316L13.8839 1.62161L14.8939 0.801605L16.1239 1.5816L18.7039 0.521606Z" fill="black" stroke="white" stroke-width="2" mask="url(#path-1-inside-1_353_582)"/>
</svg>
