<svg width="40" height="64" viewBox="0 0 40 64" fill="none" xmlns="http://www.w3.org/2000/svg">
<mask id="path-1-inside-1_353_586" fill="white">
<path d="M11.364 0.281494L13.804 3.34149L16.464 3.2215L17.894 1.9615L18.924 2.6015L20.464 6.48149L22.444 7.3015L24.174 10.2015L21.7639 13.0015L22.394 15.3815L21.524 16.0615L20.364 15.4015L21.084 16.3515L20.684 17.4615L21.434 18.0515L22.624 17.4715L23.424 15.9315L23.624 17.7015L24.994 18.6215L27.034 19.0415L28.124 17.7715L27.694 19.5015L30.344 20.2315L29.554 21.8615L31.164 22.6515L30.624 24.3515L31.714 25.0915L31.6039 26.4515L32.5739 26.3315L32.444 27.0115L32.674 27.8615L34.024 27.2215L37.614 29.5515L39.904 33.0315L34.254 37.5615L35.714 39.8215L33.374 42.4915L37.0739 45.4915L37.7339 46.7815L34.3539 51.2015L34.904 52.3515L34.024 54.0015L25.924 63.0715L19.934 63.3015L19.4539 60.4015L16.664 59.5115L16.5139 58.2815L14.554 61.2015L13.314 61.2915L12.194 62.8415L9.48395 63.0915L8.79395 62.4815L9.55396 60.0215L7.96396 60.0315L7.43396 58.0815L6.58395 60.3215L6.54395 58.6415L4.82394 56.7415L5.47397 56.0215L2.24396 54.1715L3.26395 53.2515L2.88397 52.1815L3.27396 51.1715L7.14395 50.3415L7.30396 48.8115L4.74396 47.7715L4.85394 44.2615L5.75397 44.0515L6.60394 44.0415L6.97397 42.9315L6.25397 42.3115L8.14395 40.6715L6.22397 37.8215L6.76395 37.0515L6.11395 35.2015L4.78397 35.1215L6.05396 32.6715L3.95395 31.4515L3.40396 29.9515L6.77396 28.8715L9.05396 29.2115L8.97397 27.6115L6.81396 27.0015L6.39395 25.2915L3.49396 25.5915L2.25397 22.6415L0.793945 23.0915L0.293945 22.1615L0.463959 19.9815L3.04395 17.9815L1.26395 17.1415L1.61395 15.7815L3.43396 14.1715L5.81396 13.7715L6.77396 11.0415L8.04395 10.0915L8.88397 7.59149L8.30396 6.67149L9.74396 5.5415L10.084 1.2215L10.754 1.5415L11.364 0.281494Z"/>
</mask>
<path d="M11.364 0.281494L13.804 3.34149L16.464 3.2215L17.894 1.9615L18.924 2.6015L20.464 6.48149L22.444 7.3015L24.174 10.2015L21.7639 13.0015L22.394 15.3815L21.524 16.0615L20.364 15.4015L21.084 16.3515L20.684 17.4615L21.434 18.0515L22.624 17.4715L23.424 15.9315L23.624 17.7015L24.994 18.6215L27.034 19.0415L28.124 17.7715L27.694 19.5015L30.344 20.2315L29.554 21.8615L31.164 22.6515L30.624 24.3515L31.714 25.0915L31.6039 26.4515L32.5739 26.3315L32.444 27.0115L32.674 27.8615L34.024 27.2215L37.614 29.5515L39.904 33.0315L34.254 37.5615L35.714 39.8215L33.374 42.4915L37.0739 45.4915L37.7339 46.7815L34.3539 51.2015L34.904 52.3515L34.024 54.0015L25.924 63.0715L19.934 63.3015L19.4539 60.4015L16.664 59.5115L16.5139 58.2815L14.554 61.2015L13.314 61.2915L12.194 62.8415L9.48395 63.0915L8.79395 62.4815L9.55396 60.0215L7.96396 60.0315L7.43396 58.0815L6.58395 60.3215L6.54395 58.6415L4.82394 56.7415L5.47397 56.0215L2.24396 54.1715L3.26395 53.2515L2.88397 52.1815L3.27396 51.1715L7.14395 50.3415L7.30396 48.8115L4.74396 47.7715L4.85394 44.2615L5.75397 44.0515L6.60394 44.0415L6.97397 42.9315L6.25397 42.3115L8.14395 40.6715L6.22397 37.8215L6.76395 37.0515L6.11395 35.2015L4.78397 35.1215L6.05396 32.6715L3.95395 31.4515L3.40396 29.9515L6.77396 28.8715L9.05396 29.2115L8.97397 27.6115L6.81396 27.0015L6.39395 25.2915L3.49396 25.5915L2.25397 22.6415L0.793945 23.0915L0.293945 22.1615L0.463959 19.9815L3.04395 17.9815L1.26395 17.1415L1.61395 15.7815L3.43396 14.1715L5.81396 13.7715L6.77396 11.0415L8.04395 10.0915L8.88397 7.59149L8.30396 6.67149L9.74396 5.5415L10.084 1.2215L10.754 1.5415L11.364 0.281494Z" fill="black" stroke="white" stroke-width="2" mask="url(#path-1-inside-1_353_586)"/>
</svg>
