<svg width="56" height="58" viewBox="0 0 56 58" fill="none" xmlns="http://www.w3.org/2000/svg">
<path d="M28.3498 4.3556L28.1309 2.71018L30.4125 2.58072L30.8967 2.55325L30.884 2.06848L30.8657 1.36666L31.0707 1.33882L33.2377 2.50207L33.4818 2.63307L33.7223 2.49565L35.408 1.53236L37.658 3.95201L37.7529 4.05402L37.8868 4.09229L40.1989 4.7529L40.2763 6.70188L37.6098 9.53911L37.1059 10.0753L37.79 10.3464L41.98 12.0064L42.0675 12.041L42.1616 12.0415L44.1116 12.0515L44.2317 12.0521L44.339 11.9981L46.709 10.8051L46.9633 12.1167L47.0809 12.7233L47.6496 12.4817L48.8921 11.954L49.0355 13.2327L48.0616 14.555L47.7993 14.9111L48.1207 15.2149L51.1656 18.0932L49.7886 21.6092L49.6508 21.9612L49.9518 22.1898L51.5718 23.4197L51.694 23.5125L51.8472 23.5208L52.8581 23.5754L52.2338 24.5905L50.575 25.2687L50.0188 25.4961L50.3434 26.0017L50.6853 26.5341L50.2231 27.2164L49.1879 26.9746L47.7068 26.6287L48.6937 27.786L51.5333 31.1158L50.9274 32.1527L49.991 32.3303L49.4201 32.4386L49.6124 32.987L50.4223 35.297L50.4942 35.5019L50.6931 35.5893L53.0527 36.6258L52.579 37.8283L52.4273 38.2133L52.7772 38.4343L54.5631 39.5622L53.3685 44.4529L53.328 44.6185L53.3971 44.7743L55.1609 48.7496L53.3157 50.0531L53.0148 50.2657L53.1287 50.6161L53.625 52.1426L50.9952 52.8338L46.6045 50.9134L46.4212 50.8332L46.2331 50.9017L44.4445 51.553L42.6579 50.9758L42.4622 50.9125L42.2787 51.0053L40.6644 51.8209L38.5851 50.1699L38.3901 50.0151L38.149 50.0774L36.679 50.4574L36.1531 50.5934L36.3321 51.1063L36.7741 52.3727L35.9283 53.7562L34.5764 52.487L34.2666 52.1962L33.9296 52.455L32.0856 53.8711L31.5392 52.4879L31.3152 51.9208L30.803 52.2515L28.6396 53.648L28.0707 52.1717L27.7861 51.4331L27.2414 52.0075L23.0482 56.4291L20.8562 53.6611L20.672 53.4286L20.3796 53.4787L18.6896 53.7687L18.3791 53.822L18.2932 54.1251L18.0217 55.0818L16.6218 54.7733L16.4602 54.7376L16.3093 54.8054L15.1756 55.3146L14.9372 54.4225L14.7086 53.5665L14.094 54.2047L13.9713 54.3322L15.0153 52.1471L15.4874 51.1591L14.4316 51.4494L14.0687 51.5492L14.1709 51.1609L13.7073 51.0224L12.3788 50.6256L12.1997 50.2538L12.2565 50.2593L13.2148 50.351L12.7388 49.5143L11.9793 48.1791L12.1941 47.9687L12.5882 47.5826L12.1653 47.2283L9.9453 45.3683L9.80382 45.2497L9.61926 45.2515L7.02772 45.2771L6.86068 43.8725L6.81439 43.4832L6.42533 43.4353L4.45887 43.193L2.46337 41.5603L1.84138 40.1504L3.21606 36.2269L3.27258 36.0656L3.21853 35.9034L2.62853 34.1334L2.57536 33.9739L2.43661 33.8789L1.51224 33.2462L2.57185 33.0064L3.69939 34.0229L4.13554 34.4161L4.45417 33.9228L5.29167 32.6263L6.09354 32.8613L7.07873 33.1501L6.69865 32.1964L5.75433 29.827L6.43623 29.4074L6.6356 29.2847L6.66905 29.053L7.73136 21.6947L8.7617 20.8478L8.98302 20.6658L8.93798 20.3829L8.58857 18.188L10.2733 16.5376L12.6794 15.8527L15.122 17.3572L15.3756 17.5135L15.6338 17.3648L16.5538 16.8348L16.6823 16.7607L16.7496 16.6286L18.1705 13.8415H18.6642H19.1476L19.1639 13.3584L19.2133 11.8934L21.0745 11.0797L21.5061 10.8909L21.3434 10.4488L19.9617 6.69466L24.5519 3.7341L26.4715 3.89619L27.529 4.80138L28.5222 5.65144L28.3498 4.3556Z" fill="black" stroke="white"/>
</svg>
