<svg width="63" height="45" viewBox="0 0 63 45" fill="none" xmlns="http://www.w3.org/2000/svg">
<mask id="path-1-inside-1_353_579" fill="white">
<path d="M15.404 5.89172L17.664 4.82172L18.764 6.47171L21.164 3.60172L24.744 5.44171L25.334 4.36172L28.084 4.53171L30.644 3.23172L31.424 1.66171L35.364 1.7117L36.894 0.261719L39.834 3.48172L43.084 1.10172L44.044 3.1517L46.394 1.6817L47.744 2.14172L47.284 3.4917L46.054 3.42172L46.564 5.1217L43.774 8.60172L44.264 9.41171L48.074 9.34171L49.774 10.7717L48.854 12.0617L50.074 13.3717L49.384 14.1317L50.644 14.6917L49.404 16.9017L51.844 17.1217L53.364 19.8917L56.524 22.0917L55.804 23.5817L58.004 24.4117L57.404 25.2917L59.654 25.4717L60.384 27.5617L61.384 27.1117L62.0739 29.5917L58.464 30.2917L57.944 31.6617L57.434 30.8917L55.864 31.2517L56.934 32.0117L55.864 32.6317L56.784 33.2917L54.464 35.1217L55.624 35.9217L54.5139 37.5217L55.004 38.2317L53.464 38.7117L53.9839 40.4317L53.254 41.2417L50.314 38.8717L46.284 38.2717L45.734 39.2617L44.044 38.2917L42.744 40.9217L41.914 40.3617L39.884 43.6617L37.484 44.3617L30.694 42.6417L30.604 43.3517L29.324 43.3017L28.414 41.7517L26.024 42.4917L25.734 40.6817L25.064 41.1117L24.574 39.9317L19.824 40.9717L19.464 39.1217L18.604 39.3417L17.734 37.9317L19.074 36.7317L17.124 32.7117L14.454 32.5317L12.164 29.8317L11.674 27.5417L9.21396 27.4917L8.26396 28.8717L5.60396 28.9617L4.91396 28.0617L2.19395 28.7117L2.00395 26.9517L0.733963 26.9117L0.563965 25.4117L1.36395 25.7717L1.34396 24.8617L2.22395 24.7217L1.90396 21.7117L4.19395 19.9917L3.20396 19.2417L2.87396 15.9317L4.24396 15.8317L3.62396 13.0917L4.55396 12.6817L4.36395 11.7117L2.33395 10.8117L4.82396 8.41171L5.65396 9.07172L7.03395 8.1817L8.29396 9.03171L8.38396 7.91171L10.384 7.16171L10.764 5.83173L12.554 7.57172L11.394 9.00171L14.714 10.8917L15.424 9.70172L14.544 7.25171L15.404 5.89172Z"/>
</mask>
<path d="M15.404 5.89172L17.664 4.82172L18.764 6.47171L21.164 3.60172L24.744 5.44171L25.334 4.36172L28.084 4.53171L30.644 3.23172L31.424 1.66171L35.364 1.7117L36.894 0.261719L39.834 3.48172L43.084 1.10172L44.044 3.1517L46.394 1.6817L47.744 2.14172L47.284 3.4917L46.054 3.42172L46.564 5.1217L43.774 8.60172L44.264 9.41171L48.074 9.34171L49.774 10.7717L48.854 12.0617L50.074 13.3717L49.384 14.1317L50.644 14.6917L49.404 16.9017L51.844 17.1217L53.364 19.8917L56.524 22.0917L55.804 23.5817L58.004 24.4117L57.404 25.2917L59.654 25.4717L60.384 27.5617L61.384 27.1117L62.0739 29.5917L58.464 30.2917L57.944 31.6617L57.434 30.8917L55.864 31.2517L56.934 32.0117L55.864 32.6317L56.784 33.2917L54.464 35.1217L55.624 35.9217L54.5139 37.5217L55.004 38.2317L53.464 38.7117L53.9839 40.4317L53.254 41.2417L50.314 38.8717L46.284 38.2717L45.734 39.2617L44.044 38.2917L42.744 40.9217L41.914 40.3617L39.884 43.6617L37.484 44.3617L30.694 42.6417L30.604 43.3517L29.324 43.3017L28.414 41.7517L26.024 42.4917L25.734 40.6817L25.064 41.1117L24.574 39.9317L19.824 40.9717L19.464 39.1217L18.604 39.3417L17.734 37.9317L19.074 36.7317L17.124 32.7117L14.454 32.5317L12.164 29.8317L11.674 27.5417L9.21396 27.4917L8.26396 28.8717L5.60396 28.9617L4.91396 28.0617L2.19395 28.7117L2.00395 26.9517L0.733963 26.9117L0.563965 25.4117L1.36395 25.7717L1.34396 24.8617L2.22395 24.7217L1.90396 21.7117L4.19395 19.9917L3.20396 19.2417L2.87396 15.9317L4.24396 15.8317L3.62396 13.0917L4.55396 12.6817L4.36395 11.7117L2.33395 10.8117L4.82396 8.41171L5.65396 9.07172L7.03395 8.1817L8.29396 9.03171L8.38396 7.91171L10.384 7.16171L10.764 5.83173L12.554 7.57172L11.394 9.00171L14.714 10.8917L15.424 9.70172L14.544 7.25171L15.404 5.89172Z" fill="black" stroke="white" stroke-width="2" mask="url(#path-1-inside-1_353_579)"/>
</svg>
