<svg width="67" height="58" viewBox="0 0 67 58" fill="none" xmlns="http://www.w3.org/2000/svg">
<mask id="path-1-inside-1_353_577" fill="white">
<path d="M31.264 0.371582L32.9041 1.1716L32.834 2.7016L34.1941 3.52158L33.014 4.3316L33.744 5.93158L32.8441 7.93158L33.494 8.62158L36.7241 7.50159L37.264 8.85159L38.744 8.57159L42.014 11.6316L43.3141 10.0516L43.2841 8.7316L44.8841 7.3916L47.614 6.9216L47.764 10.1616L49.524 10.5816L50.1541 7.3916L52.3141 7.0816L52.5941 7.9516L54.1241 8.1416L54.524 9.4816L58.294 11.3116L59.274 14.4916L60.6941 14.5616L61.2841 16.1116L60.604 20.6916L61.244 22.2116L63.984 23.1216L66.3741 26.4916L66.2541 27.7516L65.0641 27.6616L65.1341 29.0316L62.084 31.3516L57.9741 34.5716L59.044 35.8216L58.0341 36.6316L58.3841 39.4316L56.774 42.6516L57.4041 44.9416L53.7541 43.7016L51.484 44.2716L49.014 48.4616L50.9141 49.1216L50.484 50.4416L45.1641 53.5216L44.334 52.4116L44.744 53.9616L41.3441 55.6116L40.9041 57.8616L37.114 56.5616L36.4041 54.4316L37.114 53.7616L35.4641 52.4616L35.834 51.7216L34.6941 50.4116L37.614 50.6816L39.394 47.4616L37.304 42.0316L33.5641 40.0116L31.6341 37.4716L29.8741 38.2016L30.494 35.9416L28.244 35.0916L27.8741 33.3316L25.1641 34.5016L23.204 33.8516L24.1841 30.5716L22.804 30.1416L22.514 28.8216L20.234 28.5316L18.244 29.6216L17.7141 32.1416L15.734 31.6916L13.834 34.3316L14.734 35.3916L13.854 35.9216L11.7541 35.2816L11.114 32.8716L7.75406 34.8016L7.29404 34.2716L8.16406 33.3916L7.43405 32.0016L4.70404 31.8716L4.65405 29.8416L6.66406 28.6616L8.44406 25.5816L5.90405 23.6116L4.35403 24.0816L3.35403 22.4016L1.97406 23.0316L0.664062 21.5916L3.13406 20.7216L3.67404 17.8316L5.24405 17.1116L8.24405 19.4416L12.324 20.3516L16.054 19.9316L16.9141 18.5116L15.8741 18.0716L16.2841 16.7316L17.674 16.1616L22.8841 19.5716L24.2841 18.9916L26.1341 19.6416L28.304 17.6016L28.1541 16.3816L30.2541 17.5316L29.544 15.7516L28.7141 15.6516L29.1541 12.8716L30.304 12.0416L28.5941 11.0216L28.1541 9.31158L29.364 7.77158L26.604 4.55161L27.9041 3.52158L29.244 3.82159L31.264 0.371582Z"/>
</mask>
<path d="M31.264 0.371582L32.9041 1.1716L32.834 2.7016L34.1941 3.52158L33.014 4.3316L33.744 5.93158L32.8441 7.93158L33.494 8.62158L36.7241 7.50159L37.264 8.85159L38.744 8.57159L42.014 11.6316L43.3141 10.0516L43.2841 8.7316L44.8841 7.3916L47.614 6.9216L47.764 10.1616L49.524 10.5816L50.1541 7.3916L52.3141 7.0816L52.5941 7.9516L54.1241 8.1416L54.524 9.4816L58.294 11.3116L59.274 14.4916L60.6941 14.5616L61.2841 16.1116L60.604 20.6916L61.244 22.2116L63.984 23.1216L66.3741 26.4916L66.2541 27.7516L65.0641 27.6616L65.1341 29.0316L62.084 31.3516L57.9741 34.5716L59.044 35.8216L58.0341 36.6316L58.3841 39.4316L56.774 42.6516L57.4041 44.9416L53.7541 43.7016L51.484 44.2716L49.014 48.4616L50.9141 49.1216L50.484 50.4416L45.1641 53.5216L44.334 52.4116L44.744 53.9616L41.3441 55.6116L40.9041 57.8616L37.114 56.5616L36.4041 54.4316L37.114 53.7616L35.4641 52.4616L35.834 51.7216L34.6941 50.4116L37.614 50.6816L39.394 47.4616L37.304 42.0316L33.5641 40.0116L31.6341 37.4716L29.8741 38.2016L30.494 35.9416L28.244 35.0916L27.8741 33.3316L25.1641 34.5016L23.204 33.8516L24.1841 30.5716L22.804 30.1416L22.514 28.8216L20.234 28.5316L18.244 29.6216L17.7141 32.1416L15.734 31.6916L13.834 34.3316L14.734 35.3916L13.854 35.9216L11.7541 35.2816L11.114 32.8716L7.75406 34.8016L7.29404 34.2716L8.16406 33.3916L7.43405 32.0016L4.70404 31.8716L4.65405 29.8416L6.66406 28.6616L8.44406 25.5816L5.90405 23.6116L4.35403 24.0816L3.35403 22.4016L1.97406 23.0316L0.664062 21.5916L3.13406 20.7216L3.67404 17.8316L5.24405 17.1116L8.24405 19.4416L12.324 20.3516L16.054 19.9316L16.9141 18.5116L15.8741 18.0716L16.2841 16.7316L17.674 16.1616L22.8841 19.5716L24.2841 18.9916L26.1341 19.6416L28.304 17.6016L28.1541 16.3816L30.2541 17.5316L29.544 15.7516L28.7141 15.6516L29.1541 12.8716L30.304 12.0416L28.5941 11.0216L28.1541 9.31158L29.364 7.77158L26.604 4.55161L27.9041 3.52158L29.244 3.82159L31.264 0.371582Z" fill="black" stroke="white" stroke-width="2" mask="url(#path-1-inside-1_353_577)"/>
</svg>
