<svg width="70" height="44" viewBox="0 0 70 44" fill="none" xmlns="http://www.w3.org/2000/svg">
<path d="M38.0033 7.23508L40.7983 5.62962L41.2711 7.40983L41.3424 7.67868L41.6085 7.75977L43.7085 8.39979L43.9215 8.4647L44.1122 8.34983L44.9922 7.81983L45.4962 7.51633L45.1154 7.0679L44.4682 6.30565L45.9271 4.2726L47.5835 4.64907L48.079 4.76169L48.1836 4.26441L48.6663 1.96953L50.3122 1.06799L52.0816 1.29303L52.2959 2.26879L52.3583 2.55246L52.6356 2.63886L53.5438 2.92185L52.7052 5.72835L52.5663 6.19332L53.0269 6.34607L54.9869 6.99607L55.1676 7.05601L55.3425 6.98053L57.4908 6.05302L57.735 7.21438L57.7914 7.48245L58.0476 7.57925L59.8717 8.26831L59.3721 10.0892L59.1017 11.075L60.0458 10.6833L61.4495 10.1011L63.1462 12.334L63.2116 12.4201L63.3067 12.4714L66.8841 14.4036L68.8239 19.4436L67.3148 22.1735L64.7203 21.9336L63.4782 21.8188L64.2971 22.7597L65.2174 23.8172L65.1379 23.9762L62.5128 23.9316L62.4021 23.9297L62.3009 23.9747L57.1809 26.2547L57.1027 26.2895L57.0406 26.3484L52.5916 30.5601L46.314 33.8177L46.2293 33.8617L46.1667 33.9337L41.0907 39.7803L37.6799 39.0428L37.5808 39.0213L37.4811 39.0403L34.1611 39.6703L34.0315 39.6949L33.931 39.7801L29.8095 43.2746L28.9164 42.2875L28.9151 42.286L28.2164 41.5075L28.0128 41.2806L27.7178 41.3577L26.5417 41.6652L26.137 41.0245L25.9972 40.8031L25.7355 40.792L23.3428 40.6903L22.4211 39.7513L22.2338 39.5604L21.971 39.6103L20.7156 39.8487L20.5016 37.7801L20.4449 37.2317L19.9047 37.3415L17.643 37.8014L15.7643 37.0354V35.2415V35.0359L15.6197 34.8898L14.6697 33.9298L13.7888 33.0396L13.8144 34.2917L13.866 36.8129L11.675 37.3036L10.9795 37.4594L11.3627 38.0603L11.6285 38.4771L10.1491 40.7239L8.02626 40.0033L7.33646 37.4892L6.97121 36.158L6.39922 37.4143L5.92138 38.4639L4.17301 39.1794L3.06599 36.8471L2.97953 36.6649L2.79089 36.5937L1.27967 36.0232L1.95764 33.9742L3.07833 33.5023L3.73616 33.2253L3.25112 32.7017L2.75719 32.1685L6.27471 29.6585L6.57666 29.443L6.45802 29.0916L5.96507 27.6313L6.03476 27.0969L6.17467 27.1166L7.47055 27.2988L6.62634 26.2989L4.3483 23.6008L5.42219 19.0045L7.85962 19.6908L9.22035 21.3218L9.49888 21.6557L9.86818 21.4262L12.2251 19.9616L16.0809 19.12L16.3119 19.0696L16.4195 18.8591L17.4641 16.8161L19.1819 16.129L22.1981 16.9826L22.9153 17.1856L22.8311 16.445L22.5122 13.641L23.336 12.4451L23.5127 12.1888L23.3605 11.9171L22.3969 10.1971L22.8006 8.93976L28.3045 10.1793L28.4979 10.2228L28.6686 10.122L30.3786 9.112L30.7174 8.91187L30.6025 8.5355L30.0918 6.86264L31.0294 5.46393L34.0397 5.49146L34.3284 5.49411L34.475 5.24533L34.9819 4.38528L37.1247 4.48732L37.5515 5.30012L36.9387 5.91995L36.613 6.24937L36.9167 6.59922L37.3767 7.12925L37.6465 7.44008L38.0033 7.23508Z" fill="black" stroke="white"/>
</svg>
