<svg width="67" height="81" viewBox="0 0 67 81" fill="none" xmlns="http://www.w3.org/2000/svg">
<mask id="path-1-inside-1_353_580" fill="white">
<path d="M9.17401 0.921631L10.064 2.39163L9.26401 2.44162L8.944 3.84161L14.534 8.06161L19.844 13.6016L24.634 28.7816L28.534 33.3616L29.044 32.9916L25.484 26.2916L23.544 14.6816L28.514 15.1016L28.854 13.5816L29.784 16.5316L33.624 16.6816L35.704 17.6816L35.564 19.3716L36.384 19.8516L35.774 21.7216L37.334 25.5116L38.704 23.9816L40.224 25.8216L40.484 25.1816L41.634 25.5416L42.524 27.1716L45.344 28.3716L47.304 28.6516L49.314 26.7916L51.624 27.9416L52.944 26.9316L55.114 27.1416L56.284 29.7816L53.334 36.9816L54.664 38.9216L51.844 42.5416L54.174 42.7216L56.194 44.5116L57.344 43.6616L57.834 44.5016L59.354 43.8916L61.154 44.4416L63.294 42.2616L63.144 41.3716L64.744 41.6616L66.264 42.9016L65.174 44.2116L64.234 44.0616L65.674 47.7316L63.994 48.4516L62.754 47.5916L62.384 49.9816L61.674 50.1116L61.114 48.3616L60.594 49.4216L59.194 49.2716L58.904 51.0916L58.294 50.6116L57.494 51.3016L58.994 53.3316L61.004 53.6216L60.164 55.2816L59.134 54.9616L59.634 56.6016L56.764 58.0916L56.254 60.1016L53.444 60.0316L54.224 61.2016L52.764 62.8516L52.874 65.2916L53.764 65.9416L52.764 67.7016L54.384 70.1616L50.124 71.3916L49.854 72.3516L51.904 74.7616L51.994 76.1816L49.774 78.2416L48.294 77.9816L47.524 78.7916L45.404 76.1316L43.944 76.6216L43.984 80.1016L42.044 80.8416L37.054 79.9516L37.284 75.3416L35.314 74.5216L35.264 73.3116L31.764 72.3716L31.384 70.9816L26.614 68.7616L27.274 67.9416L26.564 65.8916L20.994 66.5216L19.644 67.6816L15.064 66.3116L10.554 67.5316L12.494 64.1516L12.284 62.6016L10.644 62.6516L8.254 61.1816L7.32401 62.9216L1.18401 64.9416L1.07401 60.5016L3.774 53.7316L5.774 53.9416L5.894 54.8316L11.564 55.1616L10.734 52.6516L8.84401 51.6816L10.324 51.6616L4.784 47.0416L4.524 48.8116L2.254 51.3616L1.48401 56.3916L0.854004 55.3516L4.98401 16.4116L5.20401 5.96161L7.79401 1.19162L9.18401 0.171631L9.17401 0.921631Z"/>
</mask>
<path d="M9.17401 0.921631L10.064 2.39163L9.26401 2.44162L8.944 3.84161L14.534 8.06161L19.844 13.6016L24.634 28.7816L28.534 33.3616L29.044 32.9916L25.484 26.2916L23.544 14.6816L28.514 15.1016L28.854 13.5816L29.784 16.5316L33.624 16.6816L35.704 17.6816L35.564 19.3716L36.384 19.8516L35.774 21.7216L37.334 25.5116L38.704 23.9816L40.224 25.8216L40.484 25.1816L41.634 25.5416L42.524 27.1716L45.344 28.3716L47.304 28.6516L49.314 26.7916L51.624 27.9416L52.944 26.9316L55.114 27.1416L56.284 29.7816L53.334 36.9816L54.664 38.9216L51.844 42.5416L54.174 42.7216L56.194 44.5116L57.344 43.6616L57.834 44.5016L59.354 43.8916L61.154 44.4416L63.294 42.2616L63.144 41.3716L64.744 41.6616L66.264 42.9016L65.174 44.2116L64.234 44.0616L65.674 47.7316L63.994 48.4516L62.754 47.5916L62.384 49.9816L61.674 50.1116L61.114 48.3616L60.594 49.4216L59.194 49.2716L58.904 51.0916L58.294 50.6116L57.494 51.3016L58.994 53.3316L61.004 53.6216L60.164 55.2816L59.134 54.9616L59.634 56.6016L56.764 58.0916L56.254 60.1016L53.444 60.0316L54.224 61.2016L52.764 62.8516L52.874 65.2916L53.764 65.9416L52.764 67.7016L54.384 70.1616L50.124 71.3916L49.854 72.3516L51.904 74.7616L51.994 76.1816L49.774 78.2416L48.294 77.9816L47.524 78.7916L45.404 76.1316L43.944 76.6216L43.984 80.1016L42.044 80.8416L37.054 79.9516L37.284 75.3416L35.314 74.5216L35.264 73.3116L31.764 72.3716L31.384 70.9816L26.614 68.7616L27.274 67.9416L26.564 65.8916L20.994 66.5216L19.644 67.6816L15.064 66.3116L10.554 67.5316L12.494 64.1516L12.284 62.6016L10.644 62.6516L8.254 61.1816L7.32401 62.9216L1.18401 64.9416L1.07401 60.5016L3.774 53.7316L5.774 53.9416L5.894 54.8316L11.564 55.1616L10.734 52.6516L8.84401 51.6816L10.324 51.6616L4.784 47.0416L4.524 48.8116L2.254 51.3616L1.48401 56.3916L0.854004 55.3516L4.98401 16.4116L5.20401 5.96161L7.79401 1.19162L9.18401 0.171631L9.17401 0.921631Z" fill="black" stroke="white" stroke-width="2" mask="url(#path-1-inside-1_353_580)"/>
</svg>
