<svg width="55" height="60" viewBox="0 0 55 60" fill="none" xmlns="http://www.w3.org/2000/svg">
<mask id="path-1-inside-1_353_584" fill="white">
<path d="M23.8541 1.28157L24.8041 0.371582L25.1641 1.94157L26.2241 0.991577L27.7541 2.11157L28.9441 1.25157L32.7241 2.44157L34.2641 1.58157L33.2841 4.39157L34.0541 7.20157L35.6041 6.88158L36.4441 5.16158L39.4141 5.91158L39.6541 8.11157L41.1541 6.63158L42.3941 9.14157L42.9841 8.81157L41.6341 11.3016L42.6641 11.8316L43.3741 15.5516L44.4441 15.3416L45.3241 16.3816L44.4841 17.6716L43.2741 17.5416L44.8641 19.9116L44.0741 21.2516L44.8341 22.2516L43.7941 23.7516L44.1141 25.1416L46.5341 27.1216L47.0541 26.2116L49.8841 26.2816L53.3541 32.4916L54.8741 36.6216L52.7241 37.5616L52.6641 39.3416H51.8641L50.3041 42.4016L49.3841 42.9316L46.7541 41.3116L44.0141 42.0916L42.0541 44.0116L42.4441 46.4616L41.2641 47.4316L40.1741 54.9816L39.1341 55.6216L40.2341 58.3816L39.0741 58.0416L38.0341 59.6516L36.7141 58.4616L34.2841 59.0116L32.1041 56.5316L31.3241 52.8716L29.5041 52.2716L27.5141 49.6316L26.9841 45.3516L24.5941 44.6116L23.9141 43.3016L21.8441 43.3916L23.1141 46.3616L19.2641 46.2616L16.4841 48.0416L13.4441 46.8316L11.7141 47.9716L10.3741 44.3316L11.2641 43.8516L10.8641 40.6416L9.42413 41.1616L9.37413 39.6516L8.46413 39.4016L7.13412 40.4716L5.69412 40.1616L6.59413 38.1816L5.83412 36.7416L5.01413 37.6016L3.88412 37.2216L4.10413 36.1416L1.61412 36.5016L1.57413 34.8716L0.524124 33.7716L1.07413 32.2416L0.474121 31.8516L1.55412 30.5116L1.47412 26.6116L4.35413 22.6316L4.05412 21.7316L5.83412 20.5016L4.61412 19.4216L7.46413 13.2516L7.65413 11.5916L6.32413 10.8616L7.94412 7.49158L7.75412 6.58157L9.04413 6.45157L13.9941 9.07158L15.0141 8.45157L13.4141 5.93158L14.1941 4.46158L15.8941 6.13158L16.9341 5.96158L17.5441 4.38158L19.7441 3.67157L20.6141 3.64157L23.0241 2.72157L23.8541 1.28157Z"/>
</mask>
<path d="M23.8541 1.28157L24.8041 0.371582L25.1641 1.94157L26.2241 0.991577L27.7541 2.11157L28.9441 1.25157L32.7241 2.44157L34.2641 1.58157L33.2841 4.39157L34.0541 7.20157L35.6041 6.88158L36.4441 5.16158L39.4141 5.91158L39.6541 8.11157L41.1541 6.63158L42.3941 9.14157L42.9841 8.81157L41.6341 11.3016L42.6641 11.8316L43.3741 15.5516L44.4441 15.3416L45.3241 16.3816L44.4841 17.6716L43.2741 17.5416L44.8641 19.9116L44.0741 21.2516L44.8341 22.2516L43.7941 23.7516L44.1141 25.1416L46.5341 27.1216L47.0541 26.2116L49.8841 26.2816L53.3541 32.4916L54.8741 36.6216L52.7241 37.5616L52.6641 39.3416H51.8641L50.3041 42.4016L49.3841 42.9316L46.7541 41.3116L44.0141 42.0916L42.0541 44.0116L42.4441 46.4616L41.2641 47.4316L40.1741 54.9816L39.1341 55.6216L40.2341 58.3816L39.0741 58.0416L38.0341 59.6516L36.7141 58.4616L34.2841 59.0116L32.1041 56.5316L31.3241 52.8716L29.5041 52.2716L27.5141 49.6316L26.9841 45.3516L24.5941 44.6116L23.9141 43.3016L21.8441 43.3916L23.1141 46.3616L19.2641 46.2616L16.4841 48.0416L13.4441 46.8316L11.7141 47.9716L10.3741 44.3316L11.2641 43.8516L10.8641 40.6416L9.42413 41.1616L9.37413 39.6516L8.46413 39.4016L7.13412 40.4716L5.69412 40.1616L6.59413 38.1816L5.83412 36.7416L5.01413 37.6016L3.88412 37.2216L4.10413 36.1416L1.61412 36.5016L1.57413 34.8716L0.524124 33.7716L1.07413 32.2416L0.474121 31.8516L1.55412 30.5116L1.47412 26.6116L4.35413 22.6316L4.05412 21.7316L5.83412 20.5016L4.61412 19.4216L7.46413 13.2516L7.65413 11.5916L6.32413 10.8616L7.94412 7.49158L7.75412 6.58157L9.04413 6.45157L13.9941 9.07158L15.0141 8.45157L13.4141 5.93158L14.1941 4.46158L15.8941 6.13158L16.9341 5.96158L17.5441 4.38158L19.7441 3.67157L20.6141 3.64157L23.0241 2.72157L23.8541 1.28157Z" fill="black" stroke="white" stroke-width="2" mask="url(#path-1-inside-1_353_584)"/>
</svg>
