<svg width="59" height="41" viewBox="0 0 59 41" fill="none" xmlns="http://www.w3.org/2000/svg">
<mask id="path-1-inside-1_353_590" fill="white">
<path d="M1.45386 5.26169L4.26385 5.29169L6.61386 2.78168L8.79385 2.40167L9.26385 1.19168L10.3639 2.56168L11.5539 1.0817L12.5339 2.3317L14.2539 2.50168L16.0039 2.3017L17.6039 0.72168L18.8039 2.48169L20.4839 2.27167L22.4639 6.0517L24.3839 4.66168L24.6339 3.37167L26.2239 3.89169L25.9139 4.82169L29.0039 5.45169L30.1239 2.91168L31.5139 3.42169L31.5839 4.43167L34.0939 4.92169L34.5339 6.34167L35.6939 4.07169L37.3639 3.84167L39.1039 6.65167L39.2039 5.39169L40.2539 5.01169L41.3039 6.18167L41.7239 4.86169L44.7339 4.47168L44.9439 3.04169H48.0239L49.6439 4.87167L51.1439 4.06168L52.7139 4.61169L53.5839 6.11169L52.1039 7.24167L53.7339 8.20169L52.8339 9.78168L54.0139 10.5717L54.5139 10.7617L56.4239 9.78168L58.3639 12.0617L58.2239 14.7417L56.7139 17.3817L57.3139 18.9417L56.5239 18.7317L56.4139 19.4717L55.8839 17.9217L53.8439 17.4817L54.8839 19.7617L53.2239 20.0917L52.6939 21.9317L54.2039 23.5017L50.6339 24.7817L50.3839 26.1117L51.3539 27.4917L47.6639 28.0717L44.8239 33.3417L39.7639 33.3817L39.5039 35.6417L38.5639 35.3817L38.3339 36.4417L37.6039 35.6817L37.8439 36.9317L36.2239 36.0317L34.6239 38.8817L35.1539 39.4317L32.5739 40.8517L31.5039 40.6417L31.8039 39.2217L30.4139 39.6617L28.4039 37.5517L27.6639 35.3717L24.4739 35.9217L24.7539 34.2917L22.9539 32.8517L21.4439 33.1717L21.2339 36.0717L20.4639 35.5017L16.6439 37.0417L14.1039 31.8517L13.5839 28.4217L13.0239 28.8017L11.7939 27.6017L11.0939 26.7517L12.1739 25.6617L10.3839 25.3517L10.7939 24.4317L9.79385 24.8117L9.21387 24.0117L9.75388 21.0017L8.54385 19.8517L11.7639 19.8317L8.79385 18.8417L7.63388 15.7317V15.1517L8.13388 13.6817L6.61386 13.1017L6.04385 9.67169L3.61386 10.1617L3.43387 8.60168L0.213867 8.95169L1.53387 7.73169L0.553864 6.87167L1.47388 6.70169L1.45386 5.26169Z"/>
</mask>
<path d="M1.45386 5.26169L4.26385 5.29169L6.61386 2.78168L8.79385 2.40167L9.26385 1.19168L10.3639 2.56168L11.5539 1.0817L12.5339 2.3317L14.2539 2.50168L16.0039 2.3017L17.6039 0.72168L18.8039 2.48169L20.4839 2.27167L22.4639 6.0517L24.3839 4.66168L24.6339 3.37167L26.2239 3.89169L25.9139 4.82169L29.0039 5.45169L30.1239 2.91168L31.5139 3.42169L31.5839 4.43167L34.0939 4.92169L34.5339 6.34167L35.6939 4.07169L37.3639 3.84167L39.1039 6.65167L39.2039 5.39169L40.2539 5.01169L41.3039 6.18167L41.7239 4.86169L44.7339 4.47168L44.9439 3.04169H48.0239L49.6439 4.87167L51.1439 4.06168L52.7139 4.61169L53.5839 6.11169L52.1039 7.24167L53.7339 8.20169L52.8339 9.78168L54.0139 10.5717L54.5139 10.7617L56.4239 9.78168L58.3639 12.0617L58.2239 14.7417L56.7139 17.3817L57.3139 18.9417L56.5239 18.7317L56.4139 19.4717L55.8839 17.9217L53.8439 17.4817L54.8839 19.7617L53.2239 20.0917L52.6939 21.9317L54.2039 23.5017L50.6339 24.7817L50.3839 26.1117L51.3539 27.4917L47.6639 28.0717L44.8239 33.3417L39.7639 33.3817L39.5039 35.6417L38.5639 35.3817L38.3339 36.4417L37.6039 35.6817L37.8439 36.9317L36.2239 36.0317L34.6239 38.8817L35.1539 39.4317L32.5739 40.8517L31.5039 40.6417L31.8039 39.2217L30.4139 39.6617L28.4039 37.5517L27.6639 35.3717L24.4739 35.9217L24.7539 34.2917L22.9539 32.8517L21.4439 33.1717L21.2339 36.0717L20.4639 35.5017L16.6439 37.0417L14.1039 31.8517L13.5839 28.4217L13.0239 28.8017L11.7939 27.6017L11.0939 26.7517L12.1739 25.6617L10.3839 25.3517L10.7939 24.4317L9.79385 24.8117L9.21387 24.0117L9.75388 21.0017L8.54385 19.8517L11.7639 19.8317L8.79385 18.8417L7.63388 15.7317V15.1517L8.13388 13.6817L6.61386 13.1017L6.04385 9.67169L3.61386 10.1617L3.43387 8.60168L0.213867 8.95169L1.53387 7.73169L0.553864 6.87167L1.47388 6.70169L1.45386 5.26169Z" fill="black" stroke="white" stroke-width="2" mask="url(#path-1-inside-1_353_590)"/>
</svg>
