<svg width="68" height="61" viewBox="0 0 68 61" fill="none" xmlns="http://www.w3.org/2000/svg">
<mask id="path-1-inside-1_353_591" fill="white">
<path d="M19.1542 13.2216L24.3442 9.37163L25.1042 10.7516L29.0442 8.46162L34.7942 9.13162L35.9442 8.20161L37.4342 8.37163L38.9242 5.08162L45.1142 2.65163L44.8742 0.661621L48.6342 1.10162L49.6642 2.89162L54.5042 4.28162L55.0142 5.54163L54.1842 7.08162L56.6242 7.65163L57.4842 9.35162L57.4142 9.96162L57.1842 11.2116L58.1242 11.3816L59.0042 13.9216L64.4842 15.7916L62.9642 17.4116L57.5642 16.8216L58.2242 20.6616L66.0842 21.7416L66.8642 26.1416L67.9442 27.4116L65.7242 29.1516L58.7442 29.2616L52.6542 31.0516L50.0442 33.2216L52.4642 33.1216L54.6942 36.9316L56.6742 36.4116L57.9642 40.5016L57.9442 40.7616L54.8642 43.4316L55.4542 44.5316L54.4342 45.7316L57.7142 46.1016L58.2942 47.3816L59.9142 47.9416L59.8942 49.1616L58.6442 50.0216L56.3942 49.3116L53.5342 46.5916L52.2942 49.6716L50.4142 49.0016L49.0642 49.8116L49.6242 54.3216L45.5542 56.1716L45.1842 49.8616L43.8842 49.3916L41.6842 50.9116L42.2342 51.6716L41.6442 53.0116L43.2042 55.3716L42.7842 56.4516L42.0942 56.2816L43.9742 59.0016L42.1742 59.3916L42.0342 60.2216L37.2842 59.3816L36.2842 58.4116L34.8042 58.7916L33.8242 56.1016L30.6442 55.9816L30.4042 54.5916L27.4142 54.1116L26.7642 52.3416L25.7042 52.1616L24.1442 49.9816L21.0742 46.0016L13.0042 43.6616L16.3642 41.4916L16.1542 35.6616L14.4842 35.3016L10.9442 37.4816L7.68418 34.8016L5.94418 34.9016L5.34418 36.0216L0.64418 34.0816L2.14418 32.9616L2.26418 31.1516L0.0341797 28.9516L4.21418 25.9416L4.23418 24.4516L5.66418 22.6816L6.56418 23.9516L10.0642 23.6616L10.8442 20.2816L12.4742 20.4116L13.0642 21.6016L15.5542 20.4916L15.3842 21.5716L16.4442 21.8916L16.7042 19.9416L19.1642 19.2516L19.0542 15.4916L19.8542 14.4316L19.1542 13.2216Z"/>
</mask>
<path d="M19.1542 13.2216L24.3442 9.37163L25.1042 10.7516L29.0442 8.46162L34.7942 9.13162L35.9442 8.20161L37.4342 8.37163L38.9242 5.08162L45.1142 2.65163L44.8742 0.661621L48.6342 1.10162L49.6642 2.89162L54.5042 4.28162L55.0142 5.54163L54.1842 7.08162L56.6242 7.65163L57.4842 9.35162L57.4142 9.96162L57.1842 11.2116L58.1242 11.3816L59.0042 13.9216L64.4842 15.7916L62.9642 17.4116L57.5642 16.8216L58.2242 20.6616L66.0842 21.7416L66.8642 26.1416L67.9442 27.4116L65.7242 29.1516L58.7442 29.2616L52.6542 31.0516L50.0442 33.2216L52.4642 33.1216L54.6942 36.9316L56.6742 36.4116L57.9642 40.5016L57.9442 40.7616L54.8642 43.4316L55.4542 44.5316L54.4342 45.7316L57.7142 46.1016L58.2942 47.3816L59.9142 47.9416L59.8942 49.1616L58.6442 50.0216L56.3942 49.3116L53.5342 46.5916L52.2942 49.6716L50.4142 49.0016L49.0642 49.8116L49.6242 54.3216L45.5542 56.1716L45.1842 49.8616L43.8842 49.3916L41.6842 50.9116L42.2342 51.6716L41.6442 53.0116L43.2042 55.3716L42.7842 56.4516L42.0942 56.2816L43.9742 59.0016L42.1742 59.3916L42.0342 60.2216L37.2842 59.3816L36.2842 58.4116L34.8042 58.7916L33.8242 56.1016L30.6442 55.9816L30.4042 54.5916L27.4142 54.1116L26.7642 52.3416L25.7042 52.1616L24.1442 49.9816L21.0742 46.0016L13.0042 43.6616L16.3642 41.4916L16.1542 35.6616L14.4842 35.3016L10.9442 37.4816L7.68418 34.8016L5.94418 34.9016L5.34418 36.0216L0.64418 34.0816L2.14418 32.9616L2.26418 31.1516L0.0341797 28.9516L4.21418 25.9416L4.23418 24.4516L5.66418 22.6816L6.56418 23.9516L10.0642 23.6616L10.8442 20.2816L12.4742 20.4116L13.0642 21.6016L15.5542 20.4916L15.3842 21.5716L16.4442 21.8916L16.7042 19.9416L19.1642 19.2516L19.0542 15.4916L19.8542 14.4316L19.1542 13.2216Z" fill="black" stroke="white" stroke-width="2" mask="url(#path-1-inside-1_353_591)"/>
</svg>
