<svg width="51" height="50" viewBox="0 0 51 50" fill="none" xmlns="http://www.w3.org/2000/svg">
<path d="M19.5957 2.205L22.8117 0.846368L22.967 1.34129L23.1502 1.92538L23.6859 1.6292L24.7427 1.04499L27.3246 1.70141L29.7183 5.0239L29.8026 5.14082L29.9361 5.19497L31.4299 5.80077L31.4441 6.6104L31.45 6.94337L31.7595 7.06631L33.8994 7.91632L34.1558 8.01815L34.3787 7.85556L38.6009 4.77522L39.4176 4.93977L39.6497 5.84572L39.8438 6.60336L40.45 6.10914L41.8889 4.93597L44.4524 4.85406L44.9907 6.88947L45.0351 7.0574L45.174 7.16163L45.8501 7.66869L45.407 8.24776L45.2785 8.41561L45.3094 8.62471L45.5694 10.3847L45.586 10.4971L45.6496 10.5913L48.8531 15.339L47.1885 20.457L46.9864 21.0786L47.6393 21.111L48.4435 21.1509L48.9202 24.1696L48.951 24.3648L49.1069 24.4861L50.3435 25.4489L50.1685 26.1887L50.0733 26.1053L49.757 25.8286L49.4299 26.0926L47.7628 27.4384L46.022 26.5466L45.6179 26.3396L45.373 26.7219L45.2004 26.9913L45.0623 26.3725L44.4418 26.8433L38.3918 31.4333L38.2114 31.5702L38.0235 31.4055L37.3399 30.8066L37.2 31.7047L37.0692 32.5445L35.6418 32.6944L35.1129 32.7499L35.2009 33.2744L35.6509 35.9544L35.6853 36.1594L35.855 36.2796L36.5578 36.7774L36.3513 37.9768L36.313 38.199L36.4543 38.3748L37.9852 40.2801L37.1704 40.9527L35.1428 41.7108L33.9912 41.1866L33.5463 40.984L33.3338 41.4243L32.7373 42.6597L31.881 42.1189L31.7117 42.012L31.5154 42.0514L29.7254 42.4114L29.5679 42.4431L29.4583 42.5606L28.1497 43.9639L27.5158 43.3363L26.8928 43.9415L26.894 43.8166L26.8983 43.3822L26.4688 43.3172L24.6188 43.0372L24.1489 42.9661L24.0541 43.4318L23.7241 45.0518L23.6857 45.2403L23.7836 45.406L24.4365 46.5109L23.5138 47.0431L23.0981 45.8027L23.0255 45.5861L22.8143 45.4992L21.2713 44.8644L20.8456 43.6556L20.3253 42.178L19.8934 43.6838L19.2201 46.0308L15.8832 48.5036L15.2031 47.4588L15.083 47.2744L14.8659 47.2384L13.1669 46.9565L13.8699 44.0595L14.0725 43.2249L13.2467 43.4609L11.2867 44.0209L11.0132 44.099L10.9406 44.3739L10.8473 44.7271L10.2983 44.3274L9.78813 43.956L9.54321 44.5376L9.4995 44.6414L8.78435 43.9821L8.82346 43.1449L8.84442 42.6962L8.4005 42.6275L6.20061 42.2869L4.75059 40.5036L4.89243 40.0437L6.34127 40.0516L6.79911 40.0541L6.84184 39.5983L6.96184 38.3183L7.0297 37.5944L6.32944 37.7901L3.90514 38.4676L3.52858 35.938L3.4913 35.6876L3.26741 35.5694L2.09233 34.9492L2.074 31.6988L2.07314 31.5464L1.98736 31.4203L1.30458 30.417L1.35256 30.4312L1.61051 30.5073L1.81618 30.334L4.21095 28.3164L5.1811 28.3414L5.8997 28.36L5.66714 27.6799L5.36702 26.8021L7.52053 24.6122L7.6804 24.4496L7.66249 24.2223L7.53555 22.6118L10.2579 21.916L10.4115 21.8768L10.5144 21.7562L12.1789 19.8055L12.5379 19.9876L13.064 20.2544L13.241 19.6916L13.5943 18.5679L13.8148 18.6318L14.3397 18.784L14.4447 18.2477L14.7247 16.8177L14.7908 16.48L14.499 16.2976L13.7036 15.8005L13.7216 15.2729L16.1934 14.4988L16.58 14.3777L16.5418 13.9745L16.3912 12.3846L19.3158 10.5876L19.7235 10.3371L19.4911 9.9188L18.6952 8.48627L19.294 8.31164L19.7604 8.17563L19.6379 7.70555L18.4696 3.22231L18.3788 2.82882L19.5957 2.205ZM26.887 44.5219L26.8909 44.1317L27.279 44.5471L27.2114 44.6933L26.887 44.5219Z" fill="black" stroke="white"/>
</svg>
