<svg width="45" height="63" viewBox="0 0 45 63" fill="none" xmlns="http://www.w3.org/2000/svg">
<mask id="path-1-inside-1_353_589" fill="white">
<path d="M9.13409 0.401611L9.56409 2.16162L8.77408 4.08163L12.1941 4.78162L13.0541 6.60162H14.0941L17.5941 5.01163L18.8441 6.30164L20.7241 6.50162L21.9441 5.27161L22.6941 6.27161L23.8841 5.68161L23.6941 7.42163L24.7541 7.55164L26.9241 5.83163L28.7241 5.86163L28.3541 4.98163L29.4241 3.73163L30.7741 4.30164L29.7841 5.61163L31.4241 7.29163L30.6041 8.77161L29.1241 7.97162L26.7141 9.12161L25.9341 12.7116L23.6941 13.9516L26.3241 16.5616L25.7741 17.5616L23.4741 17.2116L27.6641 21.0716L26.7141 22.6316L27.5541 24.1516L29.7841 25.2516L29.0141 29.7416L27.8041 30.5616L28.3441 31.6616L30.0341 32.0716L28.5041 36.4316L31.6541 39.2116L32.8441 41.4516L38.8741 42.0616L39.9841 43.9516L41.5641 42.9116L40.3541 44.6416L40.4541 47.2516L42.2641 47.8716L43.3441 46.8416L44.7841 49.1516L44.7341 54.4216L38.8841 57.6016L39.2041 58.8016L37.8741 59.8416L38.3041 61.2016L33.3641 62.0616L31.4241 59.7816L29.5141 60.7616L29.0141 60.5716L27.8341 59.7816L28.7341 58.2016L27.1041 57.2416L28.5841 56.1116L27.7141 54.6116L26.1441 54.0616L24.6441 54.8716L23.0241 53.0416H19.9441L19.7341 54.4716L16.7241 54.8616L16.3041 56.1816L15.2541 55.0116L14.2041 55.3916L14.1041 56.6516L12.3641 53.8416L10.6941 54.0716L9.53409 56.3416L9.09409 54.9216L8.85406 52.4316L11.8341 50.2916L12.7241 46.7616L11.7341 46.1316L10.6041 41.9016L6.03409 38.7416L4.09409 35.2016L4.24408 33.2116L2.24408 31.7116L2.19409 30.2716L0.434082 29.2916L1.82407 27.9616L1.53409 24.6016L3.15408 23.6616L0.594086 21.0416L1.21408 18.4616L2.65408 18.9316L3.17407 17.9016L4.50409 18.4716L6.30408 16.9316L5.23407 13.7016L5.90408 11.6016L4.72409 10.2116L4.57407 7.58163L5.37408 7.16162L3.68408 2.60162L5.18408 2.51163L5.13409 1.46161L7.80408 1.21161L8.24408 0.401611H9.13409Z"/>
</mask>
<path d="M9.13409 0.401611L9.56409 2.16162L8.77408 4.08163L12.1941 4.78162L13.0541 6.60162H14.0941L17.5941 5.01163L18.8441 6.30164L20.7241 6.50162L21.9441 5.27161L22.6941 6.27161L23.8841 5.68161L23.6941 7.42163L24.7541 7.55164L26.9241 5.83163L28.7241 5.86163L28.3541 4.98163L29.4241 3.73163L30.7741 4.30164L29.7841 5.61163L31.4241 7.29163L30.6041 8.77161L29.1241 7.97162L26.7141 9.12161L25.9341 12.7116L23.6941 13.9516L26.3241 16.5616L25.7741 17.5616L23.4741 17.2116L27.6641 21.0716L26.7141 22.6316L27.5541 24.1516L29.7841 25.2516L29.0141 29.7416L27.8041 30.5616L28.3441 31.6616L30.0341 32.0716L28.5041 36.4316L31.6541 39.2116L32.8441 41.4516L38.8741 42.0616L39.9841 43.9516L41.5641 42.9116L40.3541 44.6416L40.4541 47.2516L42.2641 47.8716L43.3441 46.8416L44.7841 49.1516L44.7341 54.4216L38.8841 57.6016L39.2041 58.8016L37.8741 59.8416L38.3041 61.2016L33.3641 62.0616L31.4241 59.7816L29.5141 60.7616L29.0141 60.5716L27.8341 59.7816L28.7341 58.2016L27.1041 57.2416L28.5841 56.1116L27.7141 54.6116L26.1441 54.0616L24.6441 54.8716L23.0241 53.0416H19.9441L19.7341 54.4716L16.7241 54.8616L16.3041 56.1816L15.2541 55.0116L14.2041 55.3916L14.1041 56.6516L12.3641 53.8416L10.6941 54.0716L9.53409 56.3416L9.09409 54.9216L8.85406 52.4316L11.8341 50.2916L12.7241 46.7616L11.7341 46.1316L10.6041 41.9016L6.03409 38.7416L4.09409 35.2016L4.24408 33.2116L2.24408 31.7116L2.19409 30.2716L0.434082 29.2916L1.82407 27.9616L1.53409 24.6016L3.15408 23.6616L0.594086 21.0416L1.21408 18.4616L2.65408 18.9316L3.17407 17.9016L4.50409 18.4716L6.30408 16.9316L5.23407 13.7016L5.90408 11.6016L4.72409 10.2116L4.57407 7.58163L5.37408 7.16162L3.68408 2.60162L5.18408 2.51163L5.13409 1.46161L7.80408 1.21161L8.24408 0.401611H9.13409Z" fill="black" stroke="white" stroke-width="2" mask="url(#path-1-inside-1_353_589)"/>
</svg>
