<svg width="66" height="52" viewBox="0 0 66 52" fill="none" xmlns="http://www.w3.org/2000/svg">
<mask id="path-1-inside-1_353_596" fill="white">
<path d="M4.85396 0.241699L7.70396 2.14169L13.734 2.23169L15.554 3.22169L16.764 2.7917L15.834 1.9917L16.344 1.1217L17.574 1.22169L19.194 3.06169L21.414 3.7417L21.424 2.7617L22.334 2.56169L25.674 4.67169L30.994 4.7617L31.964 3.42169L34.114 3.9117L34.764 1.6017L37.424 3.5417L39.174 3.0117L38.994 2.0717L40.394 3.2917L41.484 5.03169L41.184 6.1017L44.394 5.78169L46.514 6.7717L47.924 5.48169L49.004 5.97169L47.224 8.0817L48.074 10.0617L50.544 11.0917L51.644 10.9817L52.394 9.28169L52.444 9.9917L53.264 9.53169L55.404 10.8917L56.184 10.3117L56.794 11.7617L58.824 12.9417L61.014 12.8117L62.264 14.2817L63.884 13.2617L63.944 12.1417L64.774 13.0017L65.754 12.5817L65.944 13.4917L64.324 16.8617L65.654 17.5917L65.464 19.2517L62.614 25.4217L63.834 26.5017L62.054 27.7317L62.354 28.6317L59.474 32.6117L59.554 36.5117L58.474 37.8517L59.074 38.2417L58.524 39.7717L57.044 39.1017L55.944 40.0117L54.564 42.8317L54.734 44.5017L52.654 43.6317L51.994 45.8517L50.864 46.4717L50.044 45.4817L48.974 45.6817L50.344 43.5617L48.594 43.1717L47.754 44.0217L45.214 43.3217L42.114 44.4717L39.774 44.2117L39.324 45.6917L37.214 45.5617L36.264 46.5017L37.164 44.7917L35.714 44.6717L33.154 45.8517L33.684 47.7717L31.384 49.9317L28.424 49.5517L28.074 50.5017L26.594 50.7217L23.574 49.4217L22.704 50.5217L21.264 50.3717L20.874 51.5817L19.234 51.2217L17.644 49.2817L16.364 50.0417L15.744 48.6517L12.474 49.5017L8.63396 48.0217L9.88396 47.1617L9.90396 45.9417L8.29396 45.3817L7.71396 44.1017L4.43396 43.7317L5.45396 42.5317L4.86395 41.4317L7.94395 38.7617L7.97395 38.5017L6.68396 34.4217L4.71396 34.9417L2.47395 31.1317L0.0639648 31.2317L2.67397 29.0617L8.75395 27.2717L15.734 27.1617L17.954 25.4217L16.874 24.1517L16.084 19.7517L8.22395 18.6617L7.56396 14.8317L12.964 15.4217L14.484 13.8017L9.00395 11.9317L8.12396 9.39169L7.18396 9.22169L7.41396 7.97169L7.48396 7.36169L6.62396 5.6517L4.18396 5.09169L5.01396 3.5517L4.50395 2.2917L4.85396 0.241699Z"/>
</mask>
<path d="M4.85396 0.241699L7.70396 2.14169L13.734 2.23169L15.554 3.22169L16.764 2.7917L15.834 1.9917L16.344 1.1217L17.574 1.22169L19.194 3.06169L21.414 3.7417L21.424 2.7617L22.334 2.56169L25.674 4.67169L30.994 4.7617L31.964 3.42169L34.114 3.9117L34.764 1.6017L37.424 3.5417L39.174 3.0117L38.994 2.0717L40.394 3.2917L41.484 5.03169L41.184 6.1017L44.394 5.78169L46.514 6.7717L47.924 5.48169L49.004 5.97169L47.224 8.0817L48.074 10.0617L50.544 11.0917L51.644 10.9817L52.394 9.28169L52.444 9.9917L53.264 9.53169L55.404 10.8917L56.184 10.3117L56.794 11.7617L58.824 12.9417L61.014 12.8117L62.264 14.2817L63.884 13.2617L63.944 12.1417L64.774 13.0017L65.754 12.5817L65.944 13.4917L64.324 16.8617L65.654 17.5917L65.464 19.2517L62.614 25.4217L63.834 26.5017L62.054 27.7317L62.354 28.6317L59.474 32.6117L59.554 36.5117L58.474 37.8517L59.074 38.2417L58.524 39.7717L57.044 39.1017L55.944 40.0117L54.564 42.8317L54.734 44.5017L52.654 43.6317L51.994 45.8517L50.864 46.4717L50.044 45.4817L48.974 45.6817L50.344 43.5617L48.594 43.1717L47.754 44.0217L45.214 43.3217L42.114 44.4717L39.774 44.2117L39.324 45.6917L37.214 45.5617L36.264 46.5017L37.164 44.7917L35.714 44.6717L33.154 45.8517L33.684 47.7717L31.384 49.9317L28.424 49.5517L28.074 50.5017L26.594 50.7217L23.574 49.4217L22.704 50.5217L21.264 50.3717L20.874 51.5817L19.234 51.2217L17.644 49.2817L16.364 50.0417L15.744 48.6517L12.474 49.5017L8.63396 48.0217L9.88396 47.1617L9.90396 45.9417L8.29396 45.3817L7.71396 44.1017L4.43396 43.7317L5.45396 42.5317L4.86395 41.4317L7.94395 38.7617L7.97395 38.5017L6.68396 34.4217L4.71396 34.9417L2.47395 31.1317L0.0639648 31.2317L2.67397 29.0617L8.75395 27.2717L15.734 27.1617L17.954 25.4217L16.874 24.1517L16.084 19.7517L8.22395 18.6617L7.56396 14.8317L12.964 15.4217L14.484 13.8017L9.00395 11.9317L8.12396 9.39169L7.18396 9.22169L7.41396 7.97169L7.48396 7.36169L6.62396 5.6517L4.18396 5.09169L5.01396 3.5517L4.50395 2.2917L4.85396 0.241699Z" fill="black" stroke="white" stroke-width="2" mask="url(#path-1-inside-1_353_596)"/>
</svg>
