<svg width="68" height="54" viewBox="0 0 68 54" fill="none" xmlns="http://www.w3.org/2000/svg">
<mask id="path-1-inside-1_353_592" fill="white">
<path d="M20.0242 3.71158L21.9742 3.84157L24.6242 2.44157L27.0642 2.96158L26.5742 1.87158L27.8042 2.16158L28.7042 0.121582L30.4742 0.881577L30.4542 2.96158L31.3542 1.92157L32.7242 2.14157L33.1842 1.08157L33.9442 0.831573L35.1842 2.38158L37.0642 1.89157L37.8742 5.37158L41.2842 6.71158L41.9942 9.07158L41.3142 11.7716L40.3442 11.2616L38.7042 13.7916L41.9342 13.7716L43.5042 12.7316L49.5742 13.8216L51.5942 12.4616L50.8542 11.1316L51.9542 11.9616L53.4542 11.0116L53.5442 13.3116L54.3042 13.4216L56.2442 11.7916L59.1842 11.3616L63.0242 13.2116L62.4642 14.2816L63.2842 14.2216L63.8642 16.9316L66.9742 19.6216L65.9242 20.2616L66.9942 21.0516L67.1142 23.1516L65.7642 24.6816L65.2742 25.0216L63.8842 26.9716L62.1842 27.2716L62.3342 29.2816L61.6242 29.6716L63.1542 30.7516L62.3442 31.7516L62.8542 34.6316L55.6442 36.4516L55.4842 38.9416L56.7542 38.7316L56.7742 39.7616L58.7342 41.1016L58.4342 41.9216L59.8642 43.3616L58.9942 44.5016L59.1642 46.2016L60.8242 48.0116L60.0842 48.7716L58.2642 48.2316L56.5242 49.5116L55.8542 49.0516L55.4642 49.8616L56.5842 50.9816L53.7842 52.5616L50.6542 49.9016L50.3542 52.6016L48.0142 53.2216L47.5342 51.6516L45.8042 50.7916L45.8842 49.7516L43.6542 47.8516L40.6742 48.0816L38.4542 45.5416L35.7242 47.0216L32.3042 44.3516L30.1942 44.8916L30.2842 43.6216L28.7142 41.3316L24.9442 41.8916L20.6442 41.3216L18.8042 42.6416L17.8442 42.5316L17.6642 41.2316L14.7242 41.5416L14.4242 40.4816L13.9442 42.5616L11.7342 43.8916L9.51416 42.4216L8.40417 37.9416L4.95416 36.4016L2.78418 38.4116L3.71417 37.4216L1.51416 35.7216L2.44418 34.0216L0.614166 32.5816L3.32416 28.9816L2.94418 27.5216L0.484161 25.7116L1.82416 24.4116L2.23416 22.1316L0.414185 22.6016L0.0341797 19.8216L1.54416 19.6516L1.43417 18.7716L3.46417 19.6016L3.66418 18.7816L4.53418 18.8716L4.70416 17.1516L6.14417 16.7416L6.59418 17.5916L7.35416 16.6816L9.68417 17.5516L11.8742 16.7216L12.0642 15.9016L13.1742 16.5816L15.4142 15.4216L16.9242 12.4216L16.2742 11.5716L17.0942 10.7116L19.1142 10.7416L18.1642 9.40158L18.8242 8.96158L19.0842 9.62158L19.4142 8.87158L18.6942 6.24158L20.0242 3.71158Z"/>
</mask>
<path d="M20.0242 3.71158L21.9742 3.84157L24.6242 2.44157L27.0642 2.96158L26.5742 1.87158L27.8042 2.16158L28.7042 0.121582L30.4742 0.881577L30.4542 2.96158L31.3542 1.92157L32.7242 2.14157L33.1842 1.08157L33.9442 0.831573L35.1842 2.38158L37.0642 1.89157L37.8742 5.37158L41.2842 6.71158L41.9942 9.07158L41.3142 11.7716L40.3442 11.2616L38.7042 13.7916L41.9342 13.7716L43.5042 12.7316L49.5742 13.8216L51.5942 12.4616L50.8542 11.1316L51.9542 11.9616L53.4542 11.0116L53.5442 13.3116L54.3042 13.4216L56.2442 11.7916L59.1842 11.3616L63.0242 13.2116L62.4642 14.2816L63.2842 14.2216L63.8642 16.9316L66.9742 19.6216L65.9242 20.2616L66.9942 21.0516L67.1142 23.1516L65.7642 24.6816L65.2742 25.0216L63.8842 26.9716L62.1842 27.2716L62.3342 29.2816L61.6242 29.6716L63.1542 30.7516L62.3442 31.7516L62.8542 34.6316L55.6442 36.4516L55.4842 38.9416L56.7542 38.7316L56.7742 39.7616L58.7342 41.1016L58.4342 41.9216L59.8642 43.3616L58.9942 44.5016L59.1642 46.2016L60.8242 48.0116L60.0842 48.7716L58.2642 48.2316L56.5242 49.5116L55.8542 49.0516L55.4642 49.8616L56.5842 50.9816L53.7842 52.5616L50.6542 49.9016L50.3542 52.6016L48.0142 53.2216L47.5342 51.6516L45.8042 50.7916L45.8842 49.7516L43.6542 47.8516L40.6742 48.0816L38.4542 45.5416L35.7242 47.0216L32.3042 44.3516L30.1942 44.8916L30.2842 43.6216L28.7142 41.3316L24.9442 41.8916L20.6442 41.3216L18.8042 42.6416L17.8442 42.5316L17.6642 41.2316L14.7242 41.5416L14.4242 40.4816L13.9442 42.5616L11.7342 43.8916L9.51416 42.4216L8.40417 37.9416L4.95416 36.4016L2.78418 38.4116L3.71417 37.4216L1.51416 35.7216L2.44418 34.0216L0.614166 32.5816L3.32416 28.9816L2.94418 27.5216L0.484161 25.7116L1.82416 24.4116L2.23416 22.1316L0.414185 22.6016L0.0341797 19.8216L1.54416 19.6516L1.43417 18.7716L3.46417 19.6016L3.66418 18.7816L4.53418 18.8716L4.70416 17.1516L6.14417 16.7416L6.59418 17.5916L7.35416 16.6816L9.68417 17.5516L11.8742 16.7216L12.0642 15.9016L13.1742 16.5816L15.4142 15.4216L16.9242 12.4216L16.2742 11.5716L17.0942 10.7116L19.1142 10.7416L18.1642 9.40158L18.8242 8.96158L19.0842 9.62158L19.4142 8.87158L18.6942 6.24158L20.0242 3.71158Z" fill="black" stroke="white" stroke-width="2" mask="url(#path-1-inside-1_353_592)"/>
</svg>
