<svg width="70" height="59" viewBox="0 0 70 59" fill="none" xmlns="http://www.w3.org/2000/svg">
<mask id="path-1-inside-1_353_588" fill="white">
<path d="M11.1741 2.07162L15.3841 1.50162L15.6941 2.39162L17.8741 0.421616L19.4741 0.291626L19.7341 1.16162L17.4941 2.87163L20.4541 3.10162L20.8941 3.87163L22.4741 3.43163L22.9241 6.33162L24.6541 6.75162L25.9441 10.4816L28.0241 9.80162L28.8041 10.8716L33.1441 11.3216L33.854 9.64162L35.9241 9.96162L36.4641 8.07162L39.4141 9.60162L41.2341 9.13162L40.8241 11.4116L39.4841 12.7116L41.9441 14.5216L42.3241 15.9816L39.6141 19.5816L41.4441 21.0216L40.5141 22.7216L42.7141 24.4216L41.7841 25.4116L43.9541 23.4016L47.4041 24.9416L48.5141 29.4216L50.7341 30.8916L52.9441 29.5616L53.4241 27.4816L53.7241 28.5416L56.6641 28.2316L56.8441 29.5316L57.8041 29.6416L59.6441 28.3216L63.9441 28.8916L67.7141 28.3316L69.2841 30.6216L69.1941 31.8916L64.2641 34.2016L64.6241 36.1516L67.5341 36.4916L68.2241 37.8916L67.4741 40.0616L69.5641 39.7716L68.854 44.9316L67.8041 45.0416L67.1241 43.0616L65.0241 44.9516L64.0641 44.1016L63.3041 47.4716L64.0141 47.2916L64.2541 49.5516L65.854 51.6116L64.6341 52.8116L62.4341 52.5016L60.3141 53.8616L56.8741 52.1816L54.9341 54.2316L56.104 55.1516L55.2041 56.7816L54.0741 57.2516L52.6841 56.3716L50.0241 55.6116L47.5041 52.9016L45.4741 54.0616L43.1641 52.8216L42.354 52.9316L42.3841 54.0816L39.5641 54.2416L39.854 56.4216L38.6741 55.4116L36.4241 55.2216L31.354 58.4916L27.8841 52.2816L25.0541 52.2116L24.5341 53.1216L22.1141 51.1416L21.7941 49.7516L22.8341 48.2516L22.0741 47.2516L22.8641 45.9116L21.2741 43.5416L22.4841 43.6716L23.3241 42.3816L22.4441 41.3416L21.3741 41.5516L20.6641 37.8316L19.6341 37.3016L20.9841 34.8116L20.3941 35.1416L19.1541 32.6316L17.6541 34.1116L17.4141 31.9116L14.4441 31.1616L13.6041 32.8816L12.0541 33.2016L11.2841 30.3916L12.2641 27.5816L10.7241 28.4416L6.94406 27.2516L5.75406 28.1116L4.22406 26.9916L3.16406 27.9416L2.80406 26.3716L1.85406 27.2816L1.24406 27.9416L0.414062 26.1716L2.27406 23.8316L5.40407 22.8816L5.02406 21.8816L8.45407 18.2916L7.84407 14.6516L9.05406 13.9616L9.94406 15.4116L10.1141 12.7116L11.5041 12.2216L10.2441 9.38162L11.2241 6.68163L9.78406 6.54163L9.21407 5.53162L9.20407 4.15163L11.2541 4.00162L11.3441 2.63162L9.99406 2.70161L11.1741 2.07162Z"/>
</mask>
<path d="M11.1741 2.07162L15.3841 1.50162L15.6941 2.39162L17.8741 0.421616L19.4741 0.291626L19.7341 1.16162L17.4941 2.87163L20.4541 3.10162L20.8941 3.87163L22.4741 3.43163L22.9241 6.33162L24.6541 6.75162L25.9441 10.4816L28.0241 9.80162L28.8041 10.8716L33.1441 11.3216L33.854 9.64162L35.9241 9.96162L36.4641 8.07162L39.4141 9.60162L41.2341 9.13162L40.8241 11.4116L39.4841 12.7116L41.9441 14.5216L42.3241 15.9816L39.6141 19.5816L41.4441 21.0216L40.5141 22.7216L42.7141 24.4216L41.7841 25.4116L43.9541 23.4016L47.4041 24.9416L48.5141 29.4216L50.7341 30.8916L52.9441 29.5616L53.4241 27.4816L53.7241 28.5416L56.6641 28.2316L56.8441 29.5316L57.8041 29.6416L59.6441 28.3216L63.9441 28.8916L67.7141 28.3316L69.2841 30.6216L69.1941 31.8916L64.2641 34.2016L64.6241 36.1516L67.5341 36.4916L68.2241 37.8916L67.4741 40.0616L69.5641 39.7716L68.854 44.9316L67.8041 45.0416L67.1241 43.0616L65.0241 44.9516L64.0641 44.1016L63.3041 47.4716L64.0141 47.2916L64.2541 49.5516L65.854 51.6116L64.6341 52.8116L62.4341 52.5016L60.3141 53.8616L56.8741 52.1816L54.9341 54.2316L56.104 55.1516L55.2041 56.7816L54.0741 57.2516L52.6841 56.3716L50.0241 55.6116L47.5041 52.9016L45.4741 54.0616L43.1641 52.8216L42.354 52.9316L42.3841 54.0816L39.5641 54.2416L39.854 56.4216L38.6741 55.4116L36.4241 55.2216L31.354 58.4916L27.8841 52.2816L25.0541 52.2116L24.5341 53.1216L22.1141 51.1416L21.7941 49.7516L22.8341 48.2516L22.0741 47.2516L22.8641 45.9116L21.2741 43.5416L22.4841 43.6716L23.3241 42.3816L22.4441 41.3416L21.3741 41.5516L20.6641 37.8316L19.6341 37.3016L20.9841 34.8116L20.3941 35.1416L19.1541 32.6316L17.6541 34.1116L17.4141 31.9116L14.4441 31.1616L13.6041 32.8816L12.0541 33.2016L11.2841 30.3916L12.2641 27.5816L10.7241 28.4416L6.94406 27.2516L5.75406 28.1116L4.22406 26.9916L3.16406 27.9416L2.80406 26.3716L1.85406 27.2816L1.24406 27.9416L0.414062 26.1716L2.27406 23.8316L5.40407 22.8816L5.02406 21.8816L8.45407 18.2916L7.84407 14.6516L9.05406 13.9616L9.94406 15.4116L10.1141 12.7116L11.5041 12.2216L10.2441 9.38162L11.2241 6.68163L9.78406 6.54163L9.21407 5.53162L9.20407 4.15163L11.2541 4.00162L11.3441 2.63162L9.99406 2.70161L11.1741 2.07162Z" fill="black" stroke="white" stroke-width="2" mask="url(#path-1-inside-1_353_588)"/>
</svg>
