<svg width="43" height="51" viewBox="0 0 43 51" fill="none" xmlns="http://www.w3.org/2000/svg">
<path d="M16.967 2.4445L17.2085 2.28062L17.6096 4.92651L17.6211 5.0024L17.6548 5.07135L20.1949 10.2614L20.3994 10.6793L20.8309 10.5053L24.3914 9.06992L24.9365 9.47343L25.667 10.0142L25.7326 9.10768L25.9155 6.58274L26.8263 6.38973L28.2112 7.49769L27.9812 8.83692L27.8613 9.53458L28.5589 9.4143L31.3278 8.93688L31.9305 10.7123L31.9659 10.8167L32.0419 10.8964L34.0519 13.0064L34.2673 13.2325L34.5649 13.1382L35.1376 12.957L35.0148 13.5382L34.9099 14.0345L35.4077 14.1322L36.1488 14.2777L37.8135 22.659L37.846 22.8223L37.9699 22.9336L40.407 25.1222L41.7283 30.295L39.9786 33.2542L38.9932 33.0336L38.7604 32.9815L38.5735 33.1296L37.2734 34.1597L36.8655 34.4829L37.2048 34.8776L39.6969 37.7759L38.7408 38.9927L38.5882 39.1869L38.6497 39.4262L39.0897 41.1362L39.141 41.3355L39.3178 41.441L40.3815 42.0754L39.8474 42.469L39.6822 42.5907L39.6501 42.7934L39.2101 45.5734L39.1701 45.8258L38.519 45.4692L38.6483 46.4471L38.7747 47.4029L37.0118 49.0602L35.4474 48.519L35.2697 48.4575L35.0954 48.5285L33.9379 48.9997L28.9472 45.7428L28.7282 45.5999L28.4859 45.6983L27.1059 46.2583L26.8849 46.348L26.8155 46.5763L26.4055 47.9263L26.2737 48.3603L26.6929 48.5336L27.1916 48.7398L26.7552 49.452L23.3511 49.8353L19.4622 48.9679L16.6868 46.8124L16.2889 45.2296L16.2054 44.8975L15.8655 44.8554L13.1255 44.5154L13.0337 44.504L12.9439 44.5262L10.1653 45.2135L10.8161 43.835L11.0046 43.4358L10.6318 43.1993L8.88176 42.0893L8.69914 41.9735L8.48966 42.0273L7.86853 42.1867L7.61382 40.9414L7.47569 40.266L6.87662 40.607L6.34435 40.91L6.34918 40.7024L7.54883 39.4938L7.79062 39.2502L7.65022 38.937L6.28987 35.9025L7.29019 31.7281L7.35004 31.4783L7.18187 31.2842L4.11043 27.7387L4.83996 24.719L4.9006 24.468L4.73103 24.2732L0.614772 19.5457L1.87981 16.0776L2.48932 15.9973L3.30757 15.8894L2.83305 15.2141L2.43582 14.6488L3.22133 10.6651L4.07809 8.9597L4.80164 9.11097L5.36719 9.22921L5.403 8.65254L5.57665 5.85588L6.60318 5.24379L8.38865 7.27194L8.70446 7.63068L9.07707 7.33137L10.9071 5.86137L11.199 5.6269L11.0561 5.28081L10.7308 4.49258L11.3352 4.25757L11.7599 4.0924L11.6347 3.6542L11.4404 2.97403L11.724 2.86492L12.2743 3.50694L12.593 3.87875L12.9714 3.56787L15.7653 1.2722L16.6748 2.15947L16.967 2.4445ZM39.7906 46.1656L40.1795 46.2125L40.2643 46.425L39.7906 46.1656Z" fill="black" stroke="white"/>
</svg>
