<svg width="71" height="61" viewBox="0 0 71 61" fill="none" xmlns="http://www.w3.org/2000/svg">
<path d="M18.7649 2.15735L19.4444 0.88585L21.3819 2.07753L21.5095 2.15597L21.6591 2.15141L22.846 2.11523L22.9665 3.04871L21.1102 6.28275L20.5095 7.32944L21.6744 7.0143L26.047 5.83148L30.4906 7.16067L30.7524 7.23899L30.9597 7.06087L32.1934 6.00086L37.212 5.42422L37.7005 6.84152L37.2163 7.43581L36.8104 7.93387L37.3929 8.20496L41.9527 10.3271L42.2716 11.4935L42.3473 11.7704L42.6245 11.8446L45.7764 12.6887L45.8042 13.5282L45.8147 13.8488L46.1106 13.9728L47.767 14.6671L47.5545 18.9167L47.5326 19.3557L47.9651 19.4337L52.9551 20.3337L53.0921 20.3584L53.2221 20.3088L55.1621 19.5688L55.4879 19.4446L55.4839 19.0959L55.448 15.9799L56.2311 15.7171L58.0442 17.9921L58.5374 22.1308L58.5884 22.559L59.0195 22.5714L64.0706 22.7169L65.4735 23.7713L65.5894 23.8585L65.7339 23.87L69.1999 24.148L66.3967 29.199L66.3032 29.3674L66.3469 29.555L66.8695 31.8012L66.1213 32.9844L65.9908 33.1908L66.0733 33.4207L66.8735 35.6483L66.5355 36.2148L64.1536 34.8588L64.9422 33.8866L65.2301 33.5317L64.9024 33.2131L63.1124 31.4731L62.5128 30.8903L62.2831 31.6943L61.9724 32.782L60.2083 33.4435L59.9109 33.555L59.8855 33.8716L59.864 34.1385L59.3135 33.7671L59.0401 33.5827L58.7629 33.7615L57.6843 34.4571L57.1351 34.0203L56.7923 33.7477L56.4769 34.0517L53.9869 36.4516L53.4517 36.9675L54.1312 37.2687L55.9232 38.0632L55.9864 38.3854L55.4222 38.6341L55.0453 38.8003L55.1362 39.202L55.628 41.3753L54.8375 41.433L54.3254 41.4703L54.3764 41.9812L54.7064 45.2912L54.728 45.5084L54.902 45.6402L55.3636 45.9899L53.6036 47.3118L53.3767 47.4823L53.4067 47.7645L53.6765 50.3025L53.2653 50.3679L52.8344 50.4364L52.844 50.8726L52.8466 50.9906L52.7691 50.9557L51.9682 50.5953L52.0671 51.468L52.2371 52.968L52.2858 53.3978L52.7181 53.4114L53.5534 53.4377L53.6344 54.188L52.5246 54.1421L52.3174 54.1335L52.1649 54.2741L50.2226 56.0649L48.0799 55.1517L47.8706 55.0625L47.6658 55.1617L45.7741 56.0784L45.7281 56.0145L46.7074 55.0352L47.0879 54.6547L46.6805 54.3031L45.9506 53.6731L45.6523 53.4157L45.3322 53.6455L41.5718 56.346L41.01 55.8626L40.6614 55.5626L40.3334 55.8851L39.3877 56.8147L37.6784 56.1204L38.0201 55.563L38.7073 54.4424L37.4491 54.8231L34.7391 55.6431L34.5085 55.7128L34.4194 55.9367L34.2561 56.3467L32.6639 54.6947L32.3738 54.3937L32.0262 54.6258L29.0083 56.641L26.7412 56.1912L26.5557 56.1544L26.3922 56.2496L24.7726 57.1929L23.3012 56.6705L22.6771 56.4489L22.6349 57.1098L22.5274 58.7912L20.1486 58.5936L19.7523 57.9879L19.4541 57.5322L19.0254 57.8681L18.1669 58.5411L17.5627 58.0907L15.4027 56.4808L15.13 56.2775L14.8408 56.4564L10.4486 59.1736L5.69826 59.2376L5.31266 58.5319L5.18496 58.2982L4.91974 58.2737L3.72331 58.1636L3.38749 57.1714L3.23555 56.7225L2.77916 56.8502L1.9058 57.0945L4.65566 51.2959L4.68258 51.2392L4.69462 51.1775L10.2646 22.6575L10.2677 22.6417L10.2697 22.6258L12.6393 4.31818L18.4801 2.39662L18.6704 2.33402L18.7649 2.15735ZM17.8997 58.7504L16.7684 59.6372L16.4992 59.3916L17.472 58.9463L17.8997 58.7504Z" fill="black" stroke="white"/>
</svg>
