<svg width="52" height="47" viewBox="0 0 52 47" fill="none" xmlns="http://www.w3.org/2000/svg">
<path d="M7.80151 22.8966L6.34912 20.6911L7.18971 19.1967L7.40623 18.8118L7.05099 18.5494L6.36168 18.0402L6.26336 16.0413L7.58738 14.554L7.84315 14.2667L7.63104 13.9458L7.37948 13.5653L9.23147 13.6114L9.62852 13.6213L9.72799 13.2368L10.192 11.4434L12.8631 10.0659L13.2338 9.87475L13.1122 9.47574L12.8877 8.73932L13.0156 8.77906L13.4183 8.90417L13.6095 8.52838L14.4595 6.85836L14.7764 6.23589L14.085 6.13664L12.2719 5.87633L11.1733 4.38964L11.3165 4.26768L11.6047 4.49449L12.2744 5.02145L12.4078 4.17982L12.6234 2.81935L13.5507 2.91872L13.8987 2.95602L14.0261 2.69631L14.2077 3.26396L14.3417 3.68256L14.774 3.6034L15.484 3.47339L15.8336 3.40936L15.888 3.05806L16.1358 1.45793L16.719 1.86242L16.9464 2.02019L17.2009 1.91114L18.5388 1.33775L20.3287 3.48061L20.6256 7.06285L20.6557 7.42493L21.0093 7.50823L23.5993 8.11824L23.7811 8.16107L23.9465 8.07417L27.4724 6.22146L29.0582 6.85581L29.4107 6.99681L29.6412 6.69514L30.9266 5.01295L32.1316 5.34373L32.6962 5.49874L32.755 4.96941L34.4669 6.23377L34.6096 6.3392L34.7869 6.33104L38.0469 6.18102L38.2309 6.17255L38.3655 6.04673L39.4376 5.04402L41.0735 6.36834L39.8538 8.42665L39.7251 8.64385L39.8234 8.87637L40.4834 10.4364L40.5958 10.7019L40.8819 10.7377L42.4019 10.9277L42.8377 10.9822L42.9479 10.557L43.1635 9.72555L46.8813 8.29031L48.0126 9.71278L48.0888 9.80861L48.2007 9.85838L50.3961 10.8351L50.5013 11.6065L48.3774 13.3959L47.2454 13.062L45.9033 12.6661L46.6906 13.8229L48.0748 15.8568L48.0939 19.2544L48.0956 19.5539L48.3605 19.6937L49.5767 20.3356L49.972 22.9912L49.6462 23.5056L45.8466 23.5616L45.5323 23.5662L45.4543 23.7346L45.01 22.5905L44.8638 22.214L44.4649 22.2778L43.4649 22.4378L43.1463 22.4888L43.0615 22.8001L41.9415 26.9101L41.8563 27.2227L42.1069 27.4282L43.1069 28.2482L43.3373 28.4371L43.6131 28.3244L44.2165 28.0779L44.9749 28.9259L44.6501 29.0796L44.4244 29.1864L44.3742 29.4309L43.5429 33.4766L41.6692 33.7988L41.0885 33.8986L41.2815 34.4553L41.5415 35.2053L41.6864 35.6234L42.119 35.5304L42.6776 35.4103L42.8889 36.6663L42.076 37.0636L39.2483 36.146L38.4008 35.8709L38.6076 36.7376L38.9055 37.9858L37.6428 38.2199L37.3339 38.2772L37.2515 38.5803L36.6474 40.8015L33.9006 42.813L31.2632 39.9244L30.9197 39.5483L30.55 39.8987L29.1673 41.209L25.4303 41.1616L25.116 41.1576L24.9762 41.4391L24.2698 42.8608L21.9789 44.0241L19.3648 43.8625L19.0475 43.8429L18.8951 44.1219L18.5389 44.774L15.3925 43.1569L15.0369 42.9741L14.7804 43.2808L12.8092 45.638L12.0799 44.5442L11.8404 44.1848L11.45 44.3697L9.75041 45.1743L9.36455 43.5158L12.4511 37.9542L12.8279 37.2752L12.0539 37.2131L7.95843 36.8847L6.54434 35.8219L6.41725 35.7263L6.25832 35.7218L1.47938 35.5842L1.04822 31.9657L1.47155 31.5204L2.68742 31.734L2.932 31.777L3.11402 31.6081L5.33403 29.5481L5.50636 29.3881L5.49314 29.1534L5.41313 27.7334L5.40368 27.5656L5.29478 27.4376L3.41591 25.2288L3.53214 24.8041L7.52262 23.6519L8.17492 23.4636L7.80151 22.8966Z" fill="black" stroke="white"/>
</svg>
