<svg width="58" height="58" viewBox="0 0 58 58" fill="none" xmlns="http://www.w3.org/2000/svg">
<mask id="path-1-inside-1_353_605" fill="white">
<path d="M5.82385 2.0116L7.68387 2.78159L11.0339 0.881592L11.9539 1.58159L11.8539 3.81158L13.6239 5.11159L15.2339 4.83159L16.4739 6.93159L18.1739 6.82159L18.6139 6.0116L21.2039 8.1516L23.0939 5.9016L27.0739 6.63159L27.5239 2.52159L28.1439 4.58159L30.9039 6.42159L31.1839 8.94159L32.3839 8.32159L34.8139 9.30159L36.9639 12.4716L39.4939 12.0616L40.7539 13.6616L40.9139 12.2516L42.7939 10.2416L43.9439 11.4916L42.5139 12.8316L43.0439 14.4616L46.0239 13.5316L46.2139 12.7116L47.1939 13.8316L47.1839 16.5216L48.4339 17.8516L49.4739 17.6116L50.1339 16.0316L52.7539 16.0616L54.2739 15.1316L53.0739 17.9616L53.8839 18.0916L53.0839 18.9516L53.8839 22.2416L55.7539 21.2616L57.8039 24.0416L57.0539 27.2916L56.1539 27.5916L53.1439 27.8716L53.2139 29.1916L50.4239 29.9016L49.9339 31.9716L51.3939 33.3716L50.7039 35.9216L48.0739 37.6416L48.7139 38.5016L49.9239 37.6416L50.6239 39.3516L49.8839 42.2316L52.4739 44.7816L50.1339 46.6316L50.5939 50.1916L49.7339 49.5816L48.2039 50.1216L45.3239 52.4416L39.8939 54.8116L39.3139 52.7316L37.4239 51.7316L34.1939 52.6216L32.9139 51.9316L31.5539 50.9416L31.0939 52.5116L31.5739 53.4316L29.5239 53.5216L30.0739 55.5616L28.1939 55.9116L26.8139 57.8916L25.1839 57.1416L25.5739 55.5116L24.2539 54.0516L22.5339 54.1316L21.1939 55.8616L19.8039 55.5316L19.2739 53.9316L17.9639 53.8716L15.1839 56.3616L12.1439 53.2416L9.20386 51.8116L8.09387 49.1716L9.66388 45.7316L8.84387 42.3516L10.0939 39.4316L9.44388 38.2716L10.0239 35.3016L7.53387 32.8416L8.06387 29.3816L5.89386 22.8516L6.03387 20.8216L1.79385 17.4716L1.30386 16.1416L3.92386 10.0516L1.58386 4.98158L0.463867 3.86159L0.853851 3.05159L1.52386 3.5116L3.26385 2.23158L5.08386 2.77159L5.82385 2.0116Z"/>
</mask>
<path d="M5.82385 2.0116L7.68387 2.78159L11.0339 0.881592L11.9539 1.58159L11.8539 3.81158L13.6239 5.11159L15.2339 4.83159L16.4739 6.93159L18.1739 6.82159L18.6139 6.0116L21.2039 8.1516L23.0939 5.9016L27.0739 6.63159L27.5239 2.52159L28.1439 4.58159L30.9039 6.42159L31.1839 8.94159L32.3839 8.32159L34.8139 9.30159L36.9639 12.4716L39.4939 12.0616L40.7539 13.6616L40.9139 12.2516L42.7939 10.2416L43.9439 11.4916L42.5139 12.8316L43.0439 14.4616L46.0239 13.5316L46.2139 12.7116L47.1939 13.8316L47.1839 16.5216L48.4339 17.8516L49.4739 17.6116L50.1339 16.0316L52.7539 16.0616L54.2739 15.1316L53.0739 17.9616L53.8839 18.0916L53.0839 18.9516L53.8839 22.2416L55.7539 21.2616L57.8039 24.0416L57.0539 27.2916L56.1539 27.5916L53.1439 27.8716L53.2139 29.1916L50.4239 29.9016L49.9339 31.9716L51.3939 33.3716L50.7039 35.9216L48.0739 37.6416L48.7139 38.5016L49.9239 37.6416L50.6239 39.3516L49.8839 42.2316L52.4739 44.7816L50.1339 46.6316L50.5939 50.1916L49.7339 49.5816L48.2039 50.1216L45.3239 52.4416L39.8939 54.8116L39.3139 52.7316L37.4239 51.7316L34.1939 52.6216L32.9139 51.9316L31.5539 50.9416L31.0939 52.5116L31.5739 53.4316L29.5239 53.5216L30.0739 55.5616L28.1939 55.9116L26.8139 57.8916L25.1839 57.1416L25.5739 55.5116L24.2539 54.0516L22.5339 54.1316L21.1939 55.8616L19.8039 55.5316L19.2739 53.9316L17.9639 53.8716L15.1839 56.3616L12.1439 53.2416L9.20386 51.8116L8.09387 49.1716L9.66388 45.7316L8.84387 42.3516L10.0939 39.4316L9.44388 38.2716L10.0239 35.3016L7.53387 32.8416L8.06387 29.3816L5.89386 22.8516L6.03387 20.8216L1.79385 17.4716L1.30386 16.1416L3.92386 10.0516L1.58386 4.98158L0.463867 3.86159L0.853851 3.05159L1.52386 3.5116L3.26385 2.23158L5.08386 2.77159L5.82385 2.0116Z" fill="black" stroke="white" stroke-width="2" mask="url(#path-1-inside-1_353_605)"/>
</svg>
