<svg width="51" height="52" viewBox="0 0 51 52" fill="none" xmlns="http://www.w3.org/2000/svg">
<path d="M18.6921 7.66621L19.6015 7.24995L20.0084 8.5057L20.1676 8.99718L20.6536 8.82193L22.7336 8.07194L23.2297 7.89304L23.0247 7.40715L22.7355 6.722L23.5531 6.87324L23.8556 6.92919L24.0419 6.68439L24.2799 6.37159L24.7103 8.01801L24.9002 8.74487L25.4974 8.289L27.6145 6.67286L29.38 6.5809L29.6102 6.56891L29.7506 6.38609L31.3229 4.33843L35.5865 4.284L37.2517 5.76516L37.7177 6.17964L38.0209 5.6347L39.1268 3.64736L40.7773 4.39683L41.1593 4.57033L41.3965 4.22416L42.6365 2.41416L42.8873 2.04805L42.5536 1.75555L41.9733 1.24698L42.1868 0.879912L43.4518 0.916254L45.4654 2.65563L44.7032 3.36573L44.4678 3.58501L44.5698 3.89011L45.6898 7.24011L45.7935 7.55017L46.1191 7.57955L49.6294 7.89627L49.4428 11.442L46.4097 12.426L45.9073 12.589L46.0976 13.0817L46.4228 13.924L45.7413 13.873L45.0399 13.8205L45.2208 14.5002L45.9442 17.2176L44.8927 18.8622L44.7768 19.0436L44.8289 19.2525L45.6528 22.5573L41.4608 25.2928L40.9407 25.6322L41.3833 26.0679L41.6562 26.3365L41.3283 26.6504L40.952 27.0106L41.3273 27.3718L42.5621 28.5603L42.0185 29.11L41.8493 29.2811L41.8774 29.52L42.0737 31.1884L41.1005 30.9553L40.9249 30.9133L40.7629 30.9931L37.8629 32.4231L37.584 32.5606V32.8716V34.7616V35.1452L37.9545 35.2445L38.997 35.524L39.186 37.6459L39.2117 37.935L39.4755 38.056L39.5753 38.1018L34.9253 40.2372L34.5833 40.3943L34.6396 40.7665L34.8396 42.0865L34.8861 42.3928L35.181 42.4876L36.256 42.8331L36.3115 43.7315L35.2534 43.7117L35.0218 43.7073L34.8687 43.8812L33.3987 45.5512L33.1837 45.7954L33.3199 46.0909L34.0299 47.6309L34.1438 47.8778L34.2595 47.8944L34.5029 49.1656L34.5983 49.6635L33.5174 49.9909L31.0586 48.1976L30.4775 47.7738L30.2827 48.4661L29.7615 50.3184L28.0751 49.9341L27.7528 49.8606L27.559 50.1284L26.7418 51.2572L21.8226 51.174L18.601 49.1389L18.4273 49.0291L18.2267 49.0732L17.3167 49.2732L16.9281 49.3586L16.924 49.7565L16.9209 50.0676L15.4758 49.6249L13.9493 47.8912L13.8158 47.7396L13.6145 47.7232L12.3845 47.6232L12.0715 47.5978L11.9127 47.8687L11.4027 48.7387L11.1917 49.0986L11.5079 49.3706L11.7849 49.6089L11.5969 49.6757L9.97293 48.7923L9.86468 48.7335L9.74147 48.7316L3.85878 48.6438L1.68625 47.1955L1.9256 46.9944L2.11244 46.8375L2.10368 46.5936L2.04349 44.917L3.24861 44.0827L3.53704 43.883L3.44741 43.5438L3.17449 42.5111L3.66659 42.2231L3.85691 42.1117L3.90297 41.896L4.72242 38.0595L5.66625 37.7578L5.98785 37.655L6.01266 37.3183L6.04693 36.8531L8.6413 36.9711L8.83752 36.98L8.98734 36.853L10.3673 35.683L10.6389 35.4528L10.5102 35.1209L9.87419 33.4801L10.3329 31.3362L10.3865 31.0861L10.215 30.8963L9.08762 29.6489L7.03082 19.2679L9.2878 15.3302L9.39183 15.1487L9.33561 14.9472L7.86952 9.69291L8.2764 4.62852L10.355 5.53027L10.5102 5.5976L10.6744 5.55687L11.9644 5.23686L12.1873 5.18157L12.2906 4.97643L12.7569 4.05029L14.2271 5.02793L14.3882 5.13505L14.5795 5.10584L16.2955 4.8438L18.0686 7.48992L18.3054 7.84323L18.6921 7.66621ZM34.4328 47.9194L35.7513 48.1088L35.8173 49.1258L35.3225 48.6946L34.4328 47.9194Z" fill="black" stroke="white"/>
</svg>
