<svg width="71" height="58" viewBox="0 0 71 58" fill="none" xmlns="http://www.w3.org/2000/svg">
<mask id="path-1-inside-1_353_603" fill="white">
<path d="M20.4241 51.1616L24.1741 52.5916L24.9041 54.7216L28.1441 55.6416L27.5841 57.3416L26.8541 57.8616L23.4441 56.4116L21.6241 56.9516L20.8041 56.3416L19.7941 53.3916L20.4241 51.1616ZM7.25406 1.91162L11.2141 2.53162L12.2341 1.83162L13.3141 2.74162L12.5241 3.58162L13.3941 4.44162L16.7741 2.89162L17.2241 4.17162L18.6941 3.93163L19.4241 4.82162L20.7041 4.12163L21.8441 4.68163L22.7541 3.28162L24.9041 3.32162L25.9341 0.661621L29.1641 0.851624L30.0841 1.22162L30.7241 3.55162L33.1041 2.87163L35.2341 3.27162L36.9041 4.70161L38.8341 4.51163L40.1041 8.10162L40.9041 6.27162L43.0141 6.50162L44.8141 5.39162L45.2441 7.42162L44.2841 9.58162L44.9741 11.5016L49.4641 8.76163L50.8741 5.22162L49.9941 3.72162L54.6041 2.71162L57.3741 6.59161L57.7241 5.67162L60.2941 5.14162L61.6741 6.83162L61.6041 9.56161L63.0741 8.45161L65.2241 8.78162L64.3741 10.2216L62.1041 10.2016L61.2841 11.0316L60.2341 14.0416L62.3641 13.5116L65.0041 14.7616L66.2241 14.4816L68.9741 18.4516L67.4441 20.2316L68.2341 22.0316L67.6541 22.8416L68.5841 23.1716L69.9941 21.5716L70.7641 23.7616L67.5641 27.6316H66.9341L69.6741 28.8116L69.8241 29.6016L67.7741 29.7116L67.6041 30.2116L66.8441 30.5716L68.1341 36.2216L68.8241 37.4416L68.0241 38.5016L68.1341 42.2616L65.6741 42.9516L65.4141 44.9016L64.3541 44.5816L64.5241 43.5016L62.0341 44.6116L61.4441 43.4216L59.8141 43.2916L59.0341 46.6716L55.5341 46.9616L54.6341 45.6916L53.2041 47.4616L51.6441 47.3416L51.3841 44.7616L53.9041 44.3816L51.0541 42.7916L46.3841 44.0216L46.0241 43.0816L44.9241 43.1616L43.9241 44.4516L42.0541 43.9116L38.3441 45.1216L36.9141 44.3916L35.9241 42.2616L34.6341 42.1616L34.3641 41.0316L32.1641 40.8216L31.1141 39.4116L30.4841 40.2216L29.6441 38.6416L29.6841 39.8416L25.5541 40.0416L25.0941 42.3416L26.9241 45.9516H25.2341L24.0541 42.8816L24.9141 41.6716L24.1041 37.7616L19.0041 33.0316L16.5941 32.3016L15.6941 32.8816L15.4941 31.3616L11.5341 32.1016L8.49406 28.1316L8.74406 23.0616L10.3041 24.4116L11.6841 23.6116L12.0441 21.9416L14.1041 21.9816L13.2541 19.3816L14.6041 18.0916L14.3841 16.1116L13.3441 15.1216L11.2441 16.8716L10.2841 15.0516L8.59406 14.2016L4.11406 14.4516L2.67406 9.83162L1.22406 9.33162L1.78406 7.68163L0.234062 7.56161L0.164062 6.60162L0.994061 4.69162L7.25406 1.91162Z"/>
</mask>
<path d="M20.4241 51.1616L24.1741 52.5916L24.9041 54.7216L28.1441 55.6416L27.5841 57.3416L26.8541 57.8616L23.4441 56.4116L21.6241 56.9516L20.8041 56.3416L19.7941 53.3916L20.4241 51.1616ZM7.25406 1.91162L11.2141 2.53162L12.2341 1.83162L13.3141 2.74162L12.5241 3.58162L13.3941 4.44162L16.7741 2.89162L17.2241 4.17162L18.6941 3.93163L19.4241 4.82162L20.7041 4.12163L21.8441 4.68163L22.7541 3.28162L24.9041 3.32162L25.9341 0.661621L29.1641 0.851624L30.0841 1.22162L30.7241 3.55162L33.1041 2.87163L35.2341 3.27162L36.9041 4.70161L38.8341 4.51163L40.1041 8.10162L40.9041 6.27162L43.0141 6.50162L44.8141 5.39162L45.2441 7.42162L44.2841 9.58162L44.9741 11.5016L49.4641 8.76163L50.8741 5.22162L49.9941 3.72162L54.6041 2.71162L57.3741 6.59161L57.7241 5.67162L60.2941 5.14162L61.6741 6.83162L61.6041 9.56161L63.0741 8.45161L65.2241 8.78162L64.3741 10.2216L62.1041 10.2016L61.2841 11.0316L60.2341 14.0416L62.3641 13.5116L65.0041 14.7616L66.2241 14.4816L68.9741 18.4516L67.4441 20.2316L68.2341 22.0316L67.6541 22.8416L68.5841 23.1716L69.9941 21.5716L70.7641 23.7616L67.5641 27.6316H66.9341L69.6741 28.8116L69.8241 29.6016L67.7741 29.7116L67.6041 30.2116L66.8441 30.5716L68.1341 36.2216L68.8241 37.4416L68.0241 38.5016L68.1341 42.2616L65.6741 42.9516L65.4141 44.9016L64.3541 44.5816L64.5241 43.5016L62.0341 44.6116L61.4441 43.4216L59.8141 43.2916L59.0341 46.6716L55.5341 46.9616L54.6341 45.6916L53.2041 47.4616L51.6441 47.3416L51.3841 44.7616L53.9041 44.3816L51.0541 42.7916L46.3841 44.0216L46.0241 43.0816L44.9241 43.1616L43.9241 44.4516L42.0541 43.9116L38.3441 45.1216L36.9141 44.3916L35.9241 42.2616L34.6341 42.1616L34.3641 41.0316L32.1641 40.8216L31.1141 39.4116L30.4841 40.2216L29.6441 38.6416L29.6841 39.8416L25.5541 40.0416L25.0941 42.3416L26.9241 45.9516H25.2341L24.0541 42.8816L24.9141 41.6716L24.1041 37.7616L19.0041 33.0316L16.5941 32.3016L15.6941 32.8816L15.4941 31.3616L11.5341 32.1016L8.49406 28.1316L8.74406 23.0616L10.3041 24.4116L11.6841 23.6116L12.0441 21.9416L14.1041 21.9816L13.2541 19.3816L14.6041 18.0916L14.3841 16.1116L13.3441 15.1216L11.2441 16.8716L10.2841 15.0516L8.59406 14.2016L4.11406 14.4516L2.67406 9.83162L1.22406 9.33162L1.78406 7.68163L0.234062 7.56161L0.164062 6.60162L0.994061 4.69162L7.25406 1.91162Z" fill="black" stroke="white" stroke-width="2" mask="url(#path-1-inside-1_353_603)"/>
</svg>
