<svg width="74" height="63" viewBox="0 0 74 63" fill="none" xmlns="http://www.w3.org/2000/svg">
<mask id="path-1-inside-1_353_604" fill="white">
<path d="M15.5739 0.71154L20.4839 3.87154L20.5939 3.17154L21.7639 3.58154L23.0639 2.79153L27.8639 5.63154L28.4739 6.40154L27.7539 7.53154L30.2939 9.86153L28.8939 11.0415L30.8439 13.9315L33.1639 15.3015L32.7839 16.6415L33.9739 17.2215L34.2439 19.3615L35.4139 19.2115L34.9139 21.1715L36.0339 22.6315L37.7439 22.3515L40.0539 23.3315L41.1539 21.5815L40.1639 19.5615L41.0839 18.9215L42.4339 19.7815L44.3239 18.9215L45.2139 20.1915L45.7639 19.7515L48.2739 20.9615L48.9939 25.8215L50.4839 24.8315L50.2039 23.6615L50.9739 23.1915L51.1739 24.2415L52.0639 24.0615L53.3739 25.4315L57.0639 24.8315L59.0539 25.7815L60.3939 23.9715L61.9039 23.9915L62.0039 22.2115L65.3139 21.4415L64.9439 22.6415L67.3639 22.3715L67.6139 24.7615L69.1039 27.1415L73.0739 28.4115L73.3039 29.6315L70.8839 35.7215L69.1539 37.2715L65.6339 35.0015L60.3939 36.5815L58.9339 35.8115L59.0739 34.6615L56.7339 33.7615L55.6239 34.2915L54.0439 32.6515L52.0939 32.6415L51.0539 29.0815L51.7039 28.6315L50.9239 28.1315L49.6439 28.8915L50.0539 29.8315L48.1139 33.8415L48.1839 35.7815L46.4439 35.4615L45.9539 37.2315L44.5139 37.2215L44.9639 39.7315L48.8639 40.9215L48.9439 41.9015L50.7939 41.6815L50.8339 42.4115L48.9639 42.8415L49.0039 44.6115L50.5439 44.8915L49.6239 45.6215L50.0939 46.5815L52.0939 45.4815L52.7739 43.0315L54.5239 42.5215L56.0439 44.4615L56.1139 43.7615L57.6439 44.2115L57.1939 45.1115L58.8139 45.7215L59.9239 47.6615L57.8639 51.9715L56.9239 52.3815L57.8839 54.2415L59.5039 54.3915L57.8239 56.2315L58.4539 56.3615L57.8639 58.7415L53.7139 62.6815L50.0239 62.1915L49.2339 62.0515L50.3139 61.5815L49.0339 61.1615L48.3039 59.4215L46.5839 58.5615L47.2839 57.4615L44.9039 57.5315L43.9439 55.9215L43.1639 56.8715L40.7739 56.7915L39.9839 55.4015L37.7739 55.4715L36.8239 53.7715L35.7739 54.2115L33.8339 52.8115L33.0539 53.9015L32.8439 51.5115L30.2139 50.9215L28.7039 48.3415L26.6439 48.7415L25.5839 47.6815L24.1839 47.7515L23.3139 46.2715L21.7439 47.1815L20.2039 46.9015L20.1039 44.8515L17.8539 44.0915L19.4539 43.4815L17.1739 42.6915L18.9139 39.2915L18.2439 37.9815L12.5039 36.5615L10.8339 37.1215L10.1639 35.0315L8.73389 35.3715L8.36389 34.1915L7.0939 34.4615L7.19391 32.2115L5.98389 30.7215L3.60388 30.0315L2.2139 27.2215L2.51389 26.1415L5.50391 25.9315L4.5939 23.8715L6.6839 22.5215L4.38391 20.7315L7.05389 17.8215L5.58389 16.7515L5.53391 13.3415L4.73389 13.7015L3.13391 12.4015L3.0639 11.3915L4.41391 11.1815L2.22391 9.40154L2.5639 7.92154L1.63391 7.20154L2.97391 5.73154L2.98389 3.43153L2.38391 2.29153L1.11389 2.59154L0.733887 1.45154L3.95389 1.73154L4.51389 4.40154L7.08389 4.66154L7.72391 3.44154L9.50391 4.28154L10.6239 1.76154L11.2539 2.15154L12.5839 0.701538L15.5739 0.71154Z"/>
</mask>
<path d="M15.5739 0.71154L20.4839 3.87154L20.5939 3.17154L21.7639 3.58154L23.0639 2.79153L27.8639 5.63154L28.4739 6.40154L27.7539 7.53154L30.2939 9.86153L28.8939 11.0415L30.8439 13.9315L33.1639 15.3015L32.7839 16.6415L33.9739 17.2215L34.2439 19.3615L35.4139 19.2115L34.9139 21.1715L36.0339 22.6315L37.7439 22.3515L40.0539 23.3315L41.1539 21.5815L40.1639 19.5615L41.0839 18.9215L42.4339 19.7815L44.3239 18.9215L45.2139 20.1915L45.7639 19.7515L48.2739 20.9615L48.9939 25.8215L50.4839 24.8315L50.2039 23.6615L50.9739 23.1915L51.1739 24.2415L52.0639 24.0615L53.3739 25.4315L57.0639 24.8315L59.0539 25.7815L60.3939 23.9715L61.9039 23.9915L62.0039 22.2115L65.3139 21.4415L64.9439 22.6415L67.3639 22.3715L67.6139 24.7615L69.1039 27.1415L73.0739 28.4115L73.3039 29.6315L70.8839 35.7215L69.1539 37.2715L65.6339 35.0015L60.3939 36.5815L58.9339 35.8115L59.0739 34.6615L56.7339 33.7615L55.6239 34.2915L54.0439 32.6515L52.0939 32.6415L51.0539 29.0815L51.7039 28.6315L50.9239 28.1315L49.6439 28.8915L50.0539 29.8315L48.1139 33.8415L48.1839 35.7815L46.4439 35.4615L45.9539 37.2315L44.5139 37.2215L44.9639 39.7315L48.8639 40.9215L48.9439 41.9015L50.7939 41.6815L50.8339 42.4115L48.9639 42.8415L49.0039 44.6115L50.5439 44.8915L49.6239 45.6215L50.0939 46.5815L52.0939 45.4815L52.7739 43.0315L54.5239 42.5215L56.0439 44.4615L56.1139 43.7615L57.6439 44.2115L57.1939 45.1115L58.8139 45.7215L59.9239 47.6615L57.8639 51.9715L56.9239 52.3815L57.8839 54.2415L59.5039 54.3915L57.8239 56.2315L58.4539 56.3615L57.8639 58.7415L53.7139 62.6815L50.0239 62.1915L49.2339 62.0515L50.3139 61.5815L49.0339 61.1615L48.3039 59.4215L46.5839 58.5615L47.2839 57.4615L44.9039 57.5315L43.9439 55.9215L43.1639 56.8715L40.7739 56.7915L39.9839 55.4015L37.7739 55.4715L36.8239 53.7715L35.7739 54.2115L33.8339 52.8115L33.0539 53.9015L32.8439 51.5115L30.2139 50.9215L28.7039 48.3415L26.6439 48.7415L25.5839 47.6815L24.1839 47.7515L23.3139 46.2715L21.7439 47.1815L20.2039 46.9015L20.1039 44.8515L17.8539 44.0915L19.4539 43.4815L17.1739 42.6915L18.9139 39.2915L18.2439 37.9815L12.5039 36.5615L10.8339 37.1215L10.1639 35.0315L8.73389 35.3715L8.36389 34.1915L7.0939 34.4615L7.19391 32.2115L5.98389 30.7215L3.60388 30.0315L2.2139 27.2215L2.51389 26.1415L5.50391 25.9315L4.5939 23.8715L6.6839 22.5215L4.38391 20.7315L7.05389 17.8215L5.58389 16.7515L5.53391 13.3415L4.73389 13.7015L3.13391 12.4015L3.0639 11.3915L4.41391 11.1815L2.22391 9.40154L2.5639 7.92154L1.63391 7.20154L2.97391 5.73154L2.98389 3.43153L2.38391 2.29153L1.11389 2.59154L0.733887 1.45154L3.95389 1.73154L4.51389 4.40154L7.08389 4.66154L7.72391 3.44154L9.50391 4.28154L10.6239 1.76154L11.2539 2.15154L12.5839 0.701538L15.5739 0.71154Z" fill="black" stroke="white" stroke-width="2" mask="url(#path-1-inside-1_353_604)"/>
</svg>
