<svg width="51" height="81" viewBox="0 0 51 81" fill="none" xmlns="http://www.w3.org/2000/svg">
<mask id="path-1-inside-1_353_597" fill="white">
<path d="M1.51428 0.801636L2.95428 2.16164L4.41428 1.40163L5.55428 3.15163L11.2243 4.22163L14.6943 5.99163L14.5843 5.32163L19.0843 4.71163L20.0643 2.72163L24.3743 2.09164L28.7043 2.77164L30.2043 8.48164L29.1243 8.10163L29.0543 9.81163L27.3443 10.0716L26.9943 12.8216L32.7943 21.2416L32.1743 24.9516L33.2943 24.0716L34.8843 25.2516L34.9943 26.3916L33.9343 27.3816L34.7343 29.2816L34.0743 29.8816L36.4743 32.1916L40.7943 34.9216L42.7943 32.3316L44.3943 34.2716L43.2643 34.9016L42.7943 36.6016L41.4143 36.7216L44.3943 38.8016L42.9043 40.5216L44.7343 39.6216L45.1243 42.7016L44.2443 44.0216L45.5243 45.1116L43.7143 46.2616L42.0043 49.1716L39.7843 50.1516L37.3643 49.6516L36.5543 51.8716L38.8143 51.5916L38.9343 52.8916L36.7843 55.1616L35.6843 54.7116L33.1343 57.8916L35.4943 58.6616L36.3143 61.0016L40.8843 61.3316L41.7543 60.2916L44.5943 62.3616L47.1243 61.3716L46.3743 62.6016L45.9543 63.9616L47.3143 63.9216L50.7043 66.7616L49.1543 68.5516L50.5743 70.8116L49.1043 74.4616L45.5443 78.2816L43.5143 78.5916L41.5743 77.3016L40.8643 78.7316L39.5643 79.0516L36.8443 77.8716L29.2143 75.6416L28.1643 77.7916L26.1143 78.4516L25.0643 80.3216L22.2643 80.8216L21.0543 79.1816L19.4743 79.0616L16.0143 69.9716L18.6343 70.4516L18.5343 69.7716L19.5443 70.5516L23.4943 69.3316L25.0543 70.1016L22.6443 68.4216L23.6943 67.3916L21.1543 68.6716L21.0443 67.6516L19.0543 66.8716L17.8543 63.9516L16.1043 62.9116L15.9243 58.2116L14.2643 57.3716L15.5143 56.5116L16.4243 51.6816L17.2043 51.3316L16.4043 50.6816L16.6143 45.3116L17.5443 44.8416L18.8143 45.6916L17.2443 44.3916L16.4743 44.7116L15.7543 46.9816L14.8543 44.5716L14.4343 40.5116L15.1543 38.4016L14.2343 33.1916L15.8643 32.8716L14.2243 32.1716L13.7143 33.7416L10.1943 26.3616L7.50427 23.4916L6.11427 23.3716L4.52428 15.0116L2.87428 13.0816L4.83427 10.7316L4.50427 6.88164L3.39427 5.10163L0.404282 4.08163L0.384277 1.47163L1.51428 0.801636Z"/>
</mask>
<path d="M1.51428 0.801636L2.95428 2.16164L4.41428 1.40163L5.55428 3.15163L11.2243 4.22163L14.6943 5.99163L14.5843 5.32163L19.0843 4.71163L20.0643 2.72163L24.3743 2.09164L28.7043 2.77164L30.2043 8.48164L29.1243 8.10163L29.0543 9.81163L27.3443 10.0716L26.9943 12.8216L32.7943 21.2416L32.1743 24.9516L33.2943 24.0716L34.8843 25.2516L34.9943 26.3916L33.9343 27.3816L34.7343 29.2816L34.0743 29.8816L36.4743 32.1916L40.7943 34.9216L42.7943 32.3316L44.3943 34.2716L43.2643 34.9016L42.7943 36.6016L41.4143 36.7216L44.3943 38.8016L42.9043 40.5216L44.7343 39.6216L45.1243 42.7016L44.2443 44.0216L45.5243 45.1116L43.7143 46.2616L42.0043 49.1716L39.7843 50.1516L37.3643 49.6516L36.5543 51.8716L38.8143 51.5916L38.9343 52.8916L36.7843 55.1616L35.6843 54.7116L33.1343 57.8916L35.4943 58.6616L36.3143 61.0016L40.8843 61.3316L41.7543 60.2916L44.5943 62.3616L47.1243 61.3716L46.3743 62.6016L45.9543 63.9616L47.3143 63.9216L50.7043 66.7616L49.1543 68.5516L50.5743 70.8116L49.1043 74.4616L45.5443 78.2816L43.5143 78.5916L41.5743 77.3016L40.8643 78.7316L39.5643 79.0516L36.8443 77.8716L29.2143 75.6416L28.1643 77.7916L26.1143 78.4516L25.0643 80.3216L22.2643 80.8216L21.0543 79.1816L19.4743 79.0616L16.0143 69.9716L18.6343 70.4516L18.5343 69.7716L19.5443 70.5516L23.4943 69.3316L25.0543 70.1016L22.6443 68.4216L23.6943 67.3916L21.1543 68.6716L21.0443 67.6516L19.0543 66.8716L17.8543 63.9516L16.1043 62.9116L15.9243 58.2116L14.2643 57.3716L15.5143 56.5116L16.4243 51.6816L17.2043 51.3316L16.4043 50.6816L16.6143 45.3116L17.5443 44.8416L18.8143 45.6916L17.2443 44.3916L16.4743 44.7116L15.7543 46.9816L14.8543 44.5716L14.4343 40.5116L15.1543 38.4016L14.2343 33.1916L15.8643 32.8716L14.2243 32.1716L13.7143 33.7416L10.1943 26.3616L7.50427 23.4916L6.11427 23.3716L4.52428 15.0116L2.87428 13.0816L4.83427 10.7316L4.50427 6.88164L3.39427 5.10163L0.404282 4.08163L0.384277 1.47163L1.51428 0.801636Z" fill="black" stroke="white" stroke-width="2" mask="url(#path-1-inside-1_353_597)"/>
</svg>
