<svg width="53" height="70" viewBox="0 0 53 70" fill="none" xmlns="http://www.w3.org/2000/svg">
<mask id="path-1-inside-1_353_599" fill="white">
<path d="M2.10428 10.4616L4.0943 9.80164L7.4743 10.5916L6.8143 8.99164L7.3743 8.15164L6.55429 8.31163L6.0043 6.49164L9.76428 5.38164V3.98163L9.23428 3.09163L6.3743 2.88164L6.74429 1.75163L8.23428 1.12164L10.3243 1.94164L12.1143 0.581635L13.2643 1.45163L13.7643 0.551636L15.3743 0.841629L16.2643 1.23163L15.5743 2.43164L15.9043 5.28163L17.2143 5.30164L18.2343 4.12164L18.8143 6.40164L20.8043 6.43164L21.9243 8.64163L22.7643 8.36163L24.6543 10.6316L29.4743 11.8016L30.2343 13.4616L32.3743 14.0516L32.8243 15.8716L35.3043 17.3416L32.1643 19.1816L34.1743 19.9216L33.1543 21.3116L33.5443 22.9116L35.7243 21.3616L37.6043 21.8816L40.2743 26.4816L41.2143 25.3716L42.4543 26.3716V28.4916L44.3643 28.9716L46.1943 31.4316L44.0843 32.3816L44.2343 34.3416L43.1043 36.0116L43.6743 36.7916L41.9043 38.2116L43.1143 39.1816L43.0843 38.1816L44.7543 38.7516L45.8143 40.7816L46.6543 40.4216L48.0843 41.4216L48.8543 43.7016L48.5343 46.4216L49.4543 46.6916L51.0043 44.9916L52.5743 48.0616L52.5543 49.6516L51.1543 49.2616L49.9643 51.4416L50.2143 52.6016L47.4243 52.1516L46.6343 54.5816L44.5343 54.5316L43.9143 57.1016L45.1443 57.8016L45.2743 59.0916L44.2643 60.5916L44.5243 62.9116L40.6243 63.6816L39.4043 61.5116L37.6643 63.6316L35.8943 62.9616L35.0343 63.7016L32.8843 63.5416L31.3043 67.8316L30.5943 68.6916L29.8843 67.5316L28.5843 67.5616L26.3043 69.5716L25.7443 68.3716L26.6243 66.7816L25.7543 67.1416L23.0643 64.9416L23.2743 63.2116L20.7443 65.2916L19.1743 63.7616L18.0943 63.9516L18.3943 62.2916L17.0743 62.4716L17.0443 61.3516L14.5443 62.8516L14.1443 58.1716L12.3443 57.8516L15.3943 55.6016L15.5843 54.6116L14.1943 53.4116L13.9243 51.7116L12.8043 51.4116L11.8243 48.3416L10.4243 48.5516L10.0543 49.8716L8.85428 49.1016L10.2543 47.1516L9.4343 45.9016L6.9043 45.7916L7.92429 44.1716L7.2543 43.1016L4.95428 43.1716L3.5943 42.1716L4.33429 40.6616L1.6243 38.5716L3.61429 37.9416L4.67429 36.2016L8.9743 36.9516L8.76428 35.4516L9.66431 34.6216L9.0643 33.0616L10.1843 31.1516L9.01428 29.8416L10.0843 26.9716L8.08429 23.4416L9.1843 22.2616L5.64429 20.7316L5.86429 19.4116L3.6243 19.2216L2.46429 16.1316L0.404297 14.8216L1.4343 14.2716L2.10428 10.4616Z"/>
</mask>
<path d="M2.10428 10.4616L4.0943 9.80164L7.4743 10.5916L6.8143 8.99164L7.3743 8.15164L6.55429 8.31163L6.0043 6.49164L9.76428 5.38164V3.98163L9.23428 3.09163L6.3743 2.88164L6.74429 1.75163L8.23428 1.12164L10.3243 1.94164L12.1143 0.581635L13.2643 1.45163L13.7643 0.551636L15.3743 0.841629L16.2643 1.23163L15.5743 2.43164L15.9043 5.28163L17.2143 5.30164L18.2343 4.12164L18.8143 6.40164L20.8043 6.43164L21.9243 8.64163L22.7643 8.36163L24.6543 10.6316L29.4743 11.8016L30.2343 13.4616L32.3743 14.0516L32.8243 15.8716L35.3043 17.3416L32.1643 19.1816L34.1743 19.9216L33.1543 21.3116L33.5443 22.9116L35.7243 21.3616L37.6043 21.8816L40.2743 26.4816L41.2143 25.3716L42.4543 26.3716V28.4916L44.3643 28.9716L46.1943 31.4316L44.0843 32.3816L44.2343 34.3416L43.1043 36.0116L43.6743 36.7916L41.9043 38.2116L43.1143 39.1816L43.0843 38.1816L44.7543 38.7516L45.8143 40.7816L46.6543 40.4216L48.0843 41.4216L48.8543 43.7016L48.5343 46.4216L49.4543 46.6916L51.0043 44.9916L52.5743 48.0616L52.5543 49.6516L51.1543 49.2616L49.9643 51.4416L50.2143 52.6016L47.4243 52.1516L46.6343 54.5816L44.5343 54.5316L43.9143 57.1016L45.1443 57.8016L45.2743 59.0916L44.2643 60.5916L44.5243 62.9116L40.6243 63.6816L39.4043 61.5116L37.6643 63.6316L35.8943 62.9616L35.0343 63.7016L32.8843 63.5416L31.3043 67.8316L30.5943 68.6916L29.8843 67.5316L28.5843 67.5616L26.3043 69.5716L25.7443 68.3716L26.6243 66.7816L25.7543 67.1416L23.0643 64.9416L23.2743 63.2116L20.7443 65.2916L19.1743 63.7616L18.0943 63.9516L18.3943 62.2916L17.0743 62.4716L17.0443 61.3516L14.5443 62.8516L14.1443 58.1716L12.3443 57.8516L15.3943 55.6016L15.5843 54.6116L14.1943 53.4116L13.9243 51.7116L12.8043 51.4116L11.8243 48.3416L10.4243 48.5516L10.0543 49.8716L8.85428 49.1016L10.2543 47.1516L9.4343 45.9016L6.9043 45.7916L7.92429 44.1716L7.2543 43.1016L4.95428 43.1716L3.5943 42.1716L4.33429 40.6616L1.6243 38.5716L3.61429 37.9416L4.67429 36.2016L8.9743 36.9516L8.76428 35.4516L9.66431 34.6216L9.0643 33.0616L10.1843 31.1516L9.01428 29.8416L10.0843 26.9716L8.08429 23.4416L9.1843 22.2616L5.64429 20.7316L5.86429 19.4116L3.6243 19.2216L2.46429 16.1316L0.404297 14.8216L1.4343 14.2716L2.10428 10.4616Z" fill="black" stroke="white" stroke-width="2" mask="url(#path-1-inside-1_353_599)"/>
</svg>
