<svg width="69" height="57" viewBox="0 0 69 57" fill="none" xmlns="http://www.w3.org/2000/svg">
<mask id="path-1-inside-1_353_598" fill="white">
<path d="M3.91406 35.3316L5.69406 31.5616L7.45404 31.4016L7.59406 29.8416L8.81406 29.6216L8.27405 28.5316L9.55405 28.1516L10.4041 25.7616L11.9141 25.1316L10.794 23.3016L8.07404 23.6916L8.14404 22.2216L10.274 21.1516L8.72406 18.4716L9.61404 16.5216L12.274 16.2916L13.054 17.0416L14.854 15.9916L14.8841 14.5816L13.4641 14.8516L12.804 12.9516L12.114 13.5716L10.9341 12.5716L11.9441 11.1816L10.864 9.96159L11.424 9.02159L10.574 6.18159L16.084 3.46159L19.1341 4.19159L19.3141 1.94159L22.144 0.251587L23.6341 2.12159L26.834 3.21159L27.3141 0.281593L33.2541 0.601593L33.6641 1.72159L35.584 1.75159L38.104 5.37159L39.324 5.38159L39.584 6.16159L41.0941 5.47159L41.7841 7.58159L43.864 8.75159L50.144 7.56159L49.8841 8.73159L51.644 11.3516L53.9741 9.71159L56.614 10.7716L59.174 10.2016L61.274 11.6116L61.7241 9.38159L63.6641 9.17159L63.554 10.0916L64.804 11.0116L66.494 12.7216L64.3141 14.3216L66.6341 18.9316L67.054 22.2716L65.394 24.6516L67.1941 23.7616L68.3441 24.5216L68.2541 26.4416L66.604 27.0316L68.4741 27.6616L67.514 29.8416L64.274 31.1816L64.0941 31.5316L63.2241 32.3916L63.204 34.3116L64.244 35.9316L62.2541 37.5016L62.304 38.6916L64.244 39.2416L66.0941 42.0816L67.264 42.2516L67.484 44.2416L66.7541 44.2916L66.3741 45.8416L64.764 45.5516L64.264 46.4516L63.114 45.5816L61.324 46.9416L59.234 46.1216L57.744 46.7516L57.3741 47.8816L60.234 48.0916L60.764 48.9816V50.3816L57.0041 51.4916L57.554 53.3116L58.3741 53.1516L57.8141 53.9916L58.4741 55.5916L55.0941 54.8016L53.104 55.4616L51.644 54.6616L52.014 54.0416L49.894 54.0916L47.924 55.8316L46.514 54.4416L45.864 55.0316L42.014 53.5916L38.484 50.2116L39.174 46.2516L37.774 43.9816L36.244 44.5116L35.4041 43.8516L35.014 44.7616L32.1841 44.3916L30.804 45.7316L28.6641 44.7916L27.7541 46.9816L25.394 47.1516L23.1941 50.9516L21.5341 51.0616L21.174 52.7416L19.1641 52.3816L19.7141 55.0516L18.0641 56.4716L14.424 55.0016L10.354 55.0216L9.81406 52.5716L7.99405 52.0716L6.99405 50.0816L5.36404 49.0616L5.94406 48.2216L2.49405 48.9216L2.84406 47.8316L2.03406 47.1316L3.55405 44.9716L3.20404 42.4816L0.144043 41.2116L0.744049 39.6116L2.17404 39.2116L2.09406 38.4116L0.514038 38.0616L3.99405 37.7316L3.91406 35.3316Z"/>
</mask>
<path d="M3.91406 35.3316L5.69406 31.5616L7.45404 31.4016L7.59406 29.8416L8.81406 29.6216L8.27405 28.5316L9.55405 28.1516L10.4041 25.7616L11.9141 25.1316L10.794 23.3016L8.07404 23.6916L8.14404 22.2216L10.274 21.1516L8.72406 18.4716L9.61404 16.5216L12.274 16.2916L13.054 17.0416L14.854 15.9916L14.8841 14.5816L13.4641 14.8516L12.804 12.9516L12.114 13.5716L10.9341 12.5716L11.9441 11.1816L10.864 9.96159L11.424 9.02159L10.574 6.18159L16.084 3.46159L19.1341 4.19159L19.3141 1.94159L22.144 0.251587L23.6341 2.12159L26.834 3.21159L27.3141 0.281593L33.2541 0.601593L33.6641 1.72159L35.584 1.75159L38.104 5.37159L39.324 5.38159L39.584 6.16159L41.0941 5.47159L41.7841 7.58159L43.864 8.75159L50.144 7.56159L49.8841 8.73159L51.644 11.3516L53.9741 9.71159L56.614 10.7716L59.174 10.2016L61.274 11.6116L61.7241 9.38159L63.6641 9.17159L63.554 10.0916L64.804 11.0116L66.494 12.7216L64.3141 14.3216L66.6341 18.9316L67.054 22.2716L65.394 24.6516L67.1941 23.7616L68.3441 24.5216L68.2541 26.4416L66.604 27.0316L68.4741 27.6616L67.514 29.8416L64.274 31.1816L64.0941 31.5316L63.2241 32.3916L63.204 34.3116L64.244 35.9316L62.2541 37.5016L62.304 38.6916L64.244 39.2416L66.0941 42.0816L67.264 42.2516L67.484 44.2416L66.7541 44.2916L66.3741 45.8416L64.764 45.5516L64.264 46.4516L63.114 45.5816L61.324 46.9416L59.234 46.1216L57.744 46.7516L57.3741 47.8816L60.234 48.0916L60.764 48.9816V50.3816L57.0041 51.4916L57.554 53.3116L58.3741 53.1516L57.8141 53.9916L58.4741 55.5916L55.0941 54.8016L53.104 55.4616L51.644 54.6616L52.014 54.0416L49.894 54.0916L47.924 55.8316L46.514 54.4416L45.864 55.0316L42.014 53.5916L38.484 50.2116L39.174 46.2516L37.774 43.9816L36.244 44.5116L35.4041 43.8516L35.014 44.7616L32.1841 44.3916L30.804 45.7316L28.6641 44.7916L27.7541 46.9816L25.394 47.1516L23.1941 50.9516L21.5341 51.0616L21.174 52.7416L19.1641 52.3816L19.7141 55.0516L18.0641 56.4716L14.424 55.0016L10.354 55.0216L9.81406 52.5716L7.99405 52.0716L6.99405 50.0816L5.36404 49.0616L5.94406 48.2216L2.49405 48.9216L2.84406 47.8316L2.03406 47.1316L3.55405 44.9716L3.20404 42.4816L0.144043 41.2116L0.744049 39.6116L2.17404 39.2116L2.09406 38.4116L0.514038 38.0616L3.99405 37.7316L3.91406 35.3316Z" fill="black" stroke="white" stroke-width="2" mask="url(#path-1-inside-1_353_598)"/>
</svg>
