<svg width="71" height="77" viewBox="0 0 71 77" fill="none" xmlns="http://www.w3.org/2000/svg">
<mask id="path-1-inside-1_353_601" fill="white">
<path d="M15.2743 0.561615L16.7743 1.94162L17.5943 1.59162V3.07162L19.7343 4.45162L20.1143 5.59162L21.3843 5.29162L21.9843 6.43162L21.9743 8.73162L20.6343 10.2016L21.5643 10.9216L21.2243 12.4016L23.4143 14.1816L22.0643 14.3916L22.1343 15.4016L23.7343 16.7016L24.5343 16.3416L24.5843 19.7516L26.0543 20.8216L23.3843 23.7316L25.6843 25.5216L23.5943 26.8716L24.5043 28.9316L21.5143 29.1416L21.2143 30.2216L22.6043 33.0316L24.9843 33.7216L26.1943 35.2116L26.0943 37.4616L27.3643 37.1916L27.7343 38.3716L29.1643 38.0316L29.8343 40.1216L31.5043 39.5616L37.2443 40.9816L37.9143 42.2916L36.1743 45.6916L38.4543 46.4816L36.8543 47.0916L39.1043 47.8516L39.2043 49.9016L40.7443 50.1816L42.3143 49.2716L43.1843 50.7516L44.5843 50.6816L45.6443 51.7416L47.7043 51.3416L49.2143 53.9216L51.8443 54.5116L52.0543 56.9016L52.8343 55.8116L54.7743 57.2116L55.8243 56.7716L56.7743 58.4716L58.9843 58.4016L59.7743 59.7916L62.1643 59.8716L62.9443 58.9216L63.9043 60.5316L66.2843 60.4616L65.5843 61.5616L67.3043 62.4216L68.0343 64.1616L69.3143 64.5816L68.2343 65.0516L69.0243 65.1916L69.1543 66.6116L70.7543 66.5416L64.9643 68.7216L61.3643 72.5316L60.1943 71.3316L58.7443 72.5716L58.3243 73.3816L56.8243 74.3716L57.0543 73.5316L56.1643 73.7016L56.0843 72.9716L51.1243 71.8816L50.1443 69.0916L47.9043 71.0816L48.4043 72.6316L46.5143 71.6616L40.5043 74.1716L40.2143 72.7116L38.0343 73.3416L36.6243 71.4716L34.0443 73.7316L30.6143 73.0716L30.6643 74.7716L29.1943 76.5216L28.1743 75.9716L27.9943 74.6416L27.3243 76.1316L24.4743 75.8916L22.7743 76.7516L22.2843 73.8716L20.3943 73.6116L21.5143 71.5316L20.1243 71.3816L19.9743 73.3516L18.3843 73.0216L20.0943 70.8016L19.5943 69.3116L20.4243 67.7316L18.4443 66.7716L15.5143 68.4816L14.5943 67.6016L15.0843 64.8916L12.5843 63.6016L12.5543 61.8616L15.6943 60.6616L16.1643 59.5916L14.3243 59.8016L13.6643 57.8816L14.6343 54.8316L12.5643 52.0516L13.6943 51.6016L13.4543 50.4716L15.1943 48.9116L14.2543 48.5816L15.2943 46.8716L14.6043 44.0516L15.6343 43.1616L13.8543 41.2216L16.0343 39.3616L18.1043 39.0116L17.5543 37.6116L16.0843 36.8716L18.2843 33.3516L17.5543 31.8816L16.2743 31.9816L16.9343 29.2316L14.6343 29.3516L13.8443 28.1216L14.8943 27.2516L13.7243 26.0916L14.5943 23.5316L12.9143 23.6216L12.6743 22.3516L13.5543 21.4616L12.8243 19.2416L14.4643 18.3516L14.8443 16.5916L14.5243 15.9816L13.2843 16.3616L13.0943 15.6516L13.4943 13.5816L12.3643 12.9716L12.1943 11.7216L13.3643 10.7816L11.5343 10.5216L11.5443 9.62162L9.11432 8.22162L8.35431 9.31162L3.48431 10.1916L2.92432 11.7116L1.51431 10.5916L3.86432 9.31162L2.46432 8.96162L3.07431 7.63162L2.00433 7.30162L2.19434 5.73162L0.694336 5.10162L1.21432 4.07162L2.46432 5.21162L1.76431 5.52162L2.47433 5.37162L2.48431 4.43162L5.94434 2.39162L8.22433 3.84162L9.50433 1.11162L13.8043 1.83162L14.3243 0.411621L15.2743 0.561615Z"/>
</mask>
<path d="M15.2743 0.561615L16.7743 1.94162L17.5943 1.59162V3.07162L19.7343 4.45162L20.1143 5.59162L21.3843 5.29162L21.9843 6.43162L21.9743 8.73162L20.6343 10.2016L21.5643 10.9216L21.2243 12.4016L23.4143 14.1816L22.0643 14.3916L22.1343 15.4016L23.7343 16.7016L24.5343 16.3416L24.5843 19.7516L26.0543 20.8216L23.3843 23.7316L25.6843 25.5216L23.5943 26.8716L24.5043 28.9316L21.5143 29.1416L21.2143 30.2216L22.6043 33.0316L24.9843 33.7216L26.1943 35.2116L26.0943 37.4616L27.3643 37.1916L27.7343 38.3716L29.1643 38.0316L29.8343 40.1216L31.5043 39.5616L37.2443 40.9816L37.9143 42.2916L36.1743 45.6916L38.4543 46.4816L36.8543 47.0916L39.1043 47.8516L39.2043 49.9016L40.7443 50.1816L42.3143 49.2716L43.1843 50.7516L44.5843 50.6816L45.6443 51.7416L47.7043 51.3416L49.2143 53.9216L51.8443 54.5116L52.0543 56.9016L52.8343 55.8116L54.7743 57.2116L55.8243 56.7716L56.7743 58.4716L58.9843 58.4016L59.7743 59.7916L62.1643 59.8716L62.9443 58.9216L63.9043 60.5316L66.2843 60.4616L65.5843 61.5616L67.3043 62.4216L68.0343 64.1616L69.3143 64.5816L68.2343 65.0516L69.0243 65.1916L69.1543 66.6116L70.7543 66.5416L64.9643 68.7216L61.3643 72.5316L60.1943 71.3316L58.7443 72.5716L58.3243 73.3816L56.8243 74.3716L57.0543 73.5316L56.1643 73.7016L56.0843 72.9716L51.1243 71.8816L50.1443 69.0916L47.9043 71.0816L48.4043 72.6316L46.5143 71.6616L40.5043 74.1716L40.2143 72.7116L38.0343 73.3416L36.6243 71.4716L34.0443 73.7316L30.6143 73.0716L30.6643 74.7716L29.1943 76.5216L28.1743 75.9716L27.9943 74.6416L27.3243 76.1316L24.4743 75.8916L22.7743 76.7516L22.2843 73.8716L20.3943 73.6116L21.5143 71.5316L20.1243 71.3816L19.9743 73.3516L18.3843 73.0216L20.0943 70.8016L19.5943 69.3116L20.4243 67.7316L18.4443 66.7716L15.5143 68.4816L14.5943 67.6016L15.0843 64.8916L12.5843 63.6016L12.5543 61.8616L15.6943 60.6616L16.1643 59.5916L14.3243 59.8016L13.6643 57.8816L14.6343 54.8316L12.5643 52.0516L13.6943 51.6016L13.4543 50.4716L15.1943 48.9116L14.2543 48.5816L15.2943 46.8716L14.6043 44.0516L15.6343 43.1616L13.8543 41.2216L16.0343 39.3616L18.1043 39.0116L17.5543 37.6116L16.0843 36.8716L18.2843 33.3516L17.5543 31.8816L16.2743 31.9816L16.9343 29.2316L14.6343 29.3516L13.8443 28.1216L14.8943 27.2516L13.7243 26.0916L14.5943 23.5316L12.9143 23.6216L12.6743 22.3516L13.5543 21.4616L12.8243 19.2416L14.4643 18.3516L14.8443 16.5916L14.5243 15.9816L13.2843 16.3616L13.0943 15.6516L13.4943 13.5816L12.3643 12.9716L12.1943 11.7216L13.3643 10.7816L11.5343 10.5216L11.5443 9.62162L9.11432 8.22162L8.35431 9.31162L3.48431 10.1916L2.92432 11.7116L1.51431 10.5916L3.86432 9.31162L2.46432 8.96162L3.07431 7.63162L2.00433 7.30162L2.19434 5.73162L0.694336 5.10162L1.21432 4.07162L2.46432 5.21162L1.76431 5.52162L2.47433 5.37162L2.48431 4.43162L5.94434 2.39162L8.22433 3.84162L9.50433 1.11162L13.8043 1.83162L14.3243 0.411621L15.2743 0.561615Z" fill="black" stroke="white" stroke-width="2" mask="url(#path-1-inside-1_353_601)"/>
</svg>
