<svg width="41" height="78" viewBox="0 0 41 78" fill="none" xmlns="http://www.w3.org/2000/svg">
<mask id="path-1-inside-1_353_602" fill="white">
<path d="M22.4339 1.95158L23.7439 3.99158L24.2339 6.55158L23.5339 7.13158L24.4839 8.43158L24.4739 9.37158L23.7639 9.52158L24.4639 9.21159L23.2139 8.07158L22.6939 9.10159L24.1939 9.73158L24.0039 11.3016L25.0739 11.6316L24.4639 12.9616L25.8639 13.3116L23.5139 14.5916L24.9239 15.7116L25.4839 14.1916L30.3539 13.3116L31.1139 12.2216L33.5439 13.6216L33.5339 14.5216L35.3639 14.7816L34.1939 15.7216L34.3639 16.9716L35.4939 17.5816L35.0939 19.6516L35.2839 20.3616L36.5239 19.9816L36.8439 20.5916L36.4639 22.3516L34.8239 23.2416L35.5539 25.4616L34.6739 26.3516L34.9139 27.6216L36.5939 27.5316L35.7239 30.0916L36.8939 31.2516L35.8439 32.1216L36.6339 33.3516L38.9339 33.2316L38.2739 35.9816L39.5539 35.8816L40.2839 37.3516L38.0839 40.8716L39.5539 41.6116L40.1039 43.0116L38.0339 43.3616L35.8539 45.2216L37.6339 47.1616L36.6039 48.0516L37.2939 50.8716L36.2539 52.5816L37.1939 52.9116L35.4539 54.4716L35.6939 55.6016L34.5639 56.0516L36.6339 58.8316L35.6639 61.8816L36.3239 63.8016L38.1639 63.5916L37.6939 64.6616L34.5539 65.8616L34.5839 67.6016L37.0839 68.8916L36.5939 71.6016L34.6539 73.9316L31.4839 73.1416L31.9939 73.9216L30.4739 75.0016L30.6239 76.0316L29.4339 74.9816L26.3439 75.6616L25.8439 77.0716L24.3039 76.3416L21.8239 74.8716L21.3739 73.0516L19.2339 72.4616L18.4739 70.8016L13.6539 69.6316L11.7639 67.3616L10.9239 67.6416L9.80389 65.4316L7.8139 65.4016L7.23389 63.1216L6.2139 64.3016L4.9039 64.2816L4.57388 61.4316L5.26389 60.2316L4.3739 59.8416L4.75391 58.2916L5.48389 58.2416L5.26389 56.2516L4.0939 56.0816L2.2439 53.2416L0.303894 52.6916L0.253906 51.5016L2.2439 49.9316L1.20389 48.3116L1.22391 46.3916L2.0939 45.5316L2.2739 45.1816L5.51389 43.8416L6.47391 41.6616L4.60388 41.0316L6.25391 40.4416L6.3439 38.5216L5.19391 37.7616L3.39389 38.6516L5.05389 36.2716L4.63391 32.9316L2.3139 28.3216L4.4939 26.7216L2.80389 25.0116L6.9339 22.6616L7.28391 21.6816L5.8739 20.3916L5.98389 18.7716L7.11389 16.6816L9.03391 16.0516L8.03391 14.5016L9.6239 13.4316L9.45389 10.9816L7.29388 8.26158L8.58389 6.08158V5.60159L9.5239 4.44158L9.51389 2.42158L10.7939 2.52158L11.6339 4.29158L14.5939 3.88158L15.7339 5.64158L17.7939 4.51158L18.8539 2.32158L20.5339 2.37158L21.2739 0.871582L22.4339 1.95158Z"/>
</mask>
<path d="M22.4339 1.95158L23.7439 3.99158L24.2339 6.55158L23.5339 7.13158L24.4839 8.43158L24.4739 9.37158L23.7639 9.52158L24.4639 9.21159L23.2139 8.07158L22.6939 9.10159L24.1939 9.73158L24.0039 11.3016L25.0739 11.6316L24.4639 12.9616L25.8639 13.3116L23.5139 14.5916L24.9239 15.7116L25.4839 14.1916L30.3539 13.3116L31.1139 12.2216L33.5439 13.6216L33.5339 14.5216L35.3639 14.7816L34.1939 15.7216L34.3639 16.9716L35.4939 17.5816L35.0939 19.6516L35.2839 20.3616L36.5239 19.9816L36.8439 20.5916L36.4639 22.3516L34.8239 23.2416L35.5539 25.4616L34.6739 26.3516L34.9139 27.6216L36.5939 27.5316L35.7239 30.0916L36.8939 31.2516L35.8439 32.1216L36.6339 33.3516L38.9339 33.2316L38.2739 35.9816L39.5539 35.8816L40.2839 37.3516L38.0839 40.8716L39.5539 41.6116L40.1039 43.0116L38.0339 43.3616L35.8539 45.2216L37.6339 47.1616L36.6039 48.0516L37.2939 50.8716L36.2539 52.5816L37.1939 52.9116L35.4539 54.4716L35.6939 55.6016L34.5639 56.0516L36.6339 58.8316L35.6639 61.8816L36.3239 63.8016L38.1639 63.5916L37.6939 64.6616L34.5539 65.8616L34.5839 67.6016L37.0839 68.8916L36.5939 71.6016L34.6539 73.9316L31.4839 73.1416L31.9939 73.9216L30.4739 75.0016L30.6239 76.0316L29.4339 74.9816L26.3439 75.6616L25.8439 77.0716L24.3039 76.3416L21.8239 74.8716L21.3739 73.0516L19.2339 72.4616L18.4739 70.8016L13.6539 69.6316L11.7639 67.3616L10.9239 67.6416L9.80389 65.4316L7.8139 65.4016L7.23389 63.1216L6.2139 64.3016L4.9039 64.2816L4.57388 61.4316L5.26389 60.2316L4.3739 59.8416L4.75391 58.2916L5.48389 58.2416L5.26389 56.2516L4.0939 56.0816L2.2439 53.2416L0.303894 52.6916L0.253906 51.5016L2.2439 49.9316L1.20389 48.3116L1.22391 46.3916L2.0939 45.5316L2.2739 45.1816L5.51389 43.8416L6.47391 41.6616L4.60388 41.0316L6.25391 40.4416L6.3439 38.5216L5.19391 37.7616L3.39389 38.6516L5.05389 36.2716L4.63391 32.9316L2.3139 28.3216L4.4939 26.7216L2.80389 25.0116L6.9339 22.6616L7.28391 21.6816L5.8739 20.3916L5.98389 18.7716L7.11389 16.6816L9.03391 16.0516L8.03391 14.5016L9.6239 13.4316L9.45389 10.9816L7.29388 8.26158L8.58389 6.08158V5.60159L9.5239 4.44158L9.51389 2.42158L10.7939 2.52158L11.6339 4.29158L14.5939 3.88158L15.7339 5.64158L17.7939 4.51158L18.8539 2.32158L20.5339 2.37158L21.2739 0.871582L22.4339 1.95158Z" fill="black" stroke="white" stroke-width="2" mask="url(#path-1-inside-1_353_602)"/>
</svg>
