<svg width="90" height="74" viewBox="0 0 90 74" fill="none" xmlns="http://www.w3.org/2000/svg">
<mask id="path-1-inside-1_353_606" fill="white">
<path d="M41.4143 60.1015L42.0743 60.2415L42.7843 60.7615L41.6543 61.7115L41.8543 62.7915L40.3443 62.8815L39.2543 64.0115L38.9243 61.5615L40.4943 61.4715L41.2243 60.4615L41.4143 60.1015ZM20.6043 2.57154L21.1343 6.03154L22.5243 6.84154L23.5543 9.66154L21.8243 11.4815L22.5943 12.9015L22.2043 16.0815L23.6843 18.5215L25.0643 17.8915L27.3143 18.6615L30.0643 24.1515L31.2343 24.8615L32.4343 24.4015L34.9143 26.4115L36.8243 22.5015L41.0643 20.6715L42.1143 21.1415L43.4443 19.7315L45.0643 20.0015L46.7243 24.2415L49.6043 25.7815L49.7943 27.4315L48.7143 28.6315L50.8843 37.3415L54.3943 39.5015L57.3543 38.5015L58.4943 36.7615L60.3243 37.3915L59.5643 39.7515L64.0443 39.1815L66.2043 41.7415L66.8243 45.2115L66.2343 47.6015L68.2043 51.5615L69.8443 48.5715L72.3443 48.3715L72.6243 49.0615L73.6843 48.4315L76.2643 50.1415L81.3543 48.0615L83.5043 51.1815L85.4043 52.0615L86.0543 54.6115L87.2843 54.5915L86.5643 53.5115L87.0843 52.5915L89.0043 53.7015L89.5343 54.9515L86.7143 57.5615L86.7843 60.7515L85.6843 62.6615L88.6643 62.7015L88.5443 64.4815L89.9143 66.8115L87.0043 68.1715L86.0043 70.0215L87.0843 71.2115L86.2443 72.5815L83.9243 73.2615L82.8943 72.2915L79.4943 71.7015L80.1143 69.5915L79.5643 68.4415L75.6343 70.6815L74.9943 68.8615L69.7343 67.9015L68.4543 66.7815L66.3443 67.8115L66.1643 69.3615L65.3643 68.8115L64.2743 69.6515L63.4343 68.4215L61.3643 67.7415L59.1643 70.1015L53.8843 68.9015L52.4643 70.2415L50.3243 70.3415L49.5343 69.1715L45.9543 70.5215L45.0243 69.5215L43.7043 69.5815L42.5243 67.7915L42.4543 65.9115L43.5043 65.3715L42.5843 63.4515L44.1643 62.3815L42.9643 60.8215L45.2843 59.6015L44.3843 57.8915L46.5943 56.4915L44.9243 55.3815L44.9443 54.3315L40.7843 53.3515L39.2543 53.8715L39.4043 52.9115L41.0743 53.0315L41.0843 51.7715L42.3343 51.2115L39.1343 48.0615L38.1443 45.2615L41.6543 43.7315L41.7043 41.7215L39.4643 42.6215L39.0743 41.7015L39.9843 39.9615L37.4843 38.2015L34.6743 38.9015L33.8843 38.3815L34.0843 36.5015L31.5543 37.2615L30.5943 36.7315L30.2543 35.6715L31.0643 35.6515L31.0943 34.6915L30.0943 33.3315L32.2243 30.4415L33.3943 30.3615L30.9043 27.8915L29.1243 28.2715L28.9243 29.2015L30.0943 30.1715L28.8243 30.0515L28.2243 32.1415L26.8443 30.3415L25.2243 29.9915L23.4443 31.2015L22.7843 30.1615L19.9743 30.6415L19.2643 29.5315L17.4543 30.2815L13.9343 27.0615L12.7343 27.6815L12.3043 26.8615L13.3043 26.0315L11.3043 23.2415L14.3143 21.5215L12.6943 20.3315L12.6143 21.1615L10.2643 20.2115L9.27429 20.7915L6.14429 18.3215L2.8743 8.54154L0.904297 5.70154L4.3443 4.79154L4.8443 5.97154L5.3143 4.35154L11.2243 2.51154L13.3543 2.94154L19.8843 0.331543L20.6043 2.57154Z"/>
</mask>
<path d="M41.4143 60.1015L42.0743 60.2415L42.7843 60.7615L41.6543 61.7115L41.8543 62.7915L40.3443 62.8815L39.2543 64.0115L38.9243 61.5615L40.4943 61.4715L41.2243 60.4615L41.4143 60.1015ZM20.6043 2.57154L21.1343 6.03154L22.5243 6.84154L23.5543 9.66154L21.8243 11.4815L22.5943 12.9015L22.2043 16.0815L23.6843 18.5215L25.0643 17.8915L27.3143 18.6615L30.0643 24.1515L31.2343 24.8615L32.4343 24.4015L34.9143 26.4115L36.8243 22.5015L41.0643 20.6715L42.1143 21.1415L43.4443 19.7315L45.0643 20.0015L46.7243 24.2415L49.6043 25.7815L49.7943 27.4315L48.7143 28.6315L50.8843 37.3415L54.3943 39.5015L57.3543 38.5015L58.4943 36.7615L60.3243 37.3915L59.5643 39.7515L64.0443 39.1815L66.2043 41.7415L66.8243 45.2115L66.2343 47.6015L68.2043 51.5615L69.8443 48.5715L72.3443 48.3715L72.6243 49.0615L73.6843 48.4315L76.2643 50.1415L81.3543 48.0615L83.5043 51.1815L85.4043 52.0615L86.0543 54.6115L87.2843 54.5915L86.5643 53.5115L87.0843 52.5915L89.0043 53.7015L89.5343 54.9515L86.7143 57.5615L86.7843 60.7515L85.6843 62.6615L88.6643 62.7015L88.5443 64.4815L89.9143 66.8115L87.0043 68.1715L86.0043 70.0215L87.0843 71.2115L86.2443 72.5815L83.9243 73.2615L82.8943 72.2915L79.4943 71.7015L80.1143 69.5915L79.5643 68.4415L75.6343 70.6815L74.9943 68.8615L69.7343 67.9015L68.4543 66.7815L66.3443 67.8115L66.1643 69.3615L65.3643 68.8115L64.2743 69.6515L63.4343 68.4215L61.3643 67.7415L59.1643 70.1015L53.8843 68.9015L52.4643 70.2415L50.3243 70.3415L49.5343 69.1715L45.9543 70.5215L45.0243 69.5215L43.7043 69.5815L42.5243 67.7915L42.4543 65.9115L43.5043 65.3715L42.5843 63.4515L44.1643 62.3815L42.9643 60.8215L45.2843 59.6015L44.3843 57.8915L46.5943 56.4915L44.9243 55.3815L44.9443 54.3315L40.7843 53.3515L39.2543 53.8715L39.4043 52.9115L41.0743 53.0315L41.0843 51.7715L42.3343 51.2115L39.1343 48.0615L38.1443 45.2615L41.6543 43.7315L41.7043 41.7215L39.4643 42.6215L39.0743 41.7015L39.9843 39.9615L37.4843 38.2015L34.6743 38.9015L33.8843 38.3815L34.0843 36.5015L31.5543 37.2615L30.5943 36.7315L30.2543 35.6715L31.0643 35.6515L31.0943 34.6915L30.0943 33.3315L32.2243 30.4415L33.3943 30.3615L30.9043 27.8915L29.1243 28.2715L28.9243 29.2015L30.0943 30.1715L28.8243 30.0515L28.2243 32.1415L26.8443 30.3415L25.2243 29.9915L23.4443 31.2015L22.7843 30.1615L19.9743 30.6415L19.2643 29.5315L17.4543 30.2815L13.9343 27.0615L12.7343 27.6815L12.3043 26.8615L13.3043 26.0315L11.3043 23.2415L14.3143 21.5215L12.6943 20.3315L12.6143 21.1615L10.2643 20.2115L9.27429 20.7915L6.14429 18.3215L2.8743 8.54154L0.904297 5.70154L4.3443 4.79154L4.8443 5.97154L5.3143 4.35154L11.2243 2.51154L13.3543 2.94154L19.8843 0.331543L20.6043 2.57154Z" fill="black" stroke="white" stroke-width="2" mask="url(#path-1-inside-1_353_606)"/>
</svg>
