<svg width="76" height="47" viewBox="0 0 76 47" fill="none" xmlns="http://www.w3.org/2000/svg">
<mask id="path-1-inside-1_353_611" fill="white">
<path d="M10.984 3.87149L12.914 3.3215L13.354 4.62149L14.884 4.76151L15.414 5.73151L20.604 5.6615L25.114 2.86151L27.264 4.4715L25.614 5.23151L26.744 6.27148L29.334 4.24149L29.864 5.0415L32.994 5.30151L33.134 3.12149L34.824 3.7215L36.644 2.6615L39.114 3.15149L42.314 1.02148L44.444 3.23151L44.894 2.1015L47.604 1.28149L46.944 2.34149L49.504 3.37149L50.694 2.2215L51.554 2.96149L55.634 0.0314941L56.374 0.661499L55.094 1.9415L55.634 2.6915L57.904 1.59149L60.334 2.6315L62.514 0.6315L64.204 0.701508L66.924 0.0415039L67.614 0.951508L70.274 0.861511L70.394 3.06149L71.524 2.7915L72.604 4.8215L72.194 6.0015L73.504 7.12149L71.534 7.6315L71.314 9.2215L72.164 10.1515L71.474 10.6115L72.484 10.6515L74.234 8.65149L74.114 12.8115L75.494 14.2915L74.684 15.4815L73.154 15.2615L72.344 16.8415L73.544 18.6015L72.214 21.5515L71.224 21.3115L71.444 23.9215L69.854 24.5115L69.394 23.7515L68.204 26.6515L66.254 27.4815L66.004 30.1615L66.784 31.0215L63.434 31.8515L63.484 33.1315L62.294 33.6515L62.574 37.6815L60.654 38.6215L61.244 42.4515L57.864 45.3015L55.864 45.5015L53.224 43.7015L51.234 46.3815L46.074 40.4515L44.434 40.3215L42.924 35.7415L40.664 36.7015L36.624 35.9915L35.064 36.5815L27.964 32.5815L26.804 33.4915L25.554 31.7915L23.224 30.8115L21.824 31.4715L19.894 30.0615L21.484 27.2315L18.914 27.8915L18.034 32.3315L14.464 31.3315L13.094 28.9515L15.534 26.7215L16.884 23.2315L16.614 19.3315L10.534 17.2915L9.38399 17.6115L9.10399 19.4915L7.49399 19.6815L6.83398 16.5515L4.96399 16.0815L2.47398 17.1515L2.13399 15.2115L0.0839844 14.0515L0.773987 13.2315L0.163986 12.8115L5.03398 11.8815L6.60399 10.5015L10.984 3.87149ZM69.954 13.6115L70.644 14.9215L69.744 14.8015L69.454 15.6615L70.434 16.3615L71.374 16.2315L71.284 13.4515L70.284 12.6915L69.794 13.0415L69.954 13.6115ZM69.184 16.8315L68.434 18.5515L69.214 20.3015L70.944 19.0615L70.124 16.7515L69.664 16.3815L69.184 16.8315Z"/>
</mask>
<path d="M10.984 3.87149L12.914 3.3215L13.354 4.62149L14.884 4.76151L15.414 5.73151L20.604 5.6615L25.114 2.86151L27.264 4.4715L25.614 5.23151L26.744 6.27148L29.334 4.24149L29.864 5.0415L32.994 5.30151L33.134 3.12149L34.824 3.7215L36.644 2.6615L39.114 3.15149L42.314 1.02148L44.444 3.23151L44.894 2.1015L47.604 1.28149L46.944 2.34149L49.504 3.37149L50.694 2.2215L51.554 2.96149L55.634 0.0314941L56.374 0.661499L55.094 1.9415L55.634 2.6915L57.904 1.59149L60.334 2.6315L62.514 0.6315L64.204 0.701508L66.924 0.0415039L67.614 0.951508L70.274 0.861511L70.394 3.06149L71.524 2.7915L72.604 4.8215L72.194 6.0015L73.504 7.12149L71.534 7.6315L71.314 9.2215L72.164 10.1515L71.474 10.6115L72.484 10.6515L74.234 8.65149L74.114 12.8115L75.494 14.2915L74.684 15.4815L73.154 15.2615L72.344 16.8415L73.544 18.6015L72.214 21.5515L71.224 21.3115L71.444 23.9215L69.854 24.5115L69.394 23.7515L68.204 26.6515L66.254 27.4815L66.004 30.1615L66.784 31.0215L63.434 31.8515L63.484 33.1315L62.294 33.6515L62.574 37.6815L60.654 38.6215L61.244 42.4515L57.864 45.3015L55.864 45.5015L53.224 43.7015L51.234 46.3815L46.074 40.4515L44.434 40.3215L42.924 35.7415L40.664 36.7015L36.624 35.9915L35.064 36.5815L27.964 32.5815L26.804 33.4915L25.554 31.7915L23.224 30.8115L21.824 31.4715L19.894 30.0615L21.484 27.2315L18.914 27.8915L18.034 32.3315L14.464 31.3315L13.094 28.9515L15.534 26.7215L16.884 23.2315L16.614 19.3315L10.534 17.2915L9.38399 17.6115L9.10399 19.4915L7.49399 19.6815L6.83398 16.5515L4.96399 16.0815L2.47398 17.1515L2.13399 15.2115L0.0839844 14.0515L0.773987 13.2315L0.163986 12.8115L5.03398 11.8815L6.60399 10.5015L10.984 3.87149ZM69.954 13.6115L70.644 14.9215L69.744 14.8015L69.454 15.6615L70.434 16.3615L71.374 16.2315L71.284 13.4515L70.284 12.6915L69.794 13.0415L69.954 13.6115ZM69.184 16.8315L68.434 18.5515L69.214 20.3015L70.944 19.0615L70.124 16.7515L69.664 16.3815L69.184 16.8315Z" fill="black" stroke="white" stroke-width="2" mask="url(#path-1-inside-1_353_611)"/>
</svg>
