<svg width="77" height="51" viewBox="0 0 77 51" fill="none" xmlns="http://www.w3.org/2000/svg">
<mask id="path-1-inside-1_353_608" fill="white">
<path d="M1.36418 14.6216L3.98419 12.3916L6.60419 11.6016L7.90419 10.2316L6.98419 9.28162L7.47418 8.67162L9.53418 9.08162L9.42419 9.91162L12.4742 9.73161L16.8442 7.18163L19.2842 7.16162L20.2242 8.76163L21.2642 8.59161L20.7142 9.42162L21.8642 10.2116L22.5842 8.10162L23.5742 7.99162L28.3342 9.01163L31.0242 10.6016L30.0942 9.37163L31.0942 8.60162L33.4242 9.10162L35.1342 6.79163L35.9942 7.08162L35.9642 6.21162L38.5242 5.20161L39.5542 2.97162L41.4742 2.10162L42.6742 3.80162L44.4942 2.62163L45.9242 2.84161L46.4742 1.52162L47.7742 1.12163L47.7842 2.24162L49.0342 1.83162L50.2442 2.64162L51.8942 0.781616L53.4742 2.18163L52.2242 4.55162L53.8242 6.16162L59.1542 6.93163L60.3942 5.76163L60.7642 7.08162L61.8442 6.72162L61.6242 8.16162L62.7142 8.18163L61.5942 9.59161L67.7142 13.6616L68.3742 15.5316L66.4642 17.4616L68.1942 18.1916L68.2642 19.8116L70.1242 19.7716L70.8042 22.0416L70.2642 23.4016L71.4342 23.5516L71.6142 25.2516L74.7042 26.6416L75.2642 27.3116L74.6342 28.1016L76.3842 28.9316L75.3742 30.4016L75.9242 31.5116L75.1142 31.8716L75.2842 33.1416L76.7742 34.1316L74.2042 38.3516L68.9542 40.3216L68.2242 41.4916L67.6142 42.9116L69.7242 43.5716L68.9742 45.3216L70.7242 48.2616L69.3742 49.4616L67.8242 50.3116L66.8942 49.8316L64.6442 45.7116L63.3942 45.1316L62.4742 45.6116L62.7742 47.0416L62.1542 46.2416L58.4842 46.0716L56.7242 43.8316L56.5842 42.2516L56.1542 42.9716L52.5342 41.5216L51.6242 35.9116L52.1342 35.0916L51.0342 32.9516L48.7542 31.6016L43.4242 32.5716L43.4842 33.4816L42.2642 33.0516L42.7742 34.0516L39.2242 36.1016L38.6642 38.0216L36.8542 37.8316L36.2142 36.8016L33.9242 37.8116L34.1542 33.4416L30.1642 33.0816L29.0442 29.7316L30.2142 28.6416L27.6442 26.4216L25.9042 26.3716L25.3342 27.3516L26.2242 28.1316L24.9842 29.9416L22.9142 29.0016L21.5842 31.3916L19.7742 29.7816L15.0742 29.8416L13.3542 32.0816L11.4342 32.1816L9.19418 33.8916L8.50418 31.2516L7.64418 32.3816L5.91418 32.0616L6.56419 33.6016L4.48419 34.3516L3.90419 32.5616L2.48419 33.2116L0.53418 30.3016L4.09419 26.4816L5.56419 22.8316L4.14418 20.5716L5.69418 18.7816L2.30418 15.9416L0.944183 15.9716L1.36418 14.6216Z"/>
</mask>
<path d="M1.36418 14.6216L3.98419 12.3916L6.60419 11.6016L7.90419 10.2316L6.98419 9.28162L7.47418 8.67162L9.53418 9.08162L9.42419 9.91162L12.4742 9.73161L16.8442 7.18163L19.2842 7.16162L20.2242 8.76163L21.2642 8.59161L20.7142 9.42162L21.8642 10.2116L22.5842 8.10162L23.5742 7.99162L28.3342 9.01163L31.0242 10.6016L30.0942 9.37163L31.0942 8.60162L33.4242 9.10162L35.1342 6.79163L35.9942 7.08162L35.9642 6.21162L38.5242 5.20161L39.5542 2.97162L41.4742 2.10162L42.6742 3.80162L44.4942 2.62163L45.9242 2.84161L46.4742 1.52162L47.7742 1.12163L47.7842 2.24162L49.0342 1.83162L50.2442 2.64162L51.8942 0.781616L53.4742 2.18163L52.2242 4.55162L53.8242 6.16162L59.1542 6.93163L60.3942 5.76163L60.7642 7.08162L61.8442 6.72162L61.6242 8.16162L62.7142 8.18163L61.5942 9.59161L67.7142 13.6616L68.3742 15.5316L66.4642 17.4616L68.1942 18.1916L68.2642 19.8116L70.1242 19.7716L70.8042 22.0416L70.2642 23.4016L71.4342 23.5516L71.6142 25.2516L74.7042 26.6416L75.2642 27.3116L74.6342 28.1016L76.3842 28.9316L75.3742 30.4016L75.9242 31.5116L75.1142 31.8716L75.2842 33.1416L76.7742 34.1316L74.2042 38.3516L68.9542 40.3216L68.2242 41.4916L67.6142 42.9116L69.7242 43.5716L68.9742 45.3216L70.7242 48.2616L69.3742 49.4616L67.8242 50.3116L66.8942 49.8316L64.6442 45.7116L63.3942 45.1316L62.4742 45.6116L62.7742 47.0416L62.1542 46.2416L58.4842 46.0716L56.7242 43.8316L56.5842 42.2516L56.1542 42.9716L52.5342 41.5216L51.6242 35.9116L52.1342 35.0916L51.0342 32.9516L48.7542 31.6016L43.4242 32.5716L43.4842 33.4816L42.2642 33.0516L42.7742 34.0516L39.2242 36.1016L38.6642 38.0216L36.8542 37.8316L36.2142 36.8016L33.9242 37.8116L34.1542 33.4416L30.1642 33.0816L29.0442 29.7316L30.2142 28.6416L27.6442 26.4216L25.9042 26.3716L25.3342 27.3516L26.2242 28.1316L24.9842 29.9416L22.9142 29.0016L21.5842 31.3916L19.7742 29.7816L15.0742 29.8416L13.3542 32.0816L11.4342 32.1816L9.19418 33.8916L8.50418 31.2516L7.64418 32.3816L5.91418 32.0616L6.56419 33.6016L4.48419 34.3516L3.90419 32.5616L2.48419 33.2116L0.53418 30.3016L4.09419 26.4816L5.56419 22.8316L4.14418 20.5716L5.69418 18.7816L2.30418 15.9416L0.944183 15.9716L1.36418 14.6216Z" fill="black" stroke="white" stroke-width="2" mask="url(#path-1-inside-1_353_608)"/>
</svg>
