<svg width="55" height="61" viewBox="0 0 55 61" fill="none" xmlns="http://www.w3.org/2000/svg">
<path d="M6.73511 13.1851L5.40031 13.3438L5.36251 12.8809L5.33487 12.5425L5.01009 12.4434L1.40239 11.3425L1.11252 9.72575L1.95069 9.73157L2.33381 9.73423L2.43604 9.36499L2.80393 8.03614L4.09374 8.27334L4.70631 8.38599L4.68385 7.76355L4.61832 5.9476L6.50426 2.04934L6.60438 1.8424L6.51247 1.63169L6.27891 1.0962L6.49931 0.96534L6.57423 1.2218L7.61424 4.78179L7.71879 5.13967L8.09161 5.14158L9.83053 5.15051L11.2641 6.6385L11.5143 6.89815L11.8396 6.7428L12.7555 6.3055L14.5307 6.98827L14.4378 7.75115L14.3962 8.09314L14.7009 8.25385L16.1609 9.02385L16.3423 9.11948L16.5385 9.0603L21.5573 7.54699L24.8832 9.69179L25.2037 9.89851L25.4878 9.64399L27.2178 8.09399L27.3054 8.01552L27.3488 7.90623L29.5877 2.27193L30.6486 2.66975L30.8092 2.72995L30.9729 2.67896L32.8542 2.09299L32.8895 2.33399L32.9962 3.0633L33.6344 2.69451L35.8026 1.44155L38.543 3.30505L38.8927 3.54279L39.1852 3.23754L39.8851 2.50716L40.8839 2.8452L41.2748 2.97752L41.4788 2.61875L41.7224 2.19038L43.0384 3.60248L43.1041 3.67305L43.1914 3.71409L48.2114 6.07409L48.2506 6.09251L48.2924 6.10392L52.4253 7.23309L52.3941 7.24517L52.2349 7.30665L52.1465 7.45264L50.1365 10.7726L50.1135 10.8106L50.0975 10.852L47.7044 17.072L45.4224 18.0198L45.2191 18.1042L45.1441 18.3112L44.6695 19.6203L43.1568 19.7949L42.7762 19.8388L42.7196 20.2178L42.4145 22.2617L37.3545 27.2143L37.2876 27.2797L37.2489 27.365L35.6289 30.935L35.5779 31.0472L35.585 31.1703L35.822 35.2836L34.4241 36.6546L34.3232 36.7536L34.289 36.8907L32.799 42.8707L32.7767 42.9603L32.7878 43.052L33.2626 46.9525L31.3572 48.3594L31.2068 48.4704L31.1661 48.6528L30.0735 53.555L26.5673 59.4647L24.9272 59.205L24.9342 58.2151L24.9368 57.8453L24.584 57.7346L22.9052 57.2074L23.1513 54.9252L23.1903 54.5633L22.8579 54.415L16.6637 51.6507L17.0776 50.9308L17.5308 50.1428L16.6226 50.1821L15.8121 50.2171L15.8304 50.1763L15.9505 49.9084L15.7752 49.673L14.7252 48.263L14.594 48.0868L14.3755 48.0642L11.4655 47.7641L10.7823 46.2013L10.6285 45.8493L10.2487 45.9073L7.82676 46.2771L6.74177 45.5176L7.72449 44.3662L7.98464 44.0614L7.74381 43.7411L6.91861 42.6437L8.23822 37.5469L8.30783 37.2781L8.11638 37.0769L8.01806 36.9736L8.31818 37.0323L9.48822 37.2612L8.83149 36.2662L8.17148 35.2662L8.01541 35.0297L7.73233 35.0421L6.60863 35.0912L6.57919 34.7697L9.64832 35.1772L9.88515 35.2087L10.0584 35.0442L14.2084 31.1042L14.3143 31.0037L14.3495 30.8619L14.9395 28.4819L15.0647 27.977L14.7861 27.9196L15.8734 26.7287L16.5512 25.9864L15.5503 25.8937L14.2029 25.769L13.6133 24.6265L14.0641 24.4299L14.2349 24.3554L14.3153 24.1872L16.3753 19.8772L16.4883 19.6408L16.3581 19.4133L15.2482 17.4733L15.1588 17.3171L14.9904 17.2537L13.8894 16.8391L14.0914 16.4352L14.3587 15.9006L13.7853 15.7319L12.2552 15.2819L11.6767 15.1117L11.6704 15.1739L10.9178 14.2132L10.7091 13.9469L10.3843 14.0416L8.63428 14.5516L8.36687 14.6295L8.29238 14.8979L7.66871 17.145L6.31267 17.8908L6.25018 17.7631L6.85495 17.2833L7.71965 16.5971L6.6336 16.3997L5.49484 16.1926L5.47325 15.2376L6.94622 14.8989L7.35645 14.8045L7.33342 14.3842L7.29341 13.6542L7.26425 13.1222L6.73511 13.1851Z" fill="black" stroke="white"/>
</svg>
