<svg width="69" height="65" viewBox="0 0 69 65" fill="none" xmlns="http://www.w3.org/2000/svg">
<mask id="path-1-inside-1_353_609" fill="white">
<path d="M22.6742 0.561646L22.9142 0.701645L24.8842 3.54165L28.1542 13.3216L31.2842 15.7916L32.2742 15.2116L34.6242 16.1616L34.7042 15.3316L36.3442 16.5216L33.3342 18.2416L35.3342 21.0316L34.3342 21.8616L34.7642 22.6816L35.9642 22.0616L39.4842 25.2816L41.2942 24.5316L42.0042 25.6416L44.8142 25.1616L45.4742 26.2016L47.2542 24.9916L48.8742 25.3416L50.2542 27.1416L50.8542 25.0516L52.1242 25.1716L50.9542 24.2016L51.1542 23.2716L52.9342 22.8916L55.4242 25.3616L54.2542 25.4416L52.0942 28.3316L53.1242 29.6916L53.0942 30.6516L52.2842 30.6716L52.6242 31.7316L53.5842 32.2616L56.1142 31.5016L55.9142 33.3816L56.7042 33.9016L59.5142 33.2016L62.0142 34.9616L61.1042 36.7016L61.4942 37.6216L63.7342 36.7216L63.6842 38.7316L60.1742 40.2616L61.1642 43.0616L64.3642 46.2116L63.1142 46.7716L63.1042 48.0316L61.4342 47.9116L61.2842 48.8716L62.8142 48.3516L66.9742 49.3316L66.9542 50.3816L68.6242 51.4916L66.4142 52.8916L67.3142 54.6016L64.9942 55.8216L66.1942 57.3816L64.6142 58.4516L65.5342 60.3716L64.4842 60.9116L64.5542 62.7916L63.9842 63.3316L61.4242 62.4516L59.6242 63.5816L58.5942 62.8316L55.1742 64.9417L54.5942 64.2916L55.6742 63.2916L54.5242 61.2116L50.5942 63.7616L51.5842 58.8216L48.7242 57.9716L48.9442 59.1916L48.1942 59.6616L49.1542 60.6316L48.5142 61.0416L45.3742 59.2116L43.1942 58.9616L43.6642 57.3916L42.4242 57.0416L41.4342 58.9116L40.6642 57.1616L38.3642 57.7916L36.6942 60.6216L34.9242 59.1916L35.4142 56.3516L36.7442 54.8816L39.8542 53.7016L38.0442 51.3816L36.1742 51.1116L34.1942 52.9316L33.1042 50.8316L32.3842 51.1216L32.8842 52.5116L31.7242 52.6216L30.5142 51.4916L29.5142 52.6816L28.1342 52.1616L25.5042 53.9816L24.6742 52.7316L22.8342 53.3116L21.9542 51.1016L22.4642 49.9816L17.0542 47.6716L16.4542 46.9216L17.8442 45.4916L17.0942 44.8716L15.4842 46.1416L11.1842 42.9516L9.40417 42.8816L5.39417 44.9516L4.42416 43.5116L0.78418 40.3716L2.12418 31.4116L4.13419 33.0416L1.69418 29.3916L0.994171 20.9816L2.92416 15.9616L1.89417 9.65165L5.20416 8.51165L7.94418 5.31165L10.3442 4.07165L22.6742 0.561646ZM62.5042 56.4716L60.9342 56.5616L61.2642 59.0116L62.3542 57.8816L63.8642 57.7916L63.6642 56.7116L64.7942 55.7616L64.0842 55.2416L63.2442 55.4716L62.5042 56.4716Z"/>
</mask>
<path d="M22.6742 0.561646L22.9142 0.701645L24.8842 3.54165L28.1542 13.3216L31.2842 15.7916L32.2742 15.2116L34.6242 16.1616L34.7042 15.3316L36.3442 16.5216L33.3342 18.2416L35.3342 21.0316L34.3342 21.8616L34.7642 22.6816L35.9642 22.0616L39.4842 25.2816L41.2942 24.5316L42.0042 25.6416L44.8142 25.1616L45.4742 26.2016L47.2542 24.9916L48.8742 25.3416L50.2542 27.1416L50.8542 25.0516L52.1242 25.1716L50.9542 24.2016L51.1542 23.2716L52.9342 22.8916L55.4242 25.3616L54.2542 25.4416L52.0942 28.3316L53.1242 29.6916L53.0942 30.6516L52.2842 30.6716L52.6242 31.7316L53.5842 32.2616L56.1142 31.5016L55.9142 33.3816L56.7042 33.9016L59.5142 33.2016L62.0142 34.9616L61.1042 36.7016L61.4942 37.6216L63.7342 36.7216L63.6842 38.7316L60.1742 40.2616L61.1642 43.0616L64.3642 46.2116L63.1142 46.7716L63.1042 48.0316L61.4342 47.9116L61.2842 48.8716L62.8142 48.3516L66.9742 49.3316L66.9542 50.3816L68.6242 51.4916L66.4142 52.8916L67.3142 54.6016L64.9942 55.8216L66.1942 57.3816L64.6142 58.4516L65.5342 60.3716L64.4842 60.9116L64.5542 62.7916L63.9842 63.3316L61.4242 62.4516L59.6242 63.5816L58.5942 62.8316L55.1742 64.9417L54.5942 64.2916L55.6742 63.2916L54.5242 61.2116L50.5942 63.7616L51.5842 58.8216L48.7242 57.9716L48.9442 59.1916L48.1942 59.6616L49.1542 60.6316L48.5142 61.0416L45.3742 59.2116L43.1942 58.9616L43.6642 57.3916L42.4242 57.0416L41.4342 58.9116L40.6642 57.1616L38.3642 57.7916L36.6942 60.6216L34.9242 59.1916L35.4142 56.3516L36.7442 54.8816L39.8542 53.7016L38.0442 51.3816L36.1742 51.1116L34.1942 52.9316L33.1042 50.8316L32.3842 51.1216L32.8842 52.5116L31.7242 52.6216L30.5142 51.4916L29.5142 52.6816L28.1342 52.1616L25.5042 53.9816L24.6742 52.7316L22.8342 53.3116L21.9542 51.1016L22.4642 49.9816L17.0542 47.6716L16.4542 46.9216L17.8442 45.4916L17.0942 44.8716L15.4842 46.1416L11.1842 42.9516L9.40417 42.8816L5.39417 44.9516L4.42416 43.5116L0.78418 40.3716L2.12418 31.4116L4.13419 33.0416L1.69418 29.3916L0.994171 20.9816L2.92416 15.9616L1.89417 9.65165L5.20416 8.51165L7.94418 5.31165L10.3442 4.07165L22.6742 0.561646ZM62.5042 56.4716L60.9342 56.5616L61.2642 59.0116L62.3542 57.8816L63.8642 57.7916L63.6642 56.7116L64.7942 55.7616L64.0842 55.2416L63.2442 55.4716L62.5042 56.4716Z" fill="black" stroke="white" stroke-width="2" mask="url(#path-1-inside-1_353_609)"/>
</svg>
