<svg width="33" height="56" viewBox="0 0 33 56" fill="none" xmlns="http://www.w3.org/2000/svg">
<path d="M19.0456 3.25111L19.7574 3.22035L19.5205 3.63234L19.2445 4.11247L19.7502 4.33817L26.1178 7.17985L25.8668 9.50798L25.8229 9.91574L26.2142 10.0386L27.9314 10.5778L27.924 11.6281L27.9209 12.0582L28.3458 12.1254L30.2996 12.4348L30.0248 17.3537L30.0166 17.5008L30.0894 17.6288L32.1504 21.2522L29.5324 26.7568L29.4728 26.8823L29.4863 27.0205L29.7055 29.2498L28.3925 32.965L28.3406 33.112L28.3814 33.2626L29.0815 35.8418L27.6994 37.8921L27.5802 38.0689L27.6252 38.2772L28.1052 40.4972L28.1304 40.6138L28.2056 40.7065L30.8864 44.0126L30.7025 44.9048L27.2845 47.4612L26.659 47.929L27.3457 48.3012L28.1865 48.7569L26.9299 50.7532L24.9321 50.0872L24.5152 49.9482L24.3238 50.3439L23.8838 51.2539L23.6496 51.7384L24.15 51.9365L24.8048 52.1957L22.7758 53.8783L20.6176 53.3747L20.4773 53.3419L20.3411 53.3889L17.2443 54.4561L16.9653 53.7887L16.8514 53.5163L16.5579 53.4845L14.6506 53.2775L15.7033 50.8291L15.9492 50.2572L15.3377 50.1405L13.0177 49.6974L13.2787 48.9086L13.3483 48.698L13.2389 48.505L10.8689 44.325L10.7636 44.1391L10.5565 44.0868L8.69644 43.6168L8.44673 43.5537L8.25037 43.7204L7.79296 44.1087L7.6021 43.8572L7.80722 41.9255L9.1704 40.0228L9.33873 39.7878L9.21913 39.5247L8.49648 37.9348L8.85326 36.734L8.95318 36.3977L8.6709 36.1893L4.66089 33.2293L4.57755 33.1678L4.47661 33.1444L1.63251 32.4867L0.720994 30.7147L3.7255 29.2298L4.13251 29.0287L3.97144 28.6042L3.1358 26.402L4.23004 25.4606L4.68147 25.0723L4.22087 24.6948L3.75034 24.3093L4.94322 19.8516L7.11302 18.6051L7.22881 18.5386L7.29601 18.4232L10.476 12.9632L10.5118 12.9018L10.529 12.8328L10.849 11.5528L10.9218 11.2618L10.6992 11.0606L9.93982 10.3743L14.4057 1.34745L15.2586 0.748098L18.0542 1.0364L18.7976 2.03474L18.5678 2.54689L18.2361 3.28608L19.0456 3.25111Z" fill="black" stroke="white"/>
</svg>
