<svg width="39" height="52" viewBox="0 0 39 52" fill="none" xmlns="http://www.w3.org/2000/svg">
<path d="M13.4613 2.73518L13.6721 2.31357L14.1144 3.05716L14.2353 3.26044L14.4691 3.29592L15.9191 3.51589L16.3208 3.57682L16.4626 3.19614L17.1526 1.34463L18.3424 1.13624L19.1478 2.18259L18.1966 3.05264L17.7203 3.48837L18.2613 3.84059L19.8801 4.89454L19.4305 5.11938L19.7809 5.59726L20.3104 6.31933L19.9639 8.04302L19.8549 8.58536L20.4054 8.6392L22.4118 8.83538L23.0537 9.85288L20.8901 13.3167L20.8075 13.4489L20.8146 13.6045L21.1282 20.4234L20.1965 22.1098L19.9228 22.6052L20.4482 22.8157L23.3614 23.9828L23.2377 25.0013L23.1201 25.9699L23.9751 25.4997L25.4984 24.6618L26.5272 25.402L27.9641 28.4437V30.5916V31.1346L28.5053 31.0899L33.7212 30.6586L33.8524 31.372L34.1024 32.732L34.1837 33.1744L34.6322 33.1401L35.3571 33.0848L35.2558 34.3L35.2209 34.7196L35.6283 34.8255L37.1633 35.2244L37.524 36.0488L36.4824 36.0316L36.2671 36.0281L36.1165 36.1821L33.9565 38.3921L33.8706 38.48L33.8352 38.5977L33.0836 41.1004L32.2233 40.7487L32.0361 40.6722L31.8484 40.7473L31.1984 41.0073L30.726 41.1963L30.9232 41.6653L30.9927 41.8306L27.7277 41.7417L27.5999 41.7383L27.4862 41.7965L25.8462 42.6366L25.6062 42.7595L25.577 43.0276L25.535 43.4138L22.6433 42.8896L20.803 42.556L22.2313 43.7634L25.8035 46.7832L22.4497 49.7998L22.2911 49.9425L22.2844 50.1558L22.2692 50.6363L22.0562 50.6429L20.7684 48.577L20.4435 48.0558L19.999 48.4797L19.1388 49.3001L17.9406 48.8897L17.8602 46.7904L18.9738 45.1981L18.2892 44.4939L17.1488 45.2446L16.3053 43.8083L16.1768 43.5896L15.9244 43.5641L10.1603 42.981L9.09567 40.977L9.05306 40.8968L8.98496 40.8367L6.08739 38.2794L7.50591 34.2371L7.68882 33.7159L7.152 33.5857L5.6897 33.2309L5.44455 32.7315L6.2946 32.1555L6.47091 32.036L6.5069 31.8261L7.27692 27.3361L7.34001 26.9682L7.00531 26.8031L4.9159 25.7725L4.29211 24.6437L5.09117 23.3316L5.30436 22.9815L5.0029 22.7038L2.01571 19.9519L2.69889 20.0559L3.04399 20.1084L3.21222 19.8025L3.76221 18.8025L3.94387 18.4722L3.6763 18.2067L1.51944 16.0662L3.17627 15.149L3.37459 15.0392L3.42271 14.8177L4.15067 11.4672L6.11 10.5323L7.36634 11.2114L7.80164 11.4467L8.04145 11.0139L8.86146 9.53389L9.04175 9.20849L8.78189 8.9423L7.44226 7.56999L8.17301 6.60303L8.56017 6.09073L7.9686 5.84095L6.95869 5.41454L7.2826 2.20957L8.18775 1.36909L10.2516 2.05162L10.7983 3.12799L10.9736 3.47314L11.3517 3.38984L13.1217 2.99985L13.3546 2.94853L13.4613 2.73518ZM34.0593 30.6307L35.3985 30.5199L35.2292 31.0948L34.5285 30.8168L34.0593 30.6307Z" fill="black" stroke="white"/>
</svg>
