<svg width="42" height="54" viewBox="0 0 42 54" fill="none" xmlns="http://www.w3.org/2000/svg">
<mask id="path-1-inside-1_353_612" fill="white">
<path d="M9.66429 17.3817L10.1243 17.7517L10.9443 20.0617L9.21429 21.3017L8.4343 19.5517L9.1843 17.8317L9.66429 17.3817ZM11.1743 14.4017L11.2843 14.4717L11.3743 17.2517L10.4343 17.3817L9.4543 16.6817L9.74429 15.8217L10.6443 15.9417L9.9543 14.6317L9.7943 14.0817L10.2843 13.7317L11.1743 14.4017ZM10.2643 1.8717L11.2143 0.491699L13.6743 0.531708L14.1643 2.82172L16.4543 5.53171L19.1243 5.7117L21.0743 9.73172L19.7243 10.9317L20.6043 12.3417L21.4643 12.1217L21.8243 13.9717L26.5743 12.9317L27.0643 14.1117L27.7243 13.6817L28.0143 15.4817L30.4043 14.7417L31.3143 16.2917L32.5943 16.3317L32.6843 15.6217L39.4643 17.3417L40.6143 18.1617L37.1143 21.5317L38.0343 22.4417L35.7143 22.8717L35.8943 24.0717L32.5243 27.5317L33.4443 28.0417L33.0943 28.6717L34.5843 28.4217L35.0643 29.5117L37.7343 30.6917L37.6843 32.9417L36.5543 32.6017L36.1743 34.6717L39.4743 33.0017L40.2943 35.0317L39.7243 35.9417L41.0743 37.1517L39.1543 39.0017L37.5743 42.7817L34.0343 41.8217L32.8443 49.9617L34.3243 51.2717L33.9643 51.8417L31.7543 52.3517L29.1643 50.4817L26.4343 53.3317L24.9943 50.9517L21.5343 49.7617L14.1343 52.6917L11.8643 52.2817L11.3743 50.8617L9.5643 50.3917L7.5743 46.3317L6.4343 46.9517L1.24429 43.4317L0.654297 39.6017L2.5743 38.6617L2.2943 34.6317L3.4843 34.1117L3.4343 32.8317L6.78429 32.0017L6.00429 31.1417L6.25429 28.4617L8.2043 27.6317L9.39429 24.7317L9.85429 25.4917L11.4443 24.9017L11.2243 22.2917L12.2143 22.5317L13.5443 19.5817L12.3443 17.8217L13.1543 16.2417L14.6843 16.4617L15.4943 15.2717L14.1143 13.7917L14.2343 9.63171L12.4843 11.6317L11.4743 11.5917L12.1643 11.1317L11.3143 10.2017L11.5343 8.61172L13.5043 8.10172L12.1943 6.98172L12.6043 5.80173L11.5243 3.7717L10.3943 4.04172L10.2643 1.8717Z"/>
</mask>
<path d="M9.66429 17.3817L10.1243 17.7517L10.9443 20.0617L9.21429 21.3017L8.4343 19.5517L9.1843 17.8317L9.66429 17.3817ZM11.1743 14.4017L11.2843 14.4717L11.3743 17.2517L10.4343 17.3817L9.4543 16.6817L9.74429 15.8217L10.6443 15.9417L9.9543 14.6317L9.7943 14.0817L10.2843 13.7317L11.1743 14.4017ZM10.2643 1.8717L11.2143 0.491699L13.6743 0.531708L14.1643 2.82172L16.4543 5.53171L19.1243 5.7117L21.0743 9.73172L19.7243 10.9317L20.6043 12.3417L21.4643 12.1217L21.8243 13.9717L26.5743 12.9317L27.0643 14.1117L27.7243 13.6817L28.0143 15.4817L30.4043 14.7417L31.3143 16.2917L32.5943 16.3317L32.6843 15.6217L39.4643 17.3417L40.6143 18.1617L37.1143 21.5317L38.0343 22.4417L35.7143 22.8717L35.8943 24.0717L32.5243 27.5317L33.4443 28.0417L33.0943 28.6717L34.5843 28.4217L35.0643 29.5117L37.7343 30.6917L37.6843 32.9417L36.5543 32.6017L36.1743 34.6717L39.4743 33.0017L40.2943 35.0317L39.7243 35.9417L41.0743 37.1517L39.1543 39.0017L37.5743 42.7817L34.0343 41.8217L32.8443 49.9617L34.3243 51.2717L33.9643 51.8417L31.7543 52.3517L29.1643 50.4817L26.4343 53.3317L24.9943 50.9517L21.5343 49.7617L14.1343 52.6917L11.8643 52.2817L11.3743 50.8617L9.5643 50.3917L7.5743 46.3317L6.4343 46.9517L1.24429 43.4317L0.654297 39.6017L2.5743 38.6617L2.2943 34.6317L3.4843 34.1117L3.4343 32.8317L6.78429 32.0017L6.00429 31.1417L6.25429 28.4617L8.2043 27.6317L9.39429 24.7317L9.85429 25.4917L11.4443 24.9017L11.2243 22.2917L12.2143 22.5317L13.5443 19.5817L12.3443 17.8217L13.1543 16.2417L14.6843 16.4617L15.4943 15.2717L14.1143 13.7917L14.2343 9.63171L12.4843 11.6317L11.4743 11.5917L12.1643 11.1317L11.3143 10.2017L11.5343 8.61172L13.5043 8.10172L12.1943 6.98172L12.6043 5.80173L11.5243 3.7717L10.3943 4.04172L10.2643 1.8717Z" fill="black" stroke="white" stroke-width="2" mask="url(#path-1-inside-1_353_612)"/>
</svg>
