<svg width="62" height="46" viewBox="0 0 62 46" fill="none" xmlns="http://www.w3.org/2000/svg">
<mask id="path-1-inside-1_353_607" fill="white">
<path d="M1.42401 23.2216L4.59402 17.0816L3.31403 16.5716L2.70401 17.9916L1.53403 17.0016L2.854 14.8816L1.83401 14.4716L1.43402 12.3816L0.424011 12.2116L1.72403 11.6416L0.594025 10.8616L1.72403 9.44156L0.72403 8.10155L2.97403 4.86156L2.66403 4.39156L1.08401 5.75156L0.374023 4.86156L1.44403 4.08156L1.39401 2.32156L2.75403 2.03156L2.88403 0.471558L4.37402 0.851555L6.64401 1.99155L5.86401 3.20156L6.99402 4.44156L8.66403 4.65156L10.504 3.23156L11.184 4.46156L12.094 3.28156L14.684 3.82156L16.014 5.64156L20.864 4.26156L23.524 4.46156L25.864 5.78156L26.414 5.18156L28.694 7.36156L31.784 7.54156L33.134 9.60155L34.304 8.42155L35.774 9.92155L36.824 9.71156L37.004 11.1316L37.924 10.1216L39.274 10.2616L39.444 12.2516L40.304 12.7316L41.914 9.29156L45.944 10.1516L46.384 7.03156L48.424 7.08156L49.044 5.47156L50.334 6.27156L49.244 4.36156L49.964 3.62156L50.364 4.63156L51.244 3.87156L52.904 6.73156L52.634 4.87156L53.884 4.15156L55.024 4.34156L55.944 5.82156L57.114 4.85155L56.964 3.64156L58.264 3.72156L58.254 5.12156L59.794 4.14156L60.104 6.98156L58.884 7.30156L59.534 8.43156L58.674 9.48156L60.544 12.5216L60.044 15.6516L58.714 16.4516L59.964 18.2316L59.264 19.4416L61.664 21.1116L58.714 21.5416L58.774 25.1416L56.664 28.2116L54.864 27.4516L53.534 28.3116L54.244 30.7816L56.414 30.8916L56.494 34.3416L55.784 35.3216L54.904 34.1116L53.104 34.7216L53.484 36.9216L54.194 37.3716L54.514 36.6816L55.734 38.2616L56.304 37.3616L54.924 37.0916L55.114 35.3916L58.294 36.8716L58.474 38.9816L58.994 36.5416L59.654 37.3816L59.644 37.9016L59.284 38.4616L60.914 38.9116L59.184 39.6616L59.424 40.7516L58.744 40.0216L57.794 41.6616L57.564 43.6416L55.174 43.2416L54.284 44.5316L53.504 43.2416L52.354 44.1516L50.664 43.7116L48.644 44.5816L46.834 42.9116L44.504 45.1616L43.184 44.2516L42.194 44.9616L39.554 42.1816L37.784 43.9816L36.444 42.8116L36.284 41.1916L35.374 42.7316L33.634 42.3216L34.194 41.6016L32.374 40.1416L31.304 40.6116L31.544 39.7916L28.844 38.9616L28.124 39.7016L26.304 37.2716L25.134 38.9616L22.714 39.4716L22.354 37.7216L20.364 38.7216L19.424 37.1416L18.944 37.7416L18.634 36.8116L17.284 37.0416L16.644 35.7616L13.364 37.9416L12.284 37.4516L11.244 38.2916L6.44403 38.6816L6.50403 37.8816L5.48401 38.0916L5.12402 37.3416L2.55402 37.6116L1.43402 36.0016L2.48401 34.8816L1.39401 33.8216L0.984009 34.4016L1.22403 32.3116L3.24402 31.8216L4.53403 33.4916L5.15402 31.6816L4.89401 30.7016L3.84402 30.5916L3.37402 25.8516L1.73401 24.1116L2.49402 23.3316L1.42401 23.2216Z"/>
</mask>
<path d="M1.42401 23.2216L4.59402 17.0816L3.31403 16.5716L2.70401 17.9916L1.53403 17.0016L2.854 14.8816L1.83401 14.4716L1.43402 12.3816L0.424011 12.2116L1.72403 11.6416L0.594025 10.8616L1.72403 9.44156L0.72403 8.10155L2.97403 4.86156L2.66403 4.39156L1.08401 5.75156L0.374023 4.86156L1.44403 4.08156L1.39401 2.32156L2.75403 2.03156L2.88403 0.471558L4.37402 0.851555L6.64401 1.99155L5.86401 3.20156L6.99402 4.44156L8.66403 4.65156L10.504 3.23156L11.184 4.46156L12.094 3.28156L14.684 3.82156L16.014 5.64156L20.864 4.26156L23.524 4.46156L25.864 5.78156L26.414 5.18156L28.694 7.36156L31.784 7.54156L33.134 9.60155L34.304 8.42155L35.774 9.92155L36.824 9.71156L37.004 11.1316L37.924 10.1216L39.274 10.2616L39.444 12.2516L40.304 12.7316L41.914 9.29156L45.944 10.1516L46.384 7.03156L48.424 7.08156L49.044 5.47156L50.334 6.27156L49.244 4.36156L49.964 3.62156L50.364 4.63156L51.244 3.87156L52.904 6.73156L52.634 4.87156L53.884 4.15156L55.024 4.34156L55.944 5.82156L57.114 4.85155L56.964 3.64156L58.264 3.72156L58.254 5.12156L59.794 4.14156L60.104 6.98156L58.884 7.30156L59.534 8.43156L58.674 9.48156L60.544 12.5216L60.044 15.6516L58.714 16.4516L59.964 18.2316L59.264 19.4416L61.664 21.1116L58.714 21.5416L58.774 25.1416L56.664 28.2116L54.864 27.4516L53.534 28.3116L54.244 30.7816L56.414 30.8916L56.494 34.3416L55.784 35.3216L54.904 34.1116L53.104 34.7216L53.484 36.9216L54.194 37.3716L54.514 36.6816L55.734 38.2616L56.304 37.3616L54.924 37.0916L55.114 35.3916L58.294 36.8716L58.474 38.9816L58.994 36.5416L59.654 37.3816L59.644 37.9016L59.284 38.4616L60.914 38.9116L59.184 39.6616L59.424 40.7516L58.744 40.0216L57.794 41.6616L57.564 43.6416L55.174 43.2416L54.284 44.5316L53.504 43.2416L52.354 44.1516L50.664 43.7116L48.644 44.5816L46.834 42.9116L44.504 45.1616L43.184 44.2516L42.194 44.9616L39.554 42.1816L37.784 43.9816L36.444 42.8116L36.284 41.1916L35.374 42.7316L33.634 42.3216L34.194 41.6016L32.374 40.1416L31.304 40.6116L31.544 39.7916L28.844 38.9616L28.124 39.7016L26.304 37.2716L25.134 38.9616L22.714 39.4716L22.354 37.7216L20.364 38.7216L19.424 37.1416L18.944 37.7416L18.634 36.8116L17.284 37.0416L16.644 35.7616L13.364 37.9416L12.284 37.4516L11.244 38.2916L6.44403 38.6816L6.50403 37.8816L5.48401 38.0916L5.12402 37.3416L2.55402 37.6116L1.43402 36.0016L2.48401 34.8816L1.39401 33.8216L0.984009 34.4016L1.22403 32.3116L3.24402 31.8216L4.53403 33.4916L5.15402 31.6816L4.89401 30.7016L3.84402 30.5916L3.37402 25.8516L1.73401 24.1116L2.49402 23.3316L1.42401 23.2216Z" fill="black" stroke="white" stroke-width="2" mask="url(#path-1-inside-1_353_607)"/>
</svg>
