<svg width="61" height="34" viewBox="0 0 61 34" fill="none" xmlns="http://www.w3.org/2000/svg">
<path d="M57.7154 23.3754L57.635 23.4386L57.3048 23.6984L57.5038 24.0684L59.2942 27.3971L56.636 27.7737L54.9223 25.3527L54.7463 25.104L54.4446 25.1464L51.6509 25.539L50.999 24.8006L50.615 24.3658L50.2416 24.8097L49.1799 26.0714L46.1757 25.942L45.9509 25.9323L45.7945 26.0942L43.4804 28.4903L41.9259 27.922L41.7354 27.8523L41.5503 27.935L39.1102 29.025L39.0164 29.067L38.9466 29.1425L37.9966 30.1726L37.7986 30.3873L37.8884 30.6652L38.4413 32.3774L35.3657 31.6066L35.1364 31.5491L34.9465 31.6898L33.1959 32.9869L31.6126 32.6623L29.6868 29.8491L29.593 29.7122L29.436 29.6585L22.126 27.1585L21.9183 27.0874L21.7254 27.1922L19.5918 28.3518L17.8664 27.9543L17.5698 27.886L17.3729 28.1181L14.5769 31.4138L11.9396 31.9203L10.4859 30.8878L9.04785 26.6315L8.92115 26.2565L8.52707 26.2938L6.52347 26.4833L4.28606 24.4976L4.168 24.3928L4.01119 24.3748L0.58773 23.9818L0.890717 21.3325L2.57002 20.4593L5.90492 20.119L6.13978 20.095L6.2705 19.8984L7.35016 18.2749L8.34761 18.7013L8.54143 18.7842L8.73607 18.7032L10.3961 18.0132L10.589 17.9331L10.6675 17.7395L11.5531 15.5562L17.9583 15.4536L19.1014 16.0887L19.4457 16.28L19.7123 15.99L22.4615 12.9992L23.5527 13.3211L23.7723 13.3859L23.9647 13.262L26.2647 11.782L26.5254 11.6143L26.4911 11.3062L26.0311 7.17622L26.016 7.04101L25.9346 6.93207L25.207 5.95941L25.5815 5.45152L32.0929 4.92332L41.8911 5.76969L42.1984 5.79623L42.36 5.53352L44.3829 2.24516L47.1292 1.1572L54.1224 5.33814L53.7346 14.8011L53.7331 14.8382L53.737 14.8751L54.4771 21.7451L54.5087 22.0393L54.7819 22.1531L57.7154 23.3754Z" fill="black" stroke="white"/>
</svg>
