<svg width="67" height="58" viewBox="0 0 67 58" fill="none" xmlns="http://www.w3.org/2000/svg">
<mask id="path-1-inside-1_353_610" fill="white">
<path d="M7.84406 7.3316L10.8141 8.7916L12.2841 5.6116L14.324 5.02158L14.704 2.59158L17.9041 4.16159L18.834 1.12158L22.4741 0.891602L23.574 1.4816L22.234 3.09158L22.2241 5.25159L23.824 5.69159L24.5041 8.47159L26.4041 9.75159L29.604 9.02158L29.894 10.8816L31.174 11.6916L38.364 11.9416L39.584 13.1816L43.1941 11.4416L43.984 12.3116H44.9741L45.074 15.4116L50.3441 14.4816L52.054 18.1616L53.894 18.3916L54.5941 20.0416L57.1541 22.6616L55.5341 23.6016L55.824 26.9616L54.4341 28.2916L56.1941 29.2716L56.244 30.7116L58.244 32.2116L58.0941 34.2016L60.0341 37.7416L64.604 40.9016L65.734 45.1316L66.7241 45.7616L65.834 49.2916L62.854 51.4316L63.0941 53.9216L60.584 53.4316L60.514 52.4216L59.1241 51.9116L58.0041 54.4516L54.9141 53.8216L55.2241 52.8916L53.6341 52.3716L53.3841 53.6616L51.4641 55.0516L49.484 51.2716L47.804 51.4816L46.604 49.7216L45.0041 51.3016L43.2541 51.5016L41.5341 51.3316L40.554 50.0816L39.364 51.5616L38.264 50.1916L37.794 51.4016L35.614 51.7816L33.264 54.2916L30.454 54.2616L28.304 55.4816L27.954 57.1716L25.804 57.8916L23.674 56.8116L22.5941 53.2916L20.994 52.3916L20.304 52.8316L18.0341 51.3916L16.854 52.3316L15.0941 51.8116L13.954 52.4916L12.5341 50.9916L12.864 49.1916L10.204 48.8116L9.94406 47.2916L8.68405 48.5116L7.76404 47.5616L6.57404 48.0816L6.86404 46.7716L5.40405 46.7816L5.78406 42.3116L4.60403 41.9216L3.44406 39.8416L4.47406 37.1916H5.88406L6.29404 36.1316L5.58405 35.6616L6.03406 33.0816L4.70404 31.4116L2.70404 30.1816L0.414062 26.1416L2.83405 25.0916L2.76404 23.8116L4.74405 23.9616L5.05405 22.6116L7.40405 21.0016L6.89404 19.9016L7.72406 18.4416L9.58405 17.8216L8.91406 16.3916L9.27405 13.7816L8.02405 13.0516L7.13406 10.7316L7.84406 7.3316Z"/>
</mask>
<path d="M7.84406 7.3316L10.8141 8.7916L12.2841 5.6116L14.324 5.02158L14.704 2.59158L17.9041 4.16159L18.834 1.12158L22.4741 0.891602L23.574 1.4816L22.234 3.09158L22.2241 5.25159L23.824 5.69159L24.5041 8.47159L26.4041 9.75159L29.604 9.02158L29.894 10.8816L31.174 11.6916L38.364 11.9416L39.584 13.1816L43.1941 11.4416L43.984 12.3116H44.9741L45.074 15.4116L50.3441 14.4816L52.054 18.1616L53.894 18.3916L54.5941 20.0416L57.1541 22.6616L55.5341 23.6016L55.824 26.9616L54.4341 28.2916L56.1941 29.2716L56.244 30.7116L58.244 32.2116L58.0941 34.2016L60.0341 37.7416L64.604 40.9016L65.734 45.1316L66.7241 45.7616L65.834 49.2916L62.854 51.4316L63.0941 53.9216L60.584 53.4316L60.514 52.4216L59.1241 51.9116L58.0041 54.4516L54.9141 53.8216L55.2241 52.8916L53.6341 52.3716L53.3841 53.6616L51.4641 55.0516L49.484 51.2716L47.804 51.4816L46.604 49.7216L45.0041 51.3016L43.2541 51.5016L41.5341 51.3316L40.554 50.0816L39.364 51.5616L38.264 50.1916L37.794 51.4016L35.614 51.7816L33.264 54.2916L30.454 54.2616L28.304 55.4816L27.954 57.1716L25.804 57.8916L23.674 56.8116L22.5941 53.2916L20.994 52.3916L20.304 52.8316L18.0341 51.3916L16.854 52.3316L15.0941 51.8116L13.954 52.4916L12.5341 50.9916L12.864 49.1916L10.204 48.8116L9.94406 47.2916L8.68405 48.5116L7.76404 47.5616L6.57404 48.0816L6.86404 46.7716L5.40405 46.7816L5.78406 42.3116L4.60403 41.9216L3.44406 39.8416L4.47406 37.1916H5.88406L6.29404 36.1316L5.58405 35.6616L6.03406 33.0816L4.70404 31.4116L2.70404 30.1816L0.414062 26.1416L2.83405 25.0916L2.76404 23.8116L4.74405 23.9616L5.05405 22.6116L7.40405 21.0016L6.89404 19.9016L7.72406 18.4416L9.58405 17.8216L8.91406 16.3916L9.27405 13.7816L8.02405 13.0516L7.13406 10.7316L7.84406 7.3316Z" fill="black" stroke="white" stroke-width="2" mask="url(#path-1-inside-1_353_610)"/>
</svg>
