<svg width="78" height="61" viewBox="0 0 78 61" fill="none" xmlns="http://www.w3.org/2000/svg">
<mask id="path-1-inside-1_353_618" fill="white">
<path d="M25.054 0.291504L25.1541 0.981491L26.494 0.811493L27.6941 3.2115L30.7141 3.6015L31.054 5.9115L33.0341 4.7415L33.604 5.0415L32.984 6.5415L34.0641 7.4715L36.604 7.7215L37.4141 8.98151L39.334 8.52148L39.054 10.2415L39.8441 10.1915L41.8141 13.3315L44.524 13.9915L43.9341 14.9015L44.8741 15.8315L46.3141 14.5115L48.744 14.7315L49.114 13.8615L53.4141 12.7215L53.4741 11.7815L57.764 12.2715L57.984 11.4415L59.894 10.8915L62.104 12.3415L61.894 13.1315L62.854 12.0215L65.9341 11.5915L66.3141 10.6715L68.4641 10.9815L68.294 13.1615L68.794 14.0915L70.2541 13.6415L71.494 16.5915L74.394 16.2915L74.8141 18.0015L76.9741 18.6115L77.054 20.2115L74.774 19.8715L71.4041 20.9515L71.954 22.4515L74.054 23.6715L72.7841 26.1215L74.114 26.2015L74.764 28.0515L74.2241 28.8215L76.144 31.6715L74.2541 33.3115L74.9741 33.9315L74.604 35.0415L73.7541 35.0515L72.854 35.2615L72.744 38.7715L75.304 39.8115L75.144 41.3415L71.274 42.1715L70.8841 43.1815L67.6241 42.4815L66.394 39.6215L64.8141 38.8115L64.764 39.7215L63.4641 39.4415L60.204 40.9115L57.1841 39.0715L55.794 39.9115L55.394 38.8415L48.704 59.3615L46.454 59.1415L46.8441 57.2015L46.1841 56.3015L46.8841 55.9515L44.5341 54.4215L45.824 53.2415L44.554 51.5915L42.7841 51.9015L41.994 54.0215L40.544 53.8015L39.6341 52.2715L39.014 53.5115L37.244 53.9015L36.604 52.6415L34.0641 51.8015L32.804 52.9715L32.424 56.7315L31.354 57.9815L31.7241 58.8615L29.924 58.8315L27.7541 60.5515L26.6941 60.4215L26.8841 58.6815L25.6941 59.2715L24.9441 58.2715L23.7241 59.5015L21.8441 59.3015L20.5941 58.0115L17.0941 59.6015H16.054L15.1941 57.7815L11.774 57.0815L12.5641 55.1615L12.1341 53.4015L12.0641 52.3615L14.014 51.9215L14.104 50.6615L15.804 51.0715L16.514 50.3115L15.6941 50.2315L15.334 46.0515L16.3141 42.2515L14.364 41.3015L14.3841 40.4115L10.794 40.6215L9.64404 38.0715L8.25406 38.8315L5.61404 37.6315L5.38406 33.8115L4.43405 33.4115L4.77405 32.3115L3.77405 30.3815L1.30405 27.4815L0.914062 24.9315L2.19406 25.6215L5.42404 24.7315L7.31406 25.7315L7.89404 27.8115L13.324 25.4415L16.204 23.1215L17.734 22.5815L18.5941 23.1915L18.1341 19.6315L20.4741 17.7815L17.8841 15.2315L18.6241 12.3515L17.924 10.6415L16.7141 11.5015L16.074 10.6415L18.704 8.92151L19.394 6.37151L17.9341 4.9715L18.424 2.9015L21.2141 2.1915L23.704 2.8615L24.1541 0.591492L25.054 0.291504Z"/>
</mask>
<path d="M25.054 0.291504L25.1541 0.981491L26.494 0.811493L27.6941 3.2115L30.7141 3.6015L31.054 5.9115L33.0341 4.7415L33.604 5.0415L32.984 6.5415L34.0641 7.4715L36.604 7.7215L37.4141 8.98151L39.334 8.52148L39.054 10.2415L39.8441 10.1915L41.8141 13.3315L44.524 13.9915L43.9341 14.9015L44.8741 15.8315L46.3141 14.5115L48.744 14.7315L49.114 13.8615L53.4141 12.7215L53.4741 11.7815L57.764 12.2715L57.984 11.4415L59.894 10.8915L62.104 12.3415L61.894 13.1315L62.854 12.0215L65.9341 11.5915L66.3141 10.6715L68.4641 10.9815L68.294 13.1615L68.794 14.0915L70.2541 13.6415L71.494 16.5915L74.394 16.2915L74.8141 18.0015L76.9741 18.6115L77.054 20.2115L74.774 19.8715L71.4041 20.9515L71.954 22.4515L74.054 23.6715L72.7841 26.1215L74.114 26.2015L74.764 28.0515L74.2241 28.8215L76.144 31.6715L74.2541 33.3115L74.9741 33.9315L74.604 35.0415L73.7541 35.0515L72.854 35.2615L72.744 38.7715L75.304 39.8115L75.144 41.3415L71.274 42.1715L70.8841 43.1815L67.6241 42.4815L66.394 39.6215L64.8141 38.8115L64.764 39.7215L63.4641 39.4415L60.204 40.9115L57.1841 39.0715L55.794 39.9115L55.394 38.8415L48.704 59.3615L46.454 59.1415L46.8441 57.2015L46.1841 56.3015L46.8841 55.9515L44.5341 54.4215L45.824 53.2415L44.554 51.5915L42.7841 51.9015L41.994 54.0215L40.544 53.8015L39.6341 52.2715L39.014 53.5115L37.244 53.9015L36.604 52.6415L34.0641 51.8015L32.804 52.9715L32.424 56.7315L31.354 57.9815L31.7241 58.8615L29.924 58.8315L27.7541 60.5515L26.6941 60.4215L26.8841 58.6815L25.6941 59.2715L24.9441 58.2715L23.7241 59.5015L21.8441 59.3015L20.5941 58.0115L17.0941 59.6015H16.054L15.1941 57.7815L11.774 57.0815L12.5641 55.1615L12.1341 53.4015L12.0641 52.3615L14.014 51.9215L14.104 50.6615L15.804 51.0715L16.514 50.3115L15.6941 50.2315L15.334 46.0515L16.3141 42.2515L14.364 41.3015L14.3841 40.4115L10.794 40.6215L9.64404 38.0715L8.25406 38.8315L5.61404 37.6315L5.38406 33.8115L4.43405 33.4115L4.77405 32.3115L3.77405 30.3815L1.30405 27.4815L0.914062 24.9315L2.19406 25.6215L5.42404 24.7315L7.31406 25.7315L7.89404 27.8115L13.324 25.4415L16.204 23.1215L17.734 22.5815L18.5941 23.1915L18.1341 19.6315L20.4741 17.7815L17.8841 15.2315L18.6241 12.3515L17.924 10.6415L16.7141 11.5015L16.074 10.6415L18.704 8.92151L19.394 6.37151L17.9341 4.9715L18.424 2.9015L21.2141 2.1915L23.704 2.8615L24.1541 0.591492L25.054 0.291504Z" fill="black" stroke="white" stroke-width="2" mask="url(#path-1-inside-1_353_618)"/>
</svg>
