<svg width="32" height="42" viewBox="0 0 32 42" fill="none" xmlns="http://www.w3.org/2000/svg">
<path d="M3.29211 6.88335L1.89671 7.00079L2.14915 5.21143L2.17109 5.05594L2.10019 4.91583L0.995666 2.73312L1.05115 2.67208L1.75531 3.22488L2.28038 3.63707L2.52829 3.01729L2.98452 1.87674L3.02286 1.95703L3.18487 2.29634L3.55581 2.23486L7.07891 1.65098L9.50793 1.61472L11.438 3.5726L11.682 3.82013L11.999 3.67764L16.1646 1.80545L17.1136 2.59303L16.6404 3.7643L16.5145 4.07609L16.7557 4.31033L17.7858 5.31033L18.2117 5.72381L18.5468 5.23385L19.4732 3.87931L20.2944 4.97198L20.4435 5.17048L20.6918 5.17158L22.7247 5.18058L23.866 6.49886L24.0788 6.74457L24.3897 6.64991L27.7756 5.61905L27.7641 6.54537L27.7592 6.93566L28.1367 7.03509L29.6956 7.44579L30.0239 9.07062L30.0963 9.42857L30.4593 9.46858L31.2569 9.55651L31.1398 11.5394L29.9924 12.2818L29.8893 12.3485L29.8289 12.4554L28.9689 13.9754L28.8538 14.1788L28.936 14.3975L29.2999 15.3656L29.0316 15.4844L28.6678 15.6455L28.7431 16.0362L29.4831 19.8762L29.5196 20.0654L29.6736 20.1812L30.3389 20.6814L27.312 22.0988L27.054 22.2196L27.0264 22.5032L26.7914 24.9192L26.395 25.3925L25.1844 25.2452L24.7827 25.1964L24.6512 25.5791L24.1437 27.0554L23.8662 26.9794L22.4185 26.5828L23.3391 27.7683L25.0903 30.0233L24.4046 30.3773L24.1928 30.4867L24.1445 30.7201L23.6019 33.3383L20.6319 33.1724L19.4887 33.1085L20.2189 33.9904L21.5615 35.6121L20.8484 35.8973L20.6158 35.9904L20.5511 36.2323L19.5769 39.8731L19.1314 40.6778L17.9639 40.6627L17.2043 40.3909L16.9491 39.3703L16.8524 38.9833L16.4535 38.9917L15.3902 39.0142L14.4908 36.5681L14.9356 34.1833L14.9825 33.9317L14.8059 33.7465L13.5658 32.4465L13.4351 32.3094L13.2464 32.2934L11.7555 32.1667L11.9512 30.3347L12.0109 29.7761L11.4491 29.7816L9.74964 29.7984L8.90214 27.8612L8.82784 27.6914L8.66079 27.611L7.42919 27.0186L7.68468 25.718L7.75221 25.3742L7.45217 25.1934L6.466 24.599L8.20405 22.2816L8.56985 21.7938L8.01994 21.5306L6.41763 20.7635L6.33948 16.9517L6.9062 16.5644L7.70429 16.0189L6.79788 15.6828L6.36131 15.5209L6.52839 15.0197L6.677 14.5739L6.24123 14.3979L5.16053 13.9616L5.59902 13.1882L5.76774 12.8906L5.55148 12.6255L3.05789 9.56918L2.79442 8.33238L3.60787 7.79994L3.29211 6.88335Z" fill="black" stroke="white"/>
</svg>
