<svg width="58" height="58" viewBox="0 0 58 58" fill="none" xmlns="http://www.w3.org/2000/svg">
<mask id="path-1-inside-1_353_619" fill="white">
<path d="M16.9239 6.81155L19.2139 5.80156L19.8539 6.83156L21.6639 7.02156L22.2239 5.10156L25.7739 3.05156L25.2639 2.05156L26.4839 2.48155L26.4239 1.57156L31.7539 0.601562L34.0339 1.95155L35.1339 4.09155L34.6239 4.91156L35.5339 10.5216L39.1539 11.9716L39.5839 11.2516L39.7239 12.8316L41.4839 15.0716L45.1539 15.2416L45.7739 16.0416L45.4739 14.6116L46.3939 14.1316L47.6439 14.7116L49.8939 18.8316L50.8239 19.3116L52.3739 18.4616L57.2739 21.9016L54.5839 22.2416L54.1739 24.0716L52.9939 24.7016L54.3439 24.6316L54.2539 26.0016L52.2039 26.1516L52.2139 27.5316L52.7839 28.5416L54.2239 28.6816L53.2439 31.3816L54.5039 34.2216L53.1139 34.7116L52.9439 37.4116L52.0539 35.9616L50.8439 36.6516L51.4539 40.2916L48.0239 43.8816L48.4039 44.8816L45.2739 45.8316L43.4139 48.1716L44.2439 49.9416L44.8539 49.2816L44.0239 50.7216L41.6139 51.6416L40.7439 51.6716L38.5439 52.3816L37.9339 53.9616L36.8939 54.1316L35.1939 52.4616L34.4139 53.9316L36.0139 56.4516L34.9939 57.0716L30.0439 54.4516L28.7539 54.5816L27.7739 55.0016L26.9439 54.1416L26.8839 55.2616L25.2639 56.2816L24.0139 54.8116L21.8239 54.9416L19.7939 53.7616L19.1839 52.3116L18.4039 52.8916L16.2639 51.5316L15.4439 51.9916L15.3939 51.2816L14.6439 52.9816L13.5439 53.0916L11.0739 52.0616L10.2239 50.0816L12.0039 47.9716L10.9239 47.4816L9.51393 48.7716L7.39392 47.7816L4.18393 48.1016L4.48393 47.0316L3.39392 45.2916L3.22392 42.6716L1.48393 42.4216L0.773926 40.8816L2.24393 39.2116L3.84393 39.2416L3.73393 37.4616L2.33392 37.0116L2.13393 35.6916L7.77393 33.1016L6.68393 32.6016L6.46393 30.1316L5.08392 29.7616V27.8716L7.98393 26.4416L9.65393 26.8416L9.37393 24.4616L10.2739 23.5516L8.67393 22.0116L9.37393 21.3416L8.73393 20.7116L13.2239 17.7816L12.3139 14.1316L13.4839 12.3016L12.7039 9.37157L14.1739 9.48155L13.5639 7.90157L16.9239 6.81155Z"/>
</mask>
<path d="M16.9239 6.81155L19.2139 5.80156L19.8539 6.83156L21.6639 7.02156L22.2239 5.10156L25.7739 3.05156L25.2639 2.05156L26.4839 2.48155L26.4239 1.57156L31.7539 0.601562L34.0339 1.95155L35.1339 4.09155L34.6239 4.91156L35.5339 10.5216L39.1539 11.9716L39.5839 11.2516L39.7239 12.8316L41.4839 15.0716L45.1539 15.2416L45.7739 16.0416L45.4739 14.6116L46.3939 14.1316L47.6439 14.7116L49.8939 18.8316L50.8239 19.3116L52.3739 18.4616L57.2739 21.9016L54.5839 22.2416L54.1739 24.0716L52.9939 24.7016L54.3439 24.6316L54.2539 26.0016L52.2039 26.1516L52.2139 27.5316L52.7839 28.5416L54.2239 28.6816L53.2439 31.3816L54.5039 34.2216L53.1139 34.7116L52.9439 37.4116L52.0539 35.9616L50.8439 36.6516L51.4539 40.2916L48.0239 43.8816L48.4039 44.8816L45.2739 45.8316L43.4139 48.1716L44.2439 49.9416L44.8539 49.2816L44.0239 50.7216L41.6139 51.6416L40.7439 51.6716L38.5439 52.3816L37.9339 53.9616L36.8939 54.1316L35.1939 52.4616L34.4139 53.9316L36.0139 56.4516L34.9939 57.0716L30.0439 54.4516L28.7539 54.5816L27.7739 55.0016L26.9439 54.1416L26.8839 55.2616L25.2639 56.2816L24.0139 54.8116L21.8239 54.9416L19.7939 53.7616L19.1839 52.3116L18.4039 52.8916L16.2639 51.5316L15.4439 51.9916L15.3939 51.2816L14.6439 52.9816L13.5439 53.0916L11.0739 52.0616L10.2239 50.0816L12.0039 47.9716L10.9239 47.4816L9.51393 48.7716L7.39392 47.7816L4.18393 48.1016L4.48393 47.0316L3.39392 45.2916L3.22392 42.6716L1.48393 42.4216L0.773926 40.8816L2.24393 39.2116L3.84393 39.2416L3.73393 37.4616L2.33392 37.0116L2.13393 35.6916L7.77393 33.1016L6.68393 32.6016L6.46393 30.1316L5.08392 29.7616V27.8716L7.98393 26.4416L9.65393 26.8416L9.37393 24.4616L10.2739 23.5516L8.67393 22.0116L9.37393 21.3416L8.73393 20.7116L13.2239 17.7816L12.3139 14.1316L13.4839 12.3016L12.7039 9.37157L14.1739 9.48155L13.5639 7.90157L16.9239 6.81155Z" fill="black" stroke="white" stroke-width="2" mask="url(#path-1-inside-1_353_619)"/>
</svg>
