<svg width="73" height="54" viewBox="0 0 73 54" fill="none" xmlns="http://www.w3.org/2000/svg">
<path d="M56.9575 2.05882L57.9718 1.55165L58.0653 2.77956L58.0839 3.02388L58.2884 3.15887L60.786 4.80765L64.4783 9.27993L64.541 9.35581L64.6277 9.4023L67.5344 10.9601L71.5095 20.1251L71.0075 19.9971L70.4347 19.851L70.3856 20.4401L70.2865 21.63L69.2896 21.8426L68.8822 21.9295L68.8941 22.3458L68.9366 23.8426L68.0794 24.4676L67.6597 24.7735L67.9813 25.1813L68.6913 26.0813L69.0157 26.4925L69.4114 26.1494L69.5783 26.0047L68.3132 27.8264L68.1089 28.1206L68.3217 28.4087L69.0839 29.4403L68.1926 30.5603L67.8614 30.9766L68.2974 31.2814L68.7001 31.5629L68.2218 31.7743L66.697 32.448L68.3409 32.7247L69.0081 32.837L69.3428 34.5856L69.3941 34.8537L69.6474 34.9555L70.1144 35.1433L69.1094 36.7573L68.881 37.1242L69.2109 37.4033L70.3809 38.3933L70.8966 38.8297L71.1633 38.209L71.5824 37.2333L71.895 37.3554L69.0167 42.9303L68.6454 43.2926L68.3988 42.975L68.1553 42.6613L67.7946 42.8275L66.9655 43.2095L65.2059 42.5392L64.0741 40.9157L63.8513 40.5962L63.487 40.7339L62.1432 41.2422L59.8455 39.9739L59.7217 39.9055L59.5805 39.9122L56.3148 40.0648L56.3509 39.7362L56.4541 38.7964L55.6192 39.2401L53.8692 40.1701L53.6728 40.2745L53.6188 40.4903L53.3979 41.3739L52.6862 41.3421L52.2926 41.3245L52.1835 41.703L50.7891 46.5375L48.1549 46.05L47.4713 45.9235L47.5688 46.6117L47.6405 47.1175L46.4689 46.8907L46.0902 46.8174L45.9232 47.1651L45.0521 48.9783L41.6692 49.6306L41.1536 49.7301L41.2781 50.2402L41.7751 52.2761L40.2532 52.5883L39.0134 50.9409L38.7106 50.5386L38.7325 50.4377L38.773 50.2512L38.6789 50.0852L37.6989 48.3552L37.3739 47.7815L36.9092 48.2492L36.0788 49.0849L36.0598 48.9375L36.015 48.5912L35.6744 48.514L34.0164 48.1382L34.2468 47.6162L36.3086 48.0604L36.9287 48.194L36.9137 47.5598L36.8437 44.5998L36.825 43.8055L36.117 44.1661L35.1984 44.6339L35.1634 43.859L35.1417 43.3796L34.6618 43.3816L32.6515 43.3902L31.988 41.7355L31.6156 40.8071L31.0965 41.6621L30.6964 42.3211L30.325 42.0551L30.1368 41.9204L29.9123 41.9766L26.0517 42.944L25.7882 42.1535L25.6755 41.8153L25.319 41.8116L25.0619 41.809L25.3599 41.0428L25.7529 40.0321L24.7291 40.3895L22.6984 41.0985L19.3498 37.8905L19.0873 37.6391L18.7672 37.8112L14.0115 40.3666L10.5334 41.0836L10.5051 41.0846L10.3989 40.3409L10.1725 38.7564L9.45667 40.188L9.23611 40.6291L3.26144 38.79L1.54752 36.5914L5.47735 25.644L6.56293 24.5407L12.415 21.9694L12.4569 21.951L12.4947 21.9253L22.77 14.9496L30.4066 13.8263L30.4699 13.817L30.5288 13.792L38.1353 10.5713L40.4147 11.2318L40.579 11.2795L40.738 11.2165L44.348 9.78646L44.4063 9.76338L44.4571 9.72662L55.5408 1.7032L56.5603 2.08052L56.7636 2.15575L56.9575 2.05882Z" fill="black" stroke="white"/>
</svg>
