<svg width="49" height="63" viewBox="0 0 49 63" fill="none" xmlns="http://www.w3.org/2000/svg">
<mask id="path-1-inside-1_353_624" fill="white">
<path d="M28.794 0.661621L32.624 1.79163L32.154 2.81161L33.704 4.86162L32.734 7.25162L36.214 9.76163L36.764 11.8816L38.434 11.2616L39.434 13.8216L41.034 12.5416L41.674 16.0916L44.274 16.8216L44.914 18.2516L45.914 17.3316L45.994 19.7316L42.514 20.0616L44.094 20.4116L44.174 21.2116L42.744 21.6116L42.144 23.2116L45.204 24.4816L45.554 26.9716L44.034 29.1316L44.844 29.8316L44.494 30.9216L47.944 30.2216L47.364 31.0616L48.994 32.0816L46.584 32.8216L47.094 33.7516L45.054 34.9616L45.724 36.7616L42.634 37.6216L43.934 39.9616L41.674 40.6316L42.614 42.2816L42.024 44.0716L43.294 44.6416L42.984 46.2416L41.384 45.6316L40.924 47.3516L39.724 47.5116L37.504 46.7716L36.344 47.8316L31.624 47.3316L30.084 48.8116L27.754 48.1616L26.424 51.5416L27.754 54.9816L25.974 57.6416L23.194 59.1016L23.184 60.3616L20.244 60.7916L18.304 62.4216L17.544 62.3116L17.454 60.0116L15.954 60.9616L14.854 60.1316L15.594 61.4616L13.574 62.8216L7.504 61.7316L5.93399 62.7716L2.70398 62.7916L4.34399 60.2616L5.314 60.7716L5.99399 58.0716L5.284 55.7116L1.87399 54.3716L1.064 50.8916L0.583984 49.6816L2.29398 49.7016L2.73398 48.2916L2.134 47.9916L4.40399 46.6716L3.974 46.2616L6.98398 45.5416L5.18399 43.7916L5.67398 39.0616L4.98398 36.5416L6.86398 33.0116L5.60397 31.3416L6.80399 31.0416L6.29398 29.3316L8.55399 28.3116L8.02399 27.4116L8.57397 24.3016L9.76398 22.9616L8.64398 22.2716L8.98398 20.2316L8.07397 17.4716L8.51398 16.2116L7.48398 15.1616L8.61398 14.5916L9.314 12.1616L7.634 9.33162L8.444 9.24162L7.884 7.23161L7.14398 7.29163L6.92398 6.55162L8.93399 5.04163L7.90399 4.18163L8.784 2.98161L10.554 1.18163L13.194 3.96162L14.184 3.25162L15.504 4.16162L17.834 1.91162L19.644 3.58162L21.664 2.71162L23.354 3.15163L24.504 2.24162L25.284 3.53162L26.174 2.24162L28.564 2.64162L28.794 0.661621Z"/>
</mask>
<path d="M28.794 0.661621L32.624 1.79163L32.154 2.81161L33.704 4.86162L32.734 7.25162L36.214 9.76163L36.764 11.8816L38.434 11.2616L39.434 13.8216L41.034 12.5416L41.674 16.0916L44.274 16.8216L44.914 18.2516L45.914 17.3316L45.994 19.7316L42.514 20.0616L44.094 20.4116L44.174 21.2116L42.744 21.6116L42.144 23.2116L45.204 24.4816L45.554 26.9716L44.034 29.1316L44.844 29.8316L44.494 30.9216L47.944 30.2216L47.364 31.0616L48.994 32.0816L46.584 32.8216L47.094 33.7516L45.054 34.9616L45.724 36.7616L42.634 37.6216L43.934 39.9616L41.674 40.6316L42.614 42.2816L42.024 44.0716L43.294 44.6416L42.984 46.2416L41.384 45.6316L40.924 47.3516L39.724 47.5116L37.504 46.7716L36.344 47.8316L31.624 47.3316L30.084 48.8116L27.754 48.1616L26.424 51.5416L27.754 54.9816L25.974 57.6416L23.194 59.1016L23.184 60.3616L20.244 60.7916L18.304 62.4216L17.544 62.3116L17.454 60.0116L15.954 60.9616L14.854 60.1316L15.594 61.4616L13.574 62.8216L7.504 61.7316L5.93399 62.7716L2.70398 62.7916L4.34399 60.2616L5.314 60.7716L5.99399 58.0716L5.284 55.7116L1.87399 54.3716L1.064 50.8916L0.583984 49.6816L2.29398 49.7016L2.73398 48.2916L2.134 47.9916L4.40399 46.6716L3.974 46.2616L6.98398 45.5416L5.18399 43.7916L5.67398 39.0616L4.98398 36.5416L6.86398 33.0116L5.60397 31.3416L6.80399 31.0416L6.29398 29.3316L8.55399 28.3116L8.02399 27.4116L8.57397 24.3016L9.76398 22.9616L8.64398 22.2716L8.98398 20.2316L8.07397 17.4716L8.51398 16.2116L7.48398 15.1616L8.61398 14.5916L9.314 12.1616L7.634 9.33162L8.444 9.24162L7.884 7.23161L7.14398 7.29163L6.92398 6.55162L8.93399 5.04163L7.90399 4.18163L8.784 2.98161L10.554 1.18163L13.194 3.96162L14.184 3.25162L15.504 4.16162L17.834 1.91162L19.644 3.58162L21.664 2.71162L23.354 3.15163L24.504 2.24162L25.284 3.53162L26.174 2.24162L28.564 2.64162L28.794 0.661621Z" fill="black" stroke="white" stroke-width="2" mask="url(#path-1-inside-1_353_624)"/>
</svg>
