<svg width="48" height="69" viewBox="0 0 48 69" fill="none" xmlns="http://www.w3.org/2000/svg">
<mask id="path-1-inside-1_353_626" fill="white">
<path d="M1.23387 8.22163L2.87387 8.58165L3.26387 7.37163L4.70387 7.52162L5.57387 6.42165L8.59387 7.72163L10.0739 7.50163L10.4239 6.55165L13.3839 6.93163L15.6839 4.77162L15.1539 2.85164L17.7139 1.67163L19.1639 1.79164L18.2639 3.50163L19.2139 2.56163L21.3239 2.69164L21.7739 1.21164L24.1139 1.47163L27.2139 0.32164L29.7539 1.02164L30.5939 0.171631L32.3439 0.56163L30.9739 2.68164L32.0439 2.48163L32.8639 3.47163L33.9939 2.85164L35.0439 6.21162L34.3739 5.96162L34.6539 7.60164L35.9239 7.08165L36.8539 7.82164L36.3439 9.14165L37.8539 12.3616L36.7739 14.3516L39.6439 15.6016L38.8739 16.7916L37.6839 15.9916L36.2539 17.6216L38.5739 17.9916L37.1639 19.6316L37.3239 20.8017L39.8239 22.9516L38.1239 23.9516L38.3139 24.9316L37.3339 25.3017L37.8939 25.9216L35.3839 29.2316L38.2239 28.3516L37.6839 30.0517L39.1739 30.0316L39.1839 31.2216L39.9739 31.4116L37.9239 32.8017L37.7239 33.8616L38.5539 34.4316L37.9639 35.5816L36.9839 35.4316L37.0639 37.8316L36.3439 37.9716L36.5039 38.8017L37.8439 38.9016L37.2839 42.9716L39.6439 44.5916L38.8139 45.7816L39.8039 46.2716L38.8939 47.3716L41.4639 48.6316L43.4239 46.0316L45.6039 47.1616L44.5339 48.7416L45.4039 50.2016L43.6439 50.9016L44.2439 53.1616L42.9739 54.1516L42.7539 55.7516L44.0639 56.0416L45.4139 57.8316L47.3339 57.4216L46.2539 61.2016L45.2739 62.0517L43.9039 60.6516L42.3339 60.6016L42.2539 61.5616L40.9839 61.4616L40.8439 62.5916L39.0239 63.7816L36.7339 63.6716L37.3839 65.1316L35.8639 66.9216L36.6739 67.3316L33.9839 68.7016L32.5639 68.1616L32.4939 66.9216L31.4639 66.2816L31.6539 64.6816L30.4639 65.3316L30.2639 63.7016L29.4339 64.3017L27.5239 63.8116L26.1939 61.7116L23.1439 62.4216L22.8039 61.3216L21.5839 61.9116L20.7339 61.3616L20.7939 60.1216L19.9439 61.1716L17.2639 60.5916L16.9539 59.0916L15.3039 58.1716L12.5339 58.7216L11.8639 57.8916L13.1339 57.4516L11.1639 56.9216L10.4839 55.8316L9.54387 56.1016L9.64386 53.8716L7.00386 52.2116L7.72386 50.8616L7.13387 48.6916L8.43387 48.7816L9.28386 47.4216L11.3739 47.9316L11.7339 46.6516L13.1339 46.2316L13.3139 45.3516L15.0539 45.3716L15.8639 43.8416L13.0939 42.1016L12.4839 43.4516L11.6139 43.0716L11.7739 41.0116L12.9739 39.6216L11.3539 35.6916L12.9539 35.3816L13.2039 34.0016L12.1939 32.3816L12.7339 29.6016L10.8939 28.4916L11.8539 27.0916L10.0839 25.7116L11.0539 24.8716L8.10387 20.7816L9.29387 18.2716L6.43387 16.7816L3.78386 13.7516L4.73387 11.5517L2.59387 10.7416L2.81387 9.92165L1.81387 10.0416L2.42387 9.06163L0.963867 8.87163L1.23387 8.22163Z"/>
</mask>
<path d="M1.23387 8.22163L2.87387 8.58165L3.26387 7.37163L4.70387 7.52162L5.57387 6.42165L8.59387 7.72163L10.0739 7.50163L10.4239 6.55165L13.3839 6.93163L15.6839 4.77162L15.1539 2.85164L17.7139 1.67163L19.1639 1.79164L18.2639 3.50163L19.2139 2.56163L21.3239 2.69164L21.7739 1.21164L24.1139 1.47163L27.2139 0.32164L29.7539 1.02164L30.5939 0.171631L32.3439 0.56163L30.9739 2.68164L32.0439 2.48163L32.8639 3.47163L33.9939 2.85164L35.0439 6.21162L34.3739 5.96162L34.6539 7.60164L35.9239 7.08165L36.8539 7.82164L36.3439 9.14165L37.8539 12.3616L36.7739 14.3516L39.6439 15.6016L38.8739 16.7916L37.6839 15.9916L36.2539 17.6216L38.5739 17.9916L37.1639 19.6316L37.3239 20.8017L39.8239 22.9516L38.1239 23.9516L38.3139 24.9316L37.3339 25.3017L37.8939 25.9216L35.3839 29.2316L38.2239 28.3516L37.6839 30.0517L39.1739 30.0316L39.1839 31.2216L39.9739 31.4116L37.9239 32.8017L37.7239 33.8616L38.5539 34.4316L37.9639 35.5816L36.9839 35.4316L37.0639 37.8316L36.3439 37.9716L36.5039 38.8017L37.8439 38.9016L37.2839 42.9716L39.6439 44.5916L38.8139 45.7816L39.8039 46.2716L38.8939 47.3716L41.4639 48.6316L43.4239 46.0316L45.6039 47.1616L44.5339 48.7416L45.4039 50.2016L43.6439 50.9016L44.2439 53.1616L42.9739 54.1516L42.7539 55.7516L44.0639 56.0416L45.4139 57.8316L47.3339 57.4216L46.2539 61.2016L45.2739 62.0517L43.9039 60.6516L42.3339 60.6016L42.2539 61.5616L40.9839 61.4616L40.8439 62.5916L39.0239 63.7816L36.7339 63.6716L37.3839 65.1316L35.8639 66.9216L36.6739 67.3316L33.9839 68.7016L32.5639 68.1616L32.4939 66.9216L31.4639 66.2816L31.6539 64.6816L30.4639 65.3316L30.2639 63.7016L29.4339 64.3017L27.5239 63.8116L26.1939 61.7116L23.1439 62.4216L22.8039 61.3216L21.5839 61.9116L20.7339 61.3616L20.7939 60.1216L19.9439 61.1716L17.2639 60.5916L16.9539 59.0916L15.3039 58.1716L12.5339 58.7216L11.8639 57.8916L13.1339 57.4516L11.1639 56.9216L10.4839 55.8316L9.54387 56.1016L9.64386 53.8716L7.00386 52.2116L7.72386 50.8616L7.13387 48.6916L8.43387 48.7816L9.28386 47.4216L11.3739 47.9316L11.7339 46.6516L13.1339 46.2316L13.3139 45.3516L15.0539 45.3716L15.8639 43.8416L13.0939 42.1016L12.4839 43.4516L11.6139 43.0716L11.7739 41.0116L12.9739 39.6216L11.3539 35.6916L12.9539 35.3816L13.2039 34.0016L12.1939 32.3816L12.7339 29.6016L10.8939 28.4916L11.8539 27.0916L10.0839 25.7116L11.0539 24.8716L8.10387 20.7816L9.29387 18.2716L6.43387 16.7816L3.78386 13.7516L4.73387 11.5517L2.59387 10.7416L2.81387 9.92165L1.81387 10.0416L2.42387 9.06163L0.963867 8.87163L1.23387 8.22163Z" fill="black" stroke="white" stroke-width="2" mask="url(#path-1-inside-1_353_626)"/>
</svg>
