<svg width="66" height="53" viewBox="0 0 66 53" fill="none" xmlns="http://www.w3.org/2000/svg">
<mask id="path-1-inside-1_353_620" fill="white">
<path d="M9.20416 0.531494L10.6742 1.14151L11.0642 6.7215L12.3342 7.14151L12.7442 8.52148L14.7942 8.0015L16.0942 11.8815L18.1442 12.3915L18.6242 11.6915L20.5542 12.6415L20.5842 11.0215L21.5342 11.7415L23.2242 11.4015L24.4642 12.7715L24.3042 15.0215L25.5742 14.3215L25.8042 15.7615L30.0042 15.1115L31.7842 11.5015L31.4042 10.6415L33.9942 8.5715L35.0642 5.06149L37.5042 2.31149L40.0842 3.98151L39.9642 5.08151L38.5442 5.1015L39.6042 7.62149L41.1742 9.2215L43.7842 8.7915L45.0242 10.5315L44.9742 13.0815L45.9542 13.3315L47.7342 10.7615L49.5742 9.99149L50.7142 14.5615L53.8942 16.3915L54.3442 17.5815L57.8742 18.3215L56.9042 21.3615L57.6742 22.1615L57.9042 26.3315L60.1242 26.8815L59.8942 28.2015L62.0042 28.3515L62.6142 30.5015L65.6342 32.1315L64.6242 34.7715L62.4342 36.7315L63.4642 40.9315L61.2542 43.2415L57.9142 43.0415L55.5942 46.0015L53.4142 46.0915L53.4042 47.9515L51.5642 48.5115L48.1942 46.6115L47.1342 47.8715L44.5642 47.7215L42.5242 49.5215L40.3342 48.6515L38.8242 50.0615L37.5242 49.5015L36.2742 50.4615L36.5342 52.6815L35.0642 52.8615L31.4842 51.8015L31.4542 49.9015L30.1742 48.6915L28.5442 49.5815L27.1542 48.5015L26.7042 47.0515L25.5742 47.6915L23.8142 46.2315L22.2942 46.8615L23.0342 44.8415L21.3842 41.6015L22.1542 40.5415L21.7442 39.1315L24.0542 37.1715L24.4242 35.1815L23.3842 34.8815L24.3242 34.2215L21.7742 30.3915L18.3742 30.2515L14.9242 27.0015L12.7742 27.9015L12.2642 31.9415L13.3042 31.5915L12.5342 33.0215L11.7642 32.9315L7.60416 30.0115L5.50418 30.0615L4.40417 26.1015L2.76416 24.6115V23.9615L0.76416 19.8215L3.34418 18.1515L3.95416 14.0615L5.92416 14.3615L7.00418 13.2415L9.20416 0.531494Z"/>
</mask>
<path d="M9.20416 0.531494L10.6742 1.14151L11.0642 6.7215L12.3342 7.14151L12.7442 8.52148L14.7942 8.0015L16.0942 11.8815L18.1442 12.3915L18.6242 11.6915L20.5542 12.6415L20.5842 11.0215L21.5342 11.7415L23.2242 11.4015L24.4642 12.7715L24.3042 15.0215L25.5742 14.3215L25.8042 15.7615L30.0042 15.1115L31.7842 11.5015L31.4042 10.6415L33.9942 8.5715L35.0642 5.06149L37.5042 2.31149L40.0842 3.98151L39.9642 5.08151L38.5442 5.1015L39.6042 7.62149L41.1742 9.2215L43.7842 8.7915L45.0242 10.5315L44.9742 13.0815L45.9542 13.3315L47.7342 10.7615L49.5742 9.99149L50.7142 14.5615L53.8942 16.3915L54.3442 17.5815L57.8742 18.3215L56.9042 21.3615L57.6742 22.1615L57.9042 26.3315L60.1242 26.8815L59.8942 28.2015L62.0042 28.3515L62.6142 30.5015L65.6342 32.1315L64.6242 34.7715L62.4342 36.7315L63.4642 40.9315L61.2542 43.2415L57.9142 43.0415L55.5942 46.0015L53.4142 46.0915L53.4042 47.9515L51.5642 48.5115L48.1942 46.6115L47.1342 47.8715L44.5642 47.7215L42.5242 49.5215L40.3342 48.6515L38.8242 50.0615L37.5242 49.5015L36.2742 50.4615L36.5342 52.6815L35.0642 52.8615L31.4842 51.8015L31.4542 49.9015L30.1742 48.6915L28.5442 49.5815L27.1542 48.5015L26.7042 47.0515L25.5742 47.6915L23.8142 46.2315L22.2942 46.8615L23.0342 44.8415L21.3842 41.6015L22.1542 40.5415L21.7442 39.1315L24.0542 37.1715L24.4242 35.1815L23.3842 34.8815L24.3242 34.2215L21.7742 30.3915L18.3742 30.2515L14.9242 27.0015L12.7742 27.9015L12.2642 31.9415L13.3042 31.5915L12.5342 33.0215L11.7642 32.9315L7.60416 30.0115L5.50418 30.0615L4.40417 26.1015L2.76416 24.6115V23.9615L0.76416 19.8215L3.34418 18.1515L3.95416 14.0615L5.92416 14.3615L7.00418 13.2415L9.20416 0.531494Z" fill="black" stroke="white" stroke-width="2" mask="url(#path-1-inside-1_353_620)"/>
</svg>
