<svg width="61" height="48" viewBox="0 0 61 48" fill="none" xmlns="http://www.w3.org/2000/svg">
<mask id="path-1-inside-1_353_617" fill="white">
<path d="M21.5742 6.06158L23.5842 2.88159L24.7142 3.45158L23.3742 5.31158L24.2742 5.45158L25.1642 4.13159L26.4842 4.18159L28.0242 1.27159L31.8242 0.0115967L32.8342 1.06158L33.1842 2.98158L32.5442 3.56158L34.9842 4.74159L34.8442 5.69159L38.2942 4.23158L42.5242 3.92159L44.4342 5.09158L46.2142 8.56158L48.9242 7.47159L49.7642 5.6516L51.4042 4.83159L53.1842 7.43159L58.9842 10.7316L60.5242 12.9316L57.8142 17.0716L59.5842 23.8416L58.6742 25.2616L60.4242 27.7416L59.8242 28.4316L58.2242 29.9416L53.7442 27.3216L54.1642 28.7316L53.2742 30.0216L51.6942 30.3716L50.4642 29.5016L49.9142 30.3316L50.5742 31.6316L49.4542 32.8416L47.1042 31.5716L45.9242 33.0616L45.5942 31.5216L43.4442 30.8616L42.5542 31.9116L40.2642 31.8516L39.7242 33.1516L38.9142 32.7916L38.3942 35.4716L37.3342 35.5116L36.9942 36.8616L36.0442 36.5116L36.3542 37.5716L34.9042 36.4616L33.4242 37.6316L34.4242 38.1516L33.3842 39.0216L31.2342 38.5916L31.0542 40.7716L29.9142 40.0216L29.4642 41.3416L25.5042 42.9316L23.3842 41.7016L23.5442 42.7516L22.3842 42.4016L22.1442 43.8216L21.5042 43.1516L19.9242 44.4616L17.1342 45.0016L15.6842 46.7816L13.9242 46.6016L12.8942 45.9616L11.4642 47.2216L8.80423 47.3416L6.36423 44.2816L4.29422 43.4916L5.32422 42.4216L5.55423 39.0516L2.78424 38.8516L3.05423 35.3116L1.71423 34.6416L0.584229 35.2816L0.0742188 34.4516L1.78424 33.6716L0.934235 33.4316L1.41425 32.3416L3.00424 32.8416L5.08423 30.6016L4.71423 25.7516L2.60422 24.2116L1.23422 26.4716L0.30423 25.8316L1.88425 21.5416L4.03424 21.7016L4.89423 20.9616L6.66425 21.6316L8.40424 19.5116L9.62424 21.6816L13.5242 20.9116L13.2642 18.5916L14.2742 17.0916L14.1442 15.8016L12.9142 15.1016L13.5342 12.5316L15.6342 12.5816L16.4242 10.1516L19.2142 10.6016L18.9642 9.44159L20.1542 7.2616L21.5542 7.6516L21.5742 6.06158Z"/>
</mask>
<path d="M21.5742 6.06158L23.5842 2.88159L24.7142 3.45158L23.3742 5.31158L24.2742 5.45158L25.1642 4.13159L26.4842 4.18159L28.0242 1.27159L31.8242 0.0115967L32.8342 1.06158L33.1842 2.98158L32.5442 3.56158L34.9842 4.74159L34.8442 5.69159L38.2942 4.23158L42.5242 3.92159L44.4342 5.09158L46.2142 8.56158L48.9242 7.47159L49.7642 5.6516L51.4042 4.83159L53.1842 7.43159L58.9842 10.7316L60.5242 12.9316L57.8142 17.0716L59.5842 23.8416L58.6742 25.2616L60.4242 27.7416L59.8242 28.4316L58.2242 29.9416L53.7442 27.3216L54.1642 28.7316L53.2742 30.0216L51.6942 30.3716L50.4642 29.5016L49.9142 30.3316L50.5742 31.6316L49.4542 32.8416L47.1042 31.5716L45.9242 33.0616L45.5942 31.5216L43.4442 30.8616L42.5542 31.9116L40.2642 31.8516L39.7242 33.1516L38.9142 32.7916L38.3942 35.4716L37.3342 35.5116L36.9942 36.8616L36.0442 36.5116L36.3542 37.5716L34.9042 36.4616L33.4242 37.6316L34.4242 38.1516L33.3842 39.0216L31.2342 38.5916L31.0542 40.7716L29.9142 40.0216L29.4642 41.3416L25.5042 42.9316L23.3842 41.7016L23.5442 42.7516L22.3842 42.4016L22.1442 43.8216L21.5042 43.1516L19.9242 44.4616L17.1342 45.0016L15.6842 46.7816L13.9242 46.6016L12.8942 45.9616L11.4642 47.2216L8.80423 47.3416L6.36423 44.2816L4.29422 43.4916L5.32422 42.4216L5.55423 39.0516L2.78424 38.8516L3.05423 35.3116L1.71423 34.6416L0.584229 35.2816L0.0742188 34.4516L1.78424 33.6716L0.934235 33.4316L1.41425 32.3416L3.00424 32.8416L5.08423 30.6016L4.71423 25.7516L2.60422 24.2116L1.23422 26.4716L0.30423 25.8316L1.88425 21.5416L4.03424 21.7016L4.89423 20.9616L6.66425 21.6316L8.40424 19.5116L9.62424 21.6816L13.5242 20.9116L13.2642 18.5916L14.2742 17.0916L14.1442 15.8016L12.9142 15.1016L13.5342 12.5316L15.6342 12.5816L16.4242 10.1516L19.2142 10.6016L18.9642 9.44159L20.1542 7.2616L21.5542 7.6516L21.5742 6.06158Z" fill="black" stroke="white" stroke-width="2" mask="url(#path-1-inside-1_353_617)"/>
</svg>
