<svg width="52" height="47" viewBox="0 0 52 47" fill="none" xmlns="http://www.w3.org/2000/svg">
<path d="M36.608 1.20996L41.7798 2.69926L40.8456 5.59942L40.1067 6.04278L39.742 6.2616L39.8995 6.65667L40.4695 8.08666L40.5089 8.18561L40.5853 8.2599L43.6322 11.2243L41.2959 15.4705L41.2429 15.5667L41.2352 15.6762L40.9552 19.6262L40.9235 20.0726L41.3638 20.1533L45.0439 20.828L44.1179 24.6642L44.0405 24.9849L44.3048 25.1822L45.0148 25.7122L45.2904 25.9179L45.5811 25.7342L47.1124 24.7662L50.2045 29.0782L49.9609 29.2638L49.4521 29.6515L49.9512 30.0516L50.9599 30.8604L51.1661 32.1788L49.6438 33.4474L49.4976 33.5693L49.4694 33.7575L49.2529 35.2039L47.231 36.5081L42.377 37.0648L42.0331 37.1042L41.9489 37.4399L41.1498 40.627L39.5409 41.3003L39.4061 41.3567L39.3229 41.4768L37.7408 43.7612L37.4816 43.695L37.5238 41.5413L37.5271 41.376L37.4311 41.2413L36.1911 39.5014L36.0102 39.2475L35.7027 39.2982L33.3489 39.686L32.0277 38.3396L31.2923 36.591L31.971 36.5815L32.413 36.5753L32.461 36.1358L32.581 35.0358L32.6144 34.7293L32.3556 34.5618L29.7756 32.8918L29.415 32.6584L29.1299 32.9797L26.6899 35.7297L26.6175 35.8113L26.5857 35.9157L25.5608 39.2776L23.0918 41.251L22.7909 41.4914L22.9466 41.8436L23.2322 42.4899L21.6705 45.6572L18.2192 46.1913L18.0677 45.2427L17.9555 44.5403L17.3326 44.8836L16.8679 45.1398L16.9627 43.807L16.9778 43.5942L16.8346 43.436L15.5946 42.066L15.4039 41.8553L15.1253 41.9113L13.6563 42.2069L12.8859 41.623L12.1022 41.0291L12.084 42.0123L12.0686 42.8453L10.8447 42.2429L10.4564 42.0518L10.2116 42.4088L9.92783 42.8225L8.48087 42.4626L7.26801 38.8427L7.12063 38.4028L6.67098 38.5169L5.08645 38.9188L4.81322 37.9991L4.73884 37.7488L4.49092 37.6668L3.53933 37.3521L3.1727 32.1067L3.15114 31.7982L2.86556 31.6797L1.74445 31.2145L1.94055 29.5397L1.95714 29.398L1.89647 29.2689L0.786468 26.9066L1.28859 22.396L3.45086 23.2468L4.04677 23.4813L4.12973 22.8463L4.34805 21.1752L6.6806 20.4595L6.71284 20.4496L6.74347 20.4355L8.1452 19.7886L9.78582 20.1874L10.1182 20.2682L10.314 19.9876L10.7214 19.4037L13.5632 20.0491L13.8186 20.1071L14.0117 19.9301L18.2607 16.0361L20.8049 14.9194L21.0117 14.8286L21.0803 14.6134L21.6703 12.7635L21.9115 12.0073L21.1253 12.1163L19.4276 12.3516L18.7537 11.2635L19.1262 9.90359L19.2402 9.48708L18.8448 9.31362L18.171 9.0181L19.2171 6.74499L30.0222 1.06426L36.608 1.20996Z" fill="black" stroke="white"/>
</svg>
