<svg width="60" height="48" viewBox="0 0 60 48" fill="none" xmlns="http://www.w3.org/2000/svg">
<path d="M19.9078 3.81964L19.9939 3.81205L20.0724 3.776L22.9924 2.436L23.3696 2.26291L23.269 1.86029L23.188 1.53658L23.7739 1.55012V1.87155L24.7495 2.0257L25.018 1.19731L26.01 0.907438L27.8999 2.91434L28.0446 3.06804L28.2557 3.0715L28.4414 3.07454L27.6724 3.57166L26.4723 4.34753L27.8944 4.48909L30.1044 4.70909L30.2656 4.72514L30.4056 4.64355L31.44 4.04079L32.6183 5.38163L32.8175 5.60832L33.1109 5.53769L33.9687 5.33119L36.0227 6.80212L36.8386 8.87471L36.9438 9.14195L37.2277 9.18572L39.1007 9.47453L40.6588 12.8986L40.7399 13.0769L40.9205 13.1527L41.5882 13.4327L40.6545 14.7646L40.3307 15.2264L40.8281 15.4925L42.7026 16.4951L42.6442 18.063L42.6345 18.3241L42.8434 18.4812L43.7395 19.1551L43.1045 20.6343L42.9859 20.9104L43.1741 21.1447L47.2141 26.1747L47.2884 26.2673L47.3965 26.3165L50.9065 27.9165L51.136 28.0211L51.3565 27.8987L54.4608 26.1762L56.1376 27.2882L56.2722 27.3775L56.4336 27.3712L57.8436 27.3157L58.5714 29.4042L57.6463 31.2135L53.9373 32.0231L53.8531 32.0414L53.78 32.0869L51.7206 33.3666L50.5489 31.9525L50.4495 31.8325L50.2994 31.7903L47.2094 30.9203L46.706 30.7785L46.587 31.2878L45.337 36.6378L45.2799 36.8823L45.4418 37.0741L47.1754 39.1274L47.1282 39.4864L46.9782 40.6263L46.963 40.7415L47.0002 40.8515L47.4115 42.07L43.92 44.5614L40.0926 43.6259L39.9434 43.5894L39.7995 43.643L36.7456 44.7799L33.1853 43.1185L32.9968 43.0305L32.8015 43.1022L32.1342 43.3473L31.3506 42.5017L30.9873 42.1096L30.6203 42.4983L29.1003 44.1083L28.9846 44.2309L28.9667 44.3986L28.7888 46.0672L27.7003 44.9609L27.4904 44.7476L27.2033 44.8317L23.573 45.8958L22.9154 44.3191L22.8229 44.0973L22.5919 44.031L21.8022 43.8041L21.4693 43.3968L22.6749 41.6563L22.7982 41.4783L22.7527 41.2666L22.4328 39.7766L21.4521 39.7915L21.448 39.8141L21.1279 39.6352L20.3237 39.1855L20.385 40.1048L20.4432 40.977L19.8555 41.2789L17.0621 40.0714L14.5396 37.5018L14.1046 35.9838L14.0403 35.7597L13.8273 35.6648L8.01978 33.0785L8.23503 32.4227L9.28386 32.0181L9.68288 31.8641L9.59262 31.4461L9.21265 29.686L9.13752 29.3381L8.78414 29.2952L7.06148 29.0862L8.26031 28.6631L9.09487 28.3685L8.41187 27.8057L6.24386 26.0192L6.01201 23.3483L5.98572 23.0455L5.70477 22.9294L3.75443 22.1239L3.89051 20.9596L3.92056 20.7025L3.72798 20.5296L2.32236 19.2672L2.30781 17.1412L2.50948 17.1674L2.99846 17.2309L3.06877 16.7429L3.23879 15.5628L3.28177 15.2645L3.03798 15.0872L2.50978 14.703L4.5667 14.6916L4.97331 14.6893L5.05397 14.2907L5.33689 12.8928L6.27435 12.5751L6.77509 12.4054L6.57776 11.9149L6.4304 11.5487L7.59175 11.1892L7.81811 11.1191L7.90721 10.8996L8.46721 9.51958L8.61072 9.16595L8.30745 8.93425L6.87791 7.84213L6.73834 5.71915L9.55572 5.75896L10.7583 6.79099L11.1944 7.16526L11.5047 6.68157L12.2959 5.44846L13.1283 6.2022L13.8722 6.87588L13.9619 5.87624L14.1085 4.24145L16.4221 4.87388L17.0797 5.05366L17.0535 4.37235L17.0201 3.50393L17.666 3.91374L17.809 4.00448L17.9778 3.98962L19.9078 3.81964Z" fill="black" stroke="white"/>
</svg>
