<svg width="47" height="45" viewBox="0 0 47 45" fill="none" xmlns="http://www.w3.org/2000/svg">
<path d="M7.6172 12.1991L10.0053 10.3774L11.5869 10.4313L11.7101 10.4355L11.8212 10.3819L17.0985 7.83554L17.5674 8.76651L17.6668 8.96403L17.8799 9.0233L19.2099 9.3933L19.4706 9.4658L19.6738 9.28731L20.5636 8.50601L20.4997 8.6659L20.4524 8.784L20.4674 8.91032L20.7974 11.7003L20.8339 12.0095L21.1276 12.1131L24.2176 13.2031L24.5762 13.3296L24.7939 13.0179L25.3642 12.2011L28.5541 13.6755L28.8339 13.8048L29.0751 13.6129L29.6215 13.1784L30.3156 13.6355L30.2442 15.9562L30.2297 16.4265L30.6982 16.4695L32.5667 16.6409L33.1362 18.1483L33.2411 18.4259L33.535 18.4668L35.0786 18.6816L35.2956 21.3028L35.3387 21.8236L35.857 21.7576L36.801 21.6375L35.4659 27.6227L35.3575 28.1086L35.8429 28.2191L38.0385 28.7189L38.5048 29.9844L38.6275 30.3177L38.9826 30.3115L39.1581 30.3085L37.1728 33.177L37.0901 33.2965L37.0843 33.4416L37.0043 35.4416L36.9665 36.3887L37.7695 35.8852L38.8886 35.1836L41.7825 35.4225L45.8354 40.3359L45.7646 40.5031L44.4526 42.0062L42.7237 42.0417L42.5737 42.0448L42.4502 42.1299L39.7805 43.9701L36.8674 43.9424L32.6815 42.5471L27.9743 39.521L27.89 39.4668L27.7913 39.4493L24.4113 38.8493L24.283 38.8265L24.1598 38.8693L22.2403 39.5362L17.3381 36.8335L16.5427 34.6878L16.5017 34.5771L16.4155 34.4964L13.3255 31.6064L13.2711 31.5556L13.2043 31.5228L8.72433 29.3228L8.6432 29.2829L8.55324 29.274L5.37903 28.9595L7.41663 27.4096L7.62674 27.2497L7.61327 26.9861L7.57223 26.183L8.19621 26.2302L8.68518 26.2672L8.73167 25.779L8.85166 24.519L8.86928 24.334L8.76176 24.1823L6.37177 20.8124L6.277 20.6787L6.12152 20.6271L3.59675 19.7886L3.09906 18.6066L3.75849 14.165L3.77768 14.0358L3.73121 13.9137L3.14121 12.3637L3.02495 12.0583L2.69854 12.0422L1.62856 11.9895L0.775028 9.21987L0.815339 6.46189L5.64947 7.28023L6.82933 11.9247L7.01562 12.6581L7.6172 12.1991ZM14.7879 1.65696L15.0396 1.58184L14.9859 2.17666L14.9473 2.60462L15.3646 2.70715L16.7947 3.05851L15.6014 3.61903L15.4196 3.70442L15.3474 3.89186L13.9841 7.43088L10.8031 6.89679L10.9709 5.38682L11.0028 5.09991L10.7702 4.92884L10.2541 4.54916L11.5398 2.22457L11.8287 1.80335L11.8795 1.78176L12.6795 1.44176L12.7069 1.43013L12.7327 1.41533L13.3545 1.05867L13.9691 0.899057L14.055 0.909041L14.0868 0.941544L14.5768 1.44154L14.7879 1.65696Z" fill="black" stroke="white"/>
</svg>
