<svg width="53" height="37" viewBox="0 0 53 37" fill="none" xmlns="http://www.w3.org/2000/svg">
<mask id="path-1-inside-1_353_629" fill="white">
<path d="M13.494 1.1015L16.464 0.271484L16.344 1.55151L14.524 1.5415L14.194 2.61151L15.934 4.7515L18.324 5.12149L18.274 6.1915L19.684 7.49149L20.004 6.73151L21.144 7.56149L21.424 6.5015L23.384 5.9415L22.554 9.36151L24.784 9.73151L25.754 11.2215L29.654 8.33151L30.374 5.8215L30.874 7.24149L32.624 7.96149L33.234 9.78149L35.124 8.6915L34.214 7.15149L34.544 5.53149L36.394 5.81149L36.384 6.8215L37.444 7.3815L37.874 6.45151L37.164 5.6915L38.164 6.68149L39.824 4.90149L41.614 4.5415L42.944 5.3815L43.784 3.64151L45.124 4.2515L47.424 3.39151L46.454 4.46149L47.414 5.42151L46.934 6.1015L51.094 7.2215L50.444 8.9415L49.564 8.83151L48.864 10.7415L47.794 11.0115L48.644 12.2915L49.504 12.0915L49.764 13.2615L50.054 12.4615L51.314 12.6015L52.294 13.8115L51.864 14.3215L49.934 14.4915L48.484 13.5715L48.554 15.3915L45.664 14.6015L45.464 16.8315L44.194 15.6815L43.084 17.4115L41.744 16.2615L38.204 16.2115L38.394 19.1015L40.004 20.3315L39.444 21.7115L37.764 22.2315L38.114 23.1015L36.904 23.5115L36.564 25.1915L32.984 25.2115L34.744 26.4915L34.574 27.6715L33.804 27.5715L32.874 27.3715L31.184 29.4215L30.574 28.1915L29.424 30.3715L25.924 29.2815L25.214 30.4315L25.664 31.4615L23.014 31.8015L25.514 32.3515L25.654 33.4315L21.864 34.5015L22.134 35.2715L19.644 36.2715L19.744 34.8115L18.254 34.6815L17.004 33.1315L15.344 34.6415L14.244 33.5215L13.144 34.5115L8.84399 35.1215L6.40399 34.9015L7.64398 32.6915L6.38399 32.1315L7.07399 31.3715L5.85399 30.0615L6.77399 28.7715L5.07399 27.3415L1.26399 27.4115L0.773987 26.6015L3.564 23.1215L3.05399 21.4215L4.28398 21.4915L4.74399 20.1415L3.39398 19.6815L1.04399 21.1515L0.0839844 19.1015L0.733994 16.7115L2.51399 16.3815L2.09399 14.6215L5.11398 15.6015L6.44398 14.9515L6.08398 12.8115L5.01399 13.0415L4.75398 12.2915L6.96399 11.9115L7.86398 7.53149L8.79399 7.09149L7.35399 5.48151L6.424 5.86151L5.424 5.0415L6.54399 0.931488L7.54399 0.771484L8.41399 3.01151L8.85399 2.06149L12.924 2.0015L13.494 1.1015Z"/>
</mask>
<path d="M13.494 1.1015L16.464 0.271484L16.344 1.55151L14.524 1.5415L14.194 2.61151L15.934 4.7515L18.324 5.12149L18.274 6.1915L19.684 7.49149L20.004 6.73151L21.144 7.56149L21.424 6.5015L23.384 5.9415L22.554 9.36151L24.784 9.73151L25.754 11.2215L29.654 8.33151L30.374 5.8215L30.874 7.24149L32.624 7.96149L33.234 9.78149L35.124 8.6915L34.214 7.15149L34.544 5.53149L36.394 5.81149L36.384 6.8215L37.444 7.3815L37.874 6.45151L37.164 5.6915L38.164 6.68149L39.824 4.90149L41.614 4.5415L42.944 5.3815L43.784 3.64151L45.124 4.2515L47.424 3.39151L46.454 4.46149L47.414 5.42151L46.934 6.1015L51.094 7.2215L50.444 8.9415L49.564 8.83151L48.864 10.7415L47.794 11.0115L48.644 12.2915L49.504 12.0915L49.764 13.2615L50.054 12.4615L51.314 12.6015L52.294 13.8115L51.864 14.3215L49.934 14.4915L48.484 13.5715L48.554 15.3915L45.664 14.6015L45.464 16.8315L44.194 15.6815L43.084 17.4115L41.744 16.2615L38.204 16.2115L38.394 19.1015L40.004 20.3315L39.444 21.7115L37.764 22.2315L38.114 23.1015L36.904 23.5115L36.564 25.1915L32.984 25.2115L34.744 26.4915L34.574 27.6715L33.804 27.5715L32.874 27.3715L31.184 29.4215L30.574 28.1915L29.424 30.3715L25.924 29.2815L25.214 30.4315L25.664 31.4615L23.014 31.8015L25.514 32.3515L25.654 33.4315L21.864 34.5015L22.134 35.2715L19.644 36.2715L19.744 34.8115L18.254 34.6815L17.004 33.1315L15.344 34.6415L14.244 33.5215L13.144 34.5115L8.84399 35.1215L6.40399 34.9015L7.64398 32.6915L6.38399 32.1315L7.07399 31.3715L5.85399 30.0615L6.77399 28.7715L5.07399 27.3415L1.26399 27.4115L0.773987 26.6015L3.564 23.1215L3.05399 21.4215L4.28398 21.4915L4.74399 20.1415L3.39398 19.6815L1.04399 21.1515L0.0839844 19.1015L0.733994 16.7115L2.51399 16.3815L2.09399 14.6215L5.11398 15.6015L6.44398 14.9515L6.08398 12.8115L5.01399 13.0415L4.75398 12.2915L6.96399 11.9115L7.86398 7.53149L8.79399 7.09149L7.35399 5.48151L6.424 5.86151L5.424 5.0415L6.54399 0.931488L7.54399 0.771484L8.41399 3.01151L8.85399 2.06149L12.924 2.0015L13.494 1.1015Z" fill="black" stroke="white" stroke-width="2" mask="url(#path-1-inside-1_353_629)"/>
</svg>
