<svg width="77" height="52" viewBox="0 0 77 52" fill="none" xmlns="http://www.w3.org/2000/svg">
<mask id="path-1-inside-1_353_627" fill="white">
<path d="M10.8241 1.06161L11.4141 1.53161L12.3841 2.97161L16.3941 0.901611L18.1741 0.971611L22.4741 4.16161L24.0841 2.89161L24.8341 3.51161L23.4441 4.94161L24.0441 5.69161L29.4541 8.00161L28.9441 9.12161L29.8241 11.3316L31.6641 10.7516L32.4941 12.0016L35.1241 10.1816L36.5041 10.7016L37.5041 9.51161L38.7141 10.6416L39.8741 10.5316L39.3741 9.14161L40.0941 8.85161L41.1841 10.9516L43.1641 9.13161L45.0341 9.40161L46.8441 11.7216L43.7341 12.9016L42.4041 14.3716L41.9141 17.2116L43.6841 18.6416L45.3541 15.8116L47.6541 15.1816L48.4241 16.9316L49.4141 15.0616L50.6541 15.4116L50.1841 16.9816L52.3641 17.2316L55.5041 19.0616L56.1441 18.6516L55.1841 17.6816L55.9341 17.2116L55.7141 15.9916L58.5741 16.8416L57.5841 21.7816L61.5141 19.2316L62.6641 21.3116L61.5841 22.3116L62.1641 22.9616L65.5841 20.8516L66.6141 21.6016L68.4141 20.4716L70.9741 21.3516L71.5441 20.8116L72.7241 22.6016L74.0441 22.5416L74.9741 23.5416L74.2241 24.8416L76.2541 25.3116L72.9041 29.1116L72.7841 31.7216L71.4441 32.9016L70.9641 32.0416L71.3341 34.4416L70.0841 35.0816L71.3841 36.8316L70.4841 39.0316L71.9341 39.2916L72.7641 42.9916L72.7841 43.1716L71.2441 44.1516L71.2641 42.7516L69.9641 42.6716L70.1041 43.8716L68.9341 44.8416L68.0041 43.3616L66.8641 43.1716L65.6241 43.8916L65.8941 45.7516L64.2241 42.9016L63.3441 43.6616L62.9441 42.6516L62.2241 43.3916L63.3141 45.3016L62.0241 44.4916L61.4041 46.1016L59.3641 46.0616L58.9241 49.1716L54.8941 48.3116L53.2841 51.7516L52.4241 51.2716L52.2541 49.2816L50.9041 49.1416L49.9941 50.1616L49.8141 48.7416L48.7641 48.9516L47.2941 47.4516L46.1341 48.6016L44.7841 46.5416L41.6941 46.3616L39.4141 44.1816L38.8741 44.7816L36.5341 43.4616L33.8741 43.2616L29.0241 44.6416L27.6941 42.8216L25.1041 42.2816L24.1941 43.4616L23.5141 42.2216L21.6741 43.6516L20.0041 43.4316L18.8741 42.1916L19.6541 40.9816L17.3841 39.8416L12.9341 29.5816L9.87411 27.9416L6.13412 23.4116L3.5741 21.7216L3.4241 19.7516L1.74411 20.5916L0.474121 20.1216L3.55411 17.2716L4.8541 13.0616L6.4841 10.9116L8.3941 10.2816L7.91412 10.7816L9.19412 12.2016L10.1741 11.7816L12.7941 12.9716L13.3541 12.1216L12.8941 10.7716L10.6241 10.4316L9.30411 7.73161L7.68411 7.59161L7.15411 6.55161L7.83411 0.901611L10.8241 1.06161Z"/>
</mask>
<path d="M10.8241 1.06161L11.4141 1.53161L12.3841 2.97161L16.3941 0.901611L18.1741 0.971611L22.4741 4.16161L24.0841 2.89161L24.8341 3.51161L23.4441 4.94161L24.0441 5.69161L29.4541 8.00161L28.9441 9.12161L29.8241 11.3316L31.6641 10.7516L32.4941 12.0016L35.1241 10.1816L36.5041 10.7016L37.5041 9.51161L38.7141 10.6416L39.8741 10.5316L39.3741 9.14161L40.0941 8.85161L41.1841 10.9516L43.1641 9.13161L45.0341 9.40161L46.8441 11.7216L43.7341 12.9016L42.4041 14.3716L41.9141 17.2116L43.6841 18.6416L45.3541 15.8116L47.6541 15.1816L48.4241 16.9316L49.4141 15.0616L50.6541 15.4116L50.1841 16.9816L52.3641 17.2316L55.5041 19.0616L56.1441 18.6516L55.1841 17.6816L55.9341 17.2116L55.7141 15.9916L58.5741 16.8416L57.5841 21.7816L61.5141 19.2316L62.6641 21.3116L61.5841 22.3116L62.1641 22.9616L65.5841 20.8516L66.6141 21.6016L68.4141 20.4716L70.9741 21.3516L71.5441 20.8116L72.7241 22.6016L74.0441 22.5416L74.9741 23.5416L74.2241 24.8416L76.2541 25.3116L72.9041 29.1116L72.7841 31.7216L71.4441 32.9016L70.9641 32.0416L71.3341 34.4416L70.0841 35.0816L71.3841 36.8316L70.4841 39.0316L71.9341 39.2916L72.7641 42.9916L72.7841 43.1716L71.2441 44.1516L71.2641 42.7516L69.9641 42.6716L70.1041 43.8716L68.9341 44.8416L68.0041 43.3616L66.8641 43.1716L65.6241 43.8916L65.8941 45.7516L64.2241 42.9016L63.3441 43.6616L62.9441 42.6516L62.2241 43.3916L63.3141 45.3016L62.0241 44.4916L61.4041 46.1016L59.3641 46.0616L58.9241 49.1716L54.8941 48.3116L53.2841 51.7516L52.4241 51.2716L52.2541 49.2816L50.9041 49.1416L49.9941 50.1616L49.8141 48.7416L48.7641 48.9516L47.2941 47.4516L46.1341 48.6016L44.7841 46.5416L41.6941 46.3616L39.4141 44.1816L38.8741 44.7816L36.5341 43.4616L33.8741 43.2616L29.0241 44.6416L27.6941 42.8216L25.1041 42.2816L24.1941 43.4616L23.5141 42.2216L21.6741 43.6516L20.0041 43.4316L18.8741 42.1916L19.6541 40.9816L17.3841 39.8416L12.9341 29.5816L9.87411 27.9416L6.13412 23.4116L3.5741 21.7216L3.4241 19.7516L1.74411 20.5916L0.474121 20.1216L3.55411 17.2716L4.8541 13.0616L6.4841 10.9116L8.3941 10.2816L7.91412 10.7816L9.19412 12.2016L10.1741 11.7816L12.7941 12.9716L13.3541 12.1216L12.8941 10.7716L10.6241 10.4316L9.30411 7.73161L7.68411 7.59161L7.15411 6.55161L7.83411 0.901611L10.8241 1.06161Z" fill="black" stroke="white" stroke-width="2" mask="url(#path-1-inside-1_353_627)"/>
</svg>
