<svg width="63" height="68" viewBox="0 0 63 68" fill="none" xmlns="http://www.w3.org/2000/svg">
<mask id="path-1-inside-1_353_636" fill="white">
<path d="M4.1839 15.3616L4.19391 14.1016L6.97391 12.6416L8.75391 9.98158L7.42389 6.5416L8.75391 3.16159L11.0839 3.81158L12.6239 2.33159L17.3439 2.83159L18.5039 1.77159L20.7239 2.5116L21.9239 2.35159L22.3839 0.631592L23.9839 1.24159L24.5639 3.21159L26.1539 2.11159L27.7039 2.72159L29.3639 5.64159L31.1739 6.83159L30.7639 7.86159L32.4939 8.81158L31.7339 11.0616L32.5939 11.4916L30.8339 14.0416L32.9739 13.7116L34.5039 16.8116L36.8139 15.8116L36.4639 14.6916L37.8739 15.2116L37.5139 17.2816L39.6539 18.1916L40.9439 22.7616L43.0039 24.5616L42.9539 25.3416L41.6439 25.2516L42.1639 26.5416L43.3439 26.8016L43.9439 25.3916L44.7239 26.7416L43.9539 29.8616L47.7439 29.7916L48.5039 29.0416L50.1739 30.1116L50.8139 28.8416L52.0439 28.8916L52.8939 30.0616L54.4639 28.7116L55.2639 27.9816L56.7239 29.1016L57.1539 27.8416L56.4139 27.5016L57.7239 27.2116L57.5439 28.6216L58.4839 29.8016L60.4839 30.1216L61.2639 31.3516L58.5439 33.2716L59.2739 33.2916L59.5539 35.4216L62.0339 34.9216L62.1639 40.4816L60.4439 41.9216L59.0939 41.3916L58.2239 42.4916L60.1139 45.0716L57.7639 45.2816L58.6839 46.4316L56.0339 51.2416L55.5539 53.0616L53.0839 55.3216L53.4139 59.4116L52.4139 60.5116L51.6039 59.9216L51.8639 61.1016L51.0339 61.9116L52.0839 62.7816L51.6739 63.8516L52.7639 63.7916L52.7539 66.0616L50.1339 66.0316L49.4739 67.6116L48.4339 67.8516L47.1839 66.5216L47.1939 63.8316L46.2139 62.7116L46.0239 63.5316L43.0439 64.4616L42.5139 62.8316L43.9439 61.4916L42.7939 60.2416L40.9139 62.2516L40.7539 63.6616L39.4939 62.0616L36.9639 62.4716L34.8139 59.3016L32.3839 58.3216L31.1839 58.9416L30.9039 56.4216L28.1439 54.5816L27.5239 52.5216L27.0739 56.6316L23.0939 55.9016L21.2039 58.1516L18.6139 56.0116L18.1739 56.8216L16.4739 56.9316L15.2339 54.8316L13.6239 55.1116L11.8539 53.8116L11.9539 51.5816L11.0339 50.8816L7.6839 52.7816L5.82388 52.0116L4.16391 50.2016L3.9939 48.5016L4.86389 47.3616L3.4339 45.9216L3.73389 45.1016L1.7739 43.7616L1.75391 42.7316L0.483887 42.9416L0.64389 40.4516L7.85388 38.6316L7.3439 35.7516L8.1539 34.7516L6.6239 33.6716L7.33389 33.2816L7.1839 31.2716L8.88391 30.9716L10.2739 29.0216L10.7639 28.6816L12.1139 27.1516L11.9939 25.0516L10.9239 24.2616L11.9739 23.6216L8.86389 20.9316L8.28391 18.2216L7.4639 18.2816L8.0239 17.2116L4.1839 15.3616Z"/>
</mask>
<path d="M4.1839 15.3616L4.19391 14.1016L6.97391 12.6416L8.75391 9.98158L7.42389 6.5416L8.75391 3.16159L11.0839 3.81158L12.6239 2.33159L17.3439 2.83159L18.5039 1.77159L20.7239 2.5116L21.9239 2.35159L22.3839 0.631592L23.9839 1.24159L24.5639 3.21159L26.1539 2.11159L27.7039 2.72159L29.3639 5.64159L31.1739 6.83159L30.7639 7.86159L32.4939 8.81158L31.7339 11.0616L32.5939 11.4916L30.8339 14.0416L32.9739 13.7116L34.5039 16.8116L36.8139 15.8116L36.4639 14.6916L37.8739 15.2116L37.5139 17.2816L39.6539 18.1916L40.9439 22.7616L43.0039 24.5616L42.9539 25.3416L41.6439 25.2516L42.1639 26.5416L43.3439 26.8016L43.9439 25.3916L44.7239 26.7416L43.9539 29.8616L47.7439 29.7916L48.5039 29.0416L50.1739 30.1116L50.8139 28.8416L52.0439 28.8916L52.8939 30.0616L54.4639 28.7116L55.2639 27.9816L56.7239 29.1016L57.1539 27.8416L56.4139 27.5016L57.7239 27.2116L57.5439 28.6216L58.4839 29.8016L60.4839 30.1216L61.2639 31.3516L58.5439 33.2716L59.2739 33.2916L59.5539 35.4216L62.0339 34.9216L62.1639 40.4816L60.4439 41.9216L59.0939 41.3916L58.2239 42.4916L60.1139 45.0716L57.7639 45.2816L58.6839 46.4316L56.0339 51.2416L55.5539 53.0616L53.0839 55.3216L53.4139 59.4116L52.4139 60.5116L51.6039 59.9216L51.8639 61.1016L51.0339 61.9116L52.0839 62.7816L51.6739 63.8516L52.7639 63.7916L52.7539 66.0616L50.1339 66.0316L49.4739 67.6116L48.4339 67.8516L47.1839 66.5216L47.1939 63.8316L46.2139 62.7116L46.0239 63.5316L43.0439 64.4616L42.5139 62.8316L43.9439 61.4916L42.7939 60.2416L40.9139 62.2516L40.7539 63.6616L39.4939 62.0616L36.9639 62.4716L34.8139 59.3016L32.3839 58.3216L31.1839 58.9416L30.9039 56.4216L28.1439 54.5816L27.5239 52.5216L27.0739 56.6316L23.0939 55.9016L21.2039 58.1516L18.6139 56.0116L18.1739 56.8216L16.4739 56.9316L15.2339 54.8316L13.6239 55.1116L11.8539 53.8116L11.9539 51.5816L11.0339 50.8816L7.6839 52.7816L5.82388 52.0116L4.16391 50.2016L3.9939 48.5016L4.86389 47.3616L3.4339 45.9216L3.73389 45.1016L1.7739 43.7616L1.75391 42.7316L0.483887 42.9416L0.64389 40.4516L7.85388 38.6316L7.3439 35.7516L8.1539 34.7516L6.6239 33.6716L7.33389 33.2816L7.1839 31.2716L8.88391 30.9716L10.2739 29.0216L10.7639 28.6816L12.1139 27.1516L11.9939 25.0516L10.9239 24.2616L11.9739 23.6216L8.86389 20.9316L8.28391 18.2216L7.4639 18.2816L8.0239 17.2116L4.1839 15.3616Z" fill="black" stroke="white" stroke-width="2" mask="url(#path-1-inside-1_353_636)"/>
</svg>
