<svg width="54" height="59" viewBox="0 0 54 59" fill="none" xmlns="http://www.w3.org/2000/svg">
<mask id="path-1-inside-1_353_634" fill="white">
<path d="M23.1641 1.86169L23.6741 2.36169L24.4541 1.5517L24.8441 3.01169L26.5141 2.26169L28.3741 2.67169L28.7741 1.26169L30.4641 0.97168L33.0141 4.19168L34.2141 4.84167L34.1541 6.75168L32.9441 8.0817L33.9341 8.65167L32.5841 9.11169L33.1441 10.4217L31.2841 12.0317L32.8941 14.3217L34.854 14.2117L34.6141 15.8117L35.854 16.8117L36.3741 16.4017L36.8241 17.5717L35.8841 18.6117L38.1841 20.1417L38.604 22.8317L37.8641 24.3117L39.6941 26.1517L36.9441 28.9017L39.2241 29.9517L40.1441 28.9417L42.3241 29.2917L41.6641 29.8417L42.4941 31.3317L41.5641 30.8817L41.5141 32.0017L41.3141 31.3917L40.3441 31.9417L40.854 33.3717L43.2041 34.7017L46.0441 34.2817L47.7941 32.8017L47.854 34.8417L50.0941 36.2017L50.4541 35.2717L52.3941 37.0117L53.1641 38.6417L52.0741 39.4017L51.9841 41.1217L53.0441 42.7917L53.5441 43.8817L52.3741 43.7817L52.0541 44.7717L50.3341 44.9017L48.4141 43.8117L48.0641 45.1617L45.2541 46.2217L42.2641 49.7417L40.5041 49.9317L39.9741 51.2117L36.2341 51.6017L35.6141 50.6717L34.5641 51.3317L34.1341 53.1917L32.6941 52.9517L30.3041 56.4517L27.6441 55.0917L26.2941 57.8317L25.5141 58.0417L25.5841 57.2117L24.4641 56.7017L23.1441 57.0717L22.5241 55.8217L20.7941 55.9617L22.6841 53.0117L20.5841 51.7117L19.3241 52.7017L16.5241 47.9917L13.5141 47.7017L11.5041 48.5617L10.3241 47.2817L9.33406 49.6217L7.97406 50.1117L7.69406 48.9017L6.44406 49.1717L5.45407 47.5817L6.42407 44.6417L4.18407 42.9717L1.37407 43.4017L0.414062 42.1117L1.38406 40.3217L3.92407 39.0217L3.79407 36.5317L6.73407 37.2817L8.55406 31.8617L7.95407 28.9317L9.94406 29.8217L13.3141 27.4417L12.7041 24.3317L10.9441 22.9217L9.86406 23.7517L8.04407 21.8417L8.89406 19.1117L7.85406 17.6817L8.47406 17.2417L9.41406 16.6617L8.95407 14.1717L7.17407 12.1817L7.87407 11.0817L9.51407 11.1217L9.46407 10.0017L11.7241 7.63168L15.9541 8.17169L17.7841 3.19168L20.0041 3.10168L21.1641 4.09167L22.3041 1.57169L23.1641 1.86169Z"/>
</mask>
<path d="M23.1641 1.86169L23.6741 2.36169L24.4541 1.5517L24.8441 3.01169L26.5141 2.26169L28.3741 2.67169L28.7741 1.26169L30.4641 0.97168L33.0141 4.19168L34.2141 4.84167L34.1541 6.75168L32.9441 8.0817L33.9341 8.65167L32.5841 9.11169L33.1441 10.4217L31.2841 12.0317L32.8941 14.3217L34.854 14.2117L34.6141 15.8117L35.854 16.8117L36.3741 16.4017L36.8241 17.5717L35.8841 18.6117L38.1841 20.1417L38.604 22.8317L37.8641 24.3117L39.6941 26.1517L36.9441 28.9017L39.2241 29.9517L40.1441 28.9417L42.3241 29.2917L41.6641 29.8417L42.4941 31.3317L41.5641 30.8817L41.5141 32.0017L41.3141 31.3917L40.3441 31.9417L40.854 33.3717L43.2041 34.7017L46.0441 34.2817L47.7941 32.8017L47.854 34.8417L50.0941 36.2017L50.4541 35.2717L52.3941 37.0117L53.1641 38.6417L52.0741 39.4017L51.9841 41.1217L53.0441 42.7917L53.5441 43.8817L52.3741 43.7817L52.0541 44.7717L50.3341 44.9017L48.4141 43.8117L48.0641 45.1617L45.2541 46.2217L42.2641 49.7417L40.5041 49.9317L39.9741 51.2117L36.2341 51.6017L35.6141 50.6717L34.5641 51.3317L34.1341 53.1917L32.6941 52.9517L30.3041 56.4517L27.6441 55.0917L26.2941 57.8317L25.5141 58.0417L25.5841 57.2117L24.4641 56.7017L23.1441 57.0717L22.5241 55.8217L20.7941 55.9617L22.6841 53.0117L20.5841 51.7117L19.3241 52.7017L16.5241 47.9917L13.5141 47.7017L11.5041 48.5617L10.3241 47.2817L9.33406 49.6217L7.97406 50.1117L7.69406 48.9017L6.44406 49.1717L5.45407 47.5817L6.42407 44.6417L4.18407 42.9717L1.37407 43.4017L0.414062 42.1117L1.38406 40.3217L3.92407 39.0217L3.79407 36.5317L6.73407 37.2817L8.55406 31.8617L7.95407 28.9317L9.94406 29.8217L13.3141 27.4417L12.7041 24.3317L10.9441 22.9217L9.86406 23.7517L8.04407 21.8417L8.89406 19.1117L7.85406 17.6817L8.47406 17.2417L9.41406 16.6617L8.95407 14.1717L7.17407 12.1817L7.87407 11.0817L9.51407 11.1217L9.46407 10.0017L11.7241 7.63168L15.9541 8.17169L17.7841 3.19168L20.0041 3.10168L21.1641 4.09167L22.3041 1.57169L23.1641 1.86169Z" fill="black" stroke="white" stroke-width="2" mask="url(#path-1-inside-1_353_634)"/>
</svg>
