<svg width="74" height="50" viewBox="0 0 74 50" fill="none" xmlns="http://www.w3.org/2000/svg">
<mask id="path-1-inside-1_353_632" fill="white">
<path d="M2.82414 4.06155L4.21414 5.18155L3.68414 7.30157L6.73414 8.80157L7.03414 12.1116L4.60414 8.26157L2.39414 8.17157L0.784142 6.24155L1.18414 5.01157L0.494141 4.21155L2.82414 4.06155ZM14.1141 3.98157L15.6741 6.16156L16.7341 6.34155L17.3841 8.11157L20.3741 8.59155L20.6141 9.98157L23.7941 10.1016L24.7741 12.7916L26.2541 12.4116L27.2541 13.3816L32.0041 14.2216L32.1441 13.3916L33.9441 13.0016L32.0641 10.2816L32.7541 10.4516L33.1741 9.37155L31.6141 7.01157L32.2041 5.67157L31.6541 4.91156L33.8541 3.39157L35.1541 3.86157L35.5241 10.1716L39.5941 8.32156L39.0341 3.81155L40.3841 3.00156L42.2641 3.67157L43.5041 0.591553L46.3641 3.31155L48.6141 4.02155L52.4541 5.50156L55.7141 4.64157L56.3341 6.04156L57.6241 5.28156L59.2141 7.22156L58.9441 7.86157L60.4041 8.05157L59.7941 9.03156L60.7941 8.90155L60.5741 9.72156L62.7241 10.5316L61.7741 12.7316L64.4241 15.7616L67.2841 17.2516L66.0941 19.7616L69.0341 23.8516L68.0641 24.6916L69.8341 26.0716L68.8841 27.4716L70.7141 28.5816L70.1741 31.3616L71.1841 32.9816L70.9341 34.3616L69.3341 34.6716L70.9641 38.6116L69.7541 39.9915L69.6041 42.0516L70.4741 42.4315L71.0841 41.0916L73.8441 42.8316L73.0341 44.3516L71.2941 44.3316L71.1341 45.2316L69.7341 45.6516L69.3641 46.9315L67.2741 46.4216L66.4241 47.7715L65.1341 47.6815L62.8941 46.4216L62.9741 45.4016L61.3541 45.5416L60.9641 46.9016L59.4141 46.3516L57.5041 47.3116L56.3341 46.6316L57.6441 43.6916L55.7841 44.8616L52.5041 44.9615L51.6241 46.9116L49.9241 46.9516L46.3641 47.0516L46.1941 49.7516L41.6441 45.9116L42.4841 48.4816L40.4941 45.4216L35.3341 45.4116L33.3941 41.7216L27.8141 40.7516L22.4441 36.3916L20.9841 36.2516L19.1341 29.3316L15.3541 24.0516L14.6041 24.2916L12.5441 21.0516L7.29414 16.5416L6.88414 12.4615L8.15414 12.4016L8.23414 11.2816L11.3841 7.71155L12.0241 5.20157L14.1141 3.98157Z"/>
</mask>
<path d="M2.82414 4.06155L4.21414 5.18155L3.68414 7.30157L6.73414 8.80157L7.03414 12.1116L4.60414 8.26157L2.39414 8.17157L0.784142 6.24155L1.18414 5.01157L0.494141 4.21155L2.82414 4.06155ZM14.1141 3.98157L15.6741 6.16156L16.7341 6.34155L17.3841 8.11157L20.3741 8.59155L20.6141 9.98157L23.7941 10.1016L24.7741 12.7916L26.2541 12.4116L27.2541 13.3816L32.0041 14.2216L32.1441 13.3916L33.9441 13.0016L32.0641 10.2816L32.7541 10.4516L33.1741 9.37155L31.6141 7.01157L32.2041 5.67157L31.6541 4.91156L33.8541 3.39157L35.1541 3.86157L35.5241 10.1716L39.5941 8.32156L39.0341 3.81155L40.3841 3.00156L42.2641 3.67157L43.5041 0.591553L46.3641 3.31155L48.6141 4.02155L52.4541 5.50156L55.7141 4.64157L56.3341 6.04156L57.6241 5.28156L59.2141 7.22156L58.9441 7.86157L60.4041 8.05157L59.7941 9.03156L60.7941 8.90155L60.5741 9.72156L62.7241 10.5316L61.7741 12.7316L64.4241 15.7616L67.2841 17.2516L66.0941 19.7616L69.0341 23.8516L68.0641 24.6916L69.8341 26.0716L68.8841 27.4716L70.7141 28.5816L70.1741 31.3616L71.1841 32.9816L70.9341 34.3616L69.3341 34.6716L70.9641 38.6116L69.7541 39.9915L69.6041 42.0516L70.4741 42.4315L71.0841 41.0916L73.8441 42.8316L73.0341 44.3516L71.2941 44.3316L71.1341 45.2316L69.7341 45.6516L69.3641 46.9315L67.2741 46.4216L66.4241 47.7715L65.1341 47.6815L62.8941 46.4216L62.9741 45.4016L61.3541 45.5416L60.9641 46.9016L59.4141 46.3516L57.5041 47.3116L56.3341 46.6316L57.6441 43.6916L55.7841 44.8616L52.5041 44.9615L51.6241 46.9116L49.9241 46.9516L46.3641 47.0516L46.1941 49.7516L41.6441 45.9116L42.4841 48.4816L40.4941 45.4216L35.3341 45.4116L33.3941 41.7216L27.8141 40.7516L22.4441 36.3916L20.9841 36.2516L19.1341 29.3316L15.3541 24.0516L14.6041 24.2916L12.5441 21.0516L7.29414 16.5416L6.88414 12.4615L8.15414 12.4016L8.23414 11.2816L11.3841 7.71155L12.0241 5.20157L14.1141 3.98157Z" fill="black" stroke="white" stroke-width="2" mask="url(#path-1-inside-1_353_632)"/>
</svg>
