<svg width="53" height="46" viewBox="0 0 53 46" fill="none" xmlns="http://www.w3.org/2000/svg">
<mask id="path-1-inside-1_353_630" fill="white">
<path d="M4.39401 5.25162L5.25403 4.05164L7.28403 4.38162L8.12402 6.07162L10.244 5.29163L10.324 4.02161L11.284 3.81161L11.764 5.35162L13.824 6.28162L15.274 8.88162L18.784 4.57162L20.964 4.50162L23.294 1.44162L24.744 1.33163L27.904 4.45163L30.274 5.18161L31.564 3.66162L31.594 1.88162L34.494 1.94162L35.854 0.911621L36.854 2.85162L38.784 1.12161L40.264 1.16162L40.724 2.05164L41.704 4.38162L42.844 3.87161L43.974 4.90161L45.654 4.80164L46.544 6.92163L46.034 9.09161L47.554 11.2616L52.224 12.9316L50.824 16.8916L51.534 17.0316L51.074 18.3916L52.934 19.8916L52.544 21.4716L51.374 22.6016L49.994 22.3716L49.854 23.5616L45.214 23.3316L44.124 27.2116L38.674 31.0816L39.014 32.0716L41.144 31.4016L41.964 31.9316L42.534 31.1116L43.344 31.8316L42.014 33.1816L42.674 35.6416L40.914 37.1816L40.044 37.7516L39.284 36.5616L37.694 36.2316L35.014 38.2916L30.364 38.7716L29.364 40.4716L29.704 41.9116L28.164 41.8816L25.784 40.1016L22.894 40.3716L21.054 41.9516L20.854 45.4416L18.364 45.3216L18.294 44.6816L19.784 44.4516L19.574 42.4716L15.294 42.5316L14.474 40.9616L11.344 41.0816L11.204 39.9016L9.68402 40.3416L9.54401 41.1616L10.744 41.2316L10.114 42.3516L11.904 42.1516L12.314 43.1216L9.96402 42.5016L8.64401 44.3316L7.354 44.1516L6.06403 43.0316L6.51401 40.4516L5.17401 40.3316L5.01401 39.1116L1.81403 38.8416L1.80402 37.4216L0.784027 36.8016L1.26401 33.6516L4.49402 31.8316L4.59402 31.0016L3.104 29.0016L0.784027 28.9316L2.16403 26.8116L1.23401 24.3516L4.04401 24.2116L5.64401 23.1216L1.92401 19.5816L2.98401 15.6916L0.124023 14.3816L1.61401 13.8016L1.05402 12.2516L1.92401 10.3916L5.96402 9.46161L6.67401 7.76163L4.22403 5.81161L4.39401 5.25162Z"/>
</mask>
<path d="M4.39401 5.25162L5.25403 4.05164L7.28403 4.38162L8.12402 6.07162L10.244 5.29163L10.324 4.02161L11.284 3.81161L11.764 5.35162L13.824 6.28162L15.274 8.88162L18.784 4.57162L20.964 4.50162L23.294 1.44162L24.744 1.33163L27.904 4.45163L30.274 5.18161L31.564 3.66162L31.594 1.88162L34.494 1.94162L35.854 0.911621L36.854 2.85162L38.784 1.12161L40.264 1.16162L40.724 2.05164L41.704 4.38162L42.844 3.87161L43.974 4.90161L45.654 4.80164L46.544 6.92163L46.034 9.09161L47.554 11.2616L52.224 12.9316L50.824 16.8916L51.534 17.0316L51.074 18.3916L52.934 19.8916L52.544 21.4716L51.374 22.6016L49.994 22.3716L49.854 23.5616L45.214 23.3316L44.124 27.2116L38.674 31.0816L39.014 32.0716L41.144 31.4016L41.964 31.9316L42.534 31.1116L43.344 31.8316L42.014 33.1816L42.674 35.6416L40.914 37.1816L40.044 37.7516L39.284 36.5616L37.694 36.2316L35.014 38.2916L30.364 38.7716L29.364 40.4716L29.704 41.9116L28.164 41.8816L25.784 40.1016L22.894 40.3716L21.054 41.9516L20.854 45.4416L18.364 45.3216L18.294 44.6816L19.784 44.4516L19.574 42.4716L15.294 42.5316L14.474 40.9616L11.344 41.0816L11.204 39.9016L9.68402 40.3416L9.54401 41.1616L10.744 41.2316L10.114 42.3516L11.904 42.1516L12.314 43.1216L9.96402 42.5016L8.64401 44.3316L7.354 44.1516L6.06403 43.0316L6.51401 40.4516L5.17401 40.3316L5.01401 39.1116L1.81403 38.8416L1.80402 37.4216L0.784027 36.8016L1.26401 33.6516L4.49402 31.8316L4.59402 31.0016L3.104 29.0016L0.784027 28.9316L2.16403 26.8116L1.23401 24.3516L4.04401 24.2116L5.64401 23.1216L1.92401 19.5816L2.98401 15.6916L0.124023 14.3816L1.61401 13.8016L1.05402 12.2516L1.92401 10.3916L5.96402 9.46161L6.67401 7.76163L4.22403 5.81161L4.39401 5.25162Z" fill="black" stroke="white" stroke-width="2" mask="url(#path-1-inside-1_353_630)"/>
</svg>
