<svg width="55" height="69" viewBox="0 0 55 69" fill="none" xmlns="http://www.w3.org/2000/svg">
<mask id="path-1-inside-1_353_633" fill="white">
<path d="M-0.00585938 6.85156L0.654144 4.63156L2.73415 5.50156L2.56415 3.83156L3.94414 1.01157L5.04414 0.101562L6.52414 0.771561L7.57414 1.87157L7.61414 3.50156L10.1041 3.14156L9.88414 4.22156L11.0141 4.60156L11.8341 3.74156L12.5941 5.18156L11.6941 7.16156L13.1341 7.47156L14.4641 6.40157L15.3741 6.65157L15.4241 8.16156L16.8641 7.64156L17.2641 10.8516L16.3741 11.3316L17.7141 14.9716L19.4441 13.8316L22.4841 15.0416L25.2641 13.2616L29.1141 13.3616L27.8441 10.3916L29.9141 10.3016L30.5941 11.6116L32.9841 12.3516L33.5141 16.6316L35.5041 19.2715L37.3241 19.8716L38.1041 23.5316L40.2841 26.0116L42.1541 27.2916L42.7441 29.0616L41.3041 33.1716L42.0541 34.8716L44.2541 36.6716L46.3641 36.9315L46.5841 38.7816L49.6241 38.7516L51.8441 40.6116L51.3541 41.0916L52.3041 42.7616L51.3641 42.6716L52.0241 44.0416L53.5641 44.5016L53.3641 45.2616L54.5641 44.9315L53.1642 47.8616L52.3041 47.5716L51.1642 50.0916L50.0042 49.1016L47.7841 49.1916L45.9541 54.1716L41.7241 53.6316L39.4641 56.0016L39.5141 57.1216L37.8741 57.0816L37.1741 58.1815L38.9541 60.1716L39.4141 62.6616L38.4741 63.2415L37.9041 62.5716L36.8641 63.1416L33.8441 62.5616L32.2741 64.2415L32.7741 65.1716L29.9241 65.3716L28.9741 66.5916L26.6341 65.7115L24.6641 62.7415L22.6541 64.8316L22.8841 65.7316L24.1341 65.7616L24.2041 66.9816L21.9541 68.0116L20.4341 66.8116L15.7341 67.3016L14.9041 66.0816L12.2541 65.2016L13.3341 61.4216L11.4141 61.8316L10.0641 60.0416L8.75414 59.7516L8.97414 58.1516L10.2441 57.1616L9.64413 54.9016L11.4041 54.2016L10.5341 52.7415L11.6041 51.1616L9.42415 50.0316L7.46414 52.6316L4.89413 51.3716L5.80414 50.2715L4.81415 49.7816L5.64413 48.5916L3.28413 46.9716L3.84415 42.9016L2.50414 42.8016L2.34415 41.9716L3.06415 41.8316L2.98415 39.4315L3.96414 39.5816L4.55414 38.4315L3.72414 37.8616L3.92415 36.8016L5.97414 35.4116L5.18414 35.2216L5.17415 34.0316L3.68414 34.0516L4.22414 32.3516L1.38414 33.2316L3.89413 29.9216L3.33414 29.3016L4.31415 28.9315L4.12415 27.9516L5.82414 26.9516L3.32414 24.8016L3.16414 23.6316L4.57414 21.9915L2.25414 21.6216L3.68414 19.9915L4.87415 20.7916L5.64413 19.6016L2.77414 18.3516L3.85414 16.3616L2.34415 13.1416L2.85414 11.8216L1.92415 11.0816L0.654144 11.6016L0.374146 9.96155L1.04414 10.2115L-0.00585938 6.85156Z"/>
</mask>
<path d="M-0.00585938 6.85156L0.654144 4.63156L2.73415 5.50156L2.56415 3.83156L3.94414 1.01157L5.04414 0.101562L6.52414 0.771561L7.57414 1.87157L7.61414 3.50156L10.1041 3.14156L9.88414 4.22156L11.0141 4.60156L11.8341 3.74156L12.5941 5.18156L11.6941 7.16156L13.1341 7.47156L14.4641 6.40157L15.3741 6.65157L15.4241 8.16156L16.8641 7.64156L17.2641 10.8516L16.3741 11.3316L17.7141 14.9716L19.4441 13.8316L22.4841 15.0416L25.2641 13.2616L29.1141 13.3616L27.8441 10.3916L29.9141 10.3016L30.5941 11.6116L32.9841 12.3516L33.5141 16.6316L35.5041 19.2715L37.3241 19.8716L38.1041 23.5316L40.2841 26.0116L42.1541 27.2916L42.7441 29.0616L41.3041 33.1716L42.0541 34.8716L44.2541 36.6716L46.3641 36.9315L46.5841 38.7816L49.6241 38.7516L51.8441 40.6116L51.3541 41.0916L52.3041 42.7616L51.3641 42.6716L52.0241 44.0416L53.5641 44.5016L53.3641 45.2616L54.5641 44.9315L53.1642 47.8616L52.3041 47.5716L51.1642 50.0916L50.0042 49.1016L47.7841 49.1916L45.9541 54.1716L41.7241 53.6316L39.4641 56.0016L39.5141 57.1216L37.8741 57.0816L37.1741 58.1815L38.9541 60.1716L39.4141 62.6616L38.4741 63.2415L37.9041 62.5716L36.8641 63.1416L33.8441 62.5616L32.2741 64.2415L32.7741 65.1716L29.9241 65.3716L28.9741 66.5916L26.6341 65.7115L24.6641 62.7415L22.6541 64.8316L22.8841 65.7316L24.1341 65.7616L24.2041 66.9816L21.9541 68.0116L20.4341 66.8116L15.7341 67.3016L14.9041 66.0816L12.2541 65.2016L13.3341 61.4216L11.4141 61.8316L10.0641 60.0416L8.75414 59.7516L8.97414 58.1516L10.2441 57.1616L9.64413 54.9016L11.4041 54.2016L10.5341 52.7415L11.6041 51.1616L9.42415 50.0316L7.46414 52.6316L4.89413 51.3716L5.80414 50.2715L4.81415 49.7816L5.64413 48.5916L3.28413 46.9716L3.84415 42.9016L2.50414 42.8016L2.34415 41.9716L3.06415 41.8316L2.98415 39.4315L3.96414 39.5816L4.55414 38.4315L3.72414 37.8616L3.92415 36.8016L5.97414 35.4116L5.18414 35.2216L5.17415 34.0316L3.68414 34.0516L4.22414 32.3516L1.38414 33.2316L3.89413 29.9216L3.33414 29.3016L4.31415 28.9315L4.12415 27.9516L5.82414 26.9516L3.32414 24.8016L3.16414 23.6316L4.57414 21.9915L2.25414 21.6216L3.68414 19.9915L4.87415 20.7916L5.64413 19.6016L2.77414 18.3516L3.85414 16.3616L2.34415 13.1416L2.85414 11.8216L1.92415 11.0816L0.654144 11.6016L0.374146 9.96155L1.04414 10.2115L-0.00585938 6.85156Z" fill="black" stroke="white" stroke-width="2" mask="url(#path-1-inside-1_353_633)"/>
</svg>
