<svg width="76" height="44" viewBox="0 0 76 44" fill="none" xmlns="http://www.w3.org/2000/svg">
<mask id="path-1-inside-1_353_635" fill="white">
<path d="M71.7541 0.541626L72.4141 1.54163L70.574 1.18163L71.7541 2.42162L70.3741 7.75162L71.3441 9.04163L70.0041 10.6116L71.704 11.8016L74.3241 11.4016L75.1241 13.2316L74.0141 14.0116L69.324 23.4916L70.364 24.4316L70.044 25.7116L66.864 31.1716L64.514 32.5216L63.1841 37.4916L63.9041 38.0816L62.544 39.2516L63.5041 41.7816L60.044 43.4916L59.524 43.9316L57.984 41.7316L52.1841 38.4316L50.4041 35.8316L48.764 36.6516L47.924 38.4716L45.2141 39.5616L43.4341 36.0916L41.524 34.9216L37.294 35.2316L33.8441 36.6916L33.984 35.7416L31.544 34.5616L32.1841 33.9816L31.834 32.0616L30.824 31.0116L27.024 32.2716L25.484 35.1816L24.1641 35.1316L23.274 36.4516L22.3741 36.3116L23.7141 34.4516L22.584 33.8816L20.574 37.0616L19.0041 33.9916L17.454 35.6916L16.5341 35.4216L16.854 32.7016L16.084 30.4216L14.6541 29.4216L13.8141 29.7816L12.7541 27.7516L11.084 27.1816L11.114 28.1816L9.90405 27.2116L11.674 25.7916L11.104 25.0116L12.234 23.3416L12.084 21.3816L14.1941 20.4316L12.364 17.9716L10.454 17.4916V15.3716L9.21405 14.3716L8.27405 15.4816L5.60403 10.8816L3.72406 10.3616L1.54404 11.9116L1.15405 10.3116L2.17404 8.92162L0.164062 8.18163L3.30405 6.34161L4.84406 7.07162L5.34406 5.66162L8.43405 4.98161L9.62405 6.03162L9.47406 5.00162L10.994 3.92162L10.484 3.14162L13.6541 3.93163L15.5941 1.60162L16.514 2.48161L19.4441 0.771622L21.424 1.73161L20.5941 3.31161L21.0941 4.80162L19.3841 7.02162L20.9741 7.35162L21.1241 5.38162L22.514 5.53162L21.394 7.61162L23.2841 7.87163L23.774 10.7516L25.4741 9.89162L28.324 10.1316L28.994 8.64162L29.174 9.97162L30.1941 10.5216L31.6641 8.77162L31.614 7.07162L35.044 7.73161L37.6241 5.47162L39.0341 7.34161L41.2141 6.71162L41.5041 8.17162L47.514 5.66162L49.4041 6.63162L48.9041 5.08162L51.144 3.09161L52.1241 5.88162L57.084 6.97162L57.1641 7.70161L58.054 7.53162L57.824 8.37163L59.324 7.38162L59.744 6.57162L61.1941 5.33162L62.364 6.53162L65.9641 2.72162L71.7541 0.541626Z"/>
</mask>
<path d="M71.7541 0.541626L72.4141 1.54163L70.574 1.18163L71.7541 2.42162L70.3741 7.75162L71.3441 9.04163L70.0041 10.6116L71.704 11.8016L74.3241 11.4016L75.1241 13.2316L74.0141 14.0116L69.324 23.4916L70.364 24.4316L70.044 25.7116L66.864 31.1716L64.514 32.5216L63.1841 37.4916L63.9041 38.0816L62.544 39.2516L63.5041 41.7816L60.044 43.4916L59.524 43.9316L57.984 41.7316L52.1841 38.4316L50.4041 35.8316L48.764 36.6516L47.924 38.4716L45.2141 39.5616L43.4341 36.0916L41.524 34.9216L37.294 35.2316L33.8441 36.6916L33.984 35.7416L31.544 34.5616L32.1841 33.9816L31.834 32.0616L30.824 31.0116L27.024 32.2716L25.484 35.1816L24.1641 35.1316L23.274 36.4516L22.3741 36.3116L23.7141 34.4516L22.584 33.8816L20.574 37.0616L19.0041 33.9916L17.454 35.6916L16.5341 35.4216L16.854 32.7016L16.084 30.4216L14.6541 29.4216L13.8141 29.7816L12.7541 27.7516L11.084 27.1816L11.114 28.1816L9.90405 27.2116L11.674 25.7916L11.104 25.0116L12.234 23.3416L12.084 21.3816L14.1941 20.4316L12.364 17.9716L10.454 17.4916V15.3716L9.21405 14.3716L8.27405 15.4816L5.60403 10.8816L3.72406 10.3616L1.54404 11.9116L1.15405 10.3116L2.17404 8.92162L0.164062 8.18163L3.30405 6.34161L4.84406 7.07162L5.34406 5.66162L8.43405 4.98161L9.62405 6.03162L9.47406 5.00162L10.994 3.92162L10.484 3.14162L13.6541 3.93163L15.5941 1.60162L16.514 2.48161L19.4441 0.771622L21.424 1.73161L20.5941 3.31161L21.0941 4.80162L19.3841 7.02162L20.9741 7.35162L21.1241 5.38162L22.514 5.53162L21.394 7.61162L23.2841 7.87163L23.774 10.7516L25.4741 9.89162L28.324 10.1316L28.994 8.64162L29.174 9.97162L30.1941 10.5216L31.6641 8.77162L31.614 7.07162L35.044 7.73161L37.6241 5.47162L39.0341 7.34161L41.2141 6.71162L41.5041 8.17162L47.514 5.66162L49.4041 6.63162L48.9041 5.08162L51.144 3.09161L52.1241 5.88162L57.084 6.97162L57.1641 7.70161L58.054 7.53162L57.824 8.37163L59.324 7.38162L59.744 6.57162L61.1941 5.33162L62.364 6.53162L65.9641 2.72162L71.7541 0.541626Z" fill="black" stroke="white" stroke-width="2" mask="url(#path-1-inside-1_353_635)"/>
</svg>
