<svg width="9" height="14" viewBox="0 0 9 14" fill="none" xmlns="http://www.w3.org/2000/svg">
<path d="M6.52801 12.9369L6.35226 13.0219L6.00942 11.967L5.94159 11.7583L5.74205 11.6669L4.08204 10.9069L3.91847 10.832L3.74469 10.8785L2.40982 11.2356L1.42841 10.4977L0.800144 7.23761L1.13636 7.08872L1.56804 6.89755L1.40193 6.45562L0.954152 5.26436L1.6386 4.05462L2.89552 3.24134L2.91361 3.22963L2.93063 3.21641L6.09418 0.759003L7.6249 1.17085L7.20594 3.11338L5.45129 4.88451L4.70582 4.44966L4.28806 4.20596L4.03061 4.6154L3.20062 5.93539L2.90898 6.39921L3.39747 6.64733L7.46207 8.71189L6.52801 12.9369Z" fill="black" stroke="white"/>
</svg>
