<svg width="15" height="14" viewBox="0 0 15 14" fill="none" xmlns="http://www.w3.org/2000/svg">
<path d="M12.8045 1.80954L12.5787 1.83463L11.8083 1.92023L12.204 2.58681L13.7736 5.23091L13.1938 7.24344L12.2587 7.71516L11.6478 8.02329L12.1269 8.51171L12.9394 9.33998L12.6018 10.3067L12.5459 10.467L12.599 10.6281L12.7234 11.0054L11.7825 9.91493L11.6414 9.75147L11.4257 9.74205L6.74149 9.53758L6.06311 7.25891L5.95824 6.90666L5.59074 6.90163L3.28143 6.86999L3.70266 4.91699L3.80289 4.45226L3.3438 4.32874L1.77648 3.90705L1.84904 3.79491L3.0267 4.21279L3.28574 4.30471L3.50215 4.13526L4.56592 3.30237L7.33899 4.40613L7.53266 4.48321L7.72373 4.3999L9.83375 3.4799L9.93053 3.43771L10.002 3.35999L12.3795 0.774119L12.513 0.763288L12.8045 1.80954Z" fill="black" stroke="white"/>
</svg>
