<svg width="28" height="31" viewBox="0 0 28 31" fill="none" xmlns="http://www.w3.org/2000/svg">
<path d="M15.2716 3.17172L16.1596 2.74237L17.0136 2.42816L18.1633 2.90242L18.2677 3.75251L18.3182 4.16409L18.732 4.19055L20.452 4.30056L20.5472 4.30664L20.6379 4.27727L24.3749 3.06745L25.4748 5.61946L25.6063 5.9246L25.9385 5.92155L26.7397 5.9142L26.8403 6.08509L25.0883 6.87584L24.6899 7.05564L24.8148 7.47448L25.1753 8.68334L24.4827 8.85649L23.7498 9.0397L24.2048 9.64271L25.2727 11.0581L23.5426 14.3065L23.4492 14.482L23.5017 14.6736L24.167 17.1032L23.6866 21.7401L23.6616 21.9811L23.8354 22.1501L24.9839 23.2667L22.8576 23.7753L21.9637 23.9891L22.5771 24.574L20.8826 25.5593L20.0823 26.0247L20.9104 26.4388L21.13 26.5486L20.9275 27.1973L19.5898 27.1816L18.8442 27.1729L19.1192 27.866L19.3907 28.5504L18.3718 28.8159L17.3344 27.5192L17.1175 27.2481L16.7877 27.3566L16.0277 27.6066L15.8146 27.6767L15.7253 27.8825L15.4199 28.5863L14.4332 28.4279L14.1582 28.3837L13.9759 28.5944L13.967 28.6046L13.9739 27.8864L13.9771 27.5535L13.6712 27.4221L11.9012 26.6621L11.4463 26.4668L11.2465 26.9198L10.5142 28.5796L9.68868 28.3849L8.70242 28.1524L9.11791 29.0766L9.20349 29.267L7.72818 28.9526L7.55078 28.9147L7.3904 28.9995L4.86576 30.3332L3.24083 30.2249L2.37003 29.3773L2.66341 29.2258L2.93926 29.0833L2.93389 28.7729L2.84389 23.5729L2.83646 23.1439L2.41131 23.0861L0.916403 22.8829L1.36635 21.2331L1.43365 20.9864L1.27294 20.7874L0.592674 19.9452L1.45223 16.7328L2.56966 16.2858L3.20654 16.0311L2.76911 15.5027L1.71927 14.2347L3.97607 14.3608L4.40615 14.3848L4.49356 13.963L5.0752 11.1565L6.08336 10.6358L6.61771 10.3599L6.24885 9.8849L4.84835 8.08143L4.9368 7.82412L5.46527 6.28677L6.54358 6.41791L6.813 6.45068L6.98726 6.24261L7.65727 5.44262L7.75663 5.324L7.77161 5.16999L7.99402 2.88357L11.4759 1.25315L12.8294 0.891078L14.1263 1.48484L14.5784 2.87611L14.7556 3.42122L15.2716 3.17172Z" fill="black" stroke="white"/>
</svg>
