<svg width="14" height="11" viewBox="0 0 14 11" fill="none" xmlns="http://www.w3.org/2000/svg">
<path d="M12.3816 5.6973L12.9945 6.07492L12.2 6.9696L12.1061 7.07531L12.0815 7.21453L11.6039 9.91544L11.2615 9.91857L10.113 7.25371L9.9329 6.83572L9.49987 6.97591L5.42059 8.29654L4.20959 8.21909L4.12014 7.49067L4.08455 7.20077L3.81454 7.08939L2.21453 6.42938L2.03424 6.35501L1.85122 6.42235L1.64949 6.49657L2.45943 2.83296L4.83623 2.09445L7.14982 2.79041L7.63424 2.93612L7.7743 2.45005L8.11433 1.27005L8.29302 0.649943L10.1664 0.731717L12.4521 3.3807L12.1507 5.18941L12.0954 5.52099L12.3816 5.6973ZM7.54989 0.638712L5.88821 0.92187L5.87808 0.544529L7.64896 0.62183L7.54989 0.638712Z" fill="black" stroke="white"/>
</svg>
