<svg width="17" height="25" viewBox="0 0 17 25" fill="none" xmlns="http://www.w3.org/2000/svg">
<path d="M1.35383 5.1599L3.88999 1.28546L4.84932 3.15041L4.95538 3.35659L5.18128 3.40883L8.15036 4.0955L11.7947 6.78561L11.4847 7.8293L11.4314 8.00845L11.5088 8.17859L12.1892 9.67546L10.9175 11.4505L10.8407 11.5577L10.8267 11.6889L10.5867 13.9489L10.5658 14.1461L10.6857 14.304L11.3157 15.134L11.635 15.5546L12.0375 15.2129L12.7012 14.6496L14.1044 15.0041L16.2596 18.8053L15.9634 19.7006L14.0298 20.4494L12.0515 19.5468L11.8632 19.4609L11.6693 19.5332L9.97931 20.1632L9.5346 20.329L9.677 20.7817L10.3287 22.8538L8.57693 23.7229L7.52047 21.8456L7.71897 21.1209L8.44954 21.5761L9.31837 22.1174L9.21121 21.0994L9.03122 19.3894L9.00273 19.1187L8.76001 18.9957L7.51272 18.3635L7.24282 17.1067L7.15447 16.6953L6.73398 16.7121L3.56616 16.8388L3.41456 16.5145L3.80125 16.0698L4.05859 15.7739L3.83248 15.4534L2.27642 13.2483L3.00493 12.1115L3.12309 11.9271L3.06769 11.7152L1.35383 5.1599Z" fill="black" stroke="white"/>
</svg>
