<svg width="41" height="22" viewBox="0 0 41 22" fill="none" xmlns="http://www.w3.org/2000/svg">
<path d="M4.34603 1.74657L4.37131 1.72006L4.39245 1.69015L4.46486 1.58773L4.78362 1.89772L4.0694 2.65956L3.7926 2.95483L4.02372 3.28706L5.14372 4.89707L5.31249 5.13968L5.60641 5.1088L7.82591 4.87562L8.0334 5.3079L8.20241 5.66003L8.58499 5.58127L8.95603 5.50488L8.94558 5.64414L8.90185 6.22725L9.48468 6.17989L14.2847 5.78989L14.4384 5.7774L14.5583 5.68051L15.3584 5.03428L16.1576 5.39686L16.41 5.51141L16.6409 5.35795L19.4499 3.49102L19.837 4.26515L20.0027 4.59669L20.3682 4.53443L21.2954 4.37645L21.4698 4.89965L21.7605 5.77159L22.3346 5.05388L22.3636 5.01765L22.9345 5.97718L23.1726 6.3774L23.5887 6.1683L24.9958 5.46117L25.2244 6.57229L25.3257 7.06439L25.8173 6.96079L28.2373 6.45079L28.432 6.40976L28.5453 6.24614L29.3201 5.12691L30.724 7.00128L31.0746 7.46945L31.4825 7.05022L31.9894 6.52927L33.9257 7.12452L33.8243 7.47109L33.5229 8.5008L34.5052 8.06932L35.2977 7.72122L36.4971 8.68336L36.2395 9.01457L35.7612 9.62954L36.5195 9.80821L38.2595 10.2182L38.6175 10.3026L38.8046 9.9859L38.9369 9.76212L38.9466 9.86068L38.9661 10.0579L39.1153 10.1882L40.1094 11.0561L39.501 11.8859L39.2233 12.2645L39.5837 12.5653L40.1293 13.0209L38.6238 14.1518L38.3458 14.3607L38.4449 14.694L38.584 15.162L36.3376 17.6054L34.5154 18.3999L31.6691 17.267L31.4021 17.1607L31.1759 17.3378L30.1024 18.1784L28.8114 17.7203L28.439 17.5882L28.2244 17.9199L27.6105 18.8687L25.1883 20.7502L25.2833 19.141L25.3113 18.6666L24.839 18.6145L23.9319 18.5146L23.6143 16.9425L23.5526 16.6373L23.2516 16.558L21.769 16.1675L21.7841 14.9478L21.7926 14.2641L21.1386 14.4632L17.4095 15.5986L16.3322 14.3543L16.1835 14.1826L15.9564 14.1815L13.9447 14.1726L12.8539 12.7211L12.435 12.1638L12.0415 12.7393L11.0566 14.1793L10.6937 13.827L11.1778 12.6288L11.3146 12.2901L11.0335 12.0568L9.56349 10.8368L9.32358 10.6377L9.0392 10.7655L4.90623 12.623L3.07025 10.7605L2.92029 10.6084L2.70671 10.6116L0.920295 10.6383L2.49414 7.98675L2.54582 7.89968L2.55956 7.79936L3.22763 2.91955L4.34603 1.74657Z" fill="black" stroke="white"/>
</svg>
